# Created by Open3D 
# object name: BD116_proximal_part_convdec
# number of vertices: 282
# number of triangles: 96
v -0.0215032 0.0736778 0.155399
vn -0.10944 0.69031 0.715189
v -0.000566465 0.0592642 0.172515
vn -0.10944 0.69031 0.715189
v -0.00389455 0.0765202 0.15535
vn -0.10944 0.69031 0.715189
v 0.076778 -0.00837294 0.155316
vn 0.652605 -0.091402 0.752165
v 0.0581417 -1.10209e-16 0.172503
vn 0.652605 -0.091402 0.752165
v 0.0550207 -0.0219381 0.172545
vn 0.652605 -0.091402 0.752165
v 0.115 -0.107673 -4.56196e-17
vn 0.555417 -0.831572 0
v 0.10403 -0.115 0.015
vn 0.555417 -0.831572 0
v 0.10403 -0.115 -2.62822e-17
vn 0.555417 -0.831572 0
v 0.0551806 -0.0548425 0.155416
vn 0.541369 -0.386161 0.74686
v 0.0550207 -0.0219381 0.172545
vn 0.541369 -0.386161 0.74686
v 0.0386751 -0.0449037 0.172519
vn 0.541369 -0.386161 0.74686
v 0.115 -0.107673 0.015
vn 0.964844 0 0.262823
v 0.115 0.10403 0.015
vn 0.964844 0 0.262823
v 0.076778 -0.00837294 0.155316
vn 0.964844 0 0.262823
v -0.115 0.107673 0.015
vn -1 0 0
v -0.115 0.10403 2.47262e-17
vn -1 0 0
v -0.115 -0.10403 0.015
vn -1 0 0
v -0.042686 0.0647523 0.155636
vn -0.274245 0.669203 0.690621
v -0.0351153 0.0502478 0.172697
vn -0.274245 0.669203 0.690621
v -0.0215032 0.0736778 0.155399
vn -0.274245 0.669203 0.690621
v -0.107673 -0.115 0.015
vn -0.474734 -0.730752 0.490539
v -0.0347816 -0.0678768 0.155742
vn -0.474734 -0.730752 0.490539
v -0.0550694 -0.0548767 0.155474
vn -0.474734 -0.730752 0.490539
v 0.115 0.107673 3.43506e-17
vn 4.94907e-15 3.71357e-16 -1
v 0.115 -0.107673 -4.56196e-17
vn 4.94907e-15 3.71357e-16 -1
v 0.10403 0.115 -1.72198e-17
vn 4.94907e-15 3.71357e-16 -1
v -0.107673 -0.115 0.015
vn 0 -1 0
v -0.10403 -0.115 -4.85802e-17
vn 0 -1 0
v 0.10403 -0.115 -2.62822e-17
vn 0 -1 0
v 0.0755339 0.0161791 0.15526
vn 0.838894 0.322809 0.438236
v 0.115 0.10403 0.015
vn 0.838894 0.322809 0.438236
v 0.0684813 0.0338797 0.155722
vn 0.838894 0.322809 0.438236
v 0.115 0.107673 3.43506e-17
vn 1 0 0
v 0.115 0.10403 0.015
vn 1 0 0
v 0.115 -0.107673 -4.56196e-17
vn 1 0 0
v -0.0461893 -0.0404187 0.172665
vn -0.314248 -0.589287 0.744304
v -0.0347816 -0.0678768 0.155742
vn -0.314248 -0.589287 0.744304
v -0.0209652 -0.0540783 0.1725
vn -0.314248 -0.589287 0.744304
v -0.0731145 0.0242086 0.155687
vn -0.676233 0.102401 0.729536
v -0.076566 0.00429383 0.155283
vn -0.676233 0.102401 0.729536
v -0.055462 0.0208939 0.172515
vn -0.676233 0.102401 0.729536
v -0.115 -0.107673 -4.88353e-17
vn 7.12654e-17 7.18823e-17 -1
v 0.10403 0.115 -1.72198e-17
vn 7.12654e-17 7.18823e-17 -1
v -0.10403 -0.115 -4.85802e-17
vn 7.12654e-17 7.18823e-17 -1
v 0.0341394 0.0508836 0.172718
vn 0.416659 0.633763 0.651721
v 0.0551811 0.0548423 0.155416
vn 0.416659 0.633763 0.651721
v 0.0312076 0.0702023 0.155806
vn 0.416659 0.633763 0.651721
v 0.00675144 -0.0609061 0.172715
vn 0.192208 -0.715208 0.671962
v 0.0119923 -0.0755928 0.155584
vn 0.192208 -0.715208 0.671962
v 0.0311339 -0.0702062 0.155842
vn 0.192208 -0.715208 0.671962
v -0.107673 -0.115 0.015
vn -0.34673 -0.82059 0.454324
v -0.0214864 -0.0736883 0.155392
vn -0.34673 -0.82059 0.454324
v -0.0347816 -0.0678768 0.155742
vn -0.34673 -0.82059 0.454324
v -0.0215032 0.0736778 0.155399
vn -0.147812 0.921867 0.358208
v -0.00389455 0.0765202 0.15535
vn -0.147812 0.921867 0.358208
v -0.10403 0.115 0.015
vn -0.147812 0.921867 0.358208
v -0.0214864 -0.0736883 0.155392
vn -0.256765 -0.631475 0.731649
v -0.0209652 -0.0540783 0.1725
vn -0.256765 -0.631475 0.731649
v -0.0347816 -0.0678768 0.155742
vn -0.256765 -0.631475 0.731649
v -0.0461893 -0.0404187 0.172665
vn -0.632109 -0.236688 0.737846
v -0.0588209 -0.00709886 0.172532
vn -0.632109 -0.236688 0.737846
v -0.0755845 -0.0160074 0.155313
vn -0.632109 -0.236688 0.737846
v 0.00675144 -0.0609061 0.172715
vn 0.0343179 -0.753532 0.656515
v -0.00389455 -0.0765202 0.15535
vn 0.0343179 -0.753532 0.656515
v 0.0119923 -0.0755928 0.155584
vn 0.0343179 -0.753532 0.656515
v 0.0551811 0.0548423 0.155416
vn 0.575164 0.375535 0.726747
v 0.0550385 0.021945 0.172528
vn 0.575164 0.375535 0.726747
v 0.0684813 0.0338797 0.155722
vn 0.575164 0.375535 0.726747
v -0.115 -0.107673 -4.88353e-17
vn -1 0 0
v 0.107673 0.115 0.015
vn 0 1 0
v 0.10403 0.115 -1.72198e-17
vn 0 1 0
v -0.10403 0.115 0.015
vn 0 1 0
v -0.115 0.107673 0.015
vn -0.550432 0.824108 0.133682
v -0.10403 0.115 0.015
vn -0.550432 0.824108 0.133682
v -0.107673 0.115 3.09464e-17
vn -0.550432 0.824108 0.133682
v -0.055462 0.0208939 0.172515
vn -2.12114e-05 3.03466e-05 1
v 0.0386751 -0.0449037 0.172519
vn -2.12114e-05 3.03466e-05 1
v -0.000566465 0.0592642 0.172515
vn -2.12114e-05 3.03466e-05 1
v -0.0461893 -0.0404187 0.172665
vn -0.00678018 0.00142093 0.999976
v -0.055462 0.0208939 0.172515
vn -0.00678018 0.00142093 0.999976
v -0.0588209 -0.00709886 0.172532
vn -0.00678018 0.00142093 0.999976
v -0.107673 -0.115 0.015
vn 0 -1 0
v 0.10403 -0.115 -2.62822e-17
vn 0 -1 0
v 0.10403 -0.115 0.015
vn 0 -1 0
v 0.0551806 -0.0548425 0.155416
vn 0.575114 -0.375545 0.726781
v 0.0702107 -0.0311982 0.15574
vn 0.575114 -0.375545 0.726781
v 0.0550207 -0.0219381 0.172545
vn 0.575114 -0.375545 0.726781
v 0.0550385 0.021945 0.172528
vn 0.0107659 0.000383054 0.999942
v 0.0550207 -0.0219381 0.172545
vn 0.0107659 0.000383054 0.999942
v 0.0581417 -1.10209e-16 0.172503
vn 0.0107659 0.000383054 0.999942
v 0.115 -0.107673 -4.56196e-17
vn 9.23517e-18 1.27995e-16 -1
v -0.10403 -0.115 -4.85802e-17
vn 9.23517e-18 1.27995e-16 -1
v 0.10403 0.115 -1.72198e-17
vn 9.23517e-18 1.27995e-16 -1
v 0.0551806 -0.0548425 0.155416
vn 0.386455 -0.585096 0.712962
v 0.0386751 -0.0449037 0.172519
vn 0.386455 -0.585096 0.712962
v 0.0311339 -0.0702062 0.155842
vn 0.386455 -0.585096 0.712962
v 0.10403 -0.115 0.015
vn 0.0511718 -0.952416 0.300474
v 0.0119923 -0.0755928 0.155584
vn 0.0511718 -0.952416 0.300474
v -0.00389455 -0.0765202 0.15535
vn 0.0511718 -0.952416 0.300474
v -0.107673 -0.115 0.015
vn -0.728907 -0.486846 0.481327
v -0.0550694 -0.0548767 0.155474
vn -0.728907 -0.486846 0.481327
v -0.115 -0.10403 0.015
vn -0.728907 -0.486846 0.481327
v 0.0755339 0.0161791 0.15526
vn 0.664068 0.246163 0.705987
v 0.0684813 0.0338797 0.155722
vn 0.664068 0.246163 0.705987
v 0.0550385 0.021945 0.172528
vn 0.664068 0.246163 0.705987
v 0.107673 0.115 0.015
vn 0 0.96441 0.264413
v -0.10403 0.115 0.015
vn 0 0.96441 0.264413
v -0.00389455 0.0765202 0.15535
vn 0 0.96441 0.264413
v -0.115 0.107673 0.015
vn -0.488842 0.731894 0.474726
v -0.042686 0.0647523 0.155636
vn -0.488842 0.731894 0.474726
v -0.10403 0.115 0.015
vn -0.488842 0.731894 0.474726
v -0.107673 -0.115 0.015
vn -0.14735 -0.920701 0.361383
v -0.00389455 -0.0765202 0.15535
vn -0.14735 -0.920701 0.361383
v -0.0214864 -0.0736883 0.155392
vn -0.14735 -0.920701 0.361383
v -0.115 0.107673 0.015
vn -0.964458 0 0.264237
v -0.115 -0.10403 0.015
vn -0.964458 0 0.264237
v -0.076566 0.00429383 0.155283
vn -0.964458 0 0.264237
v 0.0341394 0.0508836 0.172718
vn -0.00900383 -0.0130674 0.999874
v -0.000566465 0.0592642 0.172515
vn -0.00900383 -0.0130674 0.999874
v 0.0550385 0.021945 0.172528
vn -0.00900383 -0.0130674 0.999874
v 0.0551811 0.0548423 0.155416
vn 0.73735 0.474842 0.480457
v 0.0684813 0.0338797 0.155722
vn 0.73735 0.474842 0.480457
v 0.115 0.10403 0.015
vn 0.73735 0.474842 0.480457
v 0.00675144 -0.0609061 0.172715
vn 0.298198 -0.585653 0.753716
v 0.0311339 -0.0702062 0.155842
vn 0.298198 -0.585653 0.753716
v 0.0386751 -0.0449037 0.172519
vn 0.298198 -0.585653 0.753716
v -0.107673 0.115 3.09464e-17
vn 0 1 0
v 0.00675144 -0.0609061 0.172715
vn -0.164897 -0.645908 0.745394
v -0.0209652 -0.0540783 0.1725
vn -0.164897 -0.645908 0.745394
v -0.0214864 -0.0736883 0.155392
vn -0.164897 -0.645908 0.745394
v -0.107673 -0.115 0.015
vn 0 -0.96441 0.264413
v 0.10403 -0.115 0.015
vn 0 -0.96441 0.264413
v -0.00389455 -0.0765202 0.15535
vn 0 -0.96441 0.264413
v 0.0311339 -0.0702062 0.155842
vn 0.24251 -0.88121 0.40578
v 0.0119923 -0.0755928 0.155584
vn 0.24251 -0.88121 0.40578
v 0.10403 -0.115 0.015
vn 0.24251 -0.88121 0.40578
v 0.115 -0.107673 0.015
vn 0.877535 -0.244826 0.412301
v 0.076778 -0.00837294 0.155316
vn 0.877535 -0.244826 0.412301
v 0.0702107 -0.0311982 0.15574
vn 0.877535 -0.244826 0.412301
v 0.0550385 0.021945 0.172528
vn -0.00213637 0.000388309 0.999998
v 0.0386751 -0.0449037 0.172519
vn -0.00213637 0.000388309 0.999998
v 0.0550207 -0.0219381 0.172545
vn -0.00213637 0.000388309 0.999998
v 0.0702107 -0.0311982 0.15574
vn 0.677605 -0.181723 0.712621
v 0.076778 -0.00837294 0.155316
vn 0.677605 -0.181723 0.712621
v 0.0550207 -0.0219381 0.172545
vn 0.677605 -0.181723 0.712621
v 0.00675144 -0.0609061 0.172715
vn -0.0196624 -0.0483719 0.998636
v -0.0461893 -0.0404187 0.172665
vn -0.0196624 -0.0483719 0.998636
v -0.0209652 -0.0540783 0.1725
vn -0.0196624 -0.0483719 0.998636
v 0.115 -0.107673 -4.56196e-17
vn 1.07171e-16 -2.79965e-15 -1
v 0.10403 -0.115 -2.62822e-17
vn 1.07171e-16 -2.79965e-15 -1
v -0.10403 -0.115 -4.85802e-17
vn 1.07171e-16 -2.79965e-15 -1
v 0.115 -0.107673 0.015
vn 0.732668 -0.472452 0.489885
v 0.0702107 -0.0311982 0.15574
vn 0.732668 -0.472452 0.489885
v 0.0551806 -0.0548425 0.155416
vn 0.732668 -0.472452 0.489885
v 0.107673 0.115 0.015
vn 0.0511323 0.952041 0.301668
v -0.00389455 0.0765202 0.15535
vn 0.0511323 0.952041 0.301668
v 0.0119923 0.0755928 0.155584
vn 0.0511323 0.952041 0.301668
v -0.000566465 0.0592642 0.172515
vn 0.0309299 0.70789 0.705645
v 0.0119923 0.0755928 0.155584
vn 0.0309299 0.70789 0.705645
v -0.00389455 0.0765202 0.15535
vn 0.0309299 0.70789 0.705645
v 0.0341394 0.0508836 0.172718
vn 0.177687 0.663331 0.726925
v 0.0312076 0.0702023 0.155806
vn 0.177687 0.663331 0.726925
v 0.0119923 0.0755928 0.155584
vn 0.177687 0.663331 0.726925
v 0.115 -0.107673 0.015
vn 1 0 0
v 0.115 -0.107673 -4.56196e-17
vn 1 0 0
v 0.115 0.10403 0.015
vn 1 0 0
v 0.0341394 0.0508836 0.172718
vn 0.153126 0.652114 0.742495
v 0.0119923 0.0755928 0.155584
vn 0.153126 0.652114 0.742495
v -0.000566465 0.0592642 0.172515
vn 0.153126 0.652114 0.742495
v -0.055462 0.0208939 0.172515
vn -0.66767 0.0805645 0.740085
v -0.076566 0.00429383 0.155283
vn -0.66767 0.0805645 0.740085
v -0.0588209 -0.00709886 0.172532
vn -0.66767 0.0805645 0.740085
v -0.0731145 0.0242086 0.155687
vn -0.61834 0.329442 0.713528
v -0.055462 0.0208939 0.172515
vn -0.61834 0.329442 0.713528
v -0.0620309 0.0455359 0.155445
vn -0.61834 0.329442 0.713528
v -0.0461893 -0.0404187 0.172665
vn -0.631044 -0.234193 0.739552
v -0.0755845 -0.0160074 0.155313
vn -0.631044 -0.234193 0.739552
v -0.0684626 -0.0339156 0.155719
vn -0.631044 -0.234193 0.739552
v -0.107673 -0.115 0.015
vn -0.824108 -0.550432 0.133682
v -0.115 -0.10403 0.015
vn -0.824108 -0.550432 0.133682
v -0.115 -0.107673 -4.88353e-17
vn -0.824108 -0.550432 0.133682
v 0.00675144 -0.0609061 0.172715
vn -0.111646 -0.703951 0.701419
v -0.0214864 -0.0736883 0.155392
vn -0.111646 -0.703951 0.701419
v -0.00389455 -0.0765202 0.15535
vn -0.111646 -0.703951 0.701419
v -0.042686 0.0647523 0.155636
vn -0.52353 0.520325 0.67467
v -0.0620309 0.0455359 0.155445
vn -0.52353 0.520325 0.67467
v -0.0351153 0.0502478 0.172697
vn -0.52353 0.520325 0.67467
v -0.0461893 -0.0404187 0.172665
vn -0.625336 -0.407341 0.665604
v -0.0684626 -0.0339156 0.155719
vn -0.625336 -0.407341 0.665604
v -0.0550694 -0.0548767 0.155474
vn -0.625336 -0.407341 0.665604
v 0.00675144 -0.0609061 0.172715
vn 0.00214181 0.00797468 0.999966
v 0.0386751 -0.0449037 0.172519
vn 0.00214181 0.00797468 0.999966
v -0.0461893 -0.0404187 0.172665
vn 0.00214181 0.00797468 0.999966
v -0.0351153 0.0502478 0.172697
vn -0.164656 0.645971 0.745392
v -0.000566465 0.0592642 0.172515
vn -0.164656 0.645971 0.745392
v -0.0215032 0.0736778 0.155399
vn -0.164656 0.645971 0.745392
v 0.107673 0.115 0.015
vn 0.241834 0.878983 0.41098
v 0.0119923 0.0755928 0.155584
vn 0.241834 0.878983 0.41098
v 0.0312076 0.0702023 0.155806
vn 0.241834 0.878983 0.41098
v 0.107673 0.115 0.015
vn 0.550432 0.824108 -0.133682
v 0.115 0.107673 3.43506e-17
vn 0.550432 0.824108 -0.133682
v 0.10403 0.115 -1.72198e-17
vn 0.550432 0.824108 -0.133682
v -0.115 0.107673 0.015
vn -0.824108 0.550432 -0.133682
v -0.107673 0.115 3.09464e-17
vn -0.824108 0.550432 -0.133682
v -0.115 0.10403 2.47262e-17
vn -0.824108 0.550432 -0.133682
v -0.042686 0.0647523 0.155636
vn -0.343445 0.826918 0.445256
v -0.0215032 0.0736778 0.155399
vn -0.343445 0.826918 0.445256
v -0.10403 0.115 0.015
vn -0.343445 0.826918 0.445256
v -0.0755845 -0.0160074 0.155313
vn -0.838488 -0.323516 0.438492
v -0.115 -0.10403 0.015
vn -0.838488 -0.323516 0.438492
v -0.0684626 -0.0339156 0.155719
vn -0.838488 -0.323516 0.438492
v -0.115 0.107673 0.015
vn -0.919034 0.151902 0.363734
v -0.076566 0.00429383 0.155283
vn -0.919034 0.151902 0.363734
v -0.0731145 0.0242086 0.155687
vn -0.919034 0.151902 0.363734
v -0.107673 0.115 3.09464e-17
vn -2.27518e-16 7.18981e-16 -1
v 0.10403 0.115 -1.72198e-17
vn -2.27518e-16 7.18981e-16 -1
v -0.115 0.10403 2.47262e-17
vn -2.27518e-16 7.18981e-16 -1
v 0.115 -0.107673 0.015
vn 0.555417 -0.831572 0
v 0.107673 0.115 0.015
vn 0.824108 0.550432 0.133682
v 0.115 0.10403 0.015
vn 0.824108 0.550432 0.133682
v 0.115 0.107673 3.43506e-17
vn 0.824108 0.550432 0.133682
v 0.0551806 -0.0548425 0.155416
vn 0.478028 -0.73485 0.481128
v 0.0311339 -0.0702062 0.155842
vn 0.478028 -0.73485 0.481128
v 0.10403 -0.115 0.015
vn 0.478028 -0.73485 0.481128
v -0.0351153 0.0502478 0.172697
vn -0.54601 0.373819 0.749755
v -0.0620309 0.0455359 0.155445
vn -0.54601 0.373819 0.749755
v -0.055462 0.0208939 0.172515
vn -0.54601 0.373819 0.749755
v -0.0550694 -0.0548767 0.155474
vn -0.736345 -0.47611 0.480744
v -0.0684626 -0.0339156 0.155719
vn -0.736345 -0.47611 0.480744
v -0.115 -0.10403 0.015
vn -0.736345 -0.47611 0.480744
v 0.115 -0.107673 0.015
vn 0.48677 -0.728794 0.481575
v 0.0551806 -0.0548425 0.155416
vn 0.48677 -0.728794 0.481575
v 0.10403 -0.115 0.015
vn 0.48677 -0.728794 0.481575
v 0.0550385 0.021945 0.172528
vn -0.000278318 -6.65094e-05 1
v -0.000566465 0.0592642 0.172515
vn -0.000278318 -6.65094e-05 1
v 0.0386751 -0.0449037 0.172519
vn -0.000278318 -6.65094e-05 1
v 0.107673 0.115 0.015
vn 0.728999 0.486907 0.481126
v 0.0551811 0.0548423 0.155416
vn 0.728999 0.486907 0.481126
v 0.115 0.10403 0.015
vn 0.728999 0.486907 0.481126
v -0.0351153 0.0502478 0.172697
vn 0.00840528 -0.0120253 0.999892
v -0.055462 0.0208939 0.172515
vn 0.00840528 -0.0120253 0.999892
v -0.000566465 0.0592642 0.172515
vn 0.00840528 -0.0120253 0.999892
v -0.115 0.107673 0.015
vn -0.612247 0.611358 0.501393
v -0.0620309 0.0455359 0.155445
vn -0.612247 0.611358 0.501393
v -0.042686 0.0647523 0.155636
vn -0.612247 0.611358 0.501393
v 0.0755339 0.0161791 0.15526
vn 0.656603 0.0919961 0.748605
v 0.0550385 0.021945 0.172528
vn 0.656603 0.0919961 0.748605
v 0.0581417 -1.10209e-16 0.172503
vn 0.656603 0.0919961 0.748605
v -0.0461893 -0.0404187 0.172665
vn -0.390629 -0.595133 0.702301
v -0.0550694 -0.0548767 0.155474
vn -0.390629 -0.595133 0.702301
v -0.0347816 -0.0678768 0.155742
vn -0.390629 -0.595133 0.702301
v -0.115 -0.107673 -4.88353e-17
vn -2.08911e-16 3.47475e-16 -1
v -0.115 0.10403 2.47262e-17
vn -2.08911e-16 3.47475e-16 -1
v 0.10403 0.115 -1.72198e-17
vn -2.08911e-16 3.47475e-16 -1
v -0.107673 -0.115 0.015
vn -0.550432 -0.824108 -0.133682
v -0.115 -0.107673 -4.88353e-17
vn -0.550432 -0.824108 -0.133682
v -0.10403 -0.115 -4.85802e-17
vn -0.550432 -0.824108 -0.133682
v -0.0755845 -0.0160074 0.155313
vn -0.707495 -0.0331621 0.70594
v -0.0588209 -0.00709886 0.172532
vn -0.707495 -0.0331621 0.70594
v -0.076566 0.00429383 0.155283
vn -0.707495 -0.0331621 0.70594
v 0.076778 -0.00837294 0.155316
vn 0.953045 0.0489745 0.298841
v 0.115 0.10403 0.015
vn 0.953045 0.0489745 0.298841
v 0.0755339 0.0161791 0.15526
vn 0.953045 0.0489745 0.298841
v 0.107673 0.115 0.015
vn 0.475731 0.730052 0.490616
v 0.0312076 0.0702023 0.155806
vn 0.475731 0.730052 0.490616
v 0.0551811 0.0548423 0.155416
vn 0.475731 0.730052 0.490616
v -0.115 0.107673 0.015
vn -0.778594 0.410019 0.475053
v -0.0731145 0.0242086 0.155687
vn -0.778594 0.410019 0.475053
v -0.0620309 0.0455359 0.155445
vn -0.778594 0.410019 0.475053
v 0.076778 -0.00837294 0.155316
vn 0.686291 0.0364327 0.726414
v 0.0755339 0.0161791 0.15526
vn 0.686291 0.0364327 0.726414
v 0.0581417 -1.10209e-16 0.172503
vn 0.686291 0.0364327 0.726414
v 0.0341394 0.0508836 0.172718
vn 0.541447 0.386123 0.746822
v 0.0550385 0.021945 0.172528
vn 0.541447 0.386123 0.746822
v 0.0551811 0.0548423 0.155416
vn 0.541447 0.386123 0.746822
v -0.0461893 -0.0404187 0.172665
vn 0.00186459 0.00272838 0.999995
v 0.0386751 -0.0449037 0.172519
vn 0.00186459 0.00272838 0.999995
v -0.055462 0.0208939 0.172515
vn 0.00186459 0.00272838 0.999995
v -0.0755845 -0.0160074 0.155313
vn -0.953903 -0.04568 0.296619
v -0.076566 0.00429383 0.155283
vn -0.953903 -0.04568 0.296619
v -0.115 -0.10403 0.015
vn -0.953903 -0.04568 0.296619
f 1//1 2//2 3//3
f 4//4 5//5 6//6
f 7//7 8//8 9//9
f 10//10 11//11 12//12
f 13//13 14//14 15//15
f 16//16 17//17 18//18
f 19//19 20//20 21//21
f 22//22 23//23 24//24
f 25//25 26//26 27//27
f 28//28 29//29 30//30
f 31//31 32//32 33//33
f 34//34 35//35 36//36
f 37//37 38//38 39//39
f 40//40 41//41 42//42
f 43//43 44//44 45//45
f 46//46 47//47 48//48
f 49//49 50//50 51//51
f 52//52 53//53 54//54
f 55//55 56//56 57//57
f 58//58 59//59 60//60
f 61//61 62//62 63//63
f 64//64 65//65 66//66
f 67//67 68//68 69//69
f 70//70 18//18 17//17
f 71//71 72//72 73//73
f 74//74 75//75 76//76
f 77//77 78//78 79//79
f 80//80 81//81 82//82
f 83//83 84//84 85//85
f 86//86 87//87 88//88
f 89//89 90//90 91//91
f 92//92 93//93 94//94
f 95//95 96//96 97//97
f 98//98 99//99 100//100
f 101//101 102//102 103//103
f 104//104 105//105 106//106
f 107//107 108//108 109//109
f 110//110 111//111 112//112
f 113//113 114//114 115//115
f 116//116 117//117 118//118
f 119//119 120//120 121//121
f 122//122 123//123 124//124
f 125//125 126//126 127//127
f 128//128 73//73 72//72
f 129//129 130//130 131//131
f 132//132 133//133 134//134
f 135//135 136//136 137//137
f 138//138 139//139 140//140
f 141//141 142//142 143//143
f 144//144 145//145 146//146
f 147//147 148//148 149//149
f 150//150 151//151 152//152
f 153//153 154//154 155//155
f 156//156 157//157 158//158
f 159//159 160//160 161//161
f 162//162 163//163 164//164
f 165//165 166//166 167//167
f 168//168 169//169 170//170
f 171//171 172//172 173//173
f 174//174 175//175 176//176
f 177//177 178//178 179//179
f 180//180 181//181 182//182
f 183//183 184//184 185//185
f 186//186 187//187 188//188
f 189//189 190//190 191//191
f 192//192 193//193 194//194
f 195//195 196//196 197//197
f 198//198 199//199 200//200
f 201//201 202//202 203//203
f 204//204 205//205 206//206
f 207//207 208//208 209//209
f 210//210 211//211 212//212
f 213//213 214//214 215//215
f 216//216 217//217 218//218
f 219//219 8//8 7//7
f 220//220 221//221 222//222
f 223//223 224//224 225//225
f 226//226 227//227 228//228
f 229//229 230//230 231//231
f 232//232 233//233 234//234
f 235//235 236//236 237//237
f 238//238 239//239 240//240
f 241//241 242//242 243//243
f 244//244 245//245 246//246
f 247//247 248//248 249//249
f 250//250 251//251 252//252
f 253//253 254//254 255//255
f 256//256 257//257 258//258
f 259//259 260//260 261//261
f 262//262 263//263 264//264
f 265//265 266//266 267//267
f 268//268 269//269 270//270
f 271//271 272//272 273//273
f 274//274 275//275 276//276
f 277//277 278//278 279//279
f 280//280 281//281 282//282
