# Created by Open3D 
# object name: BD116_distal_part_convdec
# number of vertices: 454
# number of triangles: 172
v -0.000421524 -0.0586072 -0.0102726
vn -0.119756 -0.688031 0.715732
v -0.0141201 -0.0455367 2.68221e-10
vn -0.119756 -0.688031 0.715732
v -0.0193515 -0.0553142 -0.0102744
vn -0.119756 -0.688031 0.715732
v -0.0536969 0.0234737 -0.0102743
vn -0.959955 0.242035 0.141086
v -0.0568224 0.0142984 -0.0158
vn -0.959955 0.242035 0.141086
v -0.0584034 0.00480284 -0.0102674
vn -0.959955 0.242035 0.141086
v -0.0584034 0.00480284 -0.0102674
vn -0.996582 -0.0826085 0.000421028
v -0.0568224 -0.0142984 -0.0158
vn -0.996582 -0.0826085 0.000421028
v -0.0568148 -0.0143619 -0.0102708
vn -0.996582 -0.0826085 0.000421028
v 3.27106e-05 0.0555005 -0.021092
vn 0.0100731 0.0602243 -0.998134
v 0.0180581 0.0524806 -0.0210923
vn 0.0100731 0.0602243 -0.998134
v 0.0165513 0.00844296 -0.0237646
vn 0.0100731 0.0602243 -0.998134
v 0.0185161 0.0556065 -0.0102744
vn 0.465982 0.884792 -0.00216892
v 0.0353581 0.046723 -0.0158
vn 0.465982 0.884792 -0.00216892
v 0.0183831 0.0556353 -0.0158
vn 0.464841 0.88537 -0.00657382
v 0.042693 -0.0401585 -0.0102824
vn 0.71812 -0.680688 -0.144803
v 0.0353581 -0.046723 -0.0158
vn 0.71812 -0.680688 -0.144803
v 0.0485472 -0.0328086 -0.0158
vn 0.71812 -0.680688 -0.144803
v -0.0340742 0.0438093 -0.021092
vn -0.0315968 0.0584202 -0.997792
v -0.0179962 0.0525017 -0.0210922
vn -0.0315968 0.0584202 -0.997792
v -0.00804215 0.0157877 -0.023557
vn -0.0315968 0.0584202 -0.997792
v -0.0340741 -0.0438092 -0.0210922
vn -0.414376 -0.75997 -0.500738
v -0.0194431 -0.0552738 -0.0158
vn -0.414376 -0.75997 -0.500738
v -0.0362445 -0.0460388 -0.0158
vn -0.419064 -0.762411 -0.493066
v 3.27039e-05 -0.0555004 -0.0210923
vn 0.138127 -0.854517 -0.500722
v 0.0180581 -0.0524807 -0.0210921
vn 0.141804 -0.846434 -0.513264
v 0.0183831 -0.0556353 -0.0158
vn 0.138127 -0.854517 -0.500722
v 0.0464927 -0.0303111 -0.0210922
vn 0.789908 -0.354045 -0.500697
v 0.0538139 -0.0135736 -0.0210923
vn 0.782625 -0.342334 -0.519909
v 0.0565388 -0.0153816 -0.0158
vn 0.789908 -0.354045 -0.500697
v 0.042693 -0.0401585 -0.0102824
vn 0.600656 -0.787444 0.138361
v 0.031283 -0.048862 -0.0102826
vn 0.600656 -0.787444 0.138361
v 0.0353581 -0.046723 -0.0158
vn 0.600656 -0.787444 0.138361
v 0.0566181 -0.0151613 -0.0102793
vn 0.608446 -0.225489 0.760886
v 0.0464035 -0.00803746 2.68221e-10
vn 0.608446 -0.225489 0.760886
v 0.0412018 -0.0220734 2.68221e-10
vn 0.608446 -0.225489 0.760886
v 0.0185161 0.0556065 -0.0102744
vn 0.106207 0.671396 0.733449
v -0.000457935 0.0586024 -0.0102693
vn 0.106207 0.671396 0.733449
v 0.0122526 0.0453733 2.68221e-10
vn 0.106207 0.671396 0.733449
v 0.042693 -0.0401585 -0.0102824
vn 0.822691 -0.551388 0.138385
v 0.0485472 -0.0328086 -0.0158
vn 0.822691 -0.551388 0.138385
v 0.0506862 -0.0282323 -0.0102822
vn 0.822691 -0.551388 0.138385
v -0.0141201 -0.0455367 2.68221e-10
vn -0.0122827 -0.168241 0.985669
v 0.00494665 -0.0469287 2.68221e-10
vn -0.0122827 -0.168241 0.985669
v 0.00958203 -0.0231441 0.00411748
vn -0.0122827 -0.168241 0.985669
v -0.0269509 -3.25733e-06 0.00416881
vn -0.128795 0.0988061 0.986737
v -0.0120148 0.0208117 0.00403408
vn -0.128795 0.0988061 0.986737
v -0.0400822 0.0245121 2.68221e-10
vn -0.128795 0.0988061 0.986737
v -0.049132 -0.0319427 -0.0102738
vn -0.738333 -0.674434 -0.00151638
v -0.0491654 -0.0318746 -0.0158
vn -0.738782 -0.673934 -0.00383948
v -0.0362445 -0.0460388 -0.0158
vn -0.738333 -0.674434 -0.00151638
v 0.0355262 0.0466203 -0.0102815
vn 0.501007 0.471363 0.725816
v 0.0286715 0.0380744 2.68221e-10
vn 0.501007 0.471363 0.725816
v 0.0486985 0.0326233 -0.0102839
vn 0.501007 0.471363 0.725816
v -0.0536969 0.0234737 -0.0102743
vn -0.596623 0.237397 0.766605
v -0.0461992 0.00913896 2.68221e-10
vn -0.596623 0.237397 0.766605
v -0.0400822 0.0245121 2.68221e-10
vn -0.596623 0.237397 0.766605
v -0.0538008 0.0136294 -0.0210921
vn -0.793108 0.346742 -0.500749
v -0.0568224 0.0142984 -0.0158
vn -0.795127 0.346394 -0.497779
v -0.0491654 0.0318746 -0.0158
vn -0.793108 0.346742 -0.500749
v -0.0464565 0.0303657 -0.0210922
vn -0.638122 0.584857 -0.500742
v -0.0362445 0.0460388 -0.0158
vn -0.638122 0.584857 -0.500742
v -0.0340742 0.0438093 -0.021092
vn -0.634309 0.584241 -0.506275
v -0.0361866 0.0460924 -0.0102741
vn -0.48111 0.87666 -0.00117535
v -0.0193724 0.0553056 -0.0102709
vn -0.480532 0.876976 0.00110086
v -0.0194431 0.0552738 -0.0158
vn -0.48111 0.87666 -0.00117535
v -0.000457935 0.0586024 -0.0102693
vn 0.15507 0.987902 -0.0017225
v 0.0183831 0.0556353 -0.0158
vn 0.15507 0.987902 -0.0017225
v -0.000559862 0.0585912 -0.0158
vn 0.154174 0.988032 -0.0048425
v -0.0538008 -0.0136293 -0.0210921
vn -0.0674324 -0.0296019 -0.997285
v -0.0165526 -0.00844356 -0.0237646
vn -0.0674324 -0.0296019 -0.997285
v -0.0464567 -0.0303657 -0.0210919
vn -0.0674324 -0.0296019 -0.997285
v 0.0538139 -0.0135736 -0.0210923
vn 0.872908 -0.0887174 -0.479751
v 0.0581021 2.56549e-17 -0.0158
vn 0.872908 -0.0887174 -0.479751
v 0.0565388 -0.0153816 -0.0158
vn 0.872908 -0.0887174 -0.479751
v -0.0193515 -0.0553142 -0.0102744
vn -0.172205 -0.98506 -0.00144409
v -0.0194431 -0.0552738 -0.0158
vn -0.173028 -0.984907 -0.00433282
v -0.000559862 -0.0585912 -0.0158
vn -0.172205 -0.98506 -0.00144409
v 0.0341258 -0.0437692 -0.0210923
vn 0.632715 -0.590725 -0.500716
v 0.0464927 -0.0303111 -0.0210922
vn 0.629958 -0.578876 -0.517741
v 0.0485472 -0.0328086 -0.0158
vn 0.632715 -0.590725 -0.500716
v -0.0361664 -0.0461176 -0.0102811
vn -0.737881 -0.674931 0.000805191
v 0.0464926 0.030311 -0.0210923
vn 0.0674545 0.0295121 -0.997286
v 0.0538139 0.0135736 -0.0210924
vn 0.0674545 0.0295121 -0.997286
v 0.0165513 0.00844296 -0.0237646
vn 0.0674545 0.0295121 -0.997286
v -0.0141201 -0.0455367 2.68221e-10
vn -0.0210287 -0.159231 0.987017
v 0.00958203 -0.0231441 0.00411748
vn -0.0210287 -0.159231 0.987017
v -0.0120535 -0.0208796 0.00402185
vn -0.0210287 -0.159231 0.987017
v 0.0180581 0.0524806 -0.0210923
vn 0.407364 0.763764 -0.500718
v 0.0353581 0.046723 -0.0158
vn 0.407364 0.763764 -0.500718
v 0.0341259 0.0437692 -0.0210921
vn 0.408407 0.753277 -0.515536
v -0.0464567 -0.0303657 -0.0210919
vn -0.63812 -0.584856 -0.500745
v -0.0340741 -0.0438092 -0.0210922
vn -0.634308 -0.58424 -0.506277
v -0.0362445 -0.0460388 -0.0158
vn -0.63812 -0.584856 -0.500745
v -0.049132 -0.0319427 -0.0102738
vn -0.916325 -0.400434 0.000603901
v -0.0568148 -0.0143619 -0.0102708
vn -0.916552 -0.399913 -0.00136122
v -0.0491654 -0.0318746 -0.0158
vn -0.916552 -0.399913 -0.00136122
v -0.0538008 0.0136294 -0.0210921
vn -0.0568343 0.0249343 -0.998072
v -0.0464565 0.0303657 -0.0210922
vn -0.0568343 0.0249343 -0.998072
v -0.0165526 -0.00844356 -0.0237646
vn -0.0568343 0.0249343 -0.998072
v -0.0179962 -0.0525019 -0.021092
vn -0.145993 -0.853205 -0.500726
v 3.27039e-05 -0.0555004 -0.0210923
vn -0.141034 -0.847932 -0.510999
v -0.000559862 -0.0585912 -0.0158
vn -0.145993 -0.853205 -0.500726
v -0.0491654 0.0318746 -0.0158
vn -0.738785 0.673937 -0.00236257
v -0.0458697 0.0355068 -0.0102736
vn -0.738785 0.673937 -0.00236257
v -0.0362445 0.0460388 -0.0158
vn -0.738785 0.673937 -0.00236257
v -0.0536969 0.0234737 -0.0102743
vn -0.576479 0.374941 0.72601
v -0.0400822 0.0245121 2.68221e-10
vn -0.576479 0.374941 0.72601
v -0.0458697 0.0355068 -0.0102736
vn -0.576479 0.374941 0.72601
v -0.0340742 0.0438093 -0.021092
vn -0.414374 0.759969 -0.50074
v -0.0194431 0.0552738 -0.0158
vn -0.414374 0.759969 -0.50074
v -0.0179962 0.0525017 -0.0210922
vn -0.409467 0.757363 -0.508663
v -0.0536969 0.0234737 -0.0102743
vn -0.668976 0.168901 0.723839
v -0.0584034 0.00480284 -0.0102674
vn -0.668976 0.168901 0.723839
v -0.0461992 0.00913896 2.68221e-10
vn -0.668976 0.168901 0.723839
v -0.0361866 0.0460924 -0.0102741
vn -0.73786 0.674953 0.00118472
v -0.0362445 0.0460388 -0.0158
vn -0.73786 0.674953 0.00118472
v -0.0458697 0.0355068 -0.0102736
vn -0.73786 0.674953 0.00118472
v -0.0208442 0.0422304 2.68221e-10
vn -0.0469059 0.166179 0.984979
v -0.0120148 0.0208117 0.00403408
vn -0.0469059 0.166179 0.984979
v -0.00431273 0.0468966 2.68221e-10
vn -0.0469059 0.166179 0.984979
v -0.0208442 0.0422304 2.68221e-10
vn -0.105926 0.141707 0.984225
v -0.0325145 0.0335068 2.68221e-10
vn -0.105926 0.141707 0.984225
v -0.0120148 0.0208117 0.00403408
vn -0.105926 0.141707 0.984225
v -0.0400822 0.0245121 2.68221e-10
vn -0.50962 0.428769 0.745952
v -0.0325145 0.0335068 2.68221e-10
vn -0.50962 0.428769 0.745952
v -0.0458697 0.0355068 -0.0102736
vn -0.50962 0.428769 0.745952
v 0.0135544 0.0234361 0.00415257
vn 0.0171912 0.186948 0.982219
v 0.0122526 0.0453733 2.68221e-10
vn 0.0171912 0.186948 0.982219
v -0.00431273 0.0468966 2.68221e-10
vn 0.0171912 0.186948 0.982219
v -0.0361866 0.0460924 -0.0102741
vn -0.331933 0.60553 0.723294
v -0.0208442 0.0422304 2.68221e-10
vn -0.331933 0.60553 0.723294
v -0.0193724 0.0553056 -0.0102709
vn -0.331933 0.60553 0.723294
v -0.000457935 0.0586024 -0.0102693
vn -0.117983 0.676542 0.726891
v -0.0193724 0.0553056 -0.0102709
vn -0.117983 0.676542 0.726891
v -0.00431273 0.0468966 2.68221e-10
vn -0.117983 0.676542 0.726891
v -0.0269509 -3.25733e-06 0.00416881
vn -0.178753 0.071126 0.98132
v -0.0400822 0.0245121 2.68221e-10
vn -0.178753 0.071126 0.98132
v -0.0461992 0.00913896 2.68221e-10
vn -0.178753 0.071126 0.98132
v -0.0568224 -0.0142984 -0.0158
vn -0.916775 -0.399389 -0.00332675
v 0.0566212 0.0151512 -0.0102845
vn 0.99504 0.0993168 -0.00565943
v 0.0581017 3.76265e-05 -0.0102817
vn 0.995236 0.0974914 -0.000592183
v 0.0581021 2.56549e-17 -0.0158
vn 0.99504 0.0993168 -0.00565943
v -0.0193724 0.0553056 -0.0102709
vn -0.17237 0.985032 -0.0011394
v -0.000559862 0.0585912 -0.0158
vn -0.17237 0.985032 -0.0011394
v -0.0194431 0.0552738 -0.0158
vn -0.173029 0.984911 -0.00345193
v 0.0180581 0.0524806 -0.0210923
vn 0.0322388 0.0594402 -0.997711
v 0.0341259 0.0437692 -0.0210921
vn 0.0322388 0.0594402 -0.997711
v 0.0165513 0.00844296 -0.0237646
vn 0.0322388 0.0594402 -0.997711
v -0.0165526 -0.00844356 -0.0237646
vn 0.00544805 -0.0106802 -0.999928
v 0.0165513 0.00844296 -0.0237646
vn 0.00544805 -0.0106802 -0.999928
v 0.00810124 -0.015903 -0.0235506
vn 0.00544805 -0.0106802 -0.999928
v 0.0185409 -0.055598 -0.0102775
vn 0.464839 -0.885365 -0.00730214
v 0.0183831 -0.0556353 -0.0158
vn 0.464839 -0.885365 -0.00730214
v 0.0353581 -0.046723 -0.0158
vn 0.464839 -0.885365 -0.00730214
v 0.0341258 -0.0437692 -0.0210923
vn 0.0475173 -0.0436572 -0.997916
v 0.00810124 -0.015903 -0.0235506
vn 0.0475173 -0.0436572 -0.997916
v 0.0464927 -0.0303111 -0.0210922
vn 0.0475173 -0.0436572 -0.997916
v 0.0135544 0.0234361 0.00415257
vn 0.0845367 0.190166 0.978106
v 0.0286715 0.0380744 2.68221e-10
vn 0.0845367 0.190166 0.978106
v 0.0122526 0.0453733 2.68221e-10
vn 0.0845367 0.190166 0.978106
v -0.0165526 -0.00844356 -0.0237646
vn -0.0053238 0.0104366 -0.999931
v -0.00804215 0.0157877 -0.023557
vn -0.0053238 0.0104366 -0.999931
v 0.0165513 0.00844296 -0.0237646
vn -0.0053238 0.0104366 -0.999931
v -0.0269509 -3.25733e-06 0.00416881
vn -0.210536 0.00250422 0.977583
v -0.0461992 0.00913896 2.68221e-10
vn -0.210536 0.00250422 0.977583
v -0.0464568 -0.0125181 2.68221e-10
vn -0.210536 0.00250422 0.977583
v -0.0400822 0.0245121 2.68221e-10
vn -0.127567 0.107328 0.986006
v -0.0120148 0.0208117 0.00403408
vn -0.127567 0.107328 0.986006
v -0.0325145 0.0335068 2.68221e-10
vn -0.127567 0.107328 0.986006
v 0.0566181 -0.0151613 -0.0102793
vn 0.684271 -0.0666785 0.726173
v 0.0581017 3.76265e-05 -0.0102817
vn 0.684271 -0.0666785 0.726173
v 0.0464035 -0.00803746 2.68221e-10
vn 0.684271 -0.0666785 0.726173
v 0.042693 -0.0401585 -0.0102824
vn 0.406172 -0.532496 0.742612
v 0.0218431 -0.0417225 2.68221e-10
vn 0.406172 -0.532496 0.742612
v 0.031283 -0.048862 -0.0102826
vn 0.406172 -0.532496 0.742612
v -0.000421524 -0.0586072 -0.0102726
vn -0.0472638 -0.647391 0.760691
v 0.00494665 -0.0469287 2.68221e-10
vn -0.0472638 -0.647391 0.760691
v -0.0141201 -0.0455367 2.68221e-10
vn -0.0472638 -0.647391 0.760691
v -0.0538008 -0.0136293 -0.0210921
vn -0.793107 -0.346741 -0.500751
v -0.0491654 -0.0318746 -0.0158
vn -0.793107 -0.346741 -0.500751
v -0.0568224 -0.0142984 -0.0158
vn -0.795125 -0.346393 -0.497784
v -0.0568224 -0.0142984 -0.0158
vn -0.862566 -0.0712639 -0.5009
v -0.058 -6.57203e-17 -0.0158
vn -0.862842 -0.0710625 -0.500454
v -0.0549306 -2.52068e-17 -0.021092
vn -0.862566 -0.0712639 -0.5009
v -0.0491654 0.0318746 -0.0158
vn -0.641755 0.585424 -0.495408
v -0.0334811 -0.0342482 2.68221e-10
vn -0.528891 -0.484129 0.697061
v -0.049132 -0.0319427 -0.0102738
vn -0.528891 -0.484129 0.697061
v -0.0361664 -0.0461176 -0.0102811
vn -0.528891 -0.484129 0.697061
v 0.0180581 -0.0524807 -0.0210921
vn 0.407363 -0.763766 -0.500716
v 0.0341258 -0.0437692 -0.0210923
vn 0.408405 -0.753284 -0.515528
v 0.0353581 -0.046723 -0.0158
vn 0.407363 -0.763766 -0.500716
v -0.0334811 -0.0342482 2.68221e-10
vn -0.333986 -0.572823 0.74855
v -0.0361664 -0.0461176 -0.0102811
vn -0.333986 -0.572823 0.74855
v -0.0141201 -0.0455367 2.68221e-10
vn -0.333986 -0.572823 0.74855
v -0.0568224 0.0142984 -0.0158
vn -0.862567 0.0712636 -0.500899
v -0.0549306 -2.52068e-17 -0.021092
vn -0.862567 0.0712636 -0.500899
v -0.058 -6.57203e-17 -0.0158
vn -0.862842 0.0710625 -0.500454
v -0.000421524 -0.0586072 -0.0102726
vn 0.155454 -0.98784 -0.00226189
v 0.0183831 -0.0556353 -0.0158
vn 0.155454 -0.98784 -0.00226189
v 0.0185409 -0.055598 -0.0102775
vn 0.156732 -0.987639 0.00219249
v -0.0464567 -0.0303657 -0.0210919
vn -0.0532212 -0.048999 -0.99738
v -0.0165526 -0.00844356 -0.0237646
vn -0.0532212 -0.048999 -0.99738
v -0.0340741 -0.0438092 -0.0210922
vn -0.0532212 -0.048999 -0.99738
v -0.0179962 0.0525017 -0.0210922
vn -0.145992 0.8532 -0.500736
v -0.000559862 0.0585912 -0.0158
vn -0.145992 0.8532 -0.500736
v 3.27106e-05 0.0555005 -0.021092
vn -0.141032 0.847927 -0.511009
v -0.0194431 0.0552738 -0.0158
vn -0.150762 0.858167 -0.490734
v 3.27106e-05 0.0555005 -0.021092
vn 0.138125 0.854515 -0.500725
v 0.0183831 0.0556353 -0.0158
vn 0.138125 0.854515 -0.500725
v 0.0180581 0.0524806 -0.0210923
vn 0.1418 0.846437 -0.513262
v 0.0485472 -0.0328086 -0.0158
vn 0.796601 -0.365302 -0.481645
v -0.0491654 -0.0318746 -0.0158
vn -0.641754 -0.585423 -0.495411
v 0.042693 -0.0401585 -0.0102824
vn 0.408748 -0.520521 0.749655
v 0.0346748 -0.0316462 2.68221e-10
vn 0.408748 -0.520521 0.749655
v 0.0218431 -0.0417225 2.68221e-10
vn 0.408748 -0.520521 0.749655
v 0.0185409 -0.055598 -0.0102775
vn 0.323658 -0.611698 0.721852
v 0.031283 -0.048862 -0.0102826
vn 0.323658 -0.611698 0.721852
v 0.0218431 -0.0417225 2.68221e-10
vn 0.323658 -0.611698 0.721852
v 0.042693 -0.0401585 -0.0102824
vn 0.558853 -0.374568 0.739853
v 0.0506862 -0.0282323 -0.0102822
vn 0.558853 -0.374568 0.739853
v 0.0412018 -0.0220734 2.68221e-10
vn 0.558853 -0.374568 0.739853
v -0.0361664 -0.0461176 -0.0102811
vn -0.480768 -0.876845 -0.00207654
v -0.0362445 -0.0460388 -0.0158
vn -0.48168 -0.876329 -0.00569608
v -0.0194431 -0.0552738 -0.0158
vn -0.480768 -0.876845 -0.00207654
v -0.000421524 -0.0586072 -0.0102726
vn 0.108775 -0.684267 0.721073
v 0.0185409 -0.055598 -0.0102775
vn 0.108775 -0.684267 0.721073
v 0.00494665 -0.0469287 2.68221e-10
vn 0.108775 -0.684267 0.721073
v -0.0193724 0.0553056 -0.0102709
vn -0.175087 0.6203 0.764573
v -0.0208442 0.0422304 2.68221e-10
vn -0.175087 0.6203 0.764573
v -0.00431273 0.0468966 2.68221e-10
vn -0.175087 0.6203 0.764573
v 0.0566212 0.0151512 -0.0102845
vn 0.681022 0.0668468 0.729205
v 0.0461992 0.00913896 2.68221e-10
vn 0.681022 0.0668468 0.729205
v 0.0581017 3.76265e-05 -0.0102817
vn 0.681022 0.0668468 0.729205
v 0.0355262 0.0466203 -0.0102815
vn 0.322954 0.610753 0.722967
v 0.0185161 0.0556065 -0.0102744
vn 0.322954 0.610753 0.722967
v 0.0286715 0.0380744 2.68221e-10
vn 0.322954 0.610753 0.722967
v 0.0486985 0.0326233 -0.0102839
vn 0.909858 0.414904 -0.00364008
v 0.0566212 0.0151512 -0.0102845
vn 0.910736 0.412972 0.00364506
v 0.0565388 0.0153816 -0.0158
vn 0.909858 0.414904 -0.00364008
v -0.0464568 -0.0125181 2.68221e-10
vn -0.697706 -0.0579608 0.714035
v -0.0584034 0.00480284 -0.0102674
vn -0.697706 -0.0579608 0.714035
v -0.0568148 -0.0143619 -0.0102708
vn -0.697706 -0.0579608 0.714035
v -0.0464565 0.0303657 -0.0210922
vn -0.0474417 0.0437114 -0.997917
v -0.0340742 0.0438093 -0.021092
vn -0.0474417 0.0437114 -0.997917
v -0.00804215 0.0157877 -0.023557
vn -0.0474417 0.0437114 -0.997917
v -0.0361664 -0.0461176 -0.0102811
vn -0.326363 -0.596182 0.733522
v -0.0193515 -0.0553142 -0.0102744
vn -0.326363 -0.596182 0.733522
v -0.0141201 -0.0455367 2.68221e-10
vn -0.326363 -0.596182 0.733522
v -0.0179962 -0.0525019 -0.021092
vn -0.409472 -0.757365 -0.508656
v 0.0185409 -0.055598 -0.0102775
vn 0.467355 -0.884066 0.00244732
v 0.0353581 -0.046723 -0.0158
vn 0.467355 -0.884066 0.00244732
v 0.031283 -0.048862 -0.0102826
vn 0.467355 -0.884066 0.00244732
v -0.0179962 -0.0525019 -0.021092
vn -0.0100319 -0.0602186 -0.998135
v -0.0165526 -0.00844356 -0.0237646
vn -0.0100319 -0.0602186 -0.998135
v 3.27039e-05 -0.0555004 -0.0210923
vn -0.0100319 -0.0602186 -0.998135
v -0.0464568 -0.0125181 2.68221e-10
vn -0.645352 0.00767615 0.763847
v -0.0461992 0.00913896 2.68221e-10
vn -0.645352 0.00767615 0.763847
v -0.0584034 0.00480284 -0.0102674
vn -0.645352 0.00767615 0.763847
v -0.0464568 -0.0125181 2.68221e-10
vn -0.649208 -0.283824 0.705672
v -0.0568148 -0.0143619 -0.0102708
vn -0.649208 -0.283824 0.705672
v -0.049132 -0.0319427 -0.0102738
vn -0.649208 -0.283824 0.705672
v -0.0334811 -0.0342482 2.68221e-10
vn -0.152078 -0.0908103 0.984188
v -0.0269509 -3.25733e-06 0.00416881
vn -0.152078 -0.0908103 0.984188
v -0.0464568 -0.0125181 2.68221e-10
vn -0.152078 -0.0908103 0.984188
v -0.0362445 0.0460388 -0.0158
vn -0.419065 0.762412 -0.493064
v -0.0334811 -0.0342482 2.68221e-10
vn -0.551574 -0.329362 0.766346
v -0.0464568 -0.0125181 2.68221e-10
vn -0.551574 -0.329362 0.766346
v -0.049132 -0.0319427 -0.0102738
vn -0.551574 -0.329362 0.766346
v 0.0135544 0.0234361 0.00415257
vn 0.0020596 -0.00286633 0.999994
v -0.0269509 -3.25733e-06 0.00416881
vn 0.0020596 -0.00286633 0.999994
v 0.0252946 -0.00332603 0.00405168
vn 0.0020596 -0.00286633 0.999994
v -0.0340741 -0.0438092 -0.0210922
vn -0.0321399 -0.0594686 -0.997713
v -0.0165526 -0.00844356 -0.0237646
vn -0.0321399 -0.0594686 -0.997713
v -0.0179962 -0.0525019 -0.021092
vn -0.0321399 -0.0594686 -0.997713
v 0.00958203 -0.0231441 0.00411748
vn 0.128511 -0.0986122 0.986793
v 0.0346748 -0.0316462 2.68221e-10
vn 0.128511 -0.0986122 0.986793
v 0.0252946 -0.00332603 0.00405168
vn 0.128511 -0.0986122 0.986793
v -0.000457935 0.0586024 -0.0102693
vn 0.0595111 0.647161 0.760027
v -0.00431273 0.0468966 2.68221e-10
vn 0.0595111 0.647161 0.760027
v 0.0122526 0.0453733 2.68221e-10
vn 0.0595111 0.647161 0.760027
v -0.0538008 -0.0136293 -0.0210921
vn -0.862278 -0.0714749 -0.501367
v 0.0538139 0.0135736 -0.0210924
vn 0.0707341 0.00579352 -0.997478
v 0.0549313 2.77518e-16 -0.021092
vn 0.0707341 0.00579352 -0.997478
v 0.0165513 0.00844296 -0.0237646
vn 0.0707341 0.00579352 -0.997478
v 0.0464926 0.030311 -0.0210923
vn 0.789906 0.354047 -0.500699
v 0.0565388 0.0153816 -0.0158
vn 0.789906 0.354047 -0.500699
v 0.0538139 0.0135736 -0.0210924
vn 0.782626 0.342341 -0.519902
v -0.000559862 0.0585912 -0.0158
vn 0.134532 0.862153 -0.488461
v 0.0461992 0.00913896 2.68221e-10
vn 0.657098 0.00781576 0.753764
v 0.0464035 -0.00803746 2.68221e-10
vn 0.657098 0.00781576 0.753764
v 0.0581017 3.76265e-05 -0.0102817
vn 0.657098 0.00781576 0.753764
v 0.0252946 -0.00332603 0.00405168
vn 0.154471 0.0614641 0.986084
v 0.0461992 0.00913896 2.68221e-10
vn 0.154471 0.0614641 0.986084
v 0.0400822 0.0245121 2.68221e-10
vn 0.154471 0.0614641 0.986084
v 0.0565388 0.0153816 -0.0158
vn 0.994819 0.101108 -0.0106387
v 0.0180581 -0.0524807 -0.0210921
vn 0.0316737 -0.0584425 -0.997788
v 0.00810124 -0.015903 -0.0235506
vn 0.0316737 -0.0584425 -0.997788
v 0.0341258 -0.0437692 -0.0210923
vn 0.0316737 -0.0584425 -0.997788
v 0.0538139 0.0135736 -0.0210924
vn 0.855678 0.0704256 -0.512695
v 0.0581021 2.56549e-17 -0.0158
vn 0.855678 0.0704256 -0.512695
v 0.0549313 2.77518e-16 -0.021092
vn 0.855678 0.0704256 -0.512695
v 0.042693 -0.0401585 -0.0102824
vn 0.552841 -0.376942 0.743157
v 0.0412018 -0.0220734 2.68221e-10
vn 0.552841 -0.376942 0.743157
v 0.0346748 -0.0316462 2.68221e-10
vn 0.552841 -0.376942 0.743157
v 0.00958203 -0.0231441 0.00411748
vn -0.00376038 0.00630148 0.999973
v 0.0252946 -0.00332603 0.00405168
vn -0.00376038 0.00630148 0.999973
v -0.0120535 -0.0208796 0.00402185
vn -0.00376038 0.00630148 0.999973
v 3.27039e-05 -0.0555004 -0.0210923
vn -0.00949957 -0.0600319 -0.998151
v -0.0165526 -0.00844356 -0.0237646
vn -0.00949957 -0.0600319 -0.998151
v 0.00810124 -0.015903 -0.0235506
vn -0.00949957 -0.0600319 -0.998151
v 0.0183831 -0.0556353 -0.0158
vn 0.40622 -0.773717 -0.486156
v 0.00958203 -0.0231441 0.00411748
vn 0.112705 -0.143525 0.983208
v 0.0218431 -0.0417225 2.68221e-10
vn 0.112705 -0.143525 0.983208
v 0.0346748 -0.0316462 2.68221e-10
vn 0.112705 -0.143525 0.983208
v 0.0185409 -0.055598 -0.0102775
vn 0.188918 -0.613122 0.767067
v 0.0218431 -0.0417225 2.68221e-10
vn 0.188918 -0.613122 0.767067
v 0.00494665 -0.0469287 2.68221e-10
vn 0.188918 -0.613122 0.767067
v -0.0536969 0.0234737 -0.0102743
vn -0.829994 0.53988 0.140138
v -0.0458697 0.0355068 -0.0102736
vn -0.829994 0.53988 0.140138
v -0.0491654 0.0318746 -0.0158
vn -0.829994 0.53988 0.140138
v 0.0464927 -0.0303111 -0.0210922
vn 0.0536391 -0.0273912 -0.998185
v 0.00810124 -0.015903 -0.0235506
vn 0.0536391 -0.0273912 -0.998185
v 0.0165513 0.00844296 -0.0237646
vn 0.0536391 -0.0273912 -0.998185
v 0.0485472 -0.0328086 -0.0158
vn 0.908961 -0.416828 -0.00665808
v 0.0565388 -0.0153816 -0.0158
vn 0.908961 -0.416828 -0.00665808
v 0.0506862 -0.0282323 -0.0102822
vn 0.908961 -0.416828 -0.00665808
v 0.0252946 -0.00332603 0.00405168
vn 0.188984 0.00224784 0.981978
v 0.0464035 -0.00803746 2.68221e-10
vn 0.188984 0.00224784 0.981978
v 0.0461992 0.00913896 2.68221e-10
vn 0.188984 0.00224784 0.981978
v -0.0538008 -0.0136293 -0.0210921
vn -0.0707519 -0.00585762 -0.997477
v -0.0549306 -2.52068e-17 -0.021092
vn -0.0707519 -0.00585762 -0.997477
v -0.0165526 -0.00844356 -0.0237646
vn -0.0707519 -0.00585762 -0.997477
v 0.0135544 0.0234361 0.00415257
vn 0.148493 0.124935 0.98099
v 0.0400822 0.0245121 2.68221e-10
vn 0.148493 0.124935 0.98099
v 0.0286715 0.0380744 2.68221e-10
vn 0.148493 0.124935 0.98099
v -0.0464567 -0.0303657 -0.0210919
vn -0.790989 -0.3471 -0.503844
v 0.0135544 0.0234361 0.00415257
vn 0.151856 0.0628988 0.986399
v 0.0252946 -0.00332603 0.00405168
vn 0.151856 0.0628988 0.986399
v 0.0400822 0.0245121 2.68221e-10
vn 0.151856 0.0628988 0.986399
v -0.0334811 -0.0342482 2.68221e-10
vn -0.125241 -0.0963236 0.987439
v -0.0120535 -0.0208796 0.00402185
vn -0.125241 -0.0963236 0.987439
v -0.0269509 -3.25733e-06 0.00416881
vn -0.125241 -0.0963236 0.987439
v -0.0464565 0.0303657 -0.0210922
vn -0.790987 0.347102 -0.503845
v -0.0179962 0.0525017 -0.0210922
vn -0.0106517 0.0641053 -0.997886
v 3.27106e-05 0.0555005 -0.021092
vn -0.0106517 0.0641053 -0.997886
v -0.00804215 0.0157877 -0.023557
vn -0.0106517 0.0641053 -0.997886
v -0.0193515 -0.0553142 -0.0102744
vn -0.479851 -0.877349 0.00153998
v -0.0361866 0.0460924 -0.0102741
vn -0.384207 0.513986 0.766944
v -0.0325145 0.0335068 2.68221e-10
vn -0.384207 0.513986 0.766944
v -0.0208442 0.0422304 2.68221e-10
vn -0.384207 0.513986 0.766944
v -0.0536969 0.0234737 -0.0102743
vn -0.907341 0.395279 -0.143133
v -0.0491654 0.0318746 -0.0158
vn -0.907341 0.395279 -0.143133
v -0.0568224 0.0142984 -0.0158
vn -0.907341 0.395279 -0.143133
v -0.0361866 0.0460924 -0.0102741
vn -0.498662 0.456182 0.737044
v -0.0458697 0.0355068 -0.0102736
vn -0.498662 0.456182 0.737044
v -0.0325145 0.0335068 2.68221e-10
vn -0.498662 0.456182 0.737044
v -0.0362445 0.0460388 -0.0158
vn -0.481685 0.876338 -0.00345295
v 0.0185161 0.0556065 -0.0102744
vn 0.155963 0.987762 0.00139441
v 0.0355262 0.0466203 -0.0102815
vn 0.727001 0.686629 -0.00312202
v 0.0486985 0.0326233 -0.0102839
vn 0.728232 0.685324 0.00304783
v 0.0485472 0.0328086 -0.0158
vn 0.727001 0.686629 -0.00312202
v 0.0183831 0.0556353 -0.0158
vn 0.406221 0.773718 -0.486153
v 0.0252946 -0.00332603 0.00405168
vn 0.139205 -0.0949141 0.985704
v 0.0346748 -0.0316462 2.68221e-10
vn 0.139205 -0.0949141 0.985704
v 0.0412018 -0.0220734 2.68221e-10
vn 0.139205 -0.0949141 0.985704
v 0.0566212 0.0151512 -0.0102845
vn 0.607368 0.241673 0.756768
v 0.0400822 0.0245121 2.68221e-10
vn 0.607368 0.241673 0.756768
v 0.0461992 0.00913896 2.68221e-10
vn 0.607368 0.241673 0.756768
v 0.0341259 0.0437692 -0.0210921
vn 0.632712 0.590721 -0.500723
v 0.0485472 0.0328086 -0.0158
vn 0.632712 0.590721 -0.500723
v 0.0464926 0.030311 -0.0210923
vn 0.629954 0.578871 -0.517751
v 0.0538139 -0.0135736 -0.0210923
vn 0.0682408 -0.00559566 -0.997653
v 0.0165513 0.00844296 -0.0237646
vn 0.0682408 -0.00559566 -0.997653
v 0.0549313 2.77518e-16 -0.021092
vn 0.0682408 -0.00559566 -0.997653
v -0.000559862 -0.0585912 -0.0158
vn 0.154173 -0.988021 -0.00671861
v 0.0135544 0.0234361 0.00415257
vn -0.0208753 0.158819 0.987087
v -0.00431273 0.0468966 2.68221e-10
vn -0.0208753 0.158819 0.987087
v -0.0120148 0.0208117 0.00403408
vn -0.0208753 0.158819 0.987087
v 0.0353581 -0.046723 -0.0158
vn 0.635137 -0.60203 -0.483902
v 0.0464927 -0.0303111 -0.0210922
vn 0.0568746 -0.0248836 -0.998071
v 0.0165513 0.00844296 -0.0237646
vn 0.0568746 -0.0248836 -0.998071
v 0.0538139 -0.0135736 -0.0210923
vn 0.0568746 -0.0248836 -0.998071
v -0.000559862 -0.0585912 -0.0158
vn 0.134533 -0.862157 -0.488452
v -0.000421524 -0.0586072 -0.0102726
vn -0.171383 -0.985203 0.00143746
v -0.0194431 -0.0552738 -0.0158
vn -0.150763 -0.858173 -0.490724
v 0.0566181 -0.0151613 -0.0102793
vn 0.910609 -0.413255 0.00341111
v 0.0506862 -0.0282323 -0.0102822
vn 0.910609 -0.413255 0.00341111
v 0.0565388 -0.0153816 -0.0158
vn 0.910609 -0.413255 0.00341111
v -0.000457935 0.0586024 -0.0102693
vn -0.171712 0.985147 0.0011692
v 0.0486985 0.0326233 -0.0102839
vn 0.616076 0.279334 0.736494
v 0.0400822 0.0245121 2.68221e-10
vn 0.616076 0.279334 0.736494
v 0.0566212 0.0151512 -0.0102845
vn 0.616076 0.279334 0.736494
v 3.27039e-05 -0.0555004 -0.0210923
vn 0.0107565 -0.0641427 -0.997883
v 0.00810124 -0.015903 -0.0235506
vn 0.0107565 -0.0641427 -0.997883
v 0.0180581 -0.0524807 -0.0210921
vn 0.0107565 -0.0641427 -0.997883
v 0.00958203 -0.0231441 0.00411748
vn 0.0557234 -0.180847 0.981931
v 0.00494665 -0.0469287 2.68221e-10
vn 0.0557234 -0.180847 0.981931
v 0.0218431 -0.0417225 2.68221e-10
vn 0.0557234 -0.180847 0.981931
v 0.0566181 -0.0151613 -0.0102793
vn 0.995062 -0.0991436 -0.00479508
v 0.0565388 -0.0153816 -0.0158
vn 0.994823 -0.101108 -0.0102545
v 0.0581021 2.56549e-17 -0.0158
vn 0.995062 -0.0991436 -0.00479508
v -0.0269509 -3.25733e-06 0.00416881
vn 0.00187947 -0.00569823 0.999982
v -0.0120535 -0.0208796 0.00402185
vn 0.00187947 -0.00569823 0.999982
v 0.0252946 -0.00332603 0.00405168
vn 0.00187947 -0.00569823 0.999982
v -0.0584034 0.00480284 -0.0102674
vn -0.986462 0.0812437 -0.142454
v -0.0568224 0.0142984 -0.0158
vn -0.986462 0.0812437 -0.142454
v -0.058 -6.57203e-17 -0.0158
vn -0.986462 0.0812437 -0.142454
v 0.0538139 -0.0135736 -0.0210923
vn 0.855677 -0.0704294 -0.512695
v 0.0549313 2.77518e-16 -0.021092
vn 0.855677 -0.0704294 -0.512695
v 0.0581021 2.56549e-17 -0.0158
vn 0.855677 -0.0704294 -0.512695
v 0.0135544 0.0234361 0.00415257
vn -0.00571929 0.0105762 0.999928
v -0.0120148 0.0208117 0.00403408
vn -0.00571929 0.0105762 0.999928
v -0.0269509 -3.25733e-06 0.00416881
vn -0.00571929 0.0105762 0.999928
v 3.27106e-05 0.0555005 -0.021092
vn 0.00950037 0.0600242 -0.998152
v 0.0165513 0.00844296 -0.0237646
vn 0.00950037 0.0600242 -0.998152
v -0.00804215 0.0157877 -0.023557
vn 0.00950037 0.0600242 -0.998152
v 0.0185161 0.0556065 -0.0102744
vn 0.265528 0.597306 0.756783
v 0.0122526 0.0453733 2.68221e-10
vn 0.265528 0.597306 0.756783
v 0.0286715 0.0380744 2.68221e-10
vn 0.265528 0.597306 0.756783
v -0.0334811 -0.0342482 2.68221e-10
vn -0.0892373 -0.153052 0.984181
v -0.0141201 -0.0455367 2.68221e-10
vn -0.0892373 -0.153052 0.984181
v -0.0120535 -0.0208796 0.00402185
vn -0.0892373 -0.153052 0.984181
v -0.0464565 0.0303657 -0.0210922
vn -0.0536508 0.027395 -0.998184
v -0.00804215 0.0157877 -0.023557
vn -0.0536508 0.027395 -0.998184
v -0.0165526 -0.00844356 -0.0237646
vn -0.0536508 0.027395 -0.998184
v 0.0485472 0.0328086 -0.0158
vn 0.908927 0.416812 -0.0109286
v 0.0581017 3.76265e-05 -0.0102817
vn 0.995269 -0.0971503 0.000734983
v 0.0341259 0.0437692 -0.0210921
vn 0.0532614 0.0489565 -0.99738
v 0.0464926 0.030311 -0.0210923
vn 0.0532614 0.0489565 -0.99738
v 0.0165513 0.00844296 -0.0237646
vn 0.0532614 0.0489565 -0.99738
v 0.0538139 0.0135736 -0.0210924
vn 0.872912 0.0887178 -0.479744
v 0.0565388 0.0153816 -0.0158
vn 0.872912 0.0887178 -0.479744
v 0.0581021 2.56549e-17 -0.0158
vn 0.872912 0.0887178 -0.479744
v 0.0566181 -0.0151613 -0.0102793
vn 0.6163 -0.279853 0.736109
v 0.0412018 -0.0220734 2.68221e-10
vn 0.6163 -0.279853 0.736109
v 0.0506862 -0.0282323 -0.0102822
vn 0.6163 -0.279853 0.736109
v 0.0355262 0.0466203 -0.0102815
vn 0.46711 0.884197 0.00222671
v -0.0538008 0.0136294 -0.0210921
vn -0.862278 0.0714744 -0.501366
v 0.0353581 0.046723 -0.0158
vn 0.725738 0.687908 -0.00930446
v 0.0353581 0.046723 -0.0158
vn 0.635135 0.602028 -0.483907
v 0.0485472 0.0328086 -0.0158
vn 0.796596 0.3653 -0.481655
v 0.0252946 -0.00332603 0.00405168
vn 0.174192 -0.0645554 0.982593
v 0.0412018 -0.0220734 2.68221e-10
vn 0.174192 -0.0645554 0.982593
v 0.0464035 -0.00803746 2.68221e-10
vn 0.174192 -0.0645554 0.982593
v -0.0538008 0.0136294 -0.0210921
vn -0.0682326 0.00564875 -0.997653
v -0.0165526 -0.00844356 -0.0237646
vn -0.0682326 0.00564875 -0.997653
v -0.0549306 -2.52068e-17 -0.021092
vn -0.0682326 0.00564875 -0.997653
v 0.0486985 0.0326233 -0.0102839
vn 0.502379 0.422679 0.754293
v 0.0286715 0.0380744 2.68221e-10
vn 0.502379 0.422679 0.754293
v 0.0400822 0.0245121 2.68221e-10
vn 0.502379 0.422679 0.754293
v -0.0584034 0.00480284 -0.0102674
vn -0.996625 -0.0820807 -0.00141314
v -0.058 -6.57203e-17 -0.0158
vn -0.996625 -0.0820807 -0.00141314
v -0.0568224 -0.0142984 -0.0158
vn -0.996625 -0.0820807 -0.00141314
f 1//1 2//2 3//3
f 4//4 5//5 6//6
f 7//7 8//8 9//9
f 10//10 11//11 12//12
f 13//13 14//14 15//15
f 16//16 17//17 18//18
f 19//19 20//20 21//21
f 22//22 23//23 24//24
f 25//25 26//26 27//27
f 28//28 29//29 30//30
f 31//31 32//32 33//33
f 34//34 35//35 36//36
f 37//37 38//38 39//39
f 40//40 41//41 42//42
f 43//43 44//44 45//45
f 46//46 47//47 48//48
f 49//49 50//50 51//51
f 52//52 53//53 54//54
f 55//55 56//56 57//57
f 58//58 59//59 60//60
f 61//61 62//62 63//63
f 64//64 65//65 66//66
f 67//67 68//68 69//69
f 70//70 71//71 72//72
f 73//73 74//74 75//75
f 76//76 77//77 78//78
f 79//79 80//80 81//81
f 82//82 49//49 51//51
f 83//83 84//84 85//85
f 86//86 87//87 88//88
f 89//89 90//90 91//91
f 92//92 93//93 94//94
f 95//95 96//96 97//97
f 98//98 99//99 100//100
f 101//101 102//102 103//103
f 104//104 105//105 106//106
f 107//107 108//108 109//109
f 110//110 111//111 112//112
f 113//113 114//114 115//115
f 116//116 117//117 118//118
f 119//119 120//120 121//121
f 122//122 123//123 124//124
f 125//125 126//126 127//127
f 128//128 129//129 130//130
f 131//131 132//132 133//133
f 134//134 135//135 136//136
f 137//137 138//138 139//139
f 96//96 140//140 97//97
f 141//141 142//142 143//143
f 144//144 145//145 146//146
f 147//147 148//148 149//149
f 150//150 151//151 152//152
f 153//153 154//154 155//155
f 156//156 157//157 158//158
f 159//159 160//160 161//161
f 162//162 163//163 164//164
f 165//165 166//166 167//167
f 168//168 169//169 170//170
f 171//171 172//172 173//173
f 174//174 175//175 176//176
f 177//177 178//178 179//179
f 180//180 181//181 182//182
f 183//183 184//184 185//185
f 61//61 186//186 62//62
f 187//187 188//188 189//189
f 190//190 191//191 192//192
f 193//193 194//194 195//195
f 196//196 197//197 198//198
f 199//199 200//200 201//201
f 202//202 203//203 204//204
f 205//205 206//206 207//207
f 205//205 208//208 206//206
f 209//209 210//210 211//211
f 28//28 30//30 212//212
f 92//92 94//94 213//213
f 214//214 215//215 216//216
f 217//217 218//218 219//219
f 220//220 221//221 222//222
f 223//223 224//224 225//225
f 226//226 227//227 228//228
f 229//229 230//230 231//231
f 232//232 233//233 234//234
f 235//235 236//236 237//237
f 238//238 239//239 240//240
f 241//241 242//242 243//243
f 244//244 245//245 246//246
f 247//247 248//248 249//249
f 22//22 250//250 23//23
f 251//251 252//252 253//253
f 254//254 255//255 256//256
f 257//257 258//258 259//259
f 260//260 261//261 262//262
f 263//263 264//264 265//265
f 110//110 266//266 111//111
f 267//267 268//268 269//269
f 270//270 271//271 272//272
f 273//273 274//274 275//275
f 276//276 277//277 278//278
f 279//279 280//280 281//281
f 282//282 183//183 185//185
f 283//283 284//284 285//285
f 286//286 287//287 288//288
f 209//209 289//289 210//210
f 290//290 291//291 292//292
f 293//293 294//294 295//295
f 141//141 143//143 296//296
f 297//297 298//298 299//299
f 300//300 301//301 302//302
f 303//303 304//304 305//305
f 306//306 307//307 308//308
f 309//309 310//310 311//311
f 190//190 192//192 312//312
f 313//313 314//314 315//315
f 316//316 317//317 318//318
f 319//319 320//320 321//321
f 322//322 323//323 324//324
f 325//325 326//326 327//327
f 328//328 329//329 330//330
f 331//331 332//332 333//333
f 334//334 335//335 336//336
f 180//180 337//337 181//181
f 338//338 339//339 340//340
f 341//341 342//342 343//343
f 58//58 60//60 344//344
f 345//345 346//346 347//347
f 223//223 225//225 348//348
f 349//349 350//350 351//351
f 352//352 353//353 354//354
f 355//355 356//356 357//357
f 64//64 66//66 358//358
f 359//359 68//68 67//67
f 360//360 361//361 362//362
f 89//89 363//363 90//90
f 364//364 365//365 366//366
f 367//367 368//368 369//369
f 370//370 371//371 372//372
f 373//373 374//374 375//375
f 199//199 376//376 200//200
f 377//377 378//378 379//379
f 79//79 81//81 380//380
f 381//381 382//382 383//383
f 25//25 27//27 384//384
f 385//385 76//76 78//78
f 101//101 103//103 386//386
f 387//387 388//388 389//389
f 390//390 145//145 144//144
f 391//391 392//392 393//393
f 394//394 395//395 396//396
f 397//397 398//398 399//399
f 400//400 401//401 402//402
f 403//403 404//404 405//405
f 406//406 407//407 408//408
f 409//409 410//410 411//411
f 412//412 413//413 414//414
f 415//415 416//416 417//417
f 418//418 419//419 420//420
f 421//421 422//422 423//423
f 424//424 425//425 426//426
f 238//238 240//240 427//427
f 400//400 402//402 428//428
f 429//429 430//430 431//431
f 432//432 433//433 434//434
f 435//435 436//436 437//437
f 438//438 14//14 13//13
f 439//439 197//197 196//196
f 360//360 362//362 440//440
f 370//370 441//441 371//371
f 286//286 442//442 287//287
f 443//443 444//444 445//445
f 446//446 447//447 448//448
f 449//449 450//450 451//451
f 452//452 453//453 454//454
