# Created by Open3D 
# object name: C116_convdec
# number of vertices: 289
# number of triangles: 108
v -0.00742252 -0.0616246 -0.0090875
vn -0.0860066 -0.996294 0.00115042
v -0.000778719 -0.0621776 0.0087
vn -0.0860066 -0.996294 0.00115042
v -0.0074701 -0.0615995 0.0090934
vn -0.0860066 -0.996294 0.00115042
v -0.00742252 -0.0616246 -0.0090875
vn 0.00500629 -0.573534 -0.819166
v 0.00743541 -0.0616177 -0.00900153
vn 0.00500629 -0.573534 -0.819166
v -0.00111161 -0.0622026 -0.00864425
vn 0.00500629 -0.573534 -0.819166
v -0.0542235 0.0222074 -0.00915808
vn -0.400557 0.271047 -0.875264
v -0.0481871 0.0326073 -0.0087
vn -0.400557 0.271047 -0.875264
v -0.0424671 0.0399675 -0.00903844
vn -0.400557 0.271047 -0.875264
v -0.0542344 -0.0222226 0.00914848
vn -0.00729996 0.00328663 0.999968
v -0.0581095 6.12239e-05 0.00904695
vn 0.00852151 -0.00119844 0.999963
v -0.0575707 -0.00905599 0.00908085
vn -0.00729996 0.00328663 0.999968
v 0.0541388 -0.0226248 0.00908382
vn 0.0145451 -0.000942267 0.999894
v 0.0581088 6.27589e-05 0.00904745
vn 0.0145451 -0.000942267 0.999894
v 0.0575848 0.00911195 0.0090636
vn 0.0145451 -0.000942267 0.999894
v 0.00748239 0.0615931 0.00909764
vn -0.00464556 0.52551 0.850774
v 0.000778719 0.0621776 0.0087
vn -0.00464556 0.52551 0.850774
v -0.00743601 0.0616174 0.00900117
vn -0.00464556 0.52551 0.850774
v -0.0542235 0.0222074 -0.00915808
vn -0.00399528 0.00938082 -0.999948
v -0.0424671 0.0399675 -0.00903844
vn -0.00399528 0.00938082 -0.999948
v -0.0339425 0.0476764 -0.00900018
vn -0.00399528 0.00938082 -0.999948
v -0.0575707 -0.00905599 0.00908085
vn -0.998258 -0.0589933 4.13576e-07
v -0.0581095 6.12239e-05 0.00904695
vn -0.998258 -0.0589941 1.53249e-08
v -0.0581095 6.12192e-05 -0.00904695
vn -0.998258 -0.0589933 4.13576e-07
v -0.0543497 0.0217619 0.0090803
vn -0.968896 0.247468 0.000580826
v -0.0575826 0.00914693 -0.00905863
vn -0.968896 0.247468 0.000580826
v -0.0576099 0.00890603 0.00908635
vn -0.969315 0.245815 0.00180502
v -0.0339425 0.0476764 -0.00900018
vn -0.572391 0.819342 0.0323755
v -0.0399494 0.0427687 0.00900079
vn -0.572391 0.819342 0.0323755
v -0.029745 0.0498975 0.00900018
vn -0.572391 0.819342 0.0323755
v 0.0542959 -0.0220012 -0.0091889
vn 0.86088 -0.50871 -0.00995939
v 0.0541388 -0.0226248 0.00908382
vn 0.86088 -0.50871 -0.00995939
v 0.0474296 -0.0339771 0.00900472
vn 0.86088 -0.50871 -0.00995939
v 0.0576016 0.00909811 -0.00905719
vn 0.998376 0.0569629 0.000458706
v 0.0581088 6.27589e-05 0.00904745
vn 0.998376 0.0569629 0.000458706
v 0.0581095 6.14871e-05 -0.00904704
vn 0.998424 0.0561159 3.47002e-05
v 0.0543319 0.0217959 -0.00906895
vn -0.00832234 -0.00306911 -0.999961
v 0.0576016 0.00909811 -0.00905719
vn -0.00832234 -0.00306911 -0.999961
v 0.0395205 0.0430683 -0.00901097
vn -0.00832234 -0.00306911 -0.999961
v 0.0395205 0.0430683 -0.00901097
vn 0.000471988 -0.000234832 -1
v 0.00743541 -0.0616177 -0.00900153
vn 0.000471988 -0.000234832 -1
v -0.0581095 6.12192e-05 -0.00904695
vn 0.000471988 -0.000234832 -1
v 0.00743541 -0.0616177 -0.00900153
vn 0.0682296 -0.99767 0.000104617
v -0.000778719 -0.0621776 0.0087
vn 0.0682296 -0.99767 0.000104617
v -0.00111161 -0.0622026 -0.00864425
vn 0.0682789 -0.997666 0.000127573
v -0.029745 0.0498975 0.00900018
vn -0.465073 0.885272 1.332e-06
v -0.00743601 0.0616174 0.00900117
vn -0.465073 0.885272 1.332e-06
v -0.00743492 0.061618 -0.00900142
vn -0.465073 0.885272 1.332e-06
v 0.0395205 0.0430683 -0.00901097
vn 0.754476 0.656328 0.00029595
v 0.0473824 0.0340226 0.00900594
vn 0.754476 0.656328 0.00029595
v 0.0474168 0.0339993 -0.00900064
vn 0.754184 0.656663 0.000591147
v 0.0395205 0.0430683 -0.00901097
vn 0.000959326 -0.00134114 -0.999999
v -0.0581095 6.12192e-05 -0.00904695
vn 0.000959326 -0.00134114 -0.999999
v -0.0575826 0.00914693 -0.00905863
vn 0.000959326 -0.00134114 -0.999999
v -0.00743601 0.0616174 0.00900117
vn -0.0680315 0.997683 0.000132346
v 0.000778719 0.0621776 0.0087
vn -0.0680315 0.997683 0.000132346
v 0.00111161 0.0622026 -0.00864425
vn -0.0680315 0.997683 0.000132346
v 0.0543319 0.0217959 -0.00906895
vn 0.0221479 0.0181455 -0.99959
v 0.0395205 0.0430683 -0.00901097
vn 0.0197525 0.0227132 -0.999547
v 0.0474168 0.0339993 -0.00900064
vn 0.0221479 0.0181455 -0.99959
v 0.0575848 0.00911195 0.0090636
vn 0.998327 0.0578072 0.000881467
v 0.0399602 -0.0427612 0.00900056
vn 0.572516 -0.819526 0.024543
v 0.029745 -0.0498975 0.00900013
vn 0.572516 -0.819526 0.024543
v 0.0329448 -0.0482012 -0.00899998
vn 0.572516 -0.819526 0.024543
v 0.0395205 0.0430683 0.00901001
vn 0.0355083 0.0405692 0.998546
v 0.0298231 0.049843 0.00898831
vn 0.0265857 0.0412545 0.998795
v 0.00748239 0.0615931 0.00909764
vn 0.0265857 0.0412545 0.998795
v 0.057575 -0.00898496 0.00909105
vn 0.998261 -0.0589447 1.82967e-05
v 0.0575529 -0.00935732 -0.00903765
vn 0.998258 -0.0589916 -5.17496e-06
v 0.0581095 6.14871e-05 -0.00904704
vn 0.998261 -0.0589447 1.82967e-05
v -0.0339425 0.0476764 -0.00900018
vn -0.465491 0.885052 -0.000660574
v -0.029745 0.0498975 0.00900018
vn -0.465491 0.885052 -0.000660574
v -0.00743492 0.061618 -0.00900142
vn -0.465491 0.885052 -0.000660574
v 0.0541388 -0.0226248 0.00908382
vn 0.000192024 -5.77271e-05 1
v 0.00748239 0.0615931 0.00909764
vn 0.000192024 -5.77271e-05 1
v -0.0074701 -0.0615995 0.0090934
vn 0.000192024 -5.77271e-05 1
v 0.00739927 0.0616368 -0.00907877
vn 0.465493 0.885052 -7.58876e-07
v 0.00748239 0.0615931 0.00909764
vn 0.465493 0.885052 -3.82112e-07
v 0.0298231 0.049843 -0.00900009
vn 0.465493 0.885052 -3.82112e-07
v -0.0399494 0.0427687 0.00900079
vn -0.00450012 0.00652718 0.999969
v -0.0474889 0.0338724 0.00902493
vn -0.00450012 0.00652718 0.999969
v -0.029745 0.0498975 0.00900018
vn -0.00450012 0.00652718 0.999969
v -0.0576099 0.00890603 0.00908635
vn -0.998365 0.0571558 -0.000372238
v -0.0575826 0.00914693 -0.00905863
vn -0.998322 0.0578941 -0.000733547
v -0.0581095 6.12192e-05 -0.00904695
vn -0.998365 0.0571558 -0.000372238
v 0.0329448 -0.0482012 -0.00899998
vn 0.465488 -0.885054 -0.000658177
v 0.029745 -0.0498975 0.00900013
vn 0.465488 -0.885054 -0.000658177
v 0.00743541 -0.0616177 -0.00900153
vn 0.465488 -0.885054 -0.000658177
v -0.054352 -0.0217586 -0.00906982
vn -0.969364 -0.245628 1.3927e-06
v -0.0542344 -0.0222226 0.00914848
vn -0.969364 -0.245628 1.3927e-06
v -0.0575707 -0.00905599 0.00908085
vn -0.969364 -0.245628 1.3927e-06
v -0.0543497 0.0217619 0.0090803
vn 0.0155319 -0.00422762 0.99987
v -0.0581095 6.12239e-05 0.00904695
vn 0.0268802 0.00356809 0.999632
v -0.0474889 0.0338724 0.00902493
vn 0.0155319 -0.00422762 0.99987
v 0.0395205 0.0430683 -0.00901097
vn 0.00110101 -0.00174673 -0.999998
v -0.0575826 0.00914693 -0.00905863
vn 0.00110101 -0.00174673 -0.999998
v 0.00739927 0.0616368 -0.00907877
vn 0.00110101 -0.00174673 -0.999998
v 0.0541388 -0.0226248 0.00908382
vn -0.0277151 0.00645217 0.999595
v 0.057575 -0.00898496 0.00909105
vn -0.0277151 0.00645217 0.999595
v 0.0581088 6.27589e-05 0.00904745
vn -0.0277151 0.00645217 0.999595
v 0.0542959 -0.0220012 -0.0091889
vn 0.400537 -0.271044 -0.875274
v 0.0481871 -0.0326073 -0.0087
vn 0.400537 -0.271044 -0.875274
v 0.0425302 -0.0399131 -0.0090263
vn 0.400537 -0.271044 -0.875274
v -0.0542235 0.0222074 -0.00915808
vn -0.968482 0.249085 -0.000617201
v -0.0074701 -0.0615995 0.0090934
vn -0.0116345 -0.0141914 0.999832
v -0.0474273 -0.0339437 0.00902098
vn -0.0116345 -0.0141914 0.999832
v -0.0298231 -0.049843 0.00900016
vn -0.0116345 -0.0141914 0.999832
v 0.0541388 -0.0226248 0.00908382
vn -0.00146911 0.000796631 0.999999
v 0.0575848 0.00911195 0.0090636
vn -0.00146911 0.000796631 0.999999
v 0.0395205 0.0430683 0.00901001
vn -0.00146911 0.000796631 0.999999
v 0.0543319 0.0217959 -0.00906895
vn 0.869998 0.49302 -0.00586673
v 0.0474168 0.0339993 -0.00900064
vn 0.867788 0.496929 -0.00249597
v 0.0542303 0.0221921 0.00915972
vn 0.867788 0.496929 -0.00249597
v 0.0541388 -0.0226248 0.00908382
vn 0.00482923 -0.00738796 0.999961
v -0.0074701 -0.0615995 0.0090934
vn 0.00482923 -0.00738796 0.999961
v 0.029745 -0.0498975 0.00900013
vn 0.00482923 -0.00738796 0.999961
v -0.0543497 0.0217619 0.0090803
vn 0.0249784 -0.00586398 0.999671
v -0.0576099 0.00890603 0.00908635
vn 0.0249784 -0.00586398 0.999671
v -0.0339425 0.0476764 -0.00900018
vn -0.00522647 0.00984833 -0.999938
v -0.00743492 0.061618 -0.00900142
vn -0.00522647 0.00984833 -0.999938
v 0.00739927 0.0616368 -0.00907877
vn -0.00522647 0.00984833 -0.999938
v -0.0074701 -0.0615995 0.0090934
vn 0.004601 -0.525646 0.850691
v -0.000778719 -0.0621776 0.0087
vn 0.004601 -0.525646 0.850691
v 0.00743872 -0.061616 0.00900257
vn 0.004601 -0.525646 0.850691
v 0.00739927 0.0616368 -0.00907877
vn -0.00499828 0.573549 -0.819156
v -0.00743492 0.061618 -0.00900142
vn -0.00499828 0.573549 -0.819156
v 0.00111161 0.0622026 -0.00864425
vn -0.00499828 0.573549 -0.819156
v 0.0399602 -0.0427612 0.00900056
vn 0.653796 -0.756215 -0.0262676
v 0.0329448 -0.0482012 -0.00899998
vn 0.653796 -0.756215 -0.0262676
v 0.0425302 -0.0399131 -0.0090263
vn 0.653796 -0.756215 -0.0262676
v 0.00743872 -0.061616 0.00900257
vn 0.0681803 -0.997673 8.15968e-05
v -0.0395398 -0.0430549 -0.00901191
vn 0.00577896 0.0140651 -0.999884
v 0.00743541 -0.0616177 -0.00900153
vn 0.00577896 0.0140651 -0.999884
v -0.00742252 -0.0616246 -0.0090875
vn 0.00577896 0.0140651 -0.999884
v -0.0542235 0.0222074 -0.00915808
vn -0.00546329 0.0105497 -0.999929
v -0.0339425 0.0476764 -0.00900018
vn -0.00546329 0.0105497 -0.999929
v 0.00739927 0.0616368 -0.00907877
vn -0.00546329 0.0105497 -0.999929
v -0.0074701 -0.0615995 0.0090934
vn 0.00607929 -0.0113638 0.999917
v 0.00743872 -0.061616 0.00900257
vn 0.00607929 -0.0113638 0.999917
v 0.029745 -0.0498975 0.00900013
vn 0.00607929 -0.0113638 0.999917
v -0.0542344 -0.0222226 0.00914848
vn 0.037905 0.0111442 0.999219
v -0.0474273 -0.0339437 0.00902098
vn 0.037905 0.0111442 0.999219
v -0.0474889 0.0338724 0.00902493
vn 0.000181584 0.000594231 1
v -0.0581095 6.12239e-05 0.00904695
vn -0.00140773 -0.000556628 0.999999
v -0.00743601 0.0616174 0.00900117
vn 0.000181584 0.000594231 1
v -0.0542235 0.0222074 -0.00915808
vn 0.00737199 -0.0095101 -0.999928
v 0.00739927 0.0616368 -0.00907877
vn 0.00737199 -0.0095101 -0.999928
v -0.0575826 0.00914693 -0.00905863
vn 0.00737199 -0.0095101 -0.999928
v 0.00739927 0.0616368 -0.00907877
vn 0.0867434 0.996229 0.00199855
v 0.000778719 0.0621776 0.0087
vn 0.0867434 0.996229 0.00199855
v 0.00748239 0.0615931 0.00909764
vn 0.0867434 0.996229 0.00199855
v 0.00748239 0.0615931 0.00909764
vn -0.0064564 0.00605864 0.999961
v -0.00743601 0.0616174 0.00900117
vn -0.0064564 0.00605864 0.999961
v -0.0581095 6.12239e-05 0.00904695
vn -0.0064564 0.00605864 0.999961
v -0.0074701 -0.0615995 0.0090934
vn -0.00299142 -0.00170342 0.999994
v -0.0474273 -0.0339437 0.00902098
vn -0.00299142 -0.00170342 0.999994
v 0.0425302 -0.0399131 -0.0090263
vn 0.00140553 -0.00106248 -0.999998
v 0.0576016 0.00909811 -0.00905719
vn 0.00140553 -0.00106248 -0.999998
v 0.0575529 -0.00935732 -0.00903765
vn 0.00140553 -0.00106248 -0.999998
v 0.0399602 -0.0427612 0.00900056
vn 0.761702 -0.647691 -0.0175217
v 0.0481871 -0.0326073 -0.0087
vn 0.761702 -0.647691 -0.0175217
v 0.0474296 -0.0339771 0.00900472
vn 0.761702 -0.647691 -0.0175217
v -0.0542235 0.0222074 -0.00915808
vn -0.864835 0.502053 -0.00176712
v -0.0474889 0.0338724 0.00902493
vn -0.864835 0.502053 -0.00176712
v -0.0481871 0.0326073 -0.0087
vn -0.864835 0.502053 -0.00176712
v 0.0395205 0.0430683 -0.00901097
vn 0.572697 0.819767 0
v 0.0298231 0.049843 0.00898831
vn 0.572697 0.819767 0
v 0.0395205 0.0430683 0.00901001
vn 0.572697 0.819767 0
v 0.0543319 0.0217959 -0.00906895
vn 0.968533 0.248885 0.000347257
v 0.0542303 0.0221921 0.00915972
vn 0.968653 0.248418 -4.49093e-07
v 0.0575848 0.00911195 0.0090636
vn 0.968533 0.248885 0.000347257
v 0.0576016 0.00909811 -0.00905719
vn 0.00109595 -0.00106166 -0.999999
v 0.0581095 6.14871e-05 -0.00904704
vn 0.00109595 -0.00106166 -0.999999
v 0.0575529 -0.00935732 -0.00903765
vn 0.00109595 -0.00106166 -0.999999
v -0.0474889 0.0338724 0.00902493
vn -0.0020457 0.00380955 0.999991
v -0.00743601 0.0616174 0.00900117
vn -0.0020457 0.00380955 0.999991
v -0.029745 0.0498975 0.00900018
vn -0.0020457 0.00380955 0.999991
v 0.00748239 0.0615931 0.00909764
vn -0.000835671 6.70093e-05 1
v -0.0581095 6.12239e-05 0.00904695
vn -0.000835671 6.70093e-05 1
v -0.0074701 -0.0615995 0.0090934
vn -0.000835671 6.70093e-05 1
v -0.0395398 -0.0430549 -0.00901191
vn -0.755272 -0.655411 0.000796879
v -0.0395397 -0.043055 0.00900055
vn -0.756053 -0.654511 5.67018e-07
v -0.0474273 -0.0339437 0.00902098
vn -0.755272 -0.655411 0.000796879
v -0.0395398 -0.0430549 -0.00901191
vn -0.572692 -0.81977 -1.3797e-06
v -0.0298231 -0.049843 -0.00900006
vn -0.572692 -0.819771 -6.90088e-07
v -0.0395397 -0.043055 0.00900055
vn -0.572692 -0.819771 -6.90088e-07
v -0.0395398 -0.0430549 -0.00901191
vn -0.000120709 -0.000864679 -1
v -0.0581095 6.12192e-05 -0.00904695
vn -0.000120709 -0.000864679 -1
v 0.00743541 -0.0616177 -0.00900153
vn -0.000120709 -0.000864679 -1
v -0.054352 -0.0217586 -0.00906982
vn -0.0228584 -0.0186167 -0.999565
v -0.0395398 -0.0430549 -0.00901191
vn -0.0210848 -0.0244431 -0.999479
v -0.0474168 -0.0339996 -0.00900043
vn -0.0228584 -0.0186167 -0.999565
v -0.0543497 0.0217619 0.0090803
vn -0.870051 0.492926 0.00602008
v -0.0474889 0.0338724 0.00902493
vn -0.870051 0.492926 0.00602008
v -0.0542235 0.0222074 -0.00915808
vn -0.870051 0.492926 0.00602008
v -0.00742252 -0.0616246 -0.0090875
vn -0.465493 -0.885051 3.70406e-06
v -0.0074701 -0.0615995 0.0090934
vn -0.465492 -0.885052 1.86324e-06
v -0.0298231 -0.049843 -0.00900006
vn -0.465492 -0.885052 1.86324e-06
v -0.0399494 0.0427687 0.00900079
vn -0.789175 0.61399 0.014801
v -0.0424671 0.0399675 -0.00903844
vn -0.789175 0.61399 0.014801
v -0.0481871 0.0326073 -0.0087
vn -0.789175 0.61399 0.014801
v -0.0298231 -0.049843 0.00900016
vn -0.465491 -0.885053 0
v 0.0329448 -0.0482012 -0.00899998
vn 0.00441854 -0.00828567 -0.999956
v 0.00743541 -0.0616177 -0.00900153
vn 0.00441854 -0.00828567 -0.999956
v 0.0425302 -0.0399131 -0.0090263
vn -0.0253827 0.00936401 -0.999634
v 0.0399602 -0.0427612 0.00900056
vn 0.000711066 -0.00107814 0.999999
v 0.0474296 -0.0339771 0.00900472
vn 0.000711066 -0.00107814 0.999999
v 0.029745 -0.0498975 0.00900013
vn 0.000711066 -0.00107814 0.999999
v 0.0542959 -0.0220012 -0.0091889
vn 0.969702 -0.244291 1.65779e-07
v 0.057575 -0.00898496 0.00909105
vn 0.969702 -0.244291 1.65779e-07
v 0.0541388 -0.0226248 0.00908382
vn 0.969702 -0.244291 1.65779e-07
v 0.0542959 -0.0220012 -0.0091889
vn 0.866511 -0.499156 -0.00154545
v 0.0474296 -0.0339771 0.00900472
vn 0.866511 -0.499156 -0.00154545
v 0.0481871 -0.0326073 -0.0087
vn 0.866511 -0.499156 -0.00154545
v 0.0542303 0.0221921 0.00915972
vn 0.046241 0.0397403 0.99814
v 0.0473824 0.0340226 0.00900594
vn 0.046241 0.0397403 0.99814
v 0.0581088 6.27589e-05 0.00904745
vn 0.998264 -0.0588957 4.27778e-05
v 0.029745 -0.0498975 0.00900013
vn 0.465074 -0.885272 -1.9847e-06
v 0.00743872 -0.061616 0.00900257
vn 0.465074 -0.885272 -1.9847e-06
v 0.00743541 -0.0616177 -0.00900153
vn 0.465074 -0.885272 -1.9847e-06
v -0.00742252 -0.0616246 -0.0090875
vn -0.0194977 -0.0296542 -0.99937
v -0.0298231 -0.049843 -0.00900006
vn -0.0194977 -0.0296542 -0.99937
v -0.054352 -0.0217586 -0.00906982
vn -0.870026 -0.492957 -0.00693906
v -0.0474168 -0.0339996 -0.00900043
vn -0.870026 -0.492957 -0.00693906
v -0.0542344 -0.0222226 0.00914848
vn -0.870026 -0.492957 -0.00693906
v -0.054352 -0.0217586 -0.00906982
vn -0.968641 -0.248456 0.00210861
v -0.0575707 -0.00905599 0.00908085
vn -0.968641 -0.248456 0.00210861
v -0.0575589 -0.00925588 -0.00905227
vn -0.968641 -0.248456 0.00210861
v -0.0581095 6.12239e-05 0.00904695
vn -0.998409 0.0563951 -1.46498e-08
v -0.0474168 -0.0339996 -0.00900043
vn -0.754487 -0.656313 0.00159606
v 0.00739927 0.0616368 -0.00907877
vn 0.0898394 0.995951 0.00315989
v 0.00111161 0.0622026 -0.00864425
vn 0.0898394 0.995951 0.00315989
v 0.000778719 0.0621776 0.0087
vn 0.0898394 0.995951 0.00315989
v 0.0395205 0.0430683 0.00901001
vn 0.754768 0.655992 0
v 0.0399602 -0.0427612 0.00900056
vn 0.790239 -0.612593 0.0158757
v 0.0425302 -0.0399131 -0.0090263
vn 0.790239 -0.612593 0.0158757
v 0.0481871 -0.0326073 -0.0087
vn 0.790239 -0.612593 0.0158757
v 0.0542959 -0.0220012 -0.0091889
vn 0.968368 -0.249494 0.00394415
v 0.0575529 -0.00935732 -0.00903765
vn 0.968368 -0.249494 0.00394415
v 0.057575 -0.00898496 0.00909105
vn 0.968368 -0.249494 0.00394415
v 0.0541388 -0.0226248 0.00908382
vn 0.0128473 -0.0145592 0.999811
v 0.029745 -0.0498975 0.00900013
vn 0.0128473 -0.0145592 0.999811
v 0.0474296 -0.0339771 0.00900472
vn 0.0128473 -0.0145592 0.999811
v 0.0473824 0.0340226 0.00900594
vn 0.865463 0.500973 0.00100517
v 0.0541388 -0.0226248 0.00908382
vn 0.00388461 0.00198795 0.99999
v 0.0395205 0.0430683 0.00901001
vn 0.00388461 0.00198795 0.99999
v 0.00748239 0.0615931 0.00909764
vn 0.00388461 0.00198795 0.99999
v -0.0575589 -0.00925588 -0.00905227
vn -0.998258 -0.0589925 8.02443e-07
v -0.0542344 -0.0222226 0.00914848
vn -0.864742 -0.502216 0.00105384
v -0.0474168 -0.0339996 -0.00900043
vn -0.864742 -0.502216 0.00105384
v -0.0474273 -0.0339437 0.00902098
vn -0.864742 -0.502216 0.00105384
v 0.0395205 0.0430683 -0.00901097
vn -0.0017297 0.000439962 -0.999998
v 0.0576016 0.00909811 -0.00905719
vn -0.0017297 0.000439962 -0.999998
v 0.00743541 -0.0616177 -0.00900153
vn -0.0017297 0.000439962 -0.999998
v -0.0298231 -0.049843 0.00900016
vn -0.572691 -0.819771 0
v 0.00739927 0.0616368 -0.00907877
vn 0.0176055 0.0268059 -0.999486
v 0.0298231 0.049843 -0.00900009
vn 0.0176055 0.0268059 -0.999486
v -0.00742252 -0.0616246 -0.0090875
vn -0.091427 -0.995807 0.00319015
v -0.00111161 -0.0622026 -0.00864425
vn -0.091427 -0.995807 0.00319015
v -0.000778719 -0.0621776 0.0087
vn -0.091427 -0.995807 0.00319015
v -0.054352 -0.0217586 -0.00906982
vn -0.00421838 0.00032167 -0.999991
v -0.0575589 -0.00925588 -0.00905227
vn -0.00421838 0.00032167 -0.999991
v -0.0581095 6.12192e-05 -0.00904695
vn -0.00421838 0.00032167 -0.999991
v 0.0298231 0.049843 -0.00900009
vn 0.572697 0.819767 0
v 0.0576016 0.00909811 -0.00905719
vn 0.968409 0.249367 0.000707417
v -0.0395397 -0.043055 0.00900055
vn -0.00386178 -0.00558539 0.999977
v -0.0298231 -0.049843 0.00900016
vn -0.00386178 -0.00558539 0.999977
v -0.0474273 -0.0339437 0.00902098
vn -0.00386178 -0.00558539 0.999977
v -0.00743492 0.061618 -0.00900142
vn -0.0682436 0.997669 2.91058e-05
v -0.00743601 0.0616174 0.00900117
vn -0.0682436 0.997669 2.91058e-05
v 0.00111161 0.0622026 -0.00864425
vn -0.0682436 0.997669 2.91058e-05
v -0.0339425 0.0476764 -0.00900018
vn -0.670521 0.741577 -0.0215716
v -0.0424671 0.0399675 -0.00903844
vn -0.670521 0.741577 -0.0215716
v -0.0399494 0.0427687 0.00900079
vn -0.670521 0.741577 -0.0215716
v 0.0542303 0.0221921 0.00915972
vn -0.0323776 -0.0156472 0.999353
v 0.0395205 0.0430683 0.00901001
vn -0.0323776 -0.0156472 0.999353
v 0.0575848 0.00911195 0.0090636
vn -0.0323776 -0.0156472 0.999353
v -0.0399494 0.0427687 0.00900079
vn -0.762807 0.646426 -0.0160906
v -0.0481871 0.0326073 -0.0087
vn -0.762807 0.646426 -0.0160906
v -0.0474889 0.0338724 0.00902493
vn -0.762807 0.646426 -0.0160906
v 0.0425302 -0.0399131 -0.0090263
vn -0.000390237 -0.000510264 -1
v 0.00743541 -0.0616177 -0.00900153
vn -0.000390237 -0.000510264 -1
v 0.0576016 0.00909811 -0.00905719
vn -0.000390237 -0.000510264 -1
v -0.054352 -0.0217586 -0.00906982
vn 0.00719868 0.00228773 -0.999971
v -0.0581095 6.12192e-05 -0.00904695
vn 0.00719868 0.00228773 -0.999971
v -0.0395398 -0.0430549 -0.00901191
vn 0.00719868 0.00228773 -0.999971
v 0.0298231 0.049843 0.00898831
vn 0.465493 0.885052 0
v 0.0542959 -0.0220012 -0.0091889
vn -0.0526061 0.0254929 -0.99829
v 0.0575529 -0.00935732 -0.00903765
vn -0.0526061 0.0254929 -0.99829
f 1//1 2//2 3//3
f 4//4 5//5 6//6
f 7//7 8//8 9//9
f 10//10 11//11 12//12
f 13//13 14//14 15//15
f 16//16 17//17 18//18
f 19//19 20//20 21//21
f 22//22 23//23 24//24
f 25//25 26//26 27//27
f 28//28 29//29 30//30
f 31//31 32//32 33//33
f 34//34 35//35 36//36
f 37//37 38//38 39//39
f 40//40 41//41 42//42
f 43//43 44//44 45//45
f 46//46 47//47 48//48
f 49//49 50//50 51//51
f 52//52 53//53 54//54
f 55//55 56//56 57//57
f 58//58 59//59 60//60
f 34//34 61//61 35//35
f 62//62 63//63 64//64
f 65//65 66//66 67//67
f 68//68 69//69 70//70
f 71//71 72//72 73//73
f 74//74 75//75 76//76
f 77//77 78//78 79//79
f 80//80 81//81 82//82
f 83//83 84//84 85//85
f 86//86 87//87 88//88
f 89//89 90//90 91//91
f 92//92 93//93 94//94
f 95//95 96//96 97//97
f 98//98 99//99 100//100
f 101//101 102//102 103//103
f 25//25 104//104 26//26
f 105//105 106//106 107//107
f 108//108 109//109 110//110
f 111//111 112//112 113//113
f 114//114 115//115 116//116
f 117//117 118//118 11//11
f 119//119 120//120 121//121
f 122//122 123//123 124//124
f 125//125 126//126 127//127
f 128//128 129//129 130//130
f 43//43 131//131 44//44
f 132//132 133//133 134//134
f 135//135 136//136 137//137
f 138//138 139//139 140//140
f 141//141 142//142 93//93
f 143//143 144//144 145//145
f 146//146 147//147 148//148
f 149//149 150//150 151//151
f 152//152 153//153 154//154
f 155//155 144//144 156//156
f 157//157 158//158 159//159
f 160//160 161//161 162//162
f 163//163 164//164 165//165
f 166//166 167//167 168//168
f 169//169 170//170 171//171
f 172//172 173//173 174//174
f 175//175 176//176 177//177
f 178//178 179//179 180//180
f 181//181 182//182 183//183
f 184//184 185//185 186//186
f 187//187 188//188 189//189
f 190//190 191//191 192//192
f 193//193 194//194 195//195
f 196//196 197//197 198//198
f 199//199 200//200 201//201
f 197//197 202//202 198//198
f 203//203 204//204 205//205
f 206//206 207//207 208//208
f 209//209 210//210 211//211
f 212//212 213//213 214//214
f 215//215 216//216 65//65
f 68//68 70//70 217//217
f 218//218 219//219 220//220
f 191//191 221//221 222//222
f 223//223 224//224 225//225
f 226//226 227//227 228//228
f 83//83 85//85 229//229
f 181//181 183//183 230//230
f 231//231 232//232 233//233
f 49//49 234//234 50//50
f 235//235 236//236 237//237
f 238//238 239//239 240//240
f 241//241 242//242 243//243
f 113//113 112//112 244//244
f 245//245 246//246 247//247
f 22//22 24//24 248//248
f 249//249 250//250 251//251
f 252//252 253//253 254//254
f 186//186 185//185 255//255
f 59//59 256//256 257//257
f 258//258 259//259 260//260
f 261//261 262//262 263//263
f 166//166 264//264 167//167
f 169//169 171//171 265//265
f 266//266 267//267 268//268
f 269//269 270//270 271//271
f 272//272 273//273 274//274
f 275//275 276//276 277//277
f 278//278 279//279 280//280
f 281//281 282//282 283//283
f 284//284 285//285 286//286
f 78//78 287//287 79//79
f 288//288 205//205 289//289
