# Created by Open3D 
# object name: C86_convdec
# number of vertices: 150
# number of triangles: 50
v 0.0308269 0.0305682 0.00900082
vn -0.00175022 0.000149033 0.999998
v -0.00569414 0.0473506 0.0089344
vn -0.00175022 0.000149033 0.999998
v 0.042779 -0.00815581 0.00902751
vn -0.00175022 0.000149033 0.999998
v -0.00569414 0.0473506 0.0089344
vn 0.0724786 0.99737 0
v 0.0077111 0.0463764 0.00900511
vn 0.0724786 0.99737 0
v 0.0077111 0.0463764 -0.00900065
vn 0.0724786 0.99737 0
v 0.00596131 -0.0472205 -0.00889466
vn -0.0130739 -0.0154436 -0.999795
v -0.0431313 0.00281039 -0.00902551
vn -0.0130739 -0.0154436 -0.999795
v 0.0175089 -0.0401544 -0.00915481
vn -0.0130739 -0.0154436 -0.999795
v -0.00584784 -0.0471564 0.00895563
vn 0.000289093 -0.0022035 0.999998
v 0.042779 -0.00815581 0.00902751
vn 0.000289093 -0.0022035 0.999998
v -0.0425271 -0.0106913 0.00904659
vn 0.000289093 -0.0022035 0.999998
v -0.00584784 -0.0471564 0.00895563
vn -0.549964 -0.834929 0.0207991
v -0.0309264 -0.0306362 0.00899945
vn -0.549964 -0.834929 0.0207991
v -0.0077111 -0.0463764 -0.00900083
vn -0.549964 -0.834929 0.0207991
v 0.00596131 -0.0472205 -0.00889466
vn -0.0612906 -0.997435 -0.0369674
v -0.00584784 -0.0471564 0.00895563
vn -0.0612906 -0.997435 -0.0369674
v -0.0077111 -0.0463764 -0.00900083
vn -0.0612906 -0.997435 -0.0369674
v -0.0341595 0.0269112 0.00900278
vn 0.00186333 0.000750371 0.999998
v -0.0425271 -0.0106913 0.00904659
vn 0.00186333 0.000750371 0.999998
v -0.00569414 0.0473506 0.0089344
vn 0.00186333 0.000750371 0.999998
v -0.0341595 0.0269112 0.00900278
vn -0.67052 0.741871 0.00544724
v -0.0255774 0.0346679 0.00900328
vn -0.67052 0.741871 0.00544724
v -0.0363098 0.0250999 -0.00899776
vn -0.67052 0.741871 0.00544724
v 0.00596131 -0.0472205 -0.00889466
vn 0.00171446 -0.000933105 -0.999998
v -0.0396642 -0.017539 -0.00900058
vn 0.00171446 -0.000933105 -0.999998
v -0.0431313 0.00281039 -0.00902551
vn 0.00171446 -0.000933105 -0.999998
v 0.00738885 -0.0465877 0.00900647
vn 0.521725 -0.853037 -0.0114515
v 0.00596131 -0.0472205 -0.00889466
vn 0.521725 -0.853037 -0.0114515
v 0.0175089 -0.0401544 -0.00915481
vn 0.521725 -0.853037 -0.0114515
v 0.042779 -0.00815581 0.00902751
vn 0.0027286 -0.00306011 0.999992
v 0.00738885 -0.0465877 0.00900647
vn 0.0027286 -0.00306011 0.999992
v 0.033359 -0.0282194 0.00899182
vn 0.0027286 -0.00306011 0.999992
v 0.0311279 0.0304866 -0.00900132
vn 0.842847 0.538103 0.00729723
v 0.0415538 0.0139116 0.00902683
vn 0.842847 0.538103 0.00729723
v 0.0407343 0.0154397 -0.0089931
vn 0.842847 0.538103 0.00729723
v -0.0431313 0.00281039 -0.00902551
vn -0.0163594 -0.00401236 -0.999858
v -0.0396642 -0.017539 -0.00900058
vn -0.0163594 -0.00401236 -0.999858
v -0.0427188 -0.00602093 -0.00899682
vn -0.0163594 -0.00401236 -0.999858
v 0.0311279 0.0304866 -0.00900132
vn 0.00492693 0.00259879 -0.999984
v 0.0407343 0.0154397 -0.0089931
vn 0.00492693 0.00259879 -0.999984
v 0.0433679 -0.00150493 -0.00902416
vn 0.00492693 0.00259879 -0.999984
v 0.0311279 0.0304866 -0.00900132
vn -0.00141062 0.000174052 -0.999999
v 0.0433679 -0.00150493 -0.00902416
vn -0.00141062 0.000174052 -0.999999
v -0.00589803 0.0473471 -0.00894616
vn -0.00141062 0.000174052 -0.999999
v -0.00569414 0.0473506 0.0089344
vn 0.0711447 0.997466 -0.00100223
v 0.0077111 0.0463764 -0.00900065
vn 0.0711447 0.997466 -0.00100223
v -0.00589803 0.0473471 -0.00894616
vn 0.0711447 0.997466 -0.00100223
v -0.0341595 0.0269112 0.00900278
vn 0.0119107 -0.0132428 0.999841
v -0.00569414 0.0473506 0.0089344
vn 0.0119107 -0.0132428 0.999841
v -0.0255774 0.0346679 0.00900328
vn 0.0119107 -0.0132428 0.999841
v 0.0407343 0.0154397 -0.0089931
vn 0.987625 0.153559 -0.0318972
v 0.0415538 0.0139116 0.00902683
vn 0.987625 0.153559 -0.0318972
v 0.0433679 -0.00150493 -0.00902416
vn 0.987625 0.153559 -0.0318972
v 0.0433679 -0.00150493 -0.00902416
vn 0.997063 0.0553558 0.0529223
v 0.0415538 0.0139116 0.00902683
vn 0.997063 0.0553558 0.0529223
v 0.042779 -0.00815581 0.00902751
vn 0.997063 0.0553558 0.0529223
v 0.00738885 -0.0465877 0.00900647
vn 0.0427807 -0.998576 0.0318868
v -0.00584784 -0.0471564 0.00895563
vn 0.0427807 -0.998576 0.0318868
v 0.00596131 -0.0472205 -0.00889466
vn 0.0427807 -0.998576 0.0318868
v 0.0369025 -0.0237742 -0.00900191
vn 0.0115622 -0.00435565 -0.999924
v 0.0175089 -0.0401544 -0.00915481
vn 0.0115622 -0.00435565 -0.999924
v 0.0433679 -0.00150493 -0.00902416
vn 0.0115622 -0.00435565 -0.999924
v -0.00584784 -0.0471564 0.00895563
vn -0.00397451 0.00311248 0.999987
v 0.00738885 -0.0465877 0.00900647
vn -0.00397451 0.00311248 0.999987
v 0.042779 -0.00815581 0.00902751
vn -0.00397451 0.00311248 0.999987
v 0.00596131 -0.0472205 -0.00889466
vn 0.00856083 0.0128995 -0.99988
v -0.0077111 -0.0463764 -0.00900083
vn 0.00856083 0.0128995 -0.99988
v -0.0313151 -0.0302727 -0.00899517
vn 0.00856083 0.0128995 -0.99988
v -0.00589803 0.0473471 -0.00894616
vn -0.537746 0.843085 0.00597035
v -0.0255774 0.0346679 0.00900328
vn -0.537746 0.843085 0.00597035
v -0.00569414 0.0473506 0.0089344
vn -0.537746 0.843085 0.00597035
v 0.0311279 0.0304866 -0.00900132
vn -0.0044708 -0.00654624 -0.999969
v -0.00589803 0.0473471 -0.00894616
vn -0.0044708 -0.00654624 -0.999969
v 0.0077111 0.0463764 -0.00900065
vn -0.0044708 -0.00654624 -0.999969
v 0.0369025 -0.0237742 -0.00900191
vn 0.644323 -0.762282 -0.0614327
v 0.033359 -0.0282194 0.00899182
vn 0.644323 -0.762282 -0.0614327
v 0.0175089 -0.0401544 -0.00915481
vn 0.644323 -0.762282 -0.0614327
v 0.0077111 0.0463764 0.00900511
vn 0.564485 0.825424 0.00569777
v 0.0308269 0.0305682 0.00900082
vn 0.564485 0.825424 0.00569777
v 0.0311279 0.0304866 -0.00900132
vn 0.564485 0.825424 0.00569777
v -0.0416341 0.0121101 0.00900026
vn -0.997268 0.0391828 0.062617
v -0.0431313 0.00281039 -0.00902551
vn -0.997268 0.0391828 0.062617
v -0.0425271 -0.0106913 0.00904659
vn -0.997268 0.0391828 0.062617
v -0.0425271 -0.0106913 0.00904659
vn -0.965074 -0.255923 -0.0559885
v -0.0427188 -0.00602093 -0.00899682
vn -0.965074 -0.255923 -0.0559885
v -0.0396642 -0.017539 -0.00900058
vn -0.965074 -0.255923 -0.0559885
v -0.0416341 0.0121101 0.00900026
vn -0.953755 0.291977 -0.0714168
v -0.0363098 0.0250999 -0.00899776
vn -0.953755 0.291977 -0.0714168
v -0.0431313 0.00281039 -0.00902551
vn -0.953755 0.291977 -0.0714168
v -0.0309264 -0.0306362 0.00899945
vn -0.836253 -0.548299 0.00698865
v -0.0396642 -0.017539 -0.00900058
vn -0.836253 -0.548299 0.00698865
v -0.0313151 -0.0302727 -0.00899517
vn -0.836253 -0.548299 0.00698865
v 0.0308269 0.0305682 0.00900082
vn -0.00592365 -0.00893323 0.999943
v 0.0077111 0.0463764 0.00900511
vn -0.00592365 -0.00893323 0.999943
v -0.00569414 0.0473506 0.0089344
vn -0.00592365 -0.00893323 0.999943
v 0.0077111 0.0463764 0.00900511
vn 0.561498 0.827478 0
v 0.0311279 0.0304866 -0.00900132
vn 0.561498 0.827478 0
v 0.0077111 0.0463764 -0.00900065
vn 0.561498 0.827478 0
v 0.0308269 0.0305682 0.00900082
vn -0.00260129 -0.00011365 0.999997
v 0.042779 -0.00815581 0.00902751
vn -0.00260129 -0.00011365 0.999997
v 0.0415538 0.0139116 0.00902683
vn -0.00260129 -0.00011365 0.999997
v 0.00738885 -0.0465877 0.00900647
vn 0.577153 -0.815987 0.0325591
v 0.0175089 -0.0401544 -0.00915481
vn 0.577153 -0.815987 0.0325591
v 0.033359 -0.0282194 0.00899182
vn 0.577153 -0.815987 0.0325591
v -0.0309264 -0.0306362 0.00899945
vn -0.863119 -0.502148 0.0536107
v -0.0425271 -0.0106913 0.00904659
vn -0.863119 -0.502148 0.0536107
v -0.0396642 -0.017539 -0.00900058
vn -0.863119 -0.502148 0.0536107
v 0.042779 -0.00815581 0.00902751
vn 0.90273 -0.423964 0.0730342
v 0.033359 -0.0282194 0.00899182
vn 0.90273 -0.423964 0.0730342
v 0.0369025 -0.0237742 -0.00900191
vn 0.90273 -0.423964 0.0730342
v 0.042779 -0.00815581 0.00902751
vn 0.957886 -0.278171 -0.0712391
v 0.0369025 -0.0237742 -0.00900191
vn 0.957886 -0.278171 -0.0712391
v 0.0433679 -0.00150493 -0.00902416
vn 0.957886 -0.278171 -0.0712391
v -0.0431313 0.00281039 -0.00902551
vn -0.99891 -0.0466623 -0.00146336
v -0.0427188 -0.00602093 -0.00899682
vn -0.99891 -0.0466623 -0.00146336
v -0.0425271 -0.0106913 0.00904659
vn -0.99891 -0.0466623 -0.00146336
v -0.0416341 0.0121101 0.00900026
vn -0.00472633 0.00221673 0.999986
v -0.0425271 -0.0106913 0.00904659
vn -0.00472633 0.00221673 0.999986
v -0.0341595 0.0269112 0.00900278
vn -0.00472633 0.00221673 0.999986
v -0.00589803 0.0473471 -0.00894616
vn 0.00106337 0.002669 -0.999996
v 0.0433679 -0.00150493 -0.00902416
vn 0.00106337 0.002669 -0.999996
v 0.0175089 -0.0401544 -0.00915481
vn 0.00106337 0.002669 -0.999996
v -0.00584784 -0.0471564 0.00895563
vn 0.000308512 -0.00218397 0.999998
v -0.0425271 -0.0106913 0.00904659
vn 0.000308512 -0.00218397 0.999998
v -0.0309264 -0.0306362 0.00899945
vn 0.000308512 -0.00218397 0.999998
v -0.0425271 -0.0106913 0.00904659
vn 0.000169345 0.00182536 0.999998
v 0.042779 -0.00815581 0.00902751
vn 0.000169345 0.00182536 0.999998
v -0.00569414 0.0473506 0.0089344
vn 0.000169345 0.00182536 0.999998
v 0.0308269 0.0305682 0.00900082
vn 0.840674 0.541418 0.0116016
v 0.0415538 0.0139116 0.00902683
vn 0.840674 0.541418 0.0116016
v 0.0311279 0.0304866 -0.00900132
vn 0.840674 0.541418 0.0116016
v -0.0077111 -0.0463764 -0.00900083
vn -0.563572 -0.826055 -0.00451208
v -0.0309264 -0.0306362 0.00899945
vn -0.563572 -0.826055 -0.00451208
v -0.0313151 -0.0302727 -0.00899517
vn -0.563572 -0.826055 -0.00451208
v -0.0431313 0.00281039 -0.00902551
vn 0.00101246 0.000935279 -0.999999
v -0.0363098 0.0250999 -0.00899776
vn 0.00101246 0.000935279 -0.999999
v -0.00589803 0.0473471 -0.00894616
vn 0.00101246 0.000935279 -0.999999
v -0.0416341 0.0121101 0.00900026
vn -0.890967 0.449931 0.0611582
v -0.0341595 0.0269112 0.00900278
vn -0.890967 0.449931 0.0611582
v -0.0363098 0.0250999 -0.00899776
vn -0.890967 0.449931 0.0611582
v -0.00589803 0.0473471 -0.00894616
vn -0.588589 0.804773 -0.0768351
v -0.0363098 0.0250999 -0.00899776
vn -0.588589 0.804773 -0.0768351
v -0.0255774 0.0346679 0.00900328
vn -0.588589 0.804773 -0.0768351
v 0.00596131 -0.0472205 -0.00889466
vn 0.00356639 0.00191365 -0.999992
v -0.0313151 -0.0302727 -0.00899517
vn 0.00356639 0.00191365 -0.999992
v -0.0396642 -0.017539 -0.00900058
vn 0.00356639 0.00191365 -0.999992
v -0.0431313 0.00281039 -0.00902551
vn -0.00054629 0.00223841 -0.999997
v -0.00589803 0.0473471 -0.00894616
vn -0.00054629 0.00223841 -0.999997
v 0.0175089 -0.0401544 -0.00915481
vn -0.00054629 0.00223841 -0.999997
f 1//1 2//2 3//3
f 4//4 5//5 6//6
f 7//7 8//8 9//9
f 10//10 11//11 12//12
f 13//13 14//14 15//15
f 16//16 17//17 18//18
f 19//19 20//20 21//21
f 22//22 23//23 24//24
f 25//25 26//26 27//27
f 28//28 29//29 30//30
f 31//31 32//32 33//33
f 34//34 35//35 36//36
f 37//37 38//38 39//39
f 40//40 41//41 42//42
f 43//43 44//44 45//45
f 46//46 47//47 48//48
f 49//49 50//50 51//51
f 52//52 53//53 54//54
f 55//55 56//56 57//57
f 58//58 59//59 60//60
f 61//61 62//62 63//63
f 64//64 65//65 66//66
f 67//67 68//68 69//69
f 70//70 71//71 72//72
f 73//73 74//74 75//75
f 76//76 77//77 78//78
f 79//79 80//80 81//81
f 82//82 83//83 84//84
f 85//85 86//86 87//87
f 88//88 89//89 90//90
f 91//91 92//92 93//93
f 94//94 95//95 96//96
f 97//97 98//98 99//99
f 100//100 101//101 102//102
f 103//103 104//104 105//105
f 106//106 107//107 108//108
f 109//109 110//110 111//111
f 112//112 113//113 114//114
f 115//115 116//116 117//117
f 118//118 119//119 120//120
f 121//121 122//122 123//123
f 124//124 125//125 126//126
f 127//127 128//128 129//129
f 130//130 131//131 132//132
f 133//133 134//134 135//135
f 136//136 137//137 138//138
f 139//139 140//140 141//141
f 142//142 143//143 144//144
f 145//145 146//146 147//147
f 148//148 149//149 150//150
