# Created by Open3D 
# object name: D116-876.0002-G-proximal_convdec
# number of vertices: 620
# number of triangles: 208
v 0.0293258 -0.0511544 0.01
vn 0.218272 -0.640312 -0.73645
v 0.0108057 -0.0574676 0.01
vn 0.218272 -0.640312 -0.73645
v 0.0116501 -0.0456649 -1.16776e-05
vn 0.218272 -0.640312 -0.73645
v -0.0273586 -0.0527727 0.01
vn -0.415379 -0.519709 -0.746568
v -0.086016 -0.0241406 0.0227044
vn -0.415379 -0.519709 -0.746568
v -0.0355972 -0.0317421 -5.62092e-05
vn -0.415379 -0.519709 -0.746568
v 0.0486356 -0.00639445 -0.000154043
vn 0.0104739 0.00799925 -0.999913
v 0.0335627 -0.0348331 -0.000539437
vn 0.0104739 0.00799925 -0.999913
v 0.043257 0.0199036 -5.31937e-19
vn 0.0104739 0.00799925 -0.999913
v -0.041895 0.023817 -0.0004232
vn -0.420207 0.461657 -0.781216
v -0.0866591 0.0300376 0.0273309
vn -0.420207 0.461657 -0.781216
v -0.0255201 0.0394378 -9.03361e-19
vn -0.420207 0.461657 -0.781216
v 0.0293258 -0.0511544 0.01
vn 0.577218 -0.718895 -0.38731
v 0.0402617 -0.0423737 0.01
vn 0.577218 -0.718895 -0.38731
v 0.0585063 -0.0520171 0.0550898
vn 0.577218 -0.718895 -0.38731
v -0.041895 0.023817 -0.0004232
vn -0.0142199 -0.00821639 -0.999865
v -0.0151249 -0.0454117 -0.000235033
vn -0.0142199 -0.00821639 -0.999865
v -0.0355972 -0.0317421 -5.62092e-05
vn -0.0142199 -0.00821639 -0.999865
v 0.0486356 -0.00639445 -0.000154043
vn 0.710124 -0.198148 -0.675619
v 0.0586439 -0.00485379 0.00991356
vn 0.710124 -0.198148 -0.675619
v 0.0526701 -0.0265575 0.01
vn 0.710124 -0.198148 -0.675619
v 0.0417727 0.0433181 0.0100196
vn 0.459164 0.826243 -0.326329
v 0.0182563 0.056379 0.01
vn 0.459164 0.826243 -0.326329
v 0.0585 0.0567878 0.0676603
vn 0.459164 0.826243 -0.326329
v 0.0335627 -0.0348331 -0.000539437
vn 0.00771704 -0.0642326 -0.997905
v 0.0116501 -0.0456649 -1.16776e-05
vn 0.00771704 -0.0642326 -0.997905
v -0.0151249 -0.0454117 -0.000235033
vn 0.00771704 -0.0642326 -0.997905
v -0.0918251 -0.00901164 0.0207018
vn -0.607828 0.0661091 -0.791312
v -0.0971881 0.00333085 0.0258524
vn -0.607828 0.0661091 -0.791312
v -0.0863831 0.0030736 0.0175313
vn -0.607828 0.0661091 -0.791312
v -0.0861337 -0.0049818 0.13547
vn -0.202522 -0.261401 0.943745
v -0.0858258 -0.0212033 0.131043
vn -0.202522 -0.261401 0.943745
v -0.068407 -0.00709403 0.138689
vn -0.202522 -0.261401 0.943745
v -0.086091 0.02585 0.128643
vn -0.63286 0.383488 0.672626
v -0.096332 0.0275925 0.118014
vn -0.63286 0.383488 0.672626
v -0.096327 0.0164876 0.12435
vn -0.63286 0.383488 0.672626
v 0.0586087 -0.0258458 0.13481
vn 0.999339 -0.00144351 0.0363224
v 0.0606514 -0.00021781 0.0796277
vn 0.999339 -0.00144351 0.0363224
v 0.0584787 -0.0108899 0.138981
vn 0.999339 -0.00144351 0.0363224
v -0.0594743 0.0441933 0.120948
vn -0.00367108 0.640147 0.768243
v -0.0540104 0.0299038 0.132881
vn -0.00367108 0.640147 0.768243
v 0.0585 0.0372492 0.127298
vn -0.00367108 0.640147 0.768243
v 0.0335627 -0.0348331 -0.000539437
vn -0.00522268 -0.00473754 -0.999975
v -0.0151249 -0.0454117 -0.000235033
vn -0.00522268 -0.00473754 -0.999975
v -0.041895 0.023817 -0.0004232
vn -0.00522268 -0.00473754 -0.999975
v -0.0962691 -0.0226254 0.121738
vn -0.635173 -0.497784 0.590565
v -0.0975387 -0.035019 0.109926
vn -0.635173 -0.497784 0.590565
v -0.0888849 -0.0395563 0.115409
vn -0.635173 -0.497784 0.590565
v -0.0962691 -0.0226254 0.121738
vn -0.614514 -0.497028 0.612646
v -0.0888849 -0.0395563 0.115409
vn -0.614514 -0.497028 0.612646
v -0.0855947 -0.0334354 0.123675
vn -0.614514 -0.497028 0.612646
v -0.0880548 -0.0516451 0.0588018
vn -0.277423 -0.960582 -0.0178828
v -0.0726196 -0.0562795 0.0682882
vn -0.277423 -0.960582 -0.0178828
v -0.0894935 -0.0517098 0.0845963
vn -0.277423 -0.960582 -0.0178828
v 0.0417727 0.0433181 0.0100196
vn 0.594219 0.347971 -0.725134
v 0.0560621 0.0186928 0.00991225
vn 0.594219 0.347971 -0.725134
v 0.043257 0.0199036 -5.31937e-19
vn 0.594219 0.347971 -0.725134
v 0.0335627 -0.0348331 -0.000539437
vn 0.572775 -0.449363 -0.685567
v 0.0526701 -0.0265575 0.01
vn 0.572775 -0.449363 -0.685567
v 0.0402617 -0.0423737 0.01
vn 0.572775 -0.449363 -0.685567
v -0.00617355 -0.058598 0.01
vn -0.104966 -0.991234 -0.0802288
v -0.0565197 -0.0583629 0.0729648
vn -0.104966 -0.991234 -0.0802288
v -0.0726196 -0.0562795 0.0682882
vn -0.104966 -0.991234 -0.0802288
v 0.0585 -0.051763 0.109564
vn 0.00971783 -0.792938 0.609225
v 0.0585 -0.0404588 0.124277
vn 0.00971783 -0.792938 0.609225
v -0.0527781 -0.0434076 0.122214
vn 0.00971783 -0.792938 0.609225
v -0.0594059 0.0535343 0.105848
vn -0.165084 0.860577 0.481824
v -0.0716902 0.0536441 0.101443
vn -0.165084 0.860577 0.481824
v -0.074288 0.0461041 0.11402
vn -0.165084 0.860577 0.481824
v 0.0586087 -0.0258458 0.13481
vn 0.999358 -0.0255467 0.025129
v 0.0585 -0.0404588 0.124277
vn 0.999358 -0.0255467 0.025129
v 0.0606514 -0.00021781 0.0796277
vn 0.999358 -0.0255467 0.025129
v 0.0585075 -0.0582354 0.0740767
vn 0.412538 -0.865688 -0.283543
v 0.0293258 -0.0511544 0.01
vn 0.412538 -0.865688 -0.283543
v 0.0585063 -0.0520171 0.0550898
vn 0.412538 -0.865688 -0.283543
v -0.068407 -0.00709403 0.138689
vn -0.148098 -0.256534 0.955122
v -0.0658678 -0.0225702 0.134926
vn -0.148098 -0.256534 0.955122
v -0.0522823 -0.0101107 0.140379
vn -0.148098 -0.256534 0.955122
v -0.0858258 -0.0212033 0.131043
vn -0.197514 -0.508546 0.838075
v -0.0855947 -0.0334354 0.123675
vn -0.197514 -0.508546 0.838075
v -0.0644854 -0.033081 0.128865
vn -0.197514 -0.508546 0.838075
v -0.0594743 0.0441933 0.120948
vn -0.186481 0.628928 0.754768
v -0.0883338 0.0401126 0.117218
vn -0.186481 0.628928 0.754768
v -0.0715952 0.0298106 0.129938
vn -0.186481 0.628928 0.754768
v 0.0591384 0.047711 0.0476354
vn 0.999087 0.0405351 0.0134776
v 0.0585 0.0567878 0.0676603
vn 0.999087 0.0405351 0.0134776
v 0.0606514 -0.00021781 0.0796277
vn 0.999087 0.0405351 0.0134776
v -0.0983531 0.0327195 0.0396172
vn -0.997973 -0.0101368 -0.0628222
v -0.0971881 0.00333085 0.0258524
vn -0.997973 -0.0101368 -0.0628222
v -0.0978466 -0.0350946 0.0425133
vn -0.997973 -0.0101368 -0.0628222
v 0.0526701 -0.0265575 0.01
vn 0.740403 -0.539745 -0.400597
v 0.0586578 -0.0404507 0.0397858
vn 0.740403 -0.539745 -0.400597
v 0.0585063 -0.0520171 0.0550898
vn 0.740403 -0.539745 -0.400597
v -0.0151249 -0.0454117 -0.000235033
vn 0.000796799 -0.612819 -0.790223
v 0.0116501 -0.0456649 -1.16776e-05
vn 0.000796799 -0.612819 -0.790223
v -0.00617355 -0.058598 0.01
vn 0.000796799 -0.612819 -0.790223
v -0.0936786 -0.0224133 0.0263744
vn -0.882175 -0.231766 -0.409941
v -0.0978466 -0.0350946 0.0425133
vn -0.882175 -0.231766 -0.409941
v -0.0969795 -0.0160088 0.0298569
vn -0.882175 -0.231766 -0.409941
v -0.0918251 -0.00901164 0.0207018
vn -0.429738 -0.278695 -0.858868
v -0.0355972 -0.0317421 -5.62092e-05
vn -0.429738 -0.278695 -0.858868
v -0.086016 -0.0241406 0.0227044
vn -0.429738 -0.278695 -0.858868
v -0.041895 0.023817 -0.0004232
vn -0.427525 0.441957 -0.788604
v -0.0855754 0.0178259 0.0198996
vn -0.427525 0.441957 -0.788604
v -0.0866591 0.0300376 0.0273309
vn -0.427525 0.441957 -0.788604
v -0.0884822 0.0514135 0.0883904
vn -0.28431 0.958484 0.0218262
v -0.0737602 0.0558139 0.0869199
vn -0.28431 0.958484 0.0218262
v -0.0888654 0.0517283 0.0695745
vn -0.28431 0.958484 0.0218262
v -0.0883338 0.0401126 0.117218
vn -0.716443 0.489301 0.497286
v -0.0977053 0.0364309 0.107339
vn -0.716443 0.489301 0.497286
v -0.096332 0.0275925 0.118014
vn -0.716443 0.489301 0.497286
v -0.0607 0.0585544 0.0760373
vn -0.114307 0.987178 0.111415
v -0.0737602 0.0558139 0.0869199
vn -0.114307 0.987178 0.111415
v -0.054556 0.0574193 0.0923982
vn -0.114307 0.987178 0.111415
v -0.0936786 -0.0224133 0.0263744
vn -0.822324 -0.121562 -0.555884
v -0.0969795 -0.0160088 0.0298569
vn -0.822324 -0.121562 -0.555884
v -0.0918251 -0.00901164 0.0207018
vn -0.822324 -0.121562 -0.555884
v -0.0918251 -0.00901164 0.0207018
vn -0.821035 -0.12423 -0.557198
v -0.0969795 -0.0160088 0.0298569
vn -0.821035 -0.12423 -0.557198
v -0.0971881 0.00333085 0.0258524
vn -0.821035 -0.12423 -0.557198
v 0.0585525 0.00355502 0.140725
vn 0.0116862 -0.119915 0.992715
v -0.0522823 -0.0101107 0.140379
vn 0.0116862 -0.119915 0.992715
v 0.0584787 -0.0108899 0.138981
vn 0.0116862 -0.119915 0.992715
v -0.068407 -0.00709403 0.138689
vn -0.201573 -0.262516 0.943639
v -0.0858258 -0.0212033 0.131043
vn -0.201573 -0.262516 0.943639
v -0.0658678 -0.0225702 0.134926
vn -0.201573 -0.262516 0.943639
v -0.0936786 -0.0224133 0.0263744
vn -0.460648 -0.528645 -0.712978
v -0.086016 -0.0241406 0.0227044
vn -0.460648 -0.528645 -0.712978
v -0.0847701 -0.0362364 0.030868
vn -0.460648 -0.528645 -0.712978
v 0.0585 -0.051763 0.109564
vn 0.0052456 -0.947882 0.318579
v -0.053516 -0.0584862 0.0914046
vn 0.0052456 -0.947882 0.318579
v 0.0585 -0.0576308 0.0921053
vn 0.0052456 -0.947882 0.318579
v -0.0729416 -0.0414758 0.120064
vn -0.141861 -0.64465 0.7512
v -0.0527781 -0.0434076 0.122214
vn -0.141861 -0.64465 0.7512
v -0.0644854 -0.033081 0.128865
vn -0.141861 -0.64465 0.7512
v -0.0861337 -0.0049818 0.13547
vn -0.177328 0.0115133 0.984084
v -0.068407 -0.00709403 0.138689
vn -0.177328 0.0115133 0.984084
v -0.0699384 0.00769714 0.13824
vn -0.177328 0.0115133 0.984084
v -0.0883338 0.0401126 0.117218
vn -0.259051 0.851063 0.456711
v -0.074288 0.0461041 0.11402
vn -0.259051 0.851063 0.456711
v -0.0716902 0.0536441 0.101443
vn -0.259051 0.851063 0.456711
v 0.0486356 -0.00639445 -0.000154043
vn 0.554345 -0.283205 -0.782622
v 0.0526701 -0.0265575 0.01
vn 0.554345 -0.283205 -0.782622
v 0.0335627 -0.0348331 -0.000539437
vn 0.554345 -0.283205 -0.782622
v -0.0594059 0.0535343 0.105848
vn -0.000134811 0.960737 0.277462
v 0.0584998 0.0547924 0.101549
vn -0.000134811 0.960737 0.277462
v -0.054556 0.0574193 0.0923982
vn -0.000134811 0.960737 0.277462
v -0.0716902 0.0536441 0.101443
vn -0.26525 0.947353 0.179344
v -0.0737602 0.0558139 0.0869199
vn -0.26525 0.947353 0.179344
v -0.0884822 0.0514135 0.0883904
vn -0.26525 0.947353 0.179344
v -0.0053736 0.0592253 0.01
vn 0.119102 0.988782 -0.0901368
v 0.0585 0.0567878 0.0676603
vn 0.119102 0.988782 -0.0901368
v 0.0182563 0.056379 0.01
vn 0.119102 0.988782 -0.0901368
v 0.0417727 0.0433181 0.0100196
vn 0.477935 0.371009 -0.796197
v 0.043257 0.0199036 -5.31937e-19
vn 0.477935 0.371009 -0.796197
v 0.0267807 0.0409394 -8.81012e-05
vn 0.477935 0.371009 -0.796197
v 0.0267807 0.0409394 -8.81012e-05
vn 0.150122 0.597537 -0.787663
v -0.0040077 0.0486613 -9.81483e-05
vn 0.150122 0.597537 -0.787663
v 0.0182563 0.056379 0.01
vn 0.150122 0.597537 -0.787663
v -0.041895 0.023817 -0.0004232
vn -0.0238283 -0.00930426 -0.999673
v -0.0355972 -0.0317421 -5.62092e-05
vn -0.0238283 -0.00930426 -0.999673
v -0.0484378 -0.00742859 2.35669e-05
vn -0.0238283 -0.00930426 -0.999673
v -0.0865895 0.0507933 0.0560037
vn -0.301978 0.946251 -0.115838
v -0.0888654 0.0517283 0.0695745
vn -0.301978 0.946251 -0.115838
v -0.0751851 0.0556043 0.0655734
vn -0.301978 0.946251 -0.115838
v -0.0751851 0.0556043 0.0655734
vn -0.270261 0.962749 0.00858707
v -0.0888654 0.0517283 0.0695745
vn -0.270261 0.962749 0.00858707
v -0.0737602 0.0558139 0.0869199
vn -0.270261 0.962749 0.00858707
v 0.0486356 -0.00639445 -0.000154043
vn 0.614578 0.130254 -0.778029
v 0.043257 0.0199036 -5.31937e-19
vn 0.614578 0.130254 -0.778029
v 0.0560621 0.0186928 0.00991225
vn 0.614578 0.130254 -0.778029
v 0.0586439 -0.00485379 0.00991356
vn 0.918476 -0.254012 -0.303117
v 0.0586578 -0.0404507 0.0397858
vn 0.918476 -0.254012 -0.303117
v 0.0526701 -0.0265575 0.01
vn 0.918476 -0.254012 -0.303117
v -0.00617355 -0.058598 0.01
vn 0.0431453 -0.648066 -0.760361
v 0.0116501 -0.0456649 -1.16776e-05
vn 0.0431453 -0.648066 -0.760361
v 0.0108057 -0.0574676 0.01
vn 0.0431453 -0.648066 -0.760361
v -0.0972647 -0.0448875 0.0908454
vn -0.999318 -0.0366507 0.0046053
v -0.0975387 -0.035019 0.109926
vn -0.999318 -0.0366507 0.0046053
v -0.0978466 -0.0350946 0.0425133
vn -0.999318 -0.0366507 0.0046053
v -0.0962691 -0.0226254 0.121738
vn -0.966831 -0.117232 0.226923
v -0.0967338 -0.0120587 0.125217
vn -0.966831 -0.117232 0.226923
v -0.0975387 -0.035019 0.109926
vn -0.966831 -0.117232 0.226923
v 0.0417727 0.0433181 0.0100196
vn 0.530604 0.778247 -0.335845
v 0.0585 0.0567878 0.0676603
vn 0.530604 0.778247 -0.335845
v 0.0591384 0.047711 0.0476354
vn 0.530604 0.778247 -0.335845
v -0.0040077 0.0486613 -9.81483e-05
vn -0.220905 0.658842 -0.719116
v -0.0301874 0.0509054 0.01
vn -0.220905 0.658842 -0.719116
v -0.0053736 0.0592253 0.01
vn -0.220905 0.658842 -0.719116
v -0.0716902 0.0536441 0.101443
vn -0.295397 0.929416 0.221194
v -0.0884822 0.0514135 0.0883904
vn -0.295397 0.929416 0.221194
v -0.0883613 0.0487093 0.0999144
vn -0.295397 0.929416 0.221194
v -0.0983531 0.0327195 0.0396172
vn -0.999951 -0.00198126 0.0096738
v -0.0975387 -0.035019 0.109926
vn -0.999951 -0.00198126 0.0096738
v -0.0977053 0.0364309 0.107339
vn -0.999951 -0.00198126 0.0096738
v 0.0335627 -0.0348331 -0.000539437
vn 0.263345 -0.570643 -0.777828
v 0.0293258 -0.0511544 0.01
vn 0.263345 -0.570643 -0.777828
v 0.0116501 -0.0456649 -1.16776e-05
vn 0.263345 -0.570643 -0.777828
v -0.0607 0.0585544 0.0760373
vn -0.20226 0.979324 0.00388516
v -0.0751851 0.0556043 0.0655734
vn -0.20226 0.979324 0.00388516
v -0.0737602 0.0558139 0.0869199
vn -0.20226 0.979324 0.00388516
v -0.096327 0.0164876 0.12435
vn -0.963041 0.133156 0.234139
v -0.096332 0.0275925 0.118014
vn -0.963041 0.133156 0.234139
v -0.0977053 0.0364309 0.107339
vn -0.963041 0.133156 0.234139
v -0.086091 0.02585 0.128643
vn -0.586209 0.294905 0.75458
v -0.096327 0.0164876 0.12435
vn -0.586209 0.294905 0.75458
v -0.0859851 0.0126835 0.133871
vn -0.586209 0.294905 0.75458
v -0.0594059 0.0535343 0.105848
vn -0.0808689 0.964973 0.249574
v -0.054556 0.0574193 0.0923982
vn -0.0808689 0.964973 0.249574
v -0.0716902 0.0536441 0.101443
vn -0.0808689 0.964973 0.249574
v -0.0983531 0.0327195 0.0396172
vn -0.997231 0.0741595 0.005475
v -0.0977053 0.0364309 0.107339
vn -0.997231 0.0741595 0.005475
v -0.0972458 0.0436229 0.0936171
vn -0.997231 0.0741595 0.005475
v -0.0883613 0.0487093 0.0999144
vn -0.586119 0.78741 0.190921
v -0.0884822 0.0514135 0.0883904
vn -0.586119 0.78741 0.190921
v -0.0972458 0.0436229 0.0936171
vn -0.586119 0.78741 0.190921
v -0.0607 0.0585544 0.0760373
vn -0.00577504 0.997433 0.0713694
v -0.054556 0.0574193 0.0923982
vn -0.00577504 0.997433 0.0713694
v 0.0586549 0.0584524 0.0871207
vn -0.00577504 0.997433 0.0713694
v 0.0586087 -0.0258458 0.13481
vn 0.0102683 -0.268538 0.963214
v 0.0584787 -0.0108899 0.138981
vn 0.0102683 -0.268538 0.963214
v -0.0522823 -0.0101107 0.140379
vn 0.0102683 -0.268538 0.963214
v -0.0556594 0.0115023 0.139949
vn -0.00255622 0.358757 0.933427
v 0.0585 0.0214117 0.136453
vn -0.00255622 0.358757 0.933427
v -0.0540104 0.0299038 0.132881
vn -0.00255622 0.358757 0.933427
v -0.0880548 -0.0516451 0.0588018
vn -0.310397 -0.877418 -0.365776
v -0.0888271 -0.0452384 0.0440889
vn -0.310397 -0.877418 -0.365776
v -0.0273586 -0.0527727 0.01
vn -0.310397 -0.877418 -0.365776
v 0.0585 -0.051763 0.109564
vn 0.999322 -0.0348979 0.011729
v 0.0585 -0.0576308 0.0921053
vn 0.999322 -0.0348979 0.011729
v 0.0606514 -0.00021781 0.0796277
vn 0.999322 -0.0348979 0.011729
v 0.0586549 0.0584524 0.0871207
vn 0.115013 0.989672 -0.0855699
v 0.0585 0.0567878 0.0676603
vn 0.115013 0.989672 -0.0855699
v -0.0053736 0.0592253 0.01
vn 0.115013 0.989672 -0.0855699
v 0.0417727 0.0433181 0.0100196
vn 0.785679 0.457723 -0.416171
v 0.0591384 0.047711 0.0476354
vn 0.785679 0.457723 -0.416171
v 0.0560621 0.0186928 0.00991225
vn 0.785679 0.457723 -0.416171
v 0.0586549 0.0584524 0.0871207
vn 0.00261808 0.96929 0.245906
v -0.054556 0.0574193 0.0923982
vn 0.00261808 0.96929 0.245906
v 0.0584998 0.0547924 0.101549
vn 0.00261808 0.96929 0.245906
v 0.0585 -0.0576308 0.0921053
vn 0.999311 -0.0370859 0.00165936
v 0.0585075 -0.0582354 0.0740767
vn 0.999311 -0.0370859 0.00165936
v 0.0606514 -0.00021781 0.0796277
vn 0.999311 -0.0370859 0.00165936
v 0.0585 0.0372492 0.127298
vn 0.999358 0.0179268 0.0310121
v 0.0585 0.0214117 0.136453
vn 0.999358 0.0179268 0.0310121
v 0.0606514 -0.00021781 0.0796277
vn 0.999358 0.0179268 0.0310121
v -0.0858258 -0.0212033 0.131043
vn -0.197844 -0.509066 0.837681
v -0.0644854 -0.033081 0.128865
vn -0.197844 -0.509066 0.837681
v -0.0658678 -0.0225702 0.134926
vn -0.197844 -0.509066 0.837681
v -0.0634618 -0.0523111 0.10844
vn -0.239287 -0.889306 0.389714
v -0.0888179 -0.0465008 0.10613
vn -0.239287 -0.889306 0.389714
v -0.0731173 -0.053076 0.100766
vn -0.239287 -0.889306 0.389714
v -0.0883338 0.0401126 0.117218
vn -0.229584 0.586247 0.776921
v -0.086091 0.02585 0.128643
vn -0.229584 0.586247 0.776921
v -0.0715952 0.0298106 0.129938
vn -0.229584 0.586247 0.776921
v 0.0586549 0.0584524 0.0871207
vn 0.999324 0.0316101 0.0187611
v 0.0584998 0.0547924 0.101549
vn 0.999324 0.0316101 0.0187611
v 0.0606514 -0.00021781 0.0796277
vn 0.999324 0.0316101 0.0187611
v -0.0883338 0.0401126 0.117218
vn -0.292494 0.856214 0.425846
v -0.0716902 0.0536441 0.101443
vn -0.292494 0.856214 0.425846
v -0.0883613 0.0487093 0.0999144
vn -0.292494 0.856214 0.425846
v -0.0594743 0.0441933 0.120948
vn 0.00909432 0.754547 0.656183
v 0.0585 0.0372492 0.127298
vn 0.00909432 0.754547 0.656183
v 0.0585002 0.0493502 0.113383
vn 0.00909432 0.754547 0.656183
v 0.0267807 0.0409394 -8.81012e-05
vn 0.00332018 0.00625348 -0.999975
v 0.0335627 -0.0348331 -0.000539437
vn 0.00332018 0.00625348 -0.999975
v -0.041895 0.023817 -0.0004232
vn 0.00332018 0.00625348 -0.999975
v 0.0335627 -0.0348331 -0.000539437
vn 0.45259 -0.563677 -0.690963
v 0.0402617 -0.0423737 0.01
vn 0.45259 -0.563677 -0.690963
v 0.0293258 -0.0511544 0.01
vn 0.45259 -0.563677 -0.690963
v -0.0151249 -0.0454117 -0.000235033
vn -0.348715 -0.511984 -0.785029
v -0.0273586 -0.0527727 0.01
vn -0.348715 -0.511984 -0.785029
v -0.0355972 -0.0317421 -5.62092e-05
vn -0.348715 -0.511984 -0.785029
v -0.0040077 0.0486613 -9.81483e-05
vn 0.0836182 0.694197 -0.714912
v -0.0053736 0.0592253 0.01
vn 0.0836182 0.694197 -0.714912
v 0.0182563 0.056379 0.01
vn 0.0836182 0.694197 -0.714912
v -0.0865895 0.0507933 0.0560037
vn -0.296428 0.884087 -0.361277
v -0.0053736 0.0592253 0.01
vn -0.296428 0.884087 -0.361277
v -0.0301874 0.0509054 0.01
vn -0.296428 0.884087 -0.361277
v -0.0972458 0.0436229 0.0936171
vn -0.665836 0.745847 0.0193583
v -0.0888654 0.0517283 0.0695745
vn -0.665836 0.745847 0.0193583
v -0.0972156 0.0445008 0.0608315
vn -0.665836 0.745847 0.0193583
v -0.0865895 0.0507933 0.0560037
vn -0.312659 0.870013 -0.381211
v -0.0301874 0.0509054 0.01
vn -0.312659 0.870013 -0.381211
v -0.0887998 0.0424598 0.0387975
vn -0.312659 0.870013 -0.381211
v 0.0586439 -0.00485379 0.00991356
vn 0.980798 0.107532 -0.162702
v 0.0560621 0.0186928 0.00991225
vn 0.980798 0.107532 -0.162702
v 0.0591384 0.047711 0.0476354
vn 0.980798 0.107532 -0.162702
v -0.0273586 -0.0527727 0.01
vn -0.414656 -0.687937 -0.595653
v -0.0888271 -0.0452384 0.0440889
vn -0.414656 -0.687937 -0.595653
v -0.0847701 -0.0362364 0.030868
vn -0.414656 -0.687937 -0.595653
v -0.0983531 0.0327195 0.0396172
vn -0.689053 0.64862 -0.323263
v -0.0972156 0.0445008 0.0608315
vn -0.689053 0.64862 -0.323263
v -0.0887998 0.0424598 0.0387975
vn -0.689053 0.64862 -0.323263
v -0.0936786 -0.0224133 0.0263744
vn -0.549787 -0.581929 -0.599243
v -0.0888271 -0.0452384 0.0440889
vn -0.549787 -0.581929 -0.599243
v -0.0978466 -0.0350946 0.0425133
vn -0.549787 -0.581929 -0.599243
v -0.0883613 0.0487093 0.0999144
vn -0.637293 0.691121 0.340894
v -0.0972458 0.0436229 0.0936171
vn -0.637293 0.691121 0.340894
v -0.0977053 0.0364309 0.107339
vn -0.637293 0.691121 0.340894
v -0.0887998 0.0424598 0.0387975
vn -0.426485 0.572722 -0.700072
v -0.0301874 0.0509054 0.01
vn -0.426485 0.572722 -0.700072
v -0.0866591 0.0300376 0.0273309
vn -0.426485 0.572722 -0.700072
v -0.0607 0.0585544 0.0760373
vn -8.2412e-05 0.999949 0.0100898
v 0.0586549 0.0584524 0.0871207
vn -8.2412e-05 0.999949 0.0100898
v -0.0053736 0.0592253 0.01
vn -8.2412e-05 0.999949 0.0100898
v 0.0267807 0.0409394 -8.81012e-05
vn 0.00260952 0.00910348 -0.999955
v -0.041895 0.023817 -0.0004232
vn 0.00260952 0.00910348 -0.999955
v -0.0040077 0.0486613 -9.81483e-05
vn 0.00260952 0.00910348 -0.999955
v -0.0936786 -0.0224133 0.0263744
vn -0.594377 -0.56809 -0.5692
v -0.0847701 -0.0362364 0.030868
vn -0.594377 -0.56809 -0.5692
v -0.0888271 -0.0452384 0.0440889
vn -0.594377 -0.56809 -0.5692
v -0.0861337 -0.0049818 0.13547
vn -0.633151 -0.15139 0.759079
v -0.096694 0.000194605 0.127694
vn -0.633151 -0.15139 0.759079
v -0.0967338 -0.0120587 0.125217
vn -0.633151 -0.15139 0.759079
v -0.0301874 0.0509054 0.01
vn -0.41689 0.495072 -0.762304
v -0.0255201 0.0394378 -9.03361e-19
vn -0.41689 0.495072 -0.762304
v -0.0866591 0.0300376 0.0273309
vn -0.41689 0.495072 -0.762304
v -0.0522823 -0.0101107 0.140379
vn -0.0558132 -0.348616 0.935602
v -0.0658678 -0.0225702 0.134926
vn -0.0558132 -0.348616 0.935602
v -0.0515178 -0.027699 0.133871
vn -0.0558132 -0.348616 0.935602
v -0.0594059 0.0535343 0.105848
vn 0.00553958 0.908519 0.417808
v 0.0585002 0.0493502 0.113383
vn 0.00553958 0.908519 0.417808
v 0.0584998 0.0547924 0.101549
vn 0.00553958 0.908519 0.417808
v -0.0699384 0.00769714 0.13824
vn -0.176564 0.26289 0.948533
v -0.0662752 0.019506 0.135649
vn -0.176564 0.26289 0.948533
v -0.0859851 0.0126835 0.133871
vn -0.176564 0.26289 0.948533
v 0.0585525 0.00355502 0.140725
vn -0.00546845 0.0190372 0.999804
v -0.0556594 0.0115023 0.139949
vn -0.00546845 0.0190372 0.999804
v -0.0522823 -0.0101107 0.140379
vn -0.00546845 0.0190372 0.999804
v -0.0556594 0.0115023 0.139949
vn -0.183847 0.264733 0.946634
v -0.0662752 0.019506 0.135649
vn -0.183847 0.264733 0.946634
v -0.0699384 0.00769714 0.13824
vn -0.183847 0.264733 0.946634
v 0.0585002 0.0493502 0.113383
vn 0.999339 0.0330447 0.0151626
v 0.0606514 -0.00021781 0.0796277
vn 0.999339 0.0330447 0.0151626
v 0.0584998 0.0547924 0.101549
vn 0.999339 0.0330447 0.0151626
v -0.0865895 0.0507933 0.0560037
vn -0.553151 0.819605 -0.149236
v -0.0972156 0.0445008 0.0608315
vn -0.553151 0.819605 -0.149236
v -0.0888654 0.0517283 0.0695745
vn -0.553151 0.819605 -0.149236
v -0.0594743 0.0441933 0.120948
vn -0.187747 0.767376 0.613095
v -0.074288 0.0461041 0.11402
vn -0.187747 0.767376 0.613095
v -0.0883338 0.0401126 0.117218
vn -0.187747 0.767376 0.613095
v -0.0634618 -0.0523111 0.10844
vn 0.00107826 -0.939938 0.341344
v -0.053516 -0.0584862 0.0914046
vn 0.00107826 -0.939938 0.341344
v 0.0585 -0.051763 0.109564
vn 0.00107826 -0.939938 0.341344
v 0.0586087 -0.0258458 0.13481
vn -0.00215531 -0.347106 0.937824
v -0.0522823 -0.0101107 0.140379
vn -0.00215531 -0.347106 0.937824
v -0.0515178 -0.027699 0.133871
vn -0.00215531 -0.347106 0.937824
v 0.0526701 -0.0265575 0.01
vn 0.717374 -0.562807 -0.410638
v 0.0585063 -0.0520171 0.0550898
vn 0.717374 -0.562807 -0.410638
v 0.0402617 -0.0423737 0.01
vn 0.717374 -0.562807 -0.410638
v -0.0715952 0.0298106 0.129938
vn -0.189269 0.399427 0.897015
v -0.086091 0.02585 0.128643
vn -0.189269 0.399427 0.897015
v -0.0662752 0.019506 0.135649
vn -0.189269 0.399427 0.897015
v -0.0729416 -0.0414758 0.120064
vn -0.17718 -0.621535 0.763087
v -0.0644854 -0.033081 0.128865
vn -0.17718 -0.621535 0.763087
v -0.0855947 -0.0334354 0.123675
vn -0.17718 -0.621535 0.763087
v -0.096694 0.000194605 0.127694
vn -0.633105 0.169285 0.755328
v -0.0859851 0.0126835 0.133871
vn -0.633105 0.169285 0.755328
v -0.096327 0.0164876 0.12435
vn -0.633105 0.169285 0.755328
v -0.0556594 0.0115023 0.139949
vn -0.100133 0.364564 0.925779
v -0.0540104 0.0299038 0.132881
vn -0.100133 0.364564 0.925779
v -0.0662752 0.019506 0.135649
vn -0.100133 0.364564 0.925779
v 0.0585525 0.00355502 0.140725
vn 0.999347 -0.00932001 0.0349065
v 0.0584787 -0.0108899 0.138981
vn 0.999347 -0.00932001 0.0349065
v 0.0606514 -0.00021781 0.0796277
vn 0.999347 -0.00932001 0.0349065
v -0.0865895 0.0507933 0.0560037
vn -0.582165 0.758588 -0.292623
v -0.0887998 0.0424598 0.0387975
vn -0.582165 0.758588 -0.292623
v -0.0972156 0.0445008 0.0608315
vn -0.582165 0.758588 -0.292623
v 0.0586439 -0.00485379 0.00991356
vn 0.999493 0.0118156 -0.0295673
v 0.0591384 0.047711 0.0476354
vn 0.999493 0.0118156 -0.0295673
v 0.0606514 -0.00021781 0.0796277
vn 0.999493 0.0118156 -0.0295673
v 0.0606514 -0.00021781 0.0796277
vn 0.9993 -0.0339236 -0.0157462
v 0.0585063 -0.0520171 0.0550898
vn 0.9993 -0.0339236 -0.0157462
v 0.0586578 -0.0404507 0.0397858
vn 0.9993 -0.0339236 -0.0157462
v -0.0855754 0.0178259 0.0198996
vn -0.588869 0.38138 -0.712588
v -0.0969729 0.0168865 0.0288155
vn -0.588869 0.38138 -0.712588
v -0.0866591 0.0300376 0.0273309
vn -0.588869 0.38138 -0.712588
v -0.0273586 -0.0527727 0.01
vn -0.42049 -0.536922 -0.731371
v -0.0847701 -0.0362364 0.030868
vn -0.42049 -0.536922 -0.731371
v -0.086016 -0.0241406 0.0227044
vn -0.42049 -0.536922 -0.731371
v -0.070575 -0.0566293 0.0874774
vn -0.249636 -0.94633 0.205284
v -0.0731173 -0.053076 0.100766
vn -0.249636 -0.94633 0.205284
v -0.0852162 -0.0515199 0.0932265
vn -0.249636 -0.94633 0.205284
v -0.0972647 -0.0448875 0.0908454
vn -0.657474 -0.753461 0.00495696
v -0.0967223 -0.0455427 0.0631974
vn -0.657474 -0.753461 0.00495696
v -0.0894935 -0.0517098 0.0845963
vn -0.657474 -0.753461 0.00495696
v -0.0978466 -0.0350946 0.0425133
vn -0.991844 -0.0360137 -0.12226
v -0.0971881 0.00333085 0.0258524
vn -0.991844 -0.0360137 -0.12226
v -0.0969795 -0.0160088 0.0298569
vn -0.991844 -0.0360137 -0.12226
v -0.041895 0.023817 -0.0004232
vn -0.434608 0.165904 -0.885207
v -0.0863831 0.0030736 0.0175313
vn -0.434608 0.165904 -0.885207
v -0.0855754 0.0178259 0.0198996
vn -0.434608 0.165904 -0.885207
v -0.0484378 -0.00742859 2.35669e-05
vn -0.413695 -0.215581 -0.884523
v -0.0355972 -0.0317421 -5.62092e-05
vn -0.413695 -0.215581 -0.884523
v -0.0918251 -0.00901164 0.0207018
vn -0.413695 -0.215581 -0.884523
v -0.0865895 0.0507933 0.0560037
vn -0.22069 0.951296 -0.215247
v -0.0751851 0.0556043 0.0655734
vn -0.22069 0.951296 -0.215247
v -0.0053736 0.0592253 0.01
vn -0.22069 0.951296 -0.215247
v -0.0855754 0.0178259 0.0198996
vn -0.607728 0.168135 -0.776143
v -0.0863831 0.0030736 0.0175313
vn -0.600041 0.158724 -0.784064
v -0.0971881 0.00333085 0.0258524
vn -0.607728 0.168135 -0.776143
v -0.0484378 -0.00742859 2.35669e-05
vn -0.428517 -0.043797 -0.902472
v -0.0918251 -0.00901164 0.0207018
vn -0.428517 -0.043797 -0.902472
v -0.0863831 0.0030736 0.0175313
vn -0.428517 -0.043797 -0.902472
v -0.0040077 0.0486613 -9.81483e-05
vn -0.250638 0.576298 -0.777856
v -0.0255201 0.0394378 -9.03361e-19
vn -0.250638 0.576298 -0.777856
v -0.0301874 0.0509054 0.01
vn -0.250638 0.576298 -0.777856
v -0.041895 0.023817 -0.0004232
vn -0.401613 0.0710422 -0.91305
v -0.0484378 -0.00742859 2.35669e-05
vn -0.401613 0.0710422 -0.91305
v -0.0863831 0.0030736 0.0175313
vn -0.401613 0.0710422 -0.91305
v -0.096694 0.000194605 0.127694
vn -0.999157 -0.00499272 0.040753
v -0.0977053 0.0364309 0.107339
vn -0.999157 -0.00499272 0.040753
v -0.0967338 -0.0120587 0.125217
vn -0.999157 -0.00499272 0.040753
v -0.0880548 -0.0516451 0.0588018
vn -0.184742 -0.967599 -0.17211
v -0.00617355 -0.058598 0.01
vn -0.184742 -0.967599 -0.17211
v -0.0726196 -0.0562795 0.0682882
vn -0.184742 -0.967599 -0.17211
v -0.0883338 0.0401126 0.117218
vn -0.612476 0.433302 0.661153
v -0.096332 0.0275925 0.118014
vn -0.612476 0.433302 0.661153
v -0.086091 0.02585 0.128643
vn -0.612476 0.433302 0.661153
v -0.0983531 0.0327195 0.0396172
vn -0.974253 0.062799 -0.216537
v -0.0969729 0.0168865 0.0288155
vn -0.974253 0.062799 -0.216537
v -0.0971881 0.00333085 0.0258524
vn -0.974253 0.062799 -0.216537
v -0.0983531 0.0327195 0.0396172
vn -0.999963 -0.00727336 0.00457531
v -0.0978466 -0.0350946 0.0425133
vn -0.999963 -0.00727336 0.00457531
v -0.0975387 -0.035019 0.109926
vn -0.999963 -0.00727336 0.00457531
v 0.0585 0.0372492 0.127298
vn 0.999348 0.027233 0.0236973
v 0.0606514 -0.00021781 0.0796277
vn 0.999348 0.027233 0.0236973
v 0.0585002 0.0493502 0.113383
vn 0.999348 0.027233 0.0236973
v 0.0586087 -0.0258458 0.13481
vn 0.00292315 -0.584742 0.811214
v -0.0515178 -0.027699 0.133871
vn 0.00292315 -0.584742 0.811214
v 0.0585 -0.0404588 0.124277
vn 0.00292315 -0.584742 0.811214
v 0.0585 0.0372492 0.127298
vn 0.010287 0.500433 0.865714
v -0.0540104 0.0299038 0.132881
vn 0.010287 0.500433 0.865714
v 0.0585 0.0214117 0.136453
vn 0.010287 0.500433 0.865714
v -0.086091 0.02585 0.128643
vn -0.206573 0.359645 0.909936
v -0.0859851 0.0126835 0.133871
vn -0.206573 0.359645 0.909936
v -0.0662752 0.019506 0.135649
vn -0.206573 0.359645 0.909936
v 0.0585 -0.0576308 0.0921053
vn 0.00742225 -0.999411 0.0335189
v -0.053516 -0.0584862 0.0914046
vn 0.00742225 -0.999411 0.0335189
v 0.0585075 -0.0582354 0.0740767
vn 0.00742225 -0.999411 0.0335189
v 0.0585525 0.00355502 0.140725
vn 0.999373 0.0109894 0.0336532
v 0.0606514 -0.00021781 0.0796277
vn 0.999373 0.0109894 0.0336532
v 0.0585 0.0214117 0.136453
vn 0.999373 0.0109894 0.0336532
v 0.0586439 -0.00485379 0.00991356
vn 0.999374 -0.022504 -0.0272816
v 0.0606514 -0.00021781 0.0796277
vn 0.999374 -0.022504 -0.0272816
v 0.0586578 -0.0404507 0.0397858
vn 0.999374 -0.022504 -0.0272816
v -0.0556594 0.0115023 0.139949
vn -0.119137 0.00113832 0.992877
v -0.0699384 0.00769714 0.13824
vn -0.119137 0.00113832 0.992877
v -0.0522823 -0.0101107 0.140379
vn -0.119137 0.00113832 0.992877
v -0.096694 0.000194605 0.127694
vn -0.988853 0.0509865 0.139896
v -0.096327 0.0164876 0.12435
vn -0.988853 0.0509865 0.139896
v -0.0977053 0.0364309 0.107339
vn -0.988853 0.0509865 0.139896
v -0.0936786 -0.0224133 0.0263744
vn -0.465765 -0.289528 -0.836204
v -0.0918251 -0.00901164 0.0207018
vn -0.465765 -0.289528 -0.836204
v -0.086016 -0.0241406 0.0227044
vn -0.465765 -0.289528 -0.836204
v -0.0880548 -0.0516451 0.0588018
vn -0.643127 -0.713868 -0.277093
v -0.0967223 -0.0455427 0.0631974
vn -0.643127 -0.713868 -0.277093
v -0.0888271 -0.0452384 0.0440889
vn -0.643127 -0.713868 -0.277093
v -0.0527781 -0.0434076 0.122214
vn -0.0649014 -0.591301 0.803835
v -0.0515178 -0.027699 0.133871
vn -0.0649014 -0.591301 0.803835
v -0.0644854 -0.033081 0.128865
vn -0.0649014 -0.591301 0.803835
v -0.0880548 -0.0516451 0.0588018
vn -0.253423 -0.921631 -0.293894
v -0.0273586 -0.0527727 0.01
vn -0.253423 -0.921631 -0.293894
v -0.00617355 -0.058598 0.01
vn -0.253423 -0.921631 -0.293894
v -0.0634618 -0.0523111 0.10844
vn -0.139824 -0.778602 0.611741
v -0.0527781 -0.0434076 0.122214
vn -0.139824 -0.778602 0.611741
v -0.0729416 -0.0414758 0.120064
vn -0.139824 -0.778602 0.611741
v 0.0586549 0.0584524 0.0871207
vn 0.999313 0.0354085 -0.0109831
v 0.0606514 -0.00021781 0.0796277
vn 0.999313 0.0354085 -0.0109831
v 0.0585 0.0567878 0.0676603
vn 0.999313 0.0354085 -0.0109831
v -0.0040077 0.0486613 -9.81483e-05
vn -0.0293238 0.0577746 -0.997899
v -0.041895 0.023817 -0.0004232
vn -0.0293238 0.0577746 -0.997899
v -0.0255201 0.0394378 -9.03361e-19
vn -0.0293238 0.0577746 -0.997899
v -0.0969729 0.0168865 0.0288155
vn -0.615384 0.177634 -0.767951
v 0.0267807 0.0409394 -8.81012e-05
vn 0.014621 0.00726432 -0.999867
v 0.043257 0.0199036 -5.31937e-19
vn 0.014621 0.00726432 -0.999867
v 0.0335627 -0.0348331 -0.000539437
vn 0.014621 0.00726432 -0.999867
v -0.0151249 -0.0454117 -0.000235033
vn -0.186507 -0.678277 -0.710743
v -0.00617355 -0.058598 0.01
vn -0.186507 -0.678277 -0.710743
v -0.0273586 -0.0527727 0.01
vn -0.186507 -0.678277 -0.710743
v -0.0983531 0.0327195 0.0396172
vn -0.995638 0.0932838 0.00158083
v -0.0972458 0.0436229 0.0936171
vn -0.995638 0.0932838 0.00158083
v -0.0972156 0.0445008 0.0608315
vn -0.995638 0.0932838 0.00158083
v -0.0594743 0.0441933 0.120948
vn -0.00344038 0.850434 0.526071
v 0.0585002 0.0493502 0.113383
vn -0.00344038 0.850434 0.526071
v -0.0594059 0.0535343 0.105848
vn -0.00344038 0.850434 0.526071
v -0.0594743 0.0441933 0.120948
vn -0.134854 0.842937 0.520838
v -0.0594059 0.0535343 0.105848
vn -0.134854 0.842937 0.520838
v -0.074288 0.0461041 0.11402
vn -0.134854 0.842937 0.520838
v -0.0861337 -0.0049818 0.13547
vn -0.597444 -0.221662 0.770667
v -0.0967338 -0.0120587 0.125217
vn -0.597444 -0.221662 0.770667
v -0.0858258 -0.0212033 0.131043
vn -0.597444 -0.221662 0.770667
v -0.0540104 0.0299038 0.132881
vn -0.152116 0.417869 0.895682
v -0.0715952 0.0298106 0.129938
vn -0.152116 0.417869 0.895682
v -0.0662752 0.019506 0.135649
vn -0.152116 0.417869 0.895682
v -0.0729416 -0.0414758 0.120064
vn -0.27338 -0.717796 0.640338
v -0.0855947 -0.0334354 0.123675
vn -0.27338 -0.717796 0.640338
v -0.0888849 -0.0395563 0.115409
vn -0.27338 -0.717796 0.640338
v -0.070575 -0.0566293 0.0874774
vn -0.118887 -0.992902 0.00346632
v -0.0726196 -0.0562795 0.0682882
vn -0.127034 -0.991888 -0.0045457
v -0.0565197 -0.0583629 0.0729648
vn -0.118887 -0.992902 0.00346632
v 0.0585525 0.00355502 0.140725
vn 0.00958366 0.232688 0.972504
v 0.0585 0.0214117 0.136453
vn 0.00958366 0.232688 0.972504
v -0.0556594 0.0115023 0.139949
vn 0.00958366 0.232688 0.972504
v 0.0486356 -0.00639445 -0.000154043
vn 0.701191 0.0768437 -0.70882
v 0.0560621 0.0186928 0.00991225
vn 0.701191 0.0768437 -0.70882
v 0.0586439 -0.00485379 0.00991356
vn 0.701191 0.0768437 -0.70882
v 0.0417727 0.0433181 0.0100196
vn 0.356564 0.64098 -0.67971
v 0.0267807 0.0409394 -8.81012e-05
vn 0.356564 0.64098 -0.67971
v 0.0182563 0.056379 0.01
vn 0.356564 0.64098 -0.67971
v -0.0729416 -0.0414758 0.120064
vn -0.261639 -0.773627 0.577101
v -0.0888849 -0.0395563 0.115409
vn -0.261639 -0.773627 0.577101
v -0.0888179 -0.0465008 0.10613
vn -0.261639 -0.773627 0.577101
v -0.0983531 0.0327195 0.0396172
vn -0.615753 0.406724 -0.67485
v -0.0866591 0.0300376 0.0273309
vn -0.615753 0.406724 -0.67485
v -0.0969729 0.0168865 0.0288155
vn -0.615753 0.406724 -0.67485
v -0.0716902 0.0536441 0.101443
vn -0.128665 0.977958 0.164449
v -0.054556 0.0574193 0.0923982
vn -0.128665 0.977958 0.164449
v -0.0737602 0.0558139 0.0869199
vn -0.128665 0.977958 0.164449
v -0.0607 0.0585544 0.0760373
vn -0.129691 0.986637 -0.0986326
v -0.0053736 0.0592253 0.01
vn -0.129691 0.986637 -0.0986326
v -0.0751851 0.0556043 0.0655734
vn -0.129691 0.986637 -0.0986326
v -0.0972647 -0.0448875 0.0908454
vn -0.700591 -0.637865 0.319844
v -0.0888179 -0.0465008 0.10613
vn -0.700591 -0.637865 0.319844
v -0.0975387 -0.035019 0.109926
vn -0.700591 -0.637865 0.319844
v -0.0594743 0.0441933 0.120948
vn -0.134629 0.60431 0.785292
v -0.0715952 0.0298106 0.129938
vn -0.134629 0.60431 0.785292
v -0.0540104 0.0299038 0.132881
vn -0.134629 0.60431 0.785292
v 0.0585075 -0.0582354 0.0740767
vn 0.312905 -0.917923 -0.243941
v 0.0108057 -0.0574676 0.01
vn 0.312905 -0.917923 -0.243941
v 0.0293258 -0.0511544 0.01
vn 0.312905 -0.917923 -0.243941
v -0.0858258 -0.0212033 0.131043
vn -0.619816 -0.269871 0.736884
v -0.0967338 -0.0120587 0.125217
vn -0.619816 -0.269871 0.736884
v -0.0962691 -0.0226254 0.121738
vn -0.619816 -0.269871 0.736884
v -0.068407 -0.00709403 0.138689
vn -0.100555 0.0197853 0.994735
v -0.0522823 -0.0101107 0.140379
vn -0.100555 0.0197853 0.994735
v -0.0699384 0.00769714 0.13824
vn -0.100555 0.0197853 0.994735
v -0.0861337 -0.0049818 0.13547
vn -0.235639 0.0895752 0.967704
v -0.0699384 0.00769714 0.13824
vn -0.235639 0.0895752 0.967704
v -0.0859851 0.0126835 0.133871
vn -0.235639 0.0895752 0.967704
v -0.0883338 0.0401126 0.117218
vn -0.634891 0.691512 0.344563
v -0.0883613 0.0487093 0.0999144
vn -0.634891 0.691512 0.344563
v -0.0977053 0.0364309 0.107339
vn -0.634891 0.691512 0.344563
v -0.0972647 -0.0448875 0.0908454
vn -0.541833 -0.812882 0.213636
v -0.0894935 -0.0517098 0.0845963
vn -0.541833 -0.812882 0.213636
v -0.0888179 -0.0465008 0.10613
vn -0.541833 -0.812882 0.213636
v -0.0527781 -0.0434076 0.122214
vn 0.000905649 -0.595967 0.803008
v 0.0585 -0.0404588 0.124277
vn 0.000905649 -0.595967 0.803008
v -0.0515178 -0.027699 0.133871
vn 0.000905649 -0.595967 0.803008
v -0.0894935 -0.0517098 0.0845963
vn -0.416991 -0.880355 0.22604
v -0.0852162 -0.0515199 0.0932265
vn -0.416991 -0.880355 0.22604
v -0.0888179 -0.0465008 0.10613
vn -0.416991 -0.880355 0.22604
v -0.00617355 -0.058598 0.01
vn 0.00269355 -0.999992 0.00293986
v 0.0585075 -0.0582354 0.0740767
vn 0.00269355 -0.999992 0.00293986
v -0.053516 -0.0584862 0.0914046
vn 0.00269355 -0.999992 0.00293986
v -0.070575 -0.0566293 0.0874774
vn -0.156884 -0.961176 0.226999
v -0.053516 -0.0584862 0.0914046
vn -0.156884 -0.961176 0.226999
v -0.0731173 -0.053076 0.100766
vn -0.156884 -0.961176 0.226999
v -0.0634618 -0.0523111 0.10844
vn -0.13614 -0.954199 0.266402
v -0.0731173 -0.053076 0.100766
vn -0.13614 -0.954199 0.266402
v -0.053516 -0.0584862 0.0914046
vn -0.13614 -0.954199 0.266402
v 0.0585075 -0.0582354 0.0740767
vn 0.99929 -0.0357986 -0.0117873
v 0.0585063 -0.0520171 0.0550898
vn 0.99929 -0.0357986 -0.0117873
v 0.0606514 -0.00021781 0.0796277
vn 0.99929 -0.0357986 -0.0117873
v -0.0858258 -0.0212033 0.131043
vn -0.565984 -0.433198 0.701428
v -0.0962691 -0.0226254 0.121738
vn -0.565984 -0.433198 0.701428
v -0.0855947 -0.0334354 0.123675
vn -0.565984 -0.433198 0.701428
v -0.0983531 0.0327195 0.0396172
vn -0.568608 0.502909 -0.650974
v -0.0887998 0.0424598 0.0387975
vn -0.568608 0.502909 -0.650974
v -0.0866591 0.0300376 0.0273309
vn -0.568608 0.502909 -0.650974
v -0.0658678 -0.0225702 0.134926
vn -0.118713 -0.507681 0.853327
v -0.0644854 -0.033081 0.128865
vn -0.118713 -0.507681 0.853327
v -0.0515178 -0.027699 0.133871
vn -0.118713 -0.507681 0.853327
v -0.0975387 -0.035019 0.109926
vn -0.623985 -0.627781 0.465332
v -0.0888179 -0.0465008 0.10613
vn -0.623985 -0.627781 0.465332
v -0.0888849 -0.0395563 0.115409
vn -0.623985 -0.627781 0.465332
v -0.00617355 -0.058598 0.01
vn 0.0663036 -0.995915 -0.0612932
v 0.0108057 -0.0574676 0.01
vn 0.0663036 -0.995915 -0.0612932
v 0.0585075 -0.0582354 0.0740767
vn 0.0663036 -0.995915 -0.0612932
v -0.0880548 -0.0516451 0.0588018
vn -0.587068 -0.80879 -0.0347727
v -0.0894935 -0.0517098 0.0845963
vn -0.587068 -0.80879 -0.0347727
v -0.0967223 -0.0455427 0.0631974
vn -0.587068 -0.80879 -0.0347727
v -0.0861337 -0.0049818 0.13547
vn -0.565666 0.0790576 0.820836
v -0.0859851 0.0126835 0.133871
vn -0.565666 0.0790576 0.820836
v -0.096694 0.000194605 0.127694
vn -0.565666 0.0790576 0.820836
v -0.00617355 -0.058598 0.01
vn -0.0108258 -0.999929 -0.00492269
v -0.053516 -0.0584862 0.0914046
vn -0.0108258 -0.999929 -0.00492269
v -0.0565197 -0.0583629 0.0729648
vn -0.0108258 -0.999929 -0.00492269
v -0.0634618 -0.0523111 0.10844
vn -0.233563 -0.79892 0.554234
v -0.0729416 -0.0414758 0.120064
vn -0.233563 -0.79892 0.554234
v -0.0888179 -0.0465008 0.10613
vn -0.233563 -0.79892 0.554234
v -0.0731173 -0.053076 0.100766
vn -0.289668 -0.91657 0.275667
v -0.0888179 -0.0465008 0.10613
vn -0.289668 -0.91657 0.275667
v -0.0852162 -0.0515199 0.0932265
vn -0.289668 -0.91657 0.275667
v -0.070575 -0.0566293 0.0874774
vn -0.252985 -0.967425 0.00932024
v -0.0894935 -0.0517098 0.0845963
vn -0.252985 -0.967425 0.00932024
v -0.0726196 -0.0562795 0.0682882
vn -0.252985 -0.967425 0.00932024
v -0.0967223 -0.0455427 0.0631974
vn -0.690576 -0.659987 -0.29584
v -0.0978466 -0.0350946 0.0425133
vn -0.690576 -0.659987 -0.29584
v -0.0888271 -0.0452384 0.0440889
vn -0.690576 -0.659987 -0.29584
v -0.0972458 0.0436229 0.0936171
vn -0.655476 0.754769 0.025977
v -0.0884822 0.0514135 0.0883904
vn -0.655476 0.754769 0.025977
v -0.0888654 0.0517283 0.0695745
vn -0.655476 0.754769 0.025977
v -0.0972647 -0.0448875 0.0908454
vn -0.990229 -0.138517 -0.0161439
v -0.0978466 -0.0350946 0.0425133
vn -0.990229 -0.138517 -0.0161439
v -0.0967223 -0.0455427 0.0631974
vn -0.990229 -0.138517 -0.0161439
v -0.0975387 -0.035019 0.109926
vn -0.998585 -0.000403206 0.0531698
v -0.0967338 -0.0120587 0.125217
vn -0.998585 -0.000403206 0.0531698
v -0.0977053 0.0364309 0.107339
vn -0.998585 -0.000403206 0.0531698
v 0.0585 -0.051763 0.109564
vn 0.999338 -0.0288411 0.022159
v 0.0606514 -0.00021781 0.0796277
vn 0.999338 -0.0288411 0.022159
v 0.0585 -0.0404588 0.124277
vn 0.999338 -0.0288411 0.022159
v -0.053516 -0.0584862 0.0914046
vn -0.1108 -0.993777 0.0114034
v -0.0634618 -0.0523111 0.10844
vn -0.00123704 -0.839384 0.543537
v 0.0585 -0.051763 0.109564
vn -0.00123704 -0.839384 0.543537
v -0.0527781 -0.0434076 0.122214
vn -0.00123704 -0.839384 0.543537
v -0.070575 -0.0566293 0.0874774
vn -0.270675 -0.950101 0.155058
v -0.0852162 -0.0515199 0.0932265
vn -0.270675 -0.950101 0.155058
v -0.0894935 -0.0517098 0.0845963
vn -0.270675 -0.950101 0.155058
f 1//1 2//2 3//3
f 4//4 5//5 6//6
f 7//7 8//8 9//9
f 10//10 11//11 12//12
f 13//13 14//14 15//15
f 16//16 17//17 18//18
f 19//19 20//20 21//21
f 22//22 23//23 24//24
f 25//25 26//26 27//27
f 28//28 29//29 30//30
f 31//31 32//32 33//33
f 34//34 35//35 36//36
f 37//37 38//38 39//39
f 40//40 41//41 42//42
f 43//43 44//44 45//45
f 46//46 47//47 48//48
f 49//49 50//50 51//51
f 52//52 53//53 54//54
f 55//55 56//56 57//57
f 58//58 59//59 60//60
f 61//61 62//62 63//63
f 64//64 65//65 66//66
f 67//67 68//68 69//69
f 70//70 71//71 72//72
f 73//73 74//74 75//75
f 76//76 77//77 78//78
f 79//79 80//80 81//81
f 82//82 83//83 84//84
f 85//85 86//86 87//87
f 88//88 89//89 90//90
f 91//91 92//92 93//93
f 94//94 95//95 96//96
f 97//97 98//98 99//99
f 100//100 101//101 102//102
f 103//103 104//104 105//105
f 106//106 107//107 108//108
f 109//109 110//110 111//111
f 112//112 113//113 114//114
f 115//115 116//116 117//117
f 118//118 119//119 120//120
f 121//121 122//122 123//123
f 124//124 125//125 126//126
f 127//127 128//128 129//129
f 130//130 131//131 132//132
f 133//133 134//134 135//135
f 136//136 137//137 138//138
f 139//139 140//140 141//141
f 142//142 143//143 144//144
f 145//145 146//146 147//147
f 148//148 149//149 150//150
f 151//151 152//152 153//153
f 154//154 155//155 156//156
f 157//157 158//158 159//159
f 160//160 161//161 162//162
f 163//163 164//164 165//165
f 166//166 167//167 168//168
f 169//169 170//170 171//171
f 172//172 173//173 174//174
f 175//175 176//176 177//177
f 178//178 179//179 180//180
f 181//181 182//182 183//183
f 184//184 185//185 186//186
f 187//187 188//188 189//189
f 190//190 191//191 192//192
f 193//193 194//194 195//195
f 196//196 197//197 198//198
f 199//199 200//200 201//201
f 202//202 203//203 204//204
f 205//205 206//206 207//207
f 208//208 209//209 210//210
f 211//211 212//212 213//213
f 214//214 215//215 216//216
f 217//217 218//218 219//219
f 220//220 221//221 222//222
f 223//223 224//224 225//225
f 226//226 227//227 228//228
f 229//229 230//230 231//231
f 232//232 233//233 234//234
f 235//235 236//236 237//237
f 238//238 239//239 240//240
f 241//241 242//242 243//243
f 244//244 245//245 246//246
f 247//247 248//248 249//249
f 250//250 251//251 252//252
f 253//253 254//254 255//255
f 256//256 257//257 258//258
f 259//259 260//260 261//261
f 262//262 263//263 264//264
f 265//265 266//266 267//267
f 268//268 269//269 270//270
f 271//271 272//272 273//273
f 274//274 275//275 276//276
f 277//277 278//278 279//279
f 280//280 281//281 282//282
f 283//283 284//284 285//285
f 286//286 287//287 288//288
f 289//289 290//290 291//291
f 292//292 293//293 294//294
f 295//295 296//296 297//297
f 298//298 299//299 300//300
f 301//301 302//302 303//303
f 304//304 305//305 306//306
f 307//307 308//308 309//309
f 310//310 311//311 312//312
f 313//313 314//314 315//315
f 316//316 317//317 318//318
f 319//319 320//320 321//321
f 322//322 323//323 324//324
f 325//325 326//326 327//327
f 328//328 329//329 330//330
f 331//331 332//332 333//333
f 334//334 335//335 336//336
f 337//337 338//338 339//339
f 340//340 341//341 342//342
f 343//343 344//344 345//345
f 346//346 347//347 348//348
f 349//349 350//350 351//351
f 352//352 353//353 354//354
f 355//355 356//356 357//357
f 358//358 359//359 360//360
f 361//361 362//362 363//363
f 364//364 365//365 366//366
f 367//367 368//368 369//369
f 370//370 371//371 372//372
f 373//373 374//374 375//375
f 376//376 377//377 378//378
f 379//379 380//380 381//381
f 382//382 383//383 384//384
f 385//385 386//386 387//387
f 388//388 389//389 390//390
f 391//391 392//392 393//393
f 394//394 395//395 396//396
f 397//397 398//398 399//399
f 400//400 401//401 402//402
f 403//403 404//404 405//405
f 406//406 407//407 408//408
f 409//409 410//410 411//411
f 412//412 413//413 414//414
f 415//415 416//416 417//417
f 418//418 419//419 420//420
f 421//421 422//422 423//423
f 424//424 425//425 426//426
f 427//427 428//428 429//429
f 430//430 431//431 432//432
f 433//433 434//434 435//435
f 436//436 437//437 438//438
f 439//439 440//440 441//441
f 442//442 443//443 444//444
f 445//445 446//446 447//447
f 448//448 449//449 450//450
f 451//451 452//452 453//453
f 454//454 455//455 456//456
f 457//457 458//458 459//459
f 460//460 461//461 462//462
f 463//463 464//464 465//465
f 466//466 467//467 468//468
f 469//469 470//470 471//471
f 472//472 473//473 474//474
f 400//400 402//402 475//475
f 476//476 477//477 478//478
f 479//479 480//480 481//481
f 482//482 483//483 484//484
f 485//485 486//486 487//487
f 488//488 489//489 490//490
f 491//491 492//492 493//493
f 494//494 495//495 496//496
f 497//497 498//498 499//499
f 500//500 501//501 502//502
f 503//503 504//504 505//505
f 506//506 507//507 508//508
f 509//509 510//510 511//511
f 512//512 513//513 514//514
f 515//515 516//516 517//517
f 518//518 519//519 520//520
f 521//521 522//522 523//523
f 524//524 525//525 526//526
f 527//527 528//528 529//529
f 530//530 531//531 532//532
f 533//533 534//534 535//535
f 536//536 537//537 538//538
f 539//539 540//540 541//541
f 542//542 543//543 544//544
f 545//545 546//546 547//547
f 548//548 549//549 550//550
f 551//551 552//552 553//553
f 554//554 555//555 556//556
f 557//557 558//558 559//559
f 560//560 561//561 562//562
f 563//563 564//564 565//565
f 566//566 567//567 568//568
f 569//569 570//570 571//571
f 572//572 573//573 574//574
f 575//575 576//576 577//577
f 578//578 579//579 580//580
f 581//581 582//582 583//583
f 584//584 585//585 586//586
f 587//587 588//588 589//589
f 590//590 591//591 592//592
f 593//593 594//594 595//595
f 596//596 597//597 598//598
f 599//599 600//600 601//601
f 602//602 603//603 604//604
f 605//605 606//606 607//607
f 608//608 609//609 610//610
f 611//611 612//612 613//613
f 500//500 502//502 614//614
f 615//615 616//616 617//617
f 618//618 619//619 620//620
