# Created by Open3D 
# object name: D116-876.0002-G-distal_convdec
# number of vertices: 587
# number of triangles: 200
v 0.0507205 0.0225826 -0.0167927
vn 0.551463 0.365603 -0.749816
v 0.0278318 0.0289417 -0.0305259
vn 0.551463 0.365603 -0.749816
v 0.0406671 0.0378428 -0.0167459
vn 0.551463 0.365603 -0.749816
v 0.0153134 -0.0567638 -0.0105607
vn 0.307005 -0.844149 -0.439501
v 0.018305 -0.0524654 -0.0167269
vn 0.307005 -0.844149 -0.439501
v 0.0230784 -0.0538759 -0.0106834
vn 0.307005 -0.844149 -0.439501
v 0.0507205 0.0225826 -0.0167927
vn 0.5515 0.339595 -0.76192
v 0.03596 0.0156462 -0.0305684
vn 0.5515 0.339595 -0.76192
v 0.0278318 0.0289417 -0.0305259
vn 0.5515 0.339595 -0.76192
v -0.0467662 0.0356209 -0.0103855
vn -0.665586 0.614146 -0.424052
v -0.0365101 0.0458284 -0.0117
vn -0.665586 0.614146 -0.424052
v -0.0410997 0.0373601 -0.0167607
vn -0.665586 0.614146 -0.424052
v 0.0358071 0.0462219 -0.00957005
vn 0.508286 0.47303 0.719644
v 0.0347632 0.0327842 3.68357e-09
vn 0.508286 0.47303 0.719644
v 0.04862 0.0324058 -0.00953835
vn 0.508286 0.47303 0.719644
v -0.0183262 0.0524329 -0.0167631
vn -0.131343 0.640938 -0.756272
v 0.000543418 0.0400605 -0.0305258
vn -0.131343 0.640938 -0.756272
v -0.0141727 0.0370447 -0.0305259
vn -0.131343 0.640938 -0.756272
v -0.0507065 -0.0226049 -0.0167902
vn -0.666646 -0.440734 -0.601113
v -0.0432309 -0.0339526 -0.0167607
vn -0.666646 -0.440734 -0.601113
v -0.0489799 -0.032159 -0.0117
vn -0.666646 -0.440734 -0.601113
v -0.0553584 0.00429004 -0.0167824
vn -0.632087 0.121589 -0.765299
v -0.0362513 0.0162126 -0.0306694
vn -0.632087 0.121589 -0.765299
v -0.0397542 -0.000800294 -0.0304792
vn -0.632087 0.121589 -0.765299
v -0.0183262 0.0524329 -0.0167631
vn -0.307925 0.859484 -0.408007
v -0.0239776 0.0528117 -0.0117
vn -0.307925 0.859484 -0.408007
v -0.0104715 0.0576505 -0.0117
vn -0.307925 0.859484 -0.408007
v -0.0338082 -0.0440696 -0.0167612
vn -0.492959 -0.459092 -0.739071
v -0.0432309 -0.0339526 -0.0167607
vn -0.492959 -0.459092 -0.739071
v -0.0285154 -0.0279519 -0.0303034
vn -0.492959 -0.459092 -0.739071
v -0.0349217 0.0471987 -0.00999658
vn -0.486761 0.473311 0.734193
v -0.0467662 0.0356209 -0.0103855
vn -0.486761 0.473311 0.734193
v -0.0362679 0.0303077 3.68357e-09
vn -0.486761 0.473311 0.734193
v 0.0465421 -0.0108221 3.68357e-09
vn 0.172435 -0.0885912 0.981029
v 0.0230577 -0.011957 0.00402537
vn 0.172435 -0.0885912 0.981029
v 0.0377147 -0.0280039 3.68357e-09
vn 0.172435 -0.0885912 0.981029
v 0.0410446 -0.0373686 -0.0168048
vn 0.720435 -0.483673 -0.497025
v 0.0511605 -0.0285593 -0.0107145
vn 0.720435 -0.483673 -0.497025
v 0.045798 -0.0365435 -0.0107177
vn 0.720435 -0.483673 -0.497025
v 0.0230577 -0.011957 0.00402537
vn -0.00016976 -0.000311997 1
v 0.00741288 0.0246014 0.00403412
vn -0.00016976 -0.000311997 1
v -0.024744 -0.00424895 0.00401966
vn -0.00016976 -0.000311997 1
v -0.0349217 0.0471987 -0.00999658
vn -0.405586 0.489268 0.772086
v -0.0362679 0.0303077 3.68357e-09
vn -0.405586 0.489268 0.772086
v -0.0219018 0.0422167 3.68357e-09
vn -0.405586 0.489268 0.772086
v -0.0182065 0.0194075 0.00414737
vn -0.0442157 0.171782 0.984142
v -0.0041205 0.0467935 3.68357e-09
vn -0.0442157 0.171782 0.984142
v -0.0219018 0.0422167 3.68357e-09
vn -0.0442157 0.171782 0.984142
v 0.0358071 0.0462219 -0.00957005
vn 0.572286 0.765399 -0.294367
v 0.0422916 0.0405543 -0.0117
vn 0.572286 0.765399 -0.294367
v 0.0269367 0.0520351 -0.0117
vn 0.572286 0.765399 -0.294367
v 0.0465421 -0.0108221 3.68357e-09
vn 0.169226 -0.00611517 0.985558
v 0.0238192 0.00759799 0.00401595
vn 0.169226 -0.00611517 0.985558
v 0.0230577 -0.011957 0.00402537
vn 0.169226 -0.00611517 0.985558
v 0.00388042 -0.0259317 0.00409338
vn 0.080617 -0.171325 0.981911
v 0.0129741 -0.0451129 3.68357e-09
vn 0.080617 -0.171325 0.981911
v 0.0266749 -0.038666 3.68357e-09
vn 0.080617 -0.171325 0.981911
v 0.0551274 -0.0198303 -0.010726
vn 0.844069 -0.204329 -0.49578
v 0.0542502 -0.00872823 -0.016795
vn 0.844069 -0.204329 -0.49578
v 0.0574782 -0.010368 -0.0106235
vn 0.844069 -0.204329 -0.49578
v 0.0552857 0.0048991 -0.0168106
vn 0.620904 0.126112 -0.773675
v 0.0390565 0.000398986 -0.0305687
vn 0.620904 0.126112 -0.773675
v 0.03596 0.0156462 -0.0305684
vn 0.620904 0.126112 -0.773675
v -0.0553584 0.00429004 -0.0167824
vn -0.669406 -0.059515 -0.740509
v -0.0397542 -0.000800294 -0.0304792
vn -0.669406 -0.059515 -0.740509
v -0.0541461 -0.00941393 -0.0167769
vn -0.669406 -0.059515 -0.740509
v -0.0410997 0.0373601 -0.0167607
vn -0.494193 0.627442 -0.601739
v -0.0365101 0.0458284 -0.0117
vn -0.494193 0.627442 -0.601739
v -0.0303127 0.0458276 -0.0167906
vn -0.494193 0.627442 -0.601739
v -0.0416453 -0.0217992 3.68357e-09
vn -0.144056 -0.0870404 0.985734
v -0.016422 -0.0181681 0.00400678
vn -0.144056 -0.0870404 0.985734
v -0.024744 -0.00424895 0.00401966
vn -0.144056 -0.0870404 0.985734
v -0.0562542 0.0166321 -0.00991781
vn -0.989438 0.141881 -0.0296891
v -0.0572725 0.00915781 -0.0117
vn -0.989438 0.141881 -0.0296891
v -0.0585573 0.000514154 -0.0101889
vn -0.989438 0.141881 -0.0296891
v -0.0507065 -0.0226049 -0.0167902
vn -0.629338 -0.163337 -0.759773
v -0.0541461 -0.00941393 -0.0167769
vn -0.629338 -0.163337 -0.759773
v -0.0358383 -0.0156996 -0.0305904
vn -0.629338 -0.163337 -0.759773
v 0.03596 0.0156462 -0.0305684
vn 0.00353534 0.00535783 -0.999979
v 0.0152934 0.0372151 -0.0305259
vn 0.00353534 0.00535783 -0.999979
v 0.0278318 0.0289417 -0.0305259
vn 0.00353534 0.00535783 -0.999979
v 0.0465421 -0.0108221 3.68357e-09
vn 0.176489 0.00311927 0.984298
v 0.0461306 0.0124606 3.68357e-09
vn 0.176489 0.00311927 0.984298
v 0.0238192 0.00759799 0.00401595
vn 0.176489 0.00311927 0.984298
v 0.0410446 -0.0373686 -0.0168048
vn 0.52539 -0.369648 -0.766372
v 0.0278913 -0.0277332 -0.0304696
vn 0.52539 -0.369648 -0.766372
v 0.035852 -0.016213 -0.0305687
vn 0.52539 -0.369648 -0.766372
v 0.0410446 -0.0373686 -0.0168048
vn 0.716993 -0.463187 -0.52094
v 0.0509973 -0.0220123 -0.0167603
vn 0.716993 -0.463187 -0.52094
v 0.0511605 -0.0285593 -0.0107145
vn 0.716993 -0.463187 -0.52094
v -0.0416453 -0.0217992 3.68357e-09
vn -0.520287 -0.395745 0.756761
v -0.049516 -0.0305433 -0.00998393
vn -0.519587 -0.405781 0.751911
v -0.0322402 -0.0341641 3.68357e-09
vn -0.519587 -0.405781 0.751911
v 0.0230577 -0.011957 0.00402537
vn 0.00154442 0.000421569 0.999999
v 0.0238192 0.00759799 0.00401595
vn 0.00154442 0.000421569 0.999999
v 0.00741288 0.0246014 0.00403412
vn 0.00154442 0.000421569 0.999999
v -0.0338082 -0.0440696 -0.0167612
vn -0.400907 -0.753404 -0.521206
v -0.0177104 -0.0526058 -0.0168044
vn -0.400907 -0.753404 -0.521206
v -0.0191229 -0.0553854 -0.0117
vn -0.400907 -0.753404 -0.521206
v -0.0154921 -0.0362476 -0.0305144
vn -0.00194194 -0.00562145 -0.999982
v -0.0358383 -0.0156996 -0.0305904
vn -0.00194194 -0.00562145 -0.999982
v 0.0151368 -0.0371692 -0.0305687
vn -0.00194194 -0.00562145 -0.999982
v -0.0408605 -0.0423223 -0.0105333
vn -0.5188 -0.416058 0.746821
v -0.0166075 -0.0563274 -0.00985819
vn -0.0909292 -0.66458 0.741664
v -0.00463503 -0.0586139 -0.0104392
vn -0.0909292 -0.66458 0.741664
v -0.0030728 -0.0471776 3.68357e-09
vn -0.0909292 -0.66458 0.741664
v 0.0358071 0.0462219 -0.00957005
vn 0.337664 0.528486 0.778901
v 0.0151403 0.0453218 3.68357e-09
vn 0.337664 0.528486 0.778901
v 0.0347632 0.0327842 3.68357e-09
vn 0.337664 0.528486 0.778901
v -0.00463503 -0.0586139 -0.0104392
vn 0.00534455 -0.900861 -0.434075
v 0.000335483 -0.0555286 -0.0167811
vn 0.00534455 -0.900861 -0.434075
v 0.00447665 -0.0584535 -0.0106599
vn 0.00534455 -0.900861 -0.434075
v 0.0230784 -0.0538759 -0.0106834
vn 0.28009 -0.595241 0.753151
v 0.0266749 -0.038666 3.68357e-09
vn 0.28009 -0.595241 0.753151
v 0.0129741 -0.0451129 3.68357e-09
vn 0.28009 -0.595241 0.753151
v 0.0278913 -0.0277332 -0.0304696
vn 0.0288935 -0.0285612 -0.999174
v 0.0151368 -0.0371692 -0.0305687
vn 0.0112941 -0.0616269 -0.998035
v 0.035852 -0.016213 -0.0305687
vn 0.0288935 -0.0285612 -0.999174
v 0.0552857 0.0048991 -0.0168106
vn 0.897652 0.0987437 -0.429501
v 0.0574986 0.0112042 -0.0107361
vn 0.897652 0.0987437 -0.429501
v 0.0586531 0.000935137 -0.0106841
vn 0.897652 0.0987437 -0.429501
v -0.0180601 0.055854 -0.0100076
vn -0.300091 0.837616 -0.456448
v -0.0104715 0.0576505 -0.0117
vn -0.300091 0.837616 -0.456448
v -0.0239776 0.0528117 -0.0117
vn -0.300091 0.837616 -0.456448
v -0.0467662 0.0356209 -0.0103855
vn -0.870881 0.482881 0.0916141
v -0.0538521 0.0230908 -0.0117
vn -0.870881 0.482881 0.0916141
v -0.0502197 0.0293212 -0.0100098
vn -0.870881 0.482881 0.0916141
v -0.0303127 0.0458276 -0.0167906
vn -0.351013 0.545341 -0.761179
v -0.0141727 0.0370447 -0.0305259
vn -0.351013 0.545341 -0.761179
v -0.0285382 0.0281088 -0.0303034
vn -0.351013 0.545341 -0.761179
v -0.0365101 0.0458284 -0.0117
vn -0.418725 0.751459 -0.509881
v -0.0239776 0.0528117 -0.0117
vn -0.415629 0.750992 -0.513092
v -0.0303127 0.0458276 -0.0167906
vn -0.415629 0.750992 -0.513092
v -0.0462715 0.0119264 3.68357e-09
vn -0.1696 0.092301 0.981181
v -0.0182065 0.0194075 0.00414737
vn -0.1696 0.092301 0.981181
v -0.0362679 0.0303077 3.68357e-09
vn -0.1696 0.092301 0.981181
v -0.0462715 0.0119264 3.68357e-09
vn -0.155929 0.0377627 0.987046
v -0.024744 -0.00424895 0.00401966
vn -0.155929 0.0377627 0.987046
v -0.0182065 0.0194075 0.00414737
vn -0.155929 0.0377627 0.987046
v 0.00388042 -0.0259317 0.00409338
vn -0.00157693 0.00703054 0.999974
v 0.0230577 -0.011957 0.00402537
vn -0.00157693 0.00703054 0.999974
v -0.016422 -0.0181681 0.00400678
vn -0.00157693 0.00703054 0.999974
v -0.0556659 -0.0191701 -0.0102699
vn -0.869033 -0.465719 0.166995
v -0.0489799 -0.032159 -0.0117
vn -0.816783 -0.525038 0.239168
v -0.049516 -0.0305433 -0.00998393
vn -0.816783 -0.525038 0.239168
v 0.0509973 -0.0220123 -0.0167603
vn 0.822717 -0.374448 -0.427698
v 0.0551274 -0.0198303 -0.010726
vn 0.822717 -0.374448 -0.427698
v 0.0511605 -0.0285593 -0.0107145
vn 0.822717 -0.374448 -0.427698
v 0.0406671 0.0378428 -0.0167459
vn 0.414503 0.538281 -0.733785
v 0.0278318 0.0289417 -0.0305259
vn 0.414503 0.538281 -0.733785
v 0.0298013 0.0461758 -0.016771
vn 0.414503 0.538281 -0.733785
v 0.0465421 -0.0108221 3.68357e-09
vn 0.689355 -0.178867 0.701994
v 0.0551274 -0.0198303 -0.010726
vn 0.689355 -0.178867 0.701994
v 0.0574782 -0.010368 -0.0106235
vn 0.689355 -0.178867 0.701994
v -0.0338765 -0.048202 -0.0104909
vn -0.357902 -0.531849 0.767491
v -0.0195071 -0.0427327 3.68357e-09
vn -0.357902 -0.531849 0.767491
v -0.0322402 -0.0341641 3.68357e-09
vn -0.357902 -0.531849 0.767491
v 0.0230784 -0.0538759 -0.0106834
vn 0.316559 -0.594205 0.739399
v 0.0315666 -0.0493729 -0.0106987
vn 0.316559 -0.594205 0.739399
v 0.0266749 -0.038666 3.68357e-09
vn 0.316559 -0.594205 0.739399
v -0.0581791 -0.00535615 -0.0121949
vn -0.971964 -0.129651 0.196156
v -0.0566802 -0.0133953 -0.0100813
vn -0.971964 -0.129651 0.196156
v -0.0585573 0.000514154 -0.0101889
vn -0.971964 -0.129651 0.196156
v 0.018305 -0.0524654 -0.0167269
vn 0.326142 -0.596258 -0.733558
v 0.0151368 -0.0371692 -0.0305687
vn 0.326142 -0.596258 -0.733558
v 0.0303615 -0.0458076 -0.0167782
vn 0.326142 -0.596258 -0.733558
v -0.0553584 0.00429004 -0.0167824
vn -0.834933 0.204967 -0.510759
v -0.0572725 0.00915781 -0.0117
vn -0.834933 0.204967 -0.510759
v -0.0538521 0.0230908 -0.0117
vn -0.834933 0.204967 -0.510759
v -0.0338765 -0.048202 -0.0104909
vn -0.571604 -0.682248 -0.455857
v -0.0408605 -0.0423223 -0.0105333
vn -0.571604 -0.682248 -0.455857
v -0.0338082 -0.0440696 -0.0167612
vn -0.571604 -0.682248 -0.455857
v -0.00463503 -0.0586139 -0.0104392
vn 0.0297341 -0.676091 0.736218
v 0.00447665 -0.0584535 -0.0106599
vn 0.0297341 -0.676091 0.736218
v -0.0030728 -0.0471776 3.68357e-09
vn 0.0297341 -0.676091 0.736218
v -0.0462715 0.0119264 3.68357e-09
vn -0.568672 0.309487 0.762122
v -0.0362679 0.0303077 3.68357e-09
vn -0.568672 0.309487 0.762122
v -0.0502197 0.0293212 -0.0100098
vn -0.568672 0.309487 0.762122
v -0.0180601 0.055854 -0.0100076
vn -0.15771 0.612718 0.774406
v -0.0219018 0.0422167 3.68357e-09
vn -0.15771 0.612718 0.774406
v -0.0041205 0.0467935 3.68357e-09
vn -0.15771 0.612718 0.774406
v 0.0151403 0.0453218 3.68357e-09
vn 0.0142103 0.185977 0.982451
v -0.0041205 0.0467935 3.68357e-09
vn 0.0142103 0.185977 0.982451
v 0.00741288 0.0246014 0.00403412
vn 0.0142103 0.185977 0.982451
v 0.017694 0.052642 -0.0167626
vn 0.375908 0.704632 -0.601819
v 0.0269367 0.0520351 -0.0117
vn 0.375908 0.704632 -0.601819
v 0.0298013 0.0461758 -0.016771
vn 0.375908 0.704632 -0.601819
v 0.0509973 -0.0220123 -0.0167603
vn 0.84062 -0.207152 -0.500446
v 0.0542502 -0.00872823 -0.016795
vn 0.84062 -0.207152 -0.500446
v 0.0551274 -0.0198303 -0.010726
vn 0.84062 -0.207152 -0.500446
v 0.0315666 -0.0493729 -0.0106987
vn 0.413371 -0.542152 0.731571
v 0.0392203 -0.0435402 -0.0107009
vn 0.413371 -0.542152 0.731571
v 0.0266749 -0.038666 3.68357e-09
vn 0.413371 -0.542152 0.731571
v 0.0410446 -0.0373686 -0.0168048
vn 0.551772 -0.355427 -0.754466
v 0.035852 -0.016213 -0.0305687
vn 0.551772 -0.355427 -0.754466
v 0.0509973 -0.0220123 -0.0167603
vn 0.551772 -0.355427 -0.754466
v 0.0230577 -0.011957 0.00402537
vn -0.000297324 -0.00110309 0.999999
v -0.024744 -0.00424895 0.00401966
vn -0.000297324 -0.00110309 0.999999
v -0.016422 -0.0181681 0.00400678
vn -0.000297324 -0.00110309 0.999999
v 0.018305 -0.0524654 -0.0167269
vn 0.411091 -0.748448 -0.520413
v 0.0303615 -0.0458076 -0.0167782
vn 0.411091 -0.748448 -0.520413
v 0.0315666 -0.0493729 -0.0106987
vn 0.411091 -0.748448 -0.520413
v 0.0278913 -0.0277332 -0.0304696
vn 0.391387 -0.521067 -0.758489
v 0.0303615 -0.0458076 -0.0167782
vn 0.391387 -0.521067 -0.758489
v 0.0151368 -0.0371692 -0.0305687
vn 0.391387 -0.521067 -0.758489
v 0.0390565 0.000398986 -0.0305687
vn 0 0 -1
v 0.035852 -0.016213 -0.0305687
vn 0 0 -1
v 0.0151368 -0.0371692 -0.0305687
vn 0 0 -1
v 0.0461306 0.0124606 3.68357e-09
vn 0.689073 0.0811158 0.720138
v 0.0586531 0.000935137 -0.0106841
vn 0.689073 0.0811158 0.720138
v 0.0574986 0.0112042 -0.0107361
vn 0.689073 0.0811158 0.720138
v 0.000656012 0.0585401 -0.00964665
vn 0.161374 0.916429 0.366219
v 0.0192419 0.0552494 -0.00960186
vn 0.161374 0.916429 0.366219
v 0.00869818 0.0579445 -0.0117
vn 0.161374 0.916429 0.366219
v 0.0507205 0.0225826 -0.0167927
vn 0.82547 0.213633 -0.522456
v 0.0574986 0.0112042 -0.0107361
vn 0.82547 0.213633 -0.522456
v 0.0552857 0.0048991 -0.0168106
vn 0.82547 0.213633 -0.522456
v -0.0182065 0.0194075 0.00414737
vn -0.130093 0.156935 0.979003
v -0.0219018 0.0422167 3.68357e-09
vn -0.130093 0.156935 0.979003
v -0.0362679 0.0303077 3.68357e-09
vn -0.130093 0.156935 0.979003
v 0.000656012 0.0585401 -0.00964665
vn 0.0475503 0.622311 0.781324
v -0.0041205 0.0467935 3.68357e-09
vn 0.0475503 0.622311 0.781324
v 0.0151403 0.0453218 3.68357e-09
vn 0.0475503 0.622311 0.781324
v -0.0553584 0.00429004 -0.0167824
vn -0.64355 0.159378 -0.748627
v -0.0510018 0.0220139 -0.0167542
vn -0.64355 0.159378 -0.748627
v -0.0362513 0.0162126 -0.0306694
vn -0.64355 0.159378 -0.748627
v -0.0154921 -0.0362476 -0.0305144
vn -0.00451019 -0.0912212 -0.99582
v 6.75184e-05 -0.0393203 -0.0303034
vn -0.00451019 -0.0912212 -0.99582
v 0.000335483 -0.0555286 -0.0167811
vn 0.0775737 -0.637928 -0.766179
v 6.75184e-05 -0.0393203 -0.0303034
vn 0.0775737 -0.637928 -0.766179
v 0.0151368 -0.0371692 -0.0305687
vn 0.0775737 -0.637928 -0.766179
v 0.000656012 0.0585401 -0.00964665
vn 0.116023 0.665338 0.737471
v 0.0151403 0.0453218 3.68357e-09
vn 0.116023 0.665338 0.737471
v 0.0192419 0.0552494 -0.00960186
vn 0.116023 0.665338 0.737471
v -0.0362513 0.0162126 -0.0306694
vn -0.0577985 0.0681178 -0.996002
v -0.0285382 0.0281088 -0.0303034
vn -0.0577985 0.0681178 -0.996002
v -0.0141727 0.0370447 -0.0305259
vn -0.0577985 0.0681178 -0.996002
v -0.0410997 0.0373601 -0.0167607
vn -0.414395 0.525285 -0.743204
v -0.0303127 0.0458276 -0.0167906
vn -0.414395 0.525285 -0.743204
v -0.0285382 0.0281088 -0.0303034
vn -0.414395 0.525285 -0.743204
v -0.0182065 0.0194075 0.00414737
vn 0.00584201 -0.00701275 0.999958
v -0.024744 -0.00424895 0.00401966
vn 0.00584201 -0.00701275 0.999958
v 0.00741288 0.0246014 0.00403412
vn 0.00584201 -0.00701275 0.999958
v -0.0349217 0.0471987 -0.00999658
vn -0.698167 0.71161 0.0785755
v -0.0365101 0.0458284 -0.0117
vn -0.698167 0.71161 0.0785755
v -0.0467662 0.0356209 -0.0103855
vn -0.698167 0.71161 0.0785755
v -0.0410997 0.0373601 -0.0167607
vn -0.53934 0.372919 -0.755012
v -0.0285382 0.0281088 -0.0303034
vn -0.53934 0.372919 -0.755012
v -0.0362513 0.0162126 -0.0306694
vn -0.53934 0.372919 -0.755012
v -0.0581791 -0.00535615 -0.0121949
vn -0.922138 0.0705702 -0.380371
v -0.0585573 0.000514154 -0.0101889
vn -0.922138 0.0705702 -0.380371
v -0.0572725 0.00915781 -0.0117
vn -0.907528 0.14405 -0.394516
v -0.0362513 0.0162126 -0.0306694
vn -0.00179452 0.00879003 -0.99996
v -0.0141727 0.0370447 -0.0305259
vn -0.00179452 0.00879003 -0.99996
v 0.000543418 0.0400605 -0.0305258
vn -0.00179452 0.00879003 -0.99996
v 0.0465421 -0.0108221 3.68357e-09
vn 0.586582 -0.301365 0.751732
v 0.0377147 -0.0280039 3.68357e-09
vn 0.586582 -0.301365 0.751732
v 0.0511605 -0.0285593 -0.0107145
vn 0.586582 -0.301365 0.751732
v -0.0553584 0.00429004 -0.0167824
vn -0.909234 0.0707821 -0.410223
v -0.0581791 -0.00535615 -0.0121949
vn -0.909234 0.0707821 -0.410223
v -0.0572725 0.00915781 -0.0117
vn -0.909234 0.0707821 -0.410223
v -0.0467662 0.0356209 -0.0103855
vn -0.725784 0.463743 -0.508114
v -0.0510018 0.0220139 -0.0167542
vn -0.725784 0.463743 -0.508114
v -0.0538521 0.0230908 -0.0117
vn -0.725784 0.463743 -0.508114
v -0.0462715 0.0119264 3.68357e-09
vn -0.182738 0.00111721 0.983161
v -0.0463896 -0.0073906 3.68357e-09
vn -0.182738 0.00111721 0.983161
v -0.024744 -0.00424895 0.00401966
vn -0.182738 0.00111721 0.983161
v 0.0390565 0.000398986 -0.0305687
vn 0.625932 -0.120744 -0.770474
v 0.0542502 -0.00872823 -0.016795
vn 0.625932 -0.120744 -0.770474
v 0.035852 -0.016213 -0.0305687
vn 0.625932 -0.120744 -0.770474
v 0.0465421 -0.0108221 3.68357e-09
vn 0.65516 0.0115793 0.755401
v 0.0586531 0.000935137 -0.0106841
vn 0.65516 0.0115793 0.755401
v 0.0461306 0.0124606 3.68357e-09
vn 0.65516 0.0115793 0.755401
v 0.045798 -0.0365435 -0.0107177
vn 0.566568 -0.380822 0.730736
v 0.0511605 -0.0285593 -0.0107145
vn 0.566568 -0.380822 0.730736
v 0.0377147 -0.0280039 3.68357e-09
vn 0.566568 -0.380822 0.730736
v 0.0153134 -0.0567638 -0.0105607
vn 0.243804 -0.623998 0.742419
v 0.0230784 -0.0538759 -0.0106834
vn 0.243804 -0.623998 0.742419
v 0.0129741 -0.0451129 3.68357e-09
vn 0.243804 -0.623998 0.742419
v -0.0177104 -0.0526058 -0.0168044
vn -0.113798 -0.629061 -0.768982
v -0.0154921 -0.0362476 -0.0305144
vn -0.113798 -0.629061 -0.768982
v 6.75184e-05 -0.0393203 -0.0303034
vn -0.113798 -0.629061 -0.768982
v -0.0416453 -0.0217992 3.68357e-09
vn -0.621463 -0.204628 0.756248
v -0.0463896 -0.0073906 3.68357e-09
vn -0.621463 -0.204628 0.756248
v -0.0566802 -0.0133953 -0.0100813
vn -0.621463 -0.204628 0.756248
v -0.0408605 -0.0423223 -0.0105333
vn -0.617078 -0.574703 -0.537523
v -0.0432309 -0.0339526 -0.0167607
vn -0.617078 -0.574703 -0.537523
v -0.0338082 -0.0440696 -0.0167612
vn -0.617078 -0.574703 -0.537523
v -0.0338765 -0.048202 -0.0104909
vn -0.309602 -0.600598 0.737176
v -0.0166075 -0.0563274 -0.00985819
vn -0.309602 -0.600598 0.737176
v -0.0195071 -0.0427327 3.68357e-09
vn -0.309602 -0.600598 0.737176
v 0.00388042 -0.0259317 0.00409338
vn -0.0627102 -0.152991 0.986236
v -0.016422 -0.0181681 0.00400678
vn -0.0627102 -0.152991 0.986236
v -0.0195071 -0.0427327 3.68357e-09
vn -0.0627102 -0.152991 0.986236
v 0.000335483 -0.0555286 -0.0167811
vn 0.11367 -0.653581 -0.748272
v 0.0151368 -0.0371692 -0.0305687
vn 0.11367 -0.653581 -0.748272
v 0.018305 -0.0524654 -0.0167269
vn 0.11367 -0.653581 -0.748272
v -0.0166075 -0.0563274 -0.00985819
vn -0.162748 -0.601735 0.781939
v -0.0030728 -0.0471776 3.68357e-09
vn -0.162748 -0.601735 0.781939
v -0.0195071 -0.0427327 3.68357e-09
vn -0.162748 -0.601735 0.781939
v -0.0556659 -0.0191701 -0.0102699
vn -0.821106 -0.222625 -0.525569
v -0.0581791 -0.00535615 -0.0121949
vn -0.821106 -0.222625 -0.525569
v -0.0541461 -0.00941393 -0.0167769
vn -0.821106 -0.222625 -0.525569
v 0.018305 -0.0524654 -0.0167269
vn 0.405426 -0.765928 -0.498983
v 0.0315666 -0.0493729 -0.0106987
vn 0.465576 -0.727634 -0.503774
v 0.0230784 -0.0538759 -0.0106834
vn 0.405426 -0.765928 -0.498983
v 0.0347632 0.0327842 3.68357e-09
vn 0.113288 0.108254 0.987647
v 0.00741288 0.0246014 0.00403412
vn 0.113288 0.108254 0.987647
v 0.0238192 0.00759799 0.00401595
vn 0.113288 0.108254 0.987647
v 0.0507205 0.0225826 -0.0167927
vn 0.707231 0.467549 -0.530304
v 0.0406671 0.0378428 -0.0167459
vn 0.712447 0.479366 -0.512472
v 0.0531184 0.0247317 -0.0117
vn 0.712447 0.479366 -0.512472
v 0.000656012 0.0585401 -0.00964665
vn -0.0144736 0.943721 -0.330425
v 0.00869818 0.0579445 -0.0117
vn -0.0144736 0.943721 -0.330425
v -0.0104715 0.0576505 -0.0117
vn -0.0144736 0.943721 -0.330425
v 0.0192419 0.0552494 -0.00960186
vn 0.442653 0.813584 0.377013
v 0.0358071 0.0462219 -0.00957005
vn 0.442653 0.813584 0.377013
v 0.0269367 0.0520351 -0.0117
vn 0.442653 0.813584 0.377013
v -0.000346927 0.0555547 -0.0167416
vn 0.106391 0.664309 -0.739848
v 0.017694 0.052642 -0.0167626
vn 0.106391 0.664309 -0.739848
v 0.000543418 0.0400605 -0.0305258
vn 0.106391 0.664309 -0.739848
v 0.0358071 0.0462219 -0.00957005
vn 0.675568 0.627403 0.387264
v 0.04862 0.0324058 -0.00953835
vn 0.675568 0.627403 0.387264
v 0.0422916 0.0405543 -0.0117
vn 0.675568 0.627403 0.387264
v 0.017694 0.052642 -0.0167626
vn 0.125299 0.649553 -0.749921
v 0.0152934 0.0372151 -0.0305259
vn 0.125299 0.649553 -0.749921
v 0.000543418 0.0400605 -0.0305258
vn 0.125299 0.649553 -0.749921
v -0.000346927 0.0555547 -0.0167416
vn 0.126677 0.788957 -0.601249
v 0.00869818 0.0579445 -0.0117
vn 0.126677 0.788957 -0.601249
v 0.017694 0.052642 -0.0167626
vn 0.126677 0.788957 -0.601249
v -0.000346927 0.0555547 -0.0167416
vn -0.0140028 0.913024 -0.407666
v -0.0104715 0.0576505 -0.0117
vn -0.0140028 0.913024 -0.407666
v 0.00869818 0.0579445 -0.0117
vn -0.0140028 0.913024 -0.407666
v 0.0410446 -0.0373686 -0.0168048
vn 0.405736 -0.516007 -0.754398
v 0.0303615 -0.0458076 -0.0167782
vn 0.405736 -0.516007 -0.754398
v 0.0278913 -0.0277332 -0.0304696
vn 0.405736 -0.516007 -0.754398
v 0.00388042 -0.0259317 0.00409338
vn -0.0470871 -0.174097 0.983602
v -0.0195071 -0.0427327 3.68357e-09
vn -0.0470871 -0.174097 0.983602
v -0.0030728 -0.0471776 3.68357e-09
vn -0.0470871 -0.174097 0.983602
v 0.0410446 -0.0373686 -0.0168048
vn 0.657453 -0.619112 -0.429483
v 0.045798 -0.0365435 -0.0107177
vn 0.657453 -0.619112 -0.429483
v 0.0392203 -0.0435402 -0.0107009
vn 0.657453 -0.619112 -0.429483
v 0.0392203 -0.0435402 -0.0107009
vn 0.492174 -0.460927 0.738452
v 0.045798 -0.0365435 -0.0107177
vn 0.492174 -0.460927 0.738452
v 0.0377147 -0.0280039 3.68357e-09
vn 0.492174 -0.460927 0.738452
v 0.00447665 -0.0584535 -0.0106599
vn 0.0841741 -0.654203 0.75162
v 0.0129741 -0.0451129 3.68357e-09
vn 0.0841741 -0.654203 0.75162
v -0.0030728 -0.0471776 3.68357e-09
vn 0.0841741 -0.654203 0.75162
v 0.0410446 -0.0373686 -0.0168048
vn 0.528582 -0.670782 -0.520242
v 0.0392203 -0.0435402 -0.0107009
vn 0.528582 -0.670782 -0.520242
v 0.0303615 -0.0458076 -0.0167782
vn 0.528582 -0.670782 -0.520242
v 0.0230577 -0.011957 0.00402537
vn 0.126565 -0.131049 0.983264
v 0.0266749 -0.038666 3.68357e-09
vn 0.126565 -0.131049 0.983264
v 0.0377147 -0.0280039 3.68357e-09
vn 0.126565 -0.131049 0.983264
v 0.0552857 0.0048991 -0.0168106
vn 0.653938 -0.0505549 -0.754857
v 0.0542502 -0.00872823 -0.016795
vn 0.653938 -0.0505549 -0.754857
v 0.0390565 0.000398986 -0.0305687
vn 0.653938 -0.0505549 -0.754857
v 0.0461306 0.0124606 3.68357e-09
vn 0.157794 0.0882573 0.98352
v 0.0347632 0.0327842 3.68357e-09
vn 0.157794 0.0882573 0.98352
v 0.0238192 0.00759799 0.00401595
vn 0.157794 0.0882573 0.98352
v 0.0461306 0.0124606 3.68357e-09
vn 0.686339 0.172352 0.706565
v 0.0574986 0.0112042 -0.0107361
vn 0.686339 0.172352 0.706565
v 0.0546357 0.0195888 -0.0100004
vn 0.686339 0.172352 0.706565
v 0.017694 0.052642 -0.0167626
vn 0.28122 0.867946 -0.409371
v 0.00869818 0.0579445 -0.0117
vn 0.28122 0.867946 -0.409371
v 0.0269367 0.0520351 -0.0117
vn 0.28122 0.867946 -0.409371
v -0.0562542 0.0166321 -0.00991781
vn -0.88729 0.21782 -0.406536
v -0.0538521 0.0230908 -0.0117
vn -0.88729 0.21782 -0.406536
v -0.0183262 0.0524329 -0.0167631
vn -0.136067 0.787784 -0.600734
v -0.0104715 0.0576505 -0.0117
vn -0.136067 0.787784 -0.600734
v -0.000346927 0.0555547 -0.0167416
vn -0.136067 0.787784 -0.600734
v 0.04862 0.0324058 -0.00953835
vn 0.836037 0.378062 0.397633
v 0.0546357 0.0195888 -0.0100004
vn 0.836037 0.378062 0.397633
v 0.0531184 0.0247317 -0.0117
vn 0.836037 0.378062 0.397633
v 0.017694 0.052642 -0.0167626
vn 0.321094 0.602165 -0.730955
v 0.0298013 0.0461758 -0.016771
vn 0.321094 0.602165 -0.730955
v 0.0152934 0.0372151 -0.0305259
vn 0.321094 0.602165 -0.730955
v -0.0180601 0.055854 -0.0100076
vn -0.139495 0.924189 0.355551
v 0.000656012 0.0585401 -0.00964665
vn -0.139495 0.924189 0.355551
v -0.0104715 0.0576505 -0.0117
vn -0.139495 0.924189 0.355551
v -0.0585573 0.000514154 -0.0101889
vn -0.671548 -0.0849323 0.736078
v -0.0566802 -0.0133953 -0.0100813
vn -0.671548 -0.0849323 0.736078
v -0.0463896 -0.0073906 3.68357e-09
vn -0.671548 -0.0849323 0.736078
v -0.0462715 0.0119264 3.68357e-09
vn -0.640509 0.00391591 0.767941
v -0.0585573 0.000514154 -0.0101889
vn -0.640509 0.00391591 0.767941
v -0.0463896 -0.0073906 3.68357e-09
vn -0.640509 0.00391591 0.767941
v -0.0467662 0.0356209 -0.0103855
vn -0.720906 0.464945 -0.513926
v -0.0410997 0.0373601 -0.0167607
vn -0.720906 0.464945 -0.513926
v -0.0510018 0.0220139 -0.0167542
vn -0.720906 0.464945 -0.513926
v -0.0408605 -0.0423223 -0.0105333
vn -0.761382 -0.573575 0.302173
v -0.0338765 -0.048202 -0.0104909
vn -0.410985 -0.759136 -0.504781
v -0.0338082 -0.0440696 -0.0167612
vn -0.410985 -0.759136 -0.504781
v -0.0191229 -0.0553854 -0.0117
vn -0.410985 -0.759136 -0.504781
v 0.0422916 0.0405543 -0.0117
vn 0.717252 0.490788 -0.494648
v -0.0362513 0.0162126 -0.0306694
vn 0.00140106 0.000304204 -0.999999
v 0.03596 0.0156462 -0.0305684
vn 0.00140106 0.000304204 -0.999999
v 0.0390565 0.000398986 -0.0305687
vn 0.00140106 0.000304204 -0.999999
v -0.0362513 0.0162126 -0.0306694
vn 0.00142483 0.00333564 -0.999993
v 0.0152934 0.0372151 -0.0305259
vn 0.00142483 0.00333564 -0.999993
v 0.03596 0.0156462 -0.0305684
vn 0.00142483 0.00333564 -0.999993
v 0.0465421 -0.0108221 3.68357e-09
vn 0.696604 -0.0685794 0.71417
v 0.0574782 -0.010368 -0.0106235
vn 0.696604 -0.0685794 0.71417
v 0.0586531 0.000935137 -0.0106841
vn 0.696604 -0.0685794 0.71417
v -0.0338765 -0.048202 -0.0104909
vn -0.426183 -0.896138 0.123715
v -0.0191229 -0.0553854 -0.0117
vn -0.426183 -0.896138 0.123715
v -0.0166075 -0.0563274 -0.00985819
vn -0.426183 -0.896138 0.123715
v -0.0416453 -0.0217992 3.68357e-09
vn -0.174226 -0.0573672 0.983033
v -0.024744 -0.00424895 0.00401966
vn -0.174226 -0.0573672 0.983033
v -0.0463896 -0.0073906 3.68357e-09
vn -0.174226 -0.0573672 0.983033
v -0.0338765 -0.048202 -0.0104909
vn -0.431536 -0.507206 0.746002
v -0.0322402 -0.0341641 3.68357e-09
vn -0.431536 -0.507206 0.746002
v -0.0408605 -0.0423223 -0.0105333
vn -0.431536 -0.507206 0.746002
v -0.0338082 -0.0440696 -0.0167612
vn -0.351335 -0.531959 -0.770444
v -0.0285154 -0.0279519 -0.0303034
vn -0.351335 -0.531959 -0.770444
v -0.0154921 -0.0362476 -0.0305144
vn -0.351335 -0.531959 -0.770444
v -0.0338082 -0.0440696 -0.0167612
vn -0.312221 -0.585006 -0.748523
v -0.0154921 -0.0362476 -0.0305144
vn -0.312221 -0.585006 -0.748523
v -0.0177104 -0.0526058 -0.0168044
vn -0.312221 -0.585006 -0.748523
v -0.0556659 -0.0191701 -0.0102699
vn -0.822187 -0.376183 -0.427195
v -0.0507065 -0.0226049 -0.0167902
vn -0.822187 -0.376183 -0.427195
v -0.0489799 -0.032159 -0.0117
vn -0.822187 -0.376183 -0.427195
v -0.0166075 -0.0563274 -0.00985819
vn -0.193301 -0.95511 -0.224498
v -0.0191229 -0.0553854 -0.0117
vn -0.193301 -0.95511 -0.224498
v -0.00463503 -0.0586139 -0.0104392
vn -0.193301 -0.95511 -0.224498
v 0.0507205 0.0225826 -0.0167927
vn 0.630905 0.163643 -0.758406
v 0.0552857 0.0048991 -0.0168106
vn 0.630905 0.163643 -0.758406
v 0.03596 0.0156462 -0.0305684
vn 0.630905 0.163643 -0.758406
v 0.04862 0.0324058 -0.00953835
vn 0.630224 0.269549 0.728122
v 0.0461306 0.0124606 3.68357e-09
vn 0.630224 0.269549 0.728122
v 0.0546357 0.0195888 -0.0100004
vn 0.630224 0.269549 0.728122
v 0.0406671 0.0378428 -0.0167459
vn 0.517455 0.673143 -0.528317
v 0.0298013 0.0461758 -0.016771
vn 0.517455 0.673143 -0.528317
v 0.0422916 0.0405543 -0.0117
vn 0.517455 0.673143 -0.528317
v -0.00463503 -0.0586139 -0.0104392
vn -0.136143 -0.844696 -0.517643
v -0.0177104 -0.0526058 -0.0168044
vn -0.136143 -0.844696 -0.517643
v 0.000335483 -0.0555286 -0.0167811
vn -0.136143 -0.844696 -0.517643
v 0.0392203 -0.0435402 -0.0107009
vn 0.457637 -0.473848 0.752354
v 0.0377147 -0.0280039 3.68357e-09
vn 0.457637 -0.473848 0.752354
v 0.0266749 -0.038666 3.68357e-09
vn 0.457637 -0.473848 0.752354
v 0.0509973 -0.0220123 -0.0167603
vn 0.631968 -0.156734 -0.75898
v 0.035852 -0.016213 -0.0305687
vn 0.631968 -0.156734 -0.75898
v 0.0542502 -0.00872823 -0.016795
vn 0.631968 -0.156734 -0.75898
v 0.0303615 -0.0458076 -0.0167782
vn 0.522722 -0.686108 -0.505982
v 0.0392203 -0.0435402 -0.0107009
vn 0.522722 -0.686108 -0.505982
v -0.0154921 -0.0362476 -0.0305144
vn -0.050121 -0.0533174 -0.997319
v -0.0285154 -0.0279519 -0.0303034
vn -0.050121 -0.0533174 -0.997319
v -0.0358383 -0.0156996 -0.0305904
vn -0.050121 -0.0533174 -0.997319
v 0.0153134 -0.0567638 -0.0105607
vn 0.0957413 -0.657885 0.747008
v 0.0129741 -0.0451129 3.68357e-09
vn 0.0957413 -0.657885 0.747008
v 0.00447665 -0.0584535 -0.0106599
vn 0.0957413 -0.657885 0.747008
v 0.0465421 -0.0108221 3.68357e-09
vn 0.62025 -0.280908 0.73238
v 0.0511605 -0.0285593 -0.0107145
vn 0.62025 -0.280908 0.73238
v 0.0551274 -0.0198303 -0.010726
vn 0.62025 -0.280908 0.73238
v 0.0552857 0.0048991 -0.0168106
vn 0.855926 -0.0656264 -0.512917
v 0.0586531 0.000935137 -0.0106841
vn 0.855926 -0.0656264 -0.512917
v 0.0542502 -0.00872823 -0.016795
vn 0.855926 -0.0656264 -0.512917
v 0.04862 0.0324058 -0.00953835
vn 0.793186 0.542747 -0.27619
v 0.0531184 0.0247317 -0.0117
vn 0.793186 0.542747 -0.27619
v 0.0422916 0.0405543 -0.0117
vn 0.793186 0.542747 -0.27619
v 0.0390565 0.000398986 -0.0305687
vn 0.000335678 -0.000213726 -1
v 0.0151368 -0.0371692 -0.0305687
vn 0.000335678 -0.000213726 -1
v -0.0358383 -0.0156996 -0.0305904
vn 0.000335678 -0.000213726 -1
v -0.0183262 0.0524329 -0.0167631
vn -0.319242 0.582435 -0.747565
v -0.0141727 0.0370447 -0.0305259
vn -0.319242 0.582435 -0.747565
v -0.0303127 0.0458276 -0.0167906
vn -0.319242 0.582435 -0.747565
v 0.0192419 0.0552494 -0.00960186
vn 0.292968 0.904205 -0.310777
v 0.0269367 0.0520351 -0.0117
vn 0.292968 0.904205 -0.310777
v 0.00869818 0.0579445 -0.0117
vn 0.292968 0.904205 -0.310777
v -0.0182065 0.0194075 0.00414737
vn -0.0289306 0.164202 0.986002
v 0.00741288 0.0246014 0.00403412
vn -0.0289306 0.164202 0.986002
v -0.0041205 0.0467935 3.68357e-09
vn -0.0289306 0.164202 0.986002
v -0.0556659 -0.0191701 -0.0102699
vn -0.599292 -0.305453 0.739965
v -0.049516 -0.0305433 -0.00998393
vn -0.599292 -0.305453 0.739965
v -0.0416453 -0.0217992 3.68357e-09
vn -0.599292 -0.305453 0.739965
v -0.0397542 -0.000800294 -0.0304792
vn -0.628919 -0.159616 -0.76091
v -0.0358383 -0.0156996 -0.0305904
vn -0.628919 -0.159616 -0.76091
v -0.0541461 -0.00941393 -0.0167769
vn -0.628919 -0.159616 -0.76091
v -0.0553584 0.00429004 -0.0167824
vn -0.778411 -0.0691111 -0.62394
v -0.0541461 -0.00941393 -0.0167769
vn -0.778411 -0.0691111 -0.62394
v -0.0581791 -0.00535615 -0.0121949
vn -0.778411 -0.0691111 -0.62394
v -0.0349217 0.0471987 -0.00999658
vn -0.466965 0.877624 -0.108255
v -0.0180601 0.055854 -0.0100076
vn -0.456664 0.889636 -0.00249753
v -0.0239776 0.0528117 -0.0117
vn -0.466965 0.877624 -0.108255
v -0.0180601 0.055854 -0.0100076
vn -0.108667 0.656907 0.7461
v -0.0041205 0.0467935 3.68357e-09
vn -0.108667 0.656907 0.7461
v 0.000656012 0.0585401 -0.00964665
vn -0.108667 0.656907 0.7461
v -0.0556659 -0.0191701 -0.0102699
vn -0.828595 -0.215539 -0.516694
v -0.0541461 -0.00941393 -0.0167769
vn -0.828595 -0.215539 -0.516694
v -0.0507065 -0.0226049 -0.0167902
vn -0.828595 -0.215539 -0.516694
v -0.0467662 0.0356209 -0.0103855
vn -0.56183 0.352624 0.748334
v -0.0502197 0.0293212 -0.0100098
vn -0.56183 0.352624 0.748334
v -0.0362679 0.0303077 3.68357e-09
vn -0.56183 0.352624 0.748334
v -0.0562542 0.0166321 -0.00991781
vn -0.681738 0.0851927 0.726619
v -0.0585573 0.000514154 -0.0101889
vn -0.681738 0.0851927 0.726619
v -0.0462715 0.0119264 3.68357e-09
vn -0.681738 0.0851927 0.726619
v -0.0556659 -0.0191701 -0.0102699
vn -0.984084 -0.174022 0.0359833
v -0.0566802 -0.0133953 -0.0100813
vn -0.984084 -0.174022 0.0359833
v -0.0581791 -0.00535615 -0.0121949
vn -0.984084 -0.174022 0.0359833
v -0.0556659 -0.0191701 -0.0102699
vn -0.601715 -0.131416 0.787826
v -0.0416453 -0.0217992 3.68357e-09
vn -0.601715 -0.131416 0.787826
v -0.0566802 -0.0133953 -0.0100813
vn -0.601715 -0.131416 0.787826
v -0.0507065 -0.0226049 -0.0167902
vn -0.547413 -0.345034 -0.762424
v -0.0358383 -0.0156996 -0.0305904
vn -0.547413 -0.345034 -0.762424
v -0.0285154 -0.0279519 -0.0303034
vn -0.547413 -0.345034 -0.762424
v 0.000335483 -0.0555286 -0.0167811
vn -0.102388 -0.638245 -0.762994
v -0.0177104 -0.0526058 -0.0168044
vn -0.102388 -0.638245 -0.762994
v 6.75184e-05 -0.0393203 -0.0303034
vn -0.102388 -0.638245 -0.762994
v 0.0347632 0.0327842 3.68357e-09
vn 0.0987533 0.154561 0.983035
v 0.0151403 0.0453218 3.68357e-09
vn 0.0987533 0.154561 0.983035
v 0.00741288 0.0246014 0.00403412
vn 0.0987533 0.154561 0.983035
v 0.0531184 0.0247317 -0.0117
vn 0.943921 0.313107 0.104769
v 0.0546357 0.0195888 -0.0100004
vn 0.943921 0.313107 0.104769
v 0.0574986 0.0112042 -0.0107361
vn 0.943921 0.313107 0.104769
v 0.0586531 0.000935137 -0.0106841
vn 0.871866 -0.0932035 -0.480794
v 0.0574782 -0.010368 -0.0106235
vn 0.871866 -0.0932035 -0.480794
v 0.0542502 -0.00872823 -0.016795
vn 0.871866 -0.0932035 -0.480794
v 0.04862 0.0324058 -0.00953835
vn 0.545599 0.305165 0.78051
v 0.0347632 0.0327842 3.68357e-09
vn 0.545599 0.305165 0.78051
v 0.0461306 0.0124606 3.68357e-09
vn 0.545599 0.305165 0.78051
v -0.0507065 -0.0226049 -0.0167902
vn -0.546899 -0.362247 -0.75477
v -0.0285154 -0.0279519 -0.0303034
vn -0.546899 -0.362247 -0.75477
v -0.0432309 -0.0339526 -0.0167607
vn -0.546899 -0.362247 -0.75477
v -0.0408605 -0.0423223 -0.0105333
vn -0.636411 -0.568297 -0.521555
v -0.0489799 -0.032159 -0.0117
vn -0.636411 -0.568297 -0.521555
v -0.0432309 -0.0339526 -0.0167607
vn -0.636411 -0.568297 -0.521555
v 0.00388042 -0.0259317 0.00409338
vn 0.0253633 -0.197124 0.98005
v -0.0030728 -0.0471776 3.68357e-09
vn 0.0253633 -0.197124 0.98005
v 0.0129741 -0.0451129 3.68357e-09
vn 0.0253633 -0.197124 0.98005
v -0.0362513 0.0162126 -0.0306694
vn 0.000889904 0.00464843 -0.999989
v 0.000543418 0.0400605 -0.0305258
vn 0.000889904 0.00464843 -0.999989
v 0.0152934 0.0372151 -0.0305259
vn 0.000889904 0.00464843 -0.999989
v -0.0195071 -0.0427327 3.68357e-09
vn -0.0995873 -0.147989 0.983962
v -0.016422 -0.0181681 0.00400678
vn -0.0995873 -0.147989 0.983962
v -0.0322402 -0.0341641 3.68357e-09
vn -0.0995873 -0.147989 0.983962
v 0.0192419 0.0552494 -0.00960186
vn 0.318793 0.587596 0.743708
v 0.0151403 0.0453218 3.68357e-09
vn 0.318793 0.587596 0.743708
v 0.0358071 0.0462219 -0.00957005
vn 0.318793 0.587596 0.743708
v 0.0507205 0.0225826 -0.0167927
vn 0.837058 0.235863 -0.493662
v 0.0531184 0.0247317 -0.0117
vn 0.837058 0.235863 -0.493662
v 0.0574986 0.0112042 -0.0107361
vn 0.837058 0.235863 -0.493662
v 0.0153134 -0.0567638 -0.0105607
vn 0.14532 -0.84333 -0.517374
v 0.000335483 -0.0555286 -0.0167811
vn 0.14532 -0.84333 -0.517374
v 0.018305 -0.0524654 -0.0167269
vn 0.14532 -0.84333 -0.517374
v 0.0153134 -0.0567638 -0.0105607
vn 0.137778 -0.854193 -0.501371
v 0.00447665 -0.0584535 -0.0106599
vn 0.137778 -0.854193 -0.501371
v 0.000335483 -0.0555286 -0.0167811
vn 0.137778 -0.854193 -0.501371
v -0.0362513 0.0162126 -0.0306694
vn 0.000819573 -0.00246494 -0.999997
v 0.0390565 0.000398986 -0.0305687
vn 0.000819573 -0.00246494 -0.999997
v -0.0358383 -0.0156996 -0.0305904
vn 0.000819573 -0.00246494 -0.999997
v -0.0183262 0.0524329 -0.0167631
vn -0.113146 0.65677 -0.745554
v -0.000346927 0.0555547 -0.0167416
vn -0.113146 0.65677 -0.745554
v 0.000543418 0.0400605 -0.0305258
vn -0.113146 0.65677 -0.745554
v -0.0562542 0.0166321 -0.00991781
vn -0.851985 0.407557 0.328662
v -0.0502197 0.0293212 -0.0100098
vn -0.851985 0.407557 0.328662
v -0.0538521 0.0230908 -0.0117
vn -0.851985 0.407557 0.328662
v -0.0510018 0.0220139 -0.0167542
vn -0.560655 0.361446 -0.744998
v -0.0410997 0.0373601 -0.0167607
vn -0.560655 0.361446 -0.744998
v -0.0362513 0.0162126 -0.0306694
vn -0.560655 0.361446 -0.744998
v -0.0416453 -0.0217992 3.68357e-09
vn -0.140913 -0.107182 0.984203
v -0.0322402 -0.0341641 3.68357e-09
vn -0.140913 -0.107182 0.984203
v -0.016422 -0.0181681 0.00400678
vn -0.140913 -0.107182 0.984203
v -0.0362513 0.0162126 -0.0306694
vn -0.039743 -0.00298793 -0.999205
v -0.0358383 -0.0156996 -0.0305904
vn -0.039743 -0.00298793 -0.999205
v -0.0397542 -0.000800294 -0.0304792
vn -0.039743 -0.00298793 -0.999205
v 0.0298013 0.0461758 -0.016771
vn 0.365963 0.55462 -0.747307
v 0.0278318 0.0289417 -0.0305259
vn 0.365963 0.55462 -0.747307
v 0.0152934 0.0372151 -0.0305259
vn 0.365963 0.55462 -0.747307
v -0.0183262 0.0524329 -0.0167631
vn -0.412379 0.750486 -0.516443
v 0.0422916 0.0405543 -0.0117
vn 0.516395 0.690649 -0.506301
v 0.0298013 0.0461758 -0.016771
vn 0.516395 0.690649 -0.506301
v 0.0269367 0.0520351 -0.0117
vn 0.516395 0.690649 -0.506301
v 0.00388042 -0.0259317 0.00409338
vn 0.101707 -0.134774 0.985643
v 0.0266749 -0.038666 3.68357e-09
vn 0.101707 -0.134774 0.985643
v 0.0230577 -0.011957 0.00402537
vn 0.101707 -0.134774 0.985643
v -0.00463503 -0.0586139 -0.0104392
vn -0.145855 -0.851328 -0.503952
v -0.0191229 -0.0553854 -0.0117
vn -0.145855 -0.851328 -0.503952
v -0.0177104 -0.0526058 -0.0168044
vn -0.145855 -0.851328 -0.503952
v -0.0365101 0.0458284 -0.0117
vn -0.472347 0.847692 -0.241467
v -0.0349217 0.0471987 -0.00999658
vn -0.316528 0.617553 0.720027
v -0.0219018 0.0422167 3.68357e-09
vn -0.316528 0.617553 0.720027
v -0.0180601 0.055854 -0.0100076
vn -0.316528 0.617553 0.720027
v -0.0562542 0.0166321 -0.00991781
vn -0.601543 0.291465 0.74377
v -0.0462715 0.0119264 3.68357e-09
vn -0.601543 0.291465 0.74377
v -0.0502197 0.0293212 -0.0100098
vn -0.601543 0.291465 0.74377
v -0.0553584 0.00429004 -0.0167824
vn -0.833041 0.205582 -0.513594
v -0.0538521 0.0230908 -0.0117
vn -0.833041 0.205582 -0.513594
v -0.0510018 0.0220139 -0.0167542
vn -0.833041 0.205582 -0.513594
f 1//1 2//2 3//3
f 4//4 5//5 6//6
f 7//7 8//8 9//9
f 10//10 11//11 12//12
f 13//13 14//14 15//15
f 16//16 17//17 18//18
f 19//19 20//20 21//21
f 22//22 23//23 24//24
f 25//25 26//26 27//27
f 28//28 29//29 30//30
f 31//31 32//32 33//33
f 34//34 35//35 36//36
f 37//37 38//38 39//39
f 40//40 41//41 42//42
f 43//43 44//44 45//45
f 46//46 47//47 48//48
f 49//49 50//50 51//51
f 52//52 53//53 54//54
f 55//55 56//56 57//57
f 58//58 59//59 60//60
f 61//61 62//62 63//63
f 64//64 65//65 66//66
f 67//67 68//68 69//69
f 70//70 71//71 72//72
f 73//73 74//74 75//75
f 76//76 77//77 78//78
f 79//79 80//80 81//81
f 82//82 83//83 84//84
f 85//85 86//86 87//87
f 88//88 89//89 90//90
f 91//91 92//92 93//93
f 94//94 95//95 96//96
f 97//97 98//98 99//99
f 100//100 101//101 102//102
f 103//103 93//93 92//92
f 104//104 105//105 106//106
f 107//107 108//108 109//109
f 110//110 111//111 112//112
f 113//113 114//114 115//115
f 116//116 117//117 118//118
f 119//119 120//120 121//121
f 122//122 123//123 124//124
f 125//125 126//126 127//127
f 128//128 129//129 130//130
f 131//131 132//132 133//133
f 134//134 135//135 136//136
f 137//137 138//138 139//139
f 140//140 141//141 142//142
f 143//143 144//144 145//145
f 146//146 147//147 148//148
f 149//149 150//150 151//151
f 152//152 153//153 154//154
f 155//155 156//156 157//157
f 158//158 159//159 160//160
f 161//161 162//162 163//163
f 164//164 165//165 166//166
f 167//167 168//168 169//169
f 170//170 171//171 172//172
f 173//173 174//174 175//175
f 176//176 177//177 178//178
f 179//179 180//180 181//181
f 182//182 183//183 184//184
f 185//185 186//186 187//187
f 188//188 189//189 190//190
f 191//191 192//192 193//193
f 194//194 195//195 196//196
f 197//197 198//198 199//199
f 200//200 201//201 202//202
f 203//203 204//204 205//205
f 206//206 207//207 208//208
f 209//209 210//210 211//211
f 212//212 213//213 214//214
f 215//215 216//216 217//217
f 218//218 219//219 220//220
f 221//221 222//222 223//223
f 224//224 225//225 226//226
f 227//227 117//117 228//228
f 229//229 230//230 231//231
f 232//232 233//233 234//234
f 235//235 236//236 237//237
f 238//238 239//239 240//240
f 241//241 242//242 243//243
f 244//244 245//245 246//246
f 247//247 248//248 249//249
f 250//250 251//251 252//252
f 253//253 254//254 255//255
f 256//256 257//257 258//258
f 259//259 260//260 261//261
f 262//262 263//263 264//264
f 265//265 266//266 267//267
f 268//268 269//269 270//270
f 271//271 272//272 273//273
f 274//274 275//275 276//276
f 277//277 278//278 279//279
f 280//280 281//281 282//282
f 283//283 284//284 285//285
f 286//286 287//287 288//288
f 289//289 290//290 291//291
f 292//292 293//293 294//294
f 295//295 296//296 297//297
f 298//298 299//299 300//300
f 301//301 302//302 303//303
f 304//304 305//305 306//306
f 307//307 308//308 309//309
f 310//310 311//311 312//312
f 313//313 314//314 315//315
f 316//316 317//317 318//318
f 319//319 320//320 321//321
f 322//322 323//323 324//324
f 325//325 326//326 327//327
f 328//328 329//329 330//330
f 331//331 332//332 333//333
f 334//334 335//335 336//336
f 337//337 338//338 339//339
f 340//340 341//341 342//342
f 343//343 344//344 345//345
f 346//346 347//347 348//348
f 349//349 350//350 351//351
f 352//352 353//353 354//354
f 355//355 356//356 357//357
f 358//358 359//359 360//360
f 361//361 362//362 363//363
f 364//364 365//365 366//366
f 367//367 368//368 252//252
f 369//369 370//370 371//371
f 372//372 373//373 374//374
f 375//375 376//376 377//377
f 378//378 379//379 380//380
f 381//381 382//382 383//383
f 384//384 385//385 386//386
f 387//387 388//388 389//389
f 390//390 145//145 144//144
f 391//391 392//392 393//393
f 311//311 394//394 312//312
f 395//395 396//396 397//397
f 398//398 399//399 400//400
f 401//401 402//402 403//403
f 404//404 405//405 406//406
f 407//407 408//408 409//409
f 410//410 411//411 412//412
f 413//413 414//414 415//415
f 416//416 417//417 418//418
f 419//419 420//420 421//421
f 422//422 423//423 424//424
f 425//425 426//426 427//427
f 428//428 429//429 430//430
f 431//431 432//432 433//433
f 434//434 435//435 436//436
f 437//437 438//438 439//439
f 440//440 441//441 442//442
f 305//305 443//443 444//444
f 445//445 446//446 447//447
f 448//448 449//449 450//450
f 451//451 452//452 453//453
f 454//454 455//455 456//456
f 457//457 458//458 459//459
f 460//460 461//461 462//462
f 463//463 464//464 465//465
f 466//466 467//467 468//468
f 469//469 470//470 471//471
f 472//472 473//473 474//474
f 475//475 476//476 477//477
f 478//478 479//479 480//480
f 481//481 482//482 483//483
f 484//484 485//485 486//486
f 487//487 488//488 489//489
f 490//490 491//491 492//492
f 493//493 494//494 495//495
f 496//496 497//497 498//498
f 499//499 500//500 501//501
f 502//502 503//503 504//504
f 505//505 506//506 507//507
f 508//508 509//509 510//510
f 511//511 512//512 513//513
f 514//514 515//515 516//516
f 517//517 518//518 519//519
f 520//520 521//521 522//522
f 523//523 524//524 525//525
f 526//526 527//527 528//528
f 529//529 530//530 531//531
f 532//532 533//533 534//534
f 535//535 536//536 537//537
f 538//538 539//539 540//540
f 541//541 542//542 543//543
f 544//544 545//545 546//546
f 547//547 548//548 549//549
f 550//550 551//551 552//552
f 553//553 554//554 555//555
f 556//556 557//557 558//558
f 559//559 560//560 561//561
f 562//562 563//563 564//564
f 565//565 566//566 567//567
f 568//568 133//133 132//132
f 569//569 570//570 571//571
f 572//572 573//573 574//574
f 575//575 576//576 577//577
f 481//481 483//483 578//578
f 579//579 580//580 581//581
f 582//582 583//583 584//584
f 585//585 586//586 587//587
