# Created by Open3D 
# object name: D86-876.0001-H-proximal_convdec
# number of vertices: 572
# number of triangles: 192
v 0.0435271 -0.0431679 0.0706182
vn 0.999996 -0.00172403 0.00225214
v 0.0435042 -0.00974825 0.106369
vn 0.999996 -0.00172403 0.00225214
v 0.0435005 -0.0370631 0.0871018
vn 0.999996 -0.00172403 0.00225214
v -0.0951745 -0.00508226 0.0952729
vn -0.652286 0.112853 0.749525
v -0.0856924 0.00843234 0.10149
vn -0.652286 0.112853 0.749525
v -0.0948702 0.0135707 0.0927292
vn -0.652286 0.112853 0.749525
v -0.0187241 0.0302504 -8.61244e-05
vn -0.331262 0.277966 -0.901665
v -0.0343362 0.0119652 1.26112e-05
vn -0.331262 0.277966 -0.901665
v -0.0850677 0.0124599 0.0188033
vn -0.331262 0.277966 -0.901665
v -0.0853452 0.0383375 0.0697787
vn -0.582885 0.812544 0.00422746
v -0.0863709 0.0377071 0.0495208
vn -0.582885 0.812544 0.00422746
v -0.0943856 0.0318853 0.063434
vn -0.582885 0.812544 0.00422746
v -0.0237908 -0.0267984 -7.44732e-05
vn -0.277242 -0.678778 -0.679998
v -0.00452913 -0.0346581 -8.20472e-05
vn -0.277242 -0.678778 -0.679998
v -0.00979914 -0.0421612 0.00955623
vn -0.277242 -0.678778 -0.679998
v -0.0850906 -0.0272325 0.0266145
vn -0.570812 -0.396636 -0.718925
v -0.0957646 -0.0134229 0.0274706
vn -0.570812 -0.396636 -0.718925
v -0.0861665 -0.00939684 0.0176287
vn -0.570812 -0.396636 -0.718925
v -0.0861665 -0.00939684 0.0176287
vn -0.316895 -0.0264329 -0.948092
v -0.0873604 0.00242352 0.0176982
vn -0.316895 -0.0264329 -0.948092
v -0.0327337 -0.0097205 -0.000221891
vn -0.316895 -0.0264329 -0.948092
v -0.060153 0.0423086 0.0537587
vn -0.169361 0.985307 -0.0220863
v -0.0863709 0.0377071 0.0495208
vn -0.169361 0.985307 -0.0220863
v -0.0853452 0.0383375 0.0697787
vn -0.169361 0.985307 -0.0220863
v -0.0878562 0.021835 0.0244061
vn -0.521117 0.637846 -0.567089
v -0.0944592 0.0268391 0.0361023
vn -0.521117 0.637846 -0.567089
v -0.0869535 0.0340831 0.0373529
vn -0.521117 0.637846 -0.567089
v 0.040134 -0.0172229 0.01
vn 0.756432 -0.51723 -0.400355
v 0.0435841 -0.0294199 0.0322763
vn 0.756432 -0.51723 -0.400355
v 0.0435483 -0.03922 0.0448697
vn 0.756432 -0.51723 -0.400355
v 0.0151786 0.040943 0.00998832
vn 0.152011 0.979745 -0.130354
v 0.000989543 0.0431495 0.010026
vn 0.152011 0.979745 -0.130354
v 0.0435145 0.0422793 0.0530755
vn 0.152011 0.979745 -0.130354
v -0.0432269 0.0408971 0.0788436
vn -0.0574824 0.872375 0.485446
v -0.0660166 0.0365425 0.0839705
vn -0.0574824 0.872375 0.485446
v -0.043784 0.0346686 0.0899706
vn -0.0574824 0.872375 0.485446
v 0.040134 -0.0172229 0.01
vn 0.947565 -0.19473 -0.253377
v 0.0427794 -0.00435024 0.01
vn 0.947565 -0.19473 -0.253377
v 0.0435841 -0.0294199 0.0322763
vn 0.947565 -0.19473 -0.253377
v 0.0328348 -0.0139643 -8.05824e-06
vn 0.645725 -0.449441 -0.617285
v 0.040134 -0.0172229 0.01
vn 0.645725 -0.449441 -0.617285
v 0.0326266 -0.028009 0.01
vn 0.645725 -0.449441 -0.617285
v -0.0487055 -0.0259846 0.0986721
vn -0.0836169 -0.46603 0.880809
v -0.0428937 -0.0204276 0.102164
vn -0.0836169 -0.46603 0.880809
v -0.0672445 -0.0147487 0.102857
vn -0.0836169 -0.46603 0.880809
v -0.0850906 -0.0272325 0.0266145
vn -0.356363 -0.437451 -0.825616
v -0.0861665 -0.00939684 0.0176287
vn -0.356363 -0.437451 -0.825616
v -0.0237908 -0.0267984 -7.44732e-05
vn -0.356363 -0.437451 -0.825616
v -0.0850906 -0.0272325 0.0266145
vn -0.65907 -0.473182 -0.584573
v -0.0947703 -0.0271646 0.0374728
vn -0.65907 -0.473182 -0.584573
v -0.0957646 -0.0134229 0.0274706
vn -0.65907 -0.473182 -0.584573
v -0.0950656 0.0267634 0.0819474
vn -0.651953 0.736623 0.179847
v -0.0853452 0.0383375 0.0697787
vn -0.651953 0.736623 0.179847
v -0.0943856 0.0318853 0.063434
vn -0.651953 0.736623 0.179847
v -0.0878562 0.021835 0.0244061
vn -0.627752 0.239868 -0.740535
v -0.0873604 0.00242352 0.0176982
vn -0.627752 0.239868 -0.740535
v -0.0948539 0.013176 0.0275333
vn -0.627752 0.239868 -0.740535
v 0.0435506 0.00413587 0.0108114
vn 0.736684 0.151463 -0.659056
v 0.0339657 0.0023881 -0.000304144
vn 0.736684 0.151463 -0.659056
v 0.040134 0.0172229 0.01
vn 0.736684 0.151463 -0.659056
v -0.0869535 0.0340831 0.0373529
vn -0.666715 0.722436 -0.183243
v -0.0944592 0.0268391 0.0361023
vn -0.666715 0.722436 -0.183243
v -0.0863709 0.0377071 0.0495208
vn -0.666715 0.722436 -0.183243
v 0.0435271 -0.0431679 0.0706182
vn 0.999999 -0.000654199 0.00125207
v 0.0435841 -0.0294199 0.0322763
vn 0.999999 -0.000654199 0.00125207
v 0.0435042 -0.00974825 0.106369
vn 0.999999 -0.000654199 0.00125207
v 0.0151786 0.040943 0.00998832
vn 0.407672 0.653622 -0.637637
v 0.0300893 0.0316544 0.01
vn 0.407672 0.653622 -0.637637
v 0.0154996 0.0309507 -4.92387e-05
vn 0.407672 0.653622 -0.637637
v 0.040134 0.0172229 0.01
vn 0.745235 0.518703 -0.419014
v 0.0300893 0.0316544 0.01
vn 0.745235 0.518703 -0.419014
v 0.0436387 0.0347689 0.0379537
vn 0.745235 0.518703 -0.419014
v -0.0466285 -0.0434045 0.063661
vn -0.0728502 -0.995147 -0.0661455
v -0.0676515 -0.041063 0.0515875
vn -0.0728502 -0.995147 -0.0661455
v 0.00533815 -0.043642 0.01
vn -0.0728502 -0.995147 -0.0661455
v 0.0328348 -0.0139643 -8.05824e-06
vn 0.737624 -0.0631846 -0.672249
v 0.0339657 0.0023881 -0.000304144
vn 0.737624 -0.0631846 -0.672249
v 0.0427794 -0.00435024 0.01
vn 0.737624 -0.0631846 -0.672249
v 0.0328348 -0.0139643 -8.05824e-06
vn 0.772382 -0.158729 -0.615005
v 0.0427794 -0.00435024 0.01
vn 0.772382 -0.158729 -0.615005
v 0.040134 -0.0172229 0.01
vn 0.772382 -0.158729 -0.615005
v 0.0434994 0.00681465 0.107628
vn 0.00425456 0.39436 0.918946
v 0.0435013 0.0249489 0.0998458
vn 0.00425456 0.39436 0.918946
v -0.0428625 0.0208795 0.101992
vn 0.00425456 0.39436 0.918946
v 0.0435506 0.00413587 0.0108114
vn 0.989254 -0.0780823 -0.123609
v 0.0435841 -0.0294199 0.0322763
vn 0.989254 -0.0780823 -0.123609
v 0.0427794 -0.00435024 0.01
vn 0.989254 -0.0780823 -0.123609
v 0.0151786 0.040943 0.00998832
vn 0.18222 0.699745 -0.690763
v 0.0154996 0.0309507 -4.92387e-05
vn 0.18222 0.699745 -0.690763
v 0.00049344 0.034897 -1.0171e-05
vn 0.18222 0.699745 -0.690763
v 0.0435506 0.00413587 0.0108114
vn 0.93784 0.228651 -0.261102
v 0.040134 0.0172229 0.01
vn 0.93784 0.228651 -0.261102
v 0.0436387 0.0347689 0.0379537
vn 0.93784 0.228651 -0.261102
v 0.040134 -0.0172229 0.01
vn 0.751049 -0.522749 -0.403309
v 0.0435483 -0.03922 0.0448697
vn 0.751049 -0.522749 -0.403309
v 0.0326266 -0.028009 0.01
vn 0.751049 -0.522749 -0.403309
v -0.0957646 -0.0134229 0.0274706
vn -0.996817 -0.0791428 -0.00963982
v -0.0947703 -0.0271646 0.0374728
vn -0.996817 -0.0791428 -0.00963982
v -0.0947386 -0.031186 0.067211
vn -0.996817 -0.0791428 -0.00963982
v -0.0947703 -0.0271646 0.0374728
vn -0.616746 -0.764009 -0.189511
v -0.0854073 -0.0357756 0.0417168
vn -0.616746 -0.764009 -0.189511
v -0.0943086 -0.0314913 0.0534132
vn -0.616746 -0.764009 -0.189511
v 0.0435004 0.0370631 0.0871018
vn 1 0.000268686 0.000455581
v 0.0435042 -0.00974825 0.106369
vn 1 0.000268686 0.000455581
v 0.0435145 0.0422793 0.0530755
vn 1 0.000268686 0.000455581
v -0.0672445 -0.0147487 0.102857
vn -0.0563948 -0.355662 0.932912
v -0.0428937 -0.0204276 0.102164
vn -0.0563948 -0.355662 0.932912
v -0.043146 -0.0124398 0.105194
vn -0.0563948 -0.355662 0.932912
v -0.0437617 0.00885935 0.106552
vn -0.103614 0.214751 0.971157
v -0.0628704 0.0153138 0.103086
vn -0.103614 0.214751 0.971157
v -0.0639553 0.00544736 0.105152
vn -0.103614 0.214751 0.971157
v -0.0628704 0.0153138 0.103086
vn -0.133097 0.217128 0.967027
v -0.0856924 0.00843234 0.10149
vn -0.133097 0.217128 0.967027
v -0.0639553 0.00544736 0.105152
vn -0.133097 0.217128 0.967027
v -0.0672445 -0.0147487 0.102857
vn -0.0733914 -0.218837 0.972997
v -0.043146 -0.0124398 0.105194
vn -0.0733914 -0.218837 0.972997
v -0.062687 -0.003063 0.105829
vn -0.0733914 -0.218837 0.972997
v -0.0947592 0.0307723 0.0522701
vn -0.661732 0.725581 -0.188794
v -0.0863709 0.0377071 0.0495208
vn -0.661732 0.725581 -0.188794
v -0.0944592 0.0268391 0.0361023
vn -0.661732 0.725581 -0.188794
v -0.0878562 0.021835 0.0244061
vn -0.305754 0.7022 -0.642985
v -0.0869535 0.0340831 0.0373529
vn -0.305754 0.7022 -0.642985
v -0.0109336 0.0421236 0.00998469
vn -0.305754 0.7022 -0.642985
v -0.0950656 0.0267634 0.0819474
vn -0.999626 0.0265213 -0.00673786
v -0.0947592 0.0307723 0.0522701
vn -0.999626 0.0265213 -0.00673786
v -0.0957646 -0.0134229 0.0274706
vn -0.999626 0.0265213 -0.00673786
v -0.0951745 -0.00508226 0.0952729
vn -0.62993 -0.322319 0.70661
v -0.094435 -0.0170846 0.0904573
vn -0.62993 -0.322319 0.70661
v -0.0854554 -0.0150643 0.099384
vn -0.62993 -0.322319 0.70661
v -0.0672445 -0.0147487 0.102857
vn -0.158788 -0.458679 0.8743
v -0.0854554 -0.0150643 0.099384
vn -0.158788 -0.458679 0.8743
v -0.0846153 -0.0222698 0.0957564
vn -0.158788 -0.458679 0.8743
v -0.0437702 -0.00349653 0.107158
vn -0.0733729 -0.218799 0.973007
v -0.062687 -0.003063 0.105829
vn -0.0733729 -0.218799 0.973007
v -0.043146 -0.0124398 0.105194
vn -0.0733729 -0.218799 0.973007
v 0.0435005 -0.0370631 0.0871018
vn 1 -0.00027711 0.000200859
v 0.0435042 -0.00974825 0.106369
vn 1 -0.00027711 0.000200859
v 0.0435013 -0.0249489 0.0998458
vn 1 -0.00027711 0.000200859
v -0.043784 0.0346686 0.0899706
vn -0.00103434 0.708109 0.706102
v -0.0432796 0.0281748 0.0964836
vn -0.00103434 0.708109 0.706102
v 0.0435013 0.0249489 0.0998458
vn -0.00103434 0.708109 0.706102
v -0.0432269 0.0408971 0.0788436
vn -0.00672222 0.97986 0.199573
v 0.0435366 0.0431674 0.0706194
vn -0.00672222 0.97986 0.199573
v -0.0287533 0.0435468 0.0663217
vn -0.00672222 0.97986 0.199573
v -0.0635536 0.0296433 0.0936966
vn -0.0921255 0.801007 0.591523
v -0.043784 0.0346686 0.0899706
vn -0.0921255 0.801007 0.591523
v -0.0660166 0.0365425 0.0839705
vn -0.0921255 0.801007 0.591523
v 0.0435366 0.0431674 0.0706194
vn 0.999966 -0.00820879 -0.000844022
v 0.0435004 0.0370631 0.0871018
vn 0.999966 -0.00820879 -0.000844022
v 0.0435145 0.0422793 0.0530755
vn 0.999966 -0.00820879 -0.000844022
v -0.0655957 0.0412642 0.0713997
vn -0.165157 0.925094 0.341943
v -0.0853452 0.0383375 0.0697787
vn -0.165157 0.925094 0.341943
v -0.0660166 0.0365425 0.0839705
vn -0.165157 0.925094 0.341943
v 0.00049344 0.034897 -1.0171e-05
vn -0.00030904 0.0087243 -0.999962
v 0.0154996 0.0309507 -4.92387e-05
vn -0.00030904 0.0087243 -0.999962
v 0.0339657 0.0023881 -0.000304144
vn -0.00030904 0.0087243 -0.999962
v -0.0187241 0.0302504 -8.61244e-05
vn 0.00141377 0.010498 -0.999944
v 0.00049344 0.034897 -1.0171e-05
vn 0.00141377 0.010498 -0.999944
v 0.0339657 0.0023881 -0.000304144
vn 0.00141377 0.010498 -0.999944
v 0.0151786 0.040943 0.00998832
vn 0.11716 0.764237 -0.634205
v 0.00049344 0.034897 -1.0171e-05
vn 0.11716 0.764237 -0.634205
v 0.000989543 0.0431495 0.010026
vn 0.11716 0.764237 -0.634205
v 0.0304604 0.0185954 -3.19027e-05
vn 0.721041 0.167241 -0.672407
v 0.040134 0.0172229 0.01
vn 0.721041 0.167241 -0.672407
v 0.0339657 0.0023881 -0.000304144
vn 0.721041 0.167241 -0.672407
v 0.0300893 0.0316544 0.01
vn 0.574428 0.734984 -0.36032
v 0.0435145 0.0422793 0.0530755
vn 0.574428 0.734984 -0.36032
v 0.0436387 0.0347689 0.0379537
vn 0.574428 0.734984 -0.36032
v 0.0231019 -0.037063 0.01
vn 0.628564 -0.661242 -0.409472
v 0.0326266 -0.028009 0.01
vn 0.628564 -0.661242 -0.409472
v 0.0435483 -0.03922 0.0448697
vn 0.628564 -0.661242 -0.409472
v 0.0167586 -0.0318421 -5.76281e-05
vn 0.535173 -0.562996 -0.629782
v 0.0326266 -0.028009 0.01
vn 0.535173 -0.562996 -0.629782
v 0.0231019 -0.037063 0.01
vn 0.535173 -0.562996 -0.629782
v 0.0328348 -0.0139643 -8.05824e-06
vn 0.547922 -0.490828 -0.677399
v 0.0326266 -0.028009 0.01
vn 0.547922 -0.490828 -0.677399
v 0.0167586 -0.0318421 -5.76281e-05
vn 0.547922 -0.490828 -0.677399
v 0.0435506 0.00413587 0.0108114
vn 0.999688 -0.0181271 0.0172136
v 0.0436387 0.0347689 0.0379537
vn 0.999688 -0.0181271 0.0172136
v 0.0435145 0.0422793 0.0530755
vn 0.999688 -0.0181271 0.0172136
v 0.0151786 0.040943 0.00998832
vn 0.495411 0.794827 -0.350453
v 0.0435145 0.0422793 0.0530755
vn 0.495411 0.794827 -0.350453
v 0.0300893 0.0316544 0.01
vn 0.495411 0.794827 -0.350453
v -0.0466285 -0.0434045 0.063661
vn 0.00212403 -0.999977 0.00648277
v 0.00533815 -0.043642 0.01
vn 0.00212403 -0.999977 0.00648277
v 0.0435271 -0.0431679 0.0706182
vn 0.00212403 -0.999977 0.00648277
v -0.0869535 0.0340831 0.0373529
vn -0.197262 0.942108 -0.271146
v -0.0863709 0.0377071 0.0495208
vn -0.197262 0.942108 -0.271146
v -0.0109336 0.0421236 0.00998469
vn -0.197262 0.942108 -0.271146
v -0.0343362 0.0119652 1.26112e-05
vn -0.340164 0.179349 -0.923105
v -0.0873604 0.00242352 0.0176982
vn -0.340164 0.179349 -0.923105
v -0.0850677 0.0124599 0.0188033
vn -0.340164 0.179349 -0.923105
v -0.0187241 0.0302504 -8.61244e-05
vn -0.166267 0.69902 -0.695505
v -0.0109336 0.0421236 0.00998469
vn -0.166267 0.69902 -0.695505
v 0.00049344 0.034897 -1.0171e-05
vn -0.166267 0.69902 -0.695505
v -0.0861665 -0.00939684 0.0176287
vn -0.645272 -0.060697 -0.761538
v -0.0945107 0.000205907 0.0239336
vn -0.645272 -0.060697 -0.761538
v -0.0873604 0.00242352 0.0176982
vn -0.645272 -0.060697 -0.761538
v -0.0947703 -0.0271646 0.0374728
vn -0.979327 -0.200594 -0.0260819
v -0.0943086 -0.0314913 0.0534132
vn -0.979327 -0.200594 -0.0260819
v -0.0947386 -0.031186 0.067211
vn -0.979327 -0.200594 -0.0260819
v -0.0951745 -0.00508226 0.0952729
vn -0.999681 -0.0225117 0.0114697
v -0.0957646 -0.0134229 0.0274706
vn -0.999681 -0.0225117 0.0114697
v -0.0948494 -0.0259574 0.0826362
vn -0.999681 -0.0225117 0.0114697
v -0.0428937 -0.0204276 0.102164
vn 0.00401987 -0.394358 0.918948
v 0.0435013 -0.0249489 0.0998458
vn 0.00401987 -0.394358 0.918948
v 0.0435042 -0.00974825 0.106369
vn 0.00401987 -0.394358 0.918948
v -0.0437702 -0.00349653 0.107158
vn -0.00656696 -0.214927 0.976608
v -0.043146 -0.0124398 0.105194
vn -0.00656696 -0.214927 0.976608
v 0.0435042 -0.00974825 0.106369
vn -0.00656696 -0.214927 0.976608
v -0.0428937 -0.0204276 0.102164
vn -0.00166027 -0.354715 0.934973
v 0.0435042 -0.00974825 0.106369
vn -0.00166027 -0.354715 0.934973
v -0.043146 -0.0124398 0.105194
vn -0.00166027 -0.354715 0.934973
v -0.0639444 -0.029901 0.0934012
vn -0.12567 -0.587195 0.79963
v -0.0487055 -0.0259846 0.0986721
vn -0.12567 -0.587195 0.79963
v -0.0846153 -0.0222698 0.0957564
vn -0.12567 -0.587195 0.79963
v -0.0672445 -0.0147487 0.102857
vn -0.176198 -0.265074 0.947993
v -0.0853995 -0.00376806 0.102553
vn -0.176198 -0.265074 0.947993
v -0.0854554 -0.0150643 0.099384
vn -0.176198 -0.265074 0.947993
v -0.0858868 0.0323813 0.0851363
vn -0.181217 0.695548 0.695251
v -0.0853173 0.0207862 0.0968848
vn -0.181217 0.695548 0.695251
v -0.0635536 0.0296433 0.0936966
vn -0.181217 0.695548 0.695251
v -0.0639553 0.00544736 0.105152
vn -0.154597 0.0820722 0.984563
v -0.0856924 0.00843234 0.10149
vn -0.154597 0.0820722 0.984563
v -0.0853995 -0.00376806 0.102553
vn -0.154597 0.0820722 0.984563
v 0.0435042 -0.00974825 0.106369
vn 0.999999 0.000712788 0.000889133
v 0.0435841 -0.0294199 0.0322763
vn 0.999999 0.000712788 0.000889133
v 0.0435145 0.0422793 0.0530755
vn 0.999999 0.000712788 0.000889133
v -0.062687 -0.003063 0.105829
vn -0.144263 0.057087 0.987891
v -0.0639553 0.00544736 0.105152
vn -0.144263 0.057087 0.987891
v -0.0853995 -0.00376806 0.102553
vn -0.144263 0.057087 0.987891
v -0.0628704 0.0153138 0.103086
vn -0.0899273 0.493336 0.865178
v -0.0428625 0.0208795 0.101992
vn -0.0899273 0.493336 0.865178
v -0.0654574 0.0223631 0.0987975
vn -0.0899273 0.493336 0.865178
v -0.0487055 -0.0259846 0.0986721
vn -0.122286 -0.517258 0.847048
v -0.0672445 -0.0147487 0.102857
vn -0.122286 -0.517258 0.847048
v -0.0846153 -0.0222698 0.0957564
vn -0.122286 -0.517258 0.847048
v 0.0435004 0.0370631 0.0871018
vn 1 8.57111e-05 1.10269e-05
v 0.0435013 0.0249489 0.0998458
vn 1 8.57111e-05 1.10269e-05
v 0.0435042 -0.00974825 0.106369
vn 1 8.57111e-05 1.10269e-05
v -0.0950656 0.0267634 0.0819474
vn -0.570006 0.772623 0.279548
v -0.0858868 0.0323813 0.0851363
vn -0.570006 0.772623 0.279548
v -0.0853452 0.0383375 0.0697787
vn -0.570006 0.772623 0.279548
v -0.060153 0.0423086 0.0537587
vn -0.0407537 0.999163 0.00338211
v -0.0531281 0.0425449 0.0685973
vn -0.0407537 0.999163 0.00338211
v -0.0287533 0.0435468 0.0663217
vn -0.0407537 0.999163 0.00338211
v -0.0846153 -0.0222698 0.0957564
vn -0.592165 -0.416375 0.689908
v -0.0854554 -0.0150643 0.099384
vn -0.592165 -0.416375 0.689908
v -0.094435 -0.0170846 0.0904573
vn -0.592165 -0.416375 0.689908
v -0.0635536 0.0296433 0.0936966
vn -0.0460935 0.70561 0.7071
v -0.0432796 0.0281748 0.0964836
vn -0.0460935 0.70561 0.7071
v -0.043784 0.0346686 0.0899706
vn -0.0460935 0.70561 0.7071
v -0.0187241 0.0302504 -8.61244e-05
vn -0.0174734 0.00952031 -0.999802
v -0.0327337 -0.0097205 -0.000221891
vn -0.0174734 0.00952031 -0.999802
v -0.0343362 0.0119652 1.26112e-05
vn -0.0174734 0.00952031 -0.999802
v -0.0343362 0.0119652 1.26112e-05
vn -0.314277 -0.0129592 -0.949243
v -0.0327337 -0.0097205 -0.000221891
vn -0.314277 -0.0129592 -0.949243
v -0.0873604 0.00242352 0.0176982
vn -0.314277 -0.0129592 -0.949243
v -0.0948539 0.013176 0.0275333
vn -0.998405 0.0477457 -0.0301414
v -0.0947592 0.0307723 0.0522701
vn -0.998405 0.0477457 -0.0301414
v -0.0944592 0.0268391 0.0361023
vn -0.998405 0.0477457 -0.0301414
v 0.00533815 -0.043642 0.01
vn 0.0929448 -0.696452 -0.711559
v -0.00452913 -0.0346581 -8.20472e-05
vn 0.0929448 -0.696452 -0.711559
v 0.0167586 -0.0318421 -5.76281e-05
vn 0.0929448 -0.696452 -0.711559
v 0.0434994 0.00681465 0.107628
vn 0.00358505 -0.075793 0.997117
v -0.0437702 -0.00349653 0.107158
vn 0.00358505 -0.075793 0.997117
v 0.0435042 -0.00974825 0.106369
vn 0.00358505 -0.075793 0.997117
v 0.0304604 0.0185954 -3.19027e-05
vn 0.0182924 0.0207473 -0.999617
v 0.0339657 0.0023881 -0.000304144
vn 0.0182924 0.0207473 -0.999617
v 0.0154996 0.0309507 -4.92387e-05
vn 0.0182924 0.0207473 -0.999617
v 0.0304604 0.0185954 -3.19027e-05
vn 0.668196 0.465082 -0.580701
v 0.0300893 0.0316544 0.01
vn 0.668196 0.465082 -0.580701
v 0.040134 0.0172229 0.01
vn 0.668196 0.465082 -0.580701
v -0.0109336 0.0421236 0.00998469
vn -0.0642669 0.772365 -0.63192
v 0.000989543 0.0431495 0.010026
vn -0.0642669 0.772365 -0.63192
v 0.00049344 0.034897 -1.0171e-05
vn -0.0642669 0.772365 -0.63192
v 0.0167586 -0.0318421 -5.76281e-05
vn 0.00224925 -0.00833211 -0.999963
v -0.00452913 -0.0346581 -8.20472e-05
vn 0.00224925 -0.00833211 -0.999963
v 0.0339657 0.0023881 -0.000304144
vn 0.00224925 -0.00833211 -0.999963
v 0.0435506 0.00413587 0.0108114
vn 1 0.000979348 -2.97571e-05
v 0.0435145 0.0422793 0.0530755
vn 1 0.000979348 -2.97571e-05
v 0.0435841 -0.0294199 0.0322763
vn 1 0.000979348 -2.97571e-05
v 0.00533815 -0.043642 0.01
vn -0.0938393 -0.990215 -0.103289
v -0.0676515 -0.041063 0.0515875
vn -0.0938393 -0.990215 -0.103289
v -0.00979914 -0.0421612 0.00955623
vn -0.0938393 -0.990215 -0.103289
v 0.00533815 -0.043642 0.01
vn 0.32255 -0.916339 -0.237244
v 0.0435483 -0.03922 0.0448697
vn 0.32255 -0.916339 -0.237244
v 0.0435 -0.0425041 0.0574886
vn 0.32255 -0.916339 -0.237244
v -0.00452913 -0.0346581 -8.20472e-05
vn -0.000178505 -0.00580954 -0.999983
v -0.0327337 -0.0097205 -0.000221891
vn -0.000178505 -0.00580954 -0.999983
v 0.0339657 0.0023881 -0.000304144
vn -0.000178505 -0.00580954 -0.999983
v -0.0878562 0.021835 0.0244061
vn -0.348856 0.402136 -0.846514
v -0.0187241 0.0302504 -8.61244e-05
vn -0.348856 0.402136 -0.846514
v -0.0850677 0.0124599 0.0188033
vn -0.348856 0.402136 -0.846514
v -0.0873604 0.00242352 0.0176982
vn -0.677626 0.179967 -0.713046
v -0.0945107 0.000205907 0.0239336
vn -0.677626 0.179967 -0.713046
v -0.0948539 0.013176 0.0275333
vn -0.677626 0.179967 -0.713046
v 0.00533815 -0.043642 0.01
vn 0.335995 -0.90721 -0.253135
v 0.0231019 -0.037063 0.01
vn 0.335995 -0.90721 -0.253135
v 0.0435483 -0.03922 0.0448697
vn 0.335995 -0.90721 -0.253135
v -0.0850906 -0.0272325 0.0266145
vn -0.494208 -0.752185 -0.435861
v -0.0854073 -0.0357756 0.0417168
vn -0.494208 -0.752185 -0.435861
v -0.0947703 -0.0271646 0.0374728
vn -0.494208 -0.752185 -0.435861
v -0.0868567 -0.0291983 0.0886455
vn -0.146183 -0.796585 0.586586
v -0.0657339 -0.034967 0.0860756
vn -0.146183 -0.796585 0.586586
v -0.0639444 -0.029901 0.0934012
vn -0.146183 -0.796585 0.586586
v -0.0649667 -0.0391917 0.0784745
vn -0.155587 -0.870007 0.467847
v -0.0657339 -0.034967 0.0860756
vn -0.155587 -0.870007 0.467847
v -0.0871145 -0.0356361 0.077721
vn -0.155587 -0.870007 0.467847
v -0.0866282 -0.037867 0.068189
vn -0.159842 -0.962947 0.217216
v -0.0663821 -0.041289 0.0679172
vn -0.159842 -0.962947 0.217216
v -0.0871145 -0.0356361 0.077721
vn -0.159842 -0.962947 0.217216
v -0.0639444 -0.029901 0.0934012
vn -0.0919621 -0.808349 0.581476
v -0.0657339 -0.034967 0.0860756
vn -0.0919621 -0.808349 0.581476
v -0.0437263 -0.0346696 0.0899696
vn -0.0919621 -0.808349 0.581476
v -0.0950656 0.0267634 0.0819474
vn -0.630305 0.48566 0.605681
v -0.0948702 0.0135707 0.0927292
vn -0.630305 0.48566 0.605681
v -0.0853173 0.0207862 0.0968848
vn -0.630305 0.48566 0.605681
v 0.0434994 0.00681465 0.107628
vn -0.00321196 0.354905 0.934897
v -0.0428625 0.0208795 0.101992
vn -0.00321196 0.354905 0.934897
v -0.0437617 0.00885935 0.106552
vn -0.00321196 0.354905 0.934897
v -0.0437617 0.00885935 0.106552
vn -0.0484354 0.357446 0.932677
v -0.0428625 0.0208795 0.101992
vn -0.0484354 0.357446 0.932677
v -0.0628704 0.0153138 0.103086
vn -0.0484354 0.357446 0.932677
v -0.0868567 -0.0291983 0.0886455
vn -0.169147 -0.678733 0.71464
v -0.0639444 -0.029901 0.0934012
vn -0.169147 -0.678733 0.71464
v -0.0846153 -0.0222698 0.0957564
vn -0.169147 -0.678733 0.71464
v -0.0950656 0.0267634 0.0819474
vn -0.5596 0.57614 0.595743
v -0.0853173 0.0207862 0.0968848
vn -0.5596 0.57614 0.595743
v -0.0858868 0.0323813 0.0851363
vn -0.5596 0.57614 0.595743
v -0.0853173 0.0207862 0.0968848
vn -0.121857 0.482841 0.867188
v -0.0628704 0.0153138 0.103086
vn -0.121857 0.482841 0.867188
v -0.0654574 0.0223631 0.0987975
vn -0.121857 0.482841 0.867188
v -0.043784 0.0346686 0.0899706
vn 0.00276121 0.724786 0.688968
v 0.0435013 0.0249489 0.0998458
vn 0.00276121 0.724786 0.688968
v 0.0435004 0.0370631 0.0871018
vn 0.00276121 0.724786 0.688968
v -0.0655957 0.0412642 0.0713997
vn -0.100143 0.932535 0.346915
v -0.0660166 0.0365425 0.0839705
vn -0.100143 0.932535 0.346915
v -0.0432269 0.0408971 0.0788436
vn -0.100143 0.932535 0.346915
v -0.0428625 0.0208795 0.101992
vn -0.00854011 0.602249 0.798263
v 0.0435013 0.0249489 0.0998458
vn -0.00854011 0.602249 0.798263
v -0.0432796 0.0281748 0.0964836
vn -0.00854011 0.602249 0.798263
v -0.0858868 0.0323813 0.0851363
vn -0.172171 0.920446 0.350908
v -0.0660166 0.0365425 0.0839705
vn -0.172171 0.920446 0.350908
v -0.0853452 0.0383375 0.0697787
vn -0.172171 0.920446 0.350908
v -0.0655957 0.0412642 0.0713997
vn -0.147622 0.988958 0.0130041
v -0.060153 0.0423086 0.0537587
vn -0.147622 0.988958 0.0130041
v -0.0853452 0.0383375 0.0697787
vn -0.147622 0.988958 0.0130041
v -0.0950656 0.0267634 0.0819474
vn -0.998704 0.0225181 0.0456529
v -0.0951745 -0.00508226 0.0952729
vn -0.998704 0.0225181 0.0456529
v -0.0948702 0.0135707 0.0927292
vn -0.998704 0.0225181 0.0456529
v -0.0950656 0.0267634 0.0819474
vn -0.999946 0.0067153 0.00787672
v -0.0957646 -0.0134229 0.0274706
vn -0.999946 0.0067153 0.00787672
v -0.0951745 -0.00508226 0.0952729
vn -0.999946 0.0067153 0.00787672
v -0.0943856 0.0318853 0.063434
vn -0.646729 0.760791 -0.0542051
v -0.0863709 0.0377071 0.0495208
vn -0.646729 0.760791 -0.0542051
v -0.0947592 0.0307723 0.0522701
vn -0.646729 0.760791 -0.0542051
v -0.060153 0.0423086 0.0537587
vn -0.144306 0.975445 -0.16638
v -0.0109336 0.0421236 0.00998469
vn -0.144306 0.975445 -0.16638
v -0.0863709 0.0377071 0.0495208
vn -0.144306 0.975445 -0.16638
v -0.0287533 0.0435468 0.0663217
vn 0.00549512 0.999976 -0.00415393
v 0.0435366 0.0431674 0.0706194
vn 0.00549512 0.999976 -0.00415393
v 0.000989543 0.0431495 0.010026
vn 0.00549512 0.999976 -0.00415393
v -0.0635536 0.0296433 0.0936966
vn -0.0663396 0.598836 0.798119
v -0.0428625 0.0208795 0.101992
vn -0.0663396 0.598836 0.798119
v -0.0432796 0.0281748 0.0964836
vn -0.0663396 0.598836 0.798119
v 0.0435366 0.0431674 0.0706194
vn 0.0715252 0.996159 -0.0505173
v 0.0435145 0.0422793 0.0530755
vn 0.0715252 0.996159 -0.0505173
v 0.000989543 0.0431495 0.010026
vn 0.0715252 0.996159 -0.0505173
v -0.060153 0.0423086 0.0537587
vn -0.0849558 0.991383 -0.0997139
v 0.000989543 0.0431495 0.010026
vn -0.0849558 0.991383 -0.0997139
v -0.0109336 0.0421236 0.00998469
vn -0.0849558 0.991383 -0.0997139
v 0.0435506 0.00413587 0.0108114
vn 0.757813 -0.00648522 -0.65244
v 0.0427794 -0.00435024 0.01
vn 0.757813 -0.00648522 -0.65244
v 0.0339657 0.0023881 -0.000304144
vn 0.757813 -0.00648522 -0.65244
v -0.0950656 0.0267634 0.0819474
vn -0.982942 0.183332 0.0146168
v -0.0943856 0.0318853 0.063434
vn -0.982942 0.183332 0.0146168
v -0.0947592 0.0307723 0.0522701
vn -0.982942 0.183332 0.0146168
v 0.0304604 0.0185954 -3.19027e-05
vn 0.455406 0.55046 -0.699714
v 0.0154996 0.0309507 -4.92387e-05
vn 0.455406 0.55046 -0.699714
v 0.0300893 0.0316544 0.01
vn 0.455406 0.55046 -0.699714
v -0.0957646 -0.0134229 0.0274706
vn -0.999095 -0.0419502 0.00704326
v -0.0947386 -0.031186 0.067211
vn -0.999095 -0.0419502 0.00704326
v -0.0948494 -0.0259574 0.0826362
vn -0.999095 -0.0419502 0.00704326
v -0.0957646 -0.0134229 0.0274706
vn -0.999202 0.0342593 -0.0205449
v -0.0947592 0.0307723 0.0522701
vn -0.999202 0.0342593 -0.0205449
v -0.0948539 0.013176 0.0275333
vn -0.999202 0.0342593 -0.0205449
v -0.0878562 0.021835 0.0244061
vn -0.726315 0.380143 -0.572676
v -0.0948539 0.013176 0.0275333
vn -0.726315 0.380143 -0.572676
v -0.0944592 0.0268391 0.0361023
vn -0.726315 0.380143 -0.572676
v -0.0237908 -0.0267984 -7.44732e-05
vn -0.00497916 -0.0112388 -0.999924
v -0.0327337 -0.0097205 -0.000221891
vn -0.00497916 -0.0112388 -0.999924
v -0.00452913 -0.0346581 -8.20472e-05
vn -0.00497916 -0.0112388 -0.999924
v -0.0866282 -0.037867 0.068189
vn -0.589564 -0.806649 -0.0416127
v -0.0943086 -0.0314913 0.0534132
vn -0.589564 -0.806649 -0.0416127
v -0.0853842 -0.0379183 0.0515586
vn -0.589564 -0.806649 -0.0416127
v -0.0868567 -0.0291983 0.0886455
vn -0.620654 -0.480904 0.61929
v -0.0846153 -0.0222698 0.0957564
vn -0.598471 -0.471298 0.647851
v -0.094435 -0.0170846 0.0904573
vn -0.620654 -0.480904 0.61929
v -0.0943086 -0.0314913 0.0534132
vn -0.598871 -0.782806 -0.169022
v -0.0854073 -0.0357756 0.0417168
vn -0.598871 -0.782806 -0.169022
v -0.0853842 -0.0379183 0.0515586
vn -0.598871 -0.782806 -0.169022
v -0.0957646 -0.0134229 0.0274706
vn -0.975963 0.0339227 -0.215278
v -0.0948539 0.013176 0.0275333
vn -0.975963 0.0339227 -0.215278
v -0.0945107 0.000205907 0.0239336
vn -0.975963 0.0339227 -0.215278
v -0.0649667 -0.0391917 0.0784745
vn -0.0741785 -0.873701 0.480774
v -0.0437263 -0.0346696 0.0899696
vn -0.0741785 -0.873701 0.480774
v -0.0657339 -0.034967 0.0860756
vn -0.0729105 -0.874847 0.478882
v -0.0866282 -0.037867 0.068189
vn -0.639469 -0.755187 0.144122
v -0.0871145 -0.0356361 0.077721
vn -0.639469 -0.755187 0.144122
v -0.0947386 -0.031186 0.067211
vn -0.639469 -0.755187 0.144122
v -0.0466285 -0.0434045 0.063661
vn -0.107633 -0.994176 -0.00539246
v -0.0663821 -0.041289 0.0679172
vn -0.107633 -0.994176 -0.00539246
v -0.0676515 -0.041063 0.0515875
vn -0.107633 -0.994176 -0.00539246
v -0.0676515 -0.041063 0.0515875
vn -0.170419 -0.9629 -0.209237
v -0.0853842 -0.0379183 0.0515586
vn -0.170419 -0.9629 -0.209237
v -0.0854073 -0.0357756 0.0417168
vn -0.170419 -0.9629 -0.209237
v -0.0866282 -0.037867 0.068189
vn -0.17459 -0.98459 -0.0100226
v -0.0853842 -0.0379183 0.0515586
vn -0.17459 -0.98459 -0.0100226
v -0.0676515 -0.041063 0.0515875
vn -0.17459 -0.98459 -0.0100226
v -0.0676515 -0.041063 0.0515875
vn -0.170363 -0.96289 -0.209332
v -0.0854073 -0.0357756 0.0417168
vn -0.170363 -0.96289 -0.209332
v -0.00979914 -0.0421612 0.00955623
vn -0.170363 -0.96289 -0.209332
v -0.0649667 -0.0391917 0.0784745
vn -0.161933 -0.963513 0.21312
v -0.0871145 -0.0356361 0.077721
vn -0.161933 -0.963513 0.21312
v -0.0663821 -0.041289 0.0679172
vn -0.161933 -0.963513 0.21312
v -0.0639444 -0.029901 0.0934012
vn -0.0531427 -0.721857 0.689999
v -0.0437263 -0.0346696 0.0899696
vn -0.0531427 -0.721857 0.689999
v -0.0487055 -0.0259846 0.0986721
vn -0.0531427 -0.721857 0.689999
v -0.0649667 -0.0391917 0.0784745
vn -0.0512946 -0.935689 0.349076
v -0.0430778 -0.042447 0.0729652
vn -0.0512946 -0.935689 0.349076
v -0.0431178 -0.0389571 0.0823139
vn -0.0512946 -0.935689 0.349076
v -0.0430778 -0.042447 0.0729652
vn 0.00160613 -0.937751 0.347304
v 0.0435271 -0.0431679 0.0706182
vn 0.00160613 -0.937751 0.347304
v 0.0435005 -0.0370631 0.0871018
vn 0.00160613 -0.937751 0.347304
v -0.0437263 -0.0346696 0.0899696
vn -0.00789899 -0.872731 0.488137
v -0.0431178 -0.0389571 0.0823139
vn -0.00789899 -0.872731 0.488137
v 0.0435005 -0.0370631 0.0871018
vn -0.00789899 -0.872731 0.488137
v -0.0437263 -0.0346696 0.0899696
vn 0.00276341 -0.724786 0.688968
v 0.0435005 -0.0370631 0.0871018
vn 0.00276341 -0.724786 0.688968
v 0.0435013 -0.0249489 0.0998458
vn 0.00276341 -0.724786 0.688968
v -0.0466285 -0.0434045 0.063661
vn -0.0775509 -0.988304 0.131302
v -0.0430778 -0.042447 0.0729652
vn -0.0775509 -0.988304 0.131302
v -0.0663821 -0.041289 0.0679172
vn -0.0775509 -0.988304 0.131302
v -0.0850906 -0.0272325 0.0266145
vn -0.287551 -0.682877 -0.67156
v -0.0237908 -0.0267984 -7.44732e-05
vn -0.287551 -0.682877 -0.67156
v -0.00979914 -0.0421612 0.00955623
vn -0.287551 -0.682877 -0.67156
v 0.0434994 0.00681465 0.107628
vn 1 0.000230529 0.000781316
v 0.0435042 -0.00974825 0.106369
vn 1 0.000230529 0.000781316
v 0.0435013 0.0249489 0.0998458
vn 1 0.000230529 0.000781316
v -0.0437617 0.00885935 0.106552
vn -0.0802932 0.0671467 0.994507
v -0.0639553 0.00544736 0.105152
vn -0.0802932 0.0671467 0.994507
v -0.062687 -0.003063 0.105829
vn -0.0802932 0.0671467 0.994507
v -0.0655957 0.0412642 0.0713997
vn -0.0534108 0.976529 0.208656
v -0.0432269 0.0408971 0.0788436
vn -0.0534108 0.976529 0.208656
v -0.0531281 0.0425449 0.0685973
vn -0.0534108 0.976529 0.208656
v -0.0858868 0.0323813 0.0851363
vn -0.131058 0.792635 0.595444
v -0.0635536 0.0296433 0.0936966
vn -0.131058 0.792635 0.595444
v -0.0660166 0.0365425 0.0839705
vn -0.131058 0.792635 0.595444
v -0.0951745 -0.00508226 0.0952729
vn -0.563349 -0.220583 0.796229
v -0.0854554 -0.0150643 0.099384
vn -0.563349 -0.220583 0.796229
v -0.0853995 -0.00376806 0.102553
vn -0.563349 -0.220583 0.796229
v 0.0434994 0.00681465 0.107628
vn -0.0111673 0.0489912 0.998737
v -0.0437617 0.00885935 0.106552
vn -0.0111673 0.0489912 0.998737
v -0.0437702 -0.00349653 0.107158
vn -0.0111673 0.0489912 0.998737
v -0.0432269 0.0408971 0.0788436
vn -0.00789849 0.872735 0.488131
v -0.043784 0.0346686 0.0899706
vn -0.00789849 0.872735 0.488131
v 0.0435004 0.0370631 0.0871018
vn -0.00789849 0.872735 0.488131
v -0.0432269 0.0408971 0.0788436
vn 0.00838373 0.937715 0.347304
v 0.0435004 0.0370631 0.0871018
vn 0.00838373 0.937715 0.347304
v 0.0435366 0.0431674 0.0706194
vn 0.00838373 0.937715 0.347304
v -0.0432269 0.0408971 0.0788436
vn -0.0235297 0.983228 0.180859
v -0.0287533 0.0435468 0.0663217
vn -0.0235297 0.983228 0.180859
v -0.0531281 0.0425449 0.0685973
vn -0.0235297 0.983228 0.180859
v -0.0948702 0.0135707 0.0927292
vn -0.563494 0.303526 0.76834
v -0.0856924 0.00843234 0.10149
vn -0.563494 0.303526 0.76834
v -0.0853173 0.0207862 0.0968848
vn -0.563494 0.303526 0.76834
v -0.0635536 0.0296433 0.0936966
vn -0.123697 0.590908 0.797199
v -0.0853173 0.0207862 0.0968848
vn -0.123697 0.590908 0.797199
v -0.0654574 0.0223631 0.0987975
vn -0.123697 0.590908 0.797199
v -0.0947386 -0.031186 0.067211
vn -0.702752 -0.675298 0.223855
v -0.0871145 -0.0356361 0.077721
vn -0.702752 -0.675298 0.223855
v -0.0948494 -0.0259574 0.0826362
vn -0.702752 -0.675298 0.223855
v -0.0430778 -0.042447 0.0729652
vn 0.00115338 -0.936849 0.349733
v 0.0435005 -0.0370631 0.0871018
vn 0.00115338 -0.936849 0.349733
v -0.0431178 -0.0389571 0.0823139
vn 0.00115338 -0.936849 0.349733
v 0.0328348 -0.0139643 -8.05824e-06
vn 0.0251407 -0.019836 -0.999487
v 0.0167586 -0.0318421 -5.76281e-05
vn 0.0251407 -0.019836 -0.999487
v 0.0339657 0.0023881 -0.000304144
vn 0.0251407 -0.019836 -0.999487
v -0.0866282 -0.037867 0.068189
vn -0.635613 -0.772003 -0.00272682
v -0.0947386 -0.031186 0.067211
vn -0.635613 -0.772003 -0.00272682
v -0.0943086 -0.0314913 0.0534132
vn -0.635613 -0.772003 -0.00272682
v -0.0878562 0.021835 0.0244061
vn -0.306814 0.724671 -0.617023
v -0.0109336 0.0421236 0.00998469
vn -0.306814 0.724671 -0.617023
v -0.0187241 0.0302504 -8.61244e-05
vn -0.306814 0.724671 -0.617023
v -0.0187241 0.0302504 -8.61244e-05
vn -0.00197549 0.004089 -0.99999
v 0.0339657 0.0023881 -0.000304144
vn -0.00197549 0.004089 -0.99999
v -0.0327337 -0.0097205 -0.000221891
vn -0.00197549 0.004089 -0.99999
v -0.0487055 -0.0259846 0.0986721
vn -0.00103411 -0.708114 0.706098
v -0.0437263 -0.0346696 0.0899696
vn -0.00103411 -0.708114 0.706098
v 0.0435013 -0.0249489 0.0998458
vn -0.00103411 -0.708114 0.706098
v -0.0866282 -0.037867 0.068189
vn -0.166666 -0.986013 -0.000690508
v -0.0676515 -0.041063 0.0515875
vn -0.166666 -0.986013 -0.000690508
v -0.0663821 -0.041289 0.0679172
vn -0.166666 -0.986013 -0.000690508
v -0.0951745 -0.00508226 0.0952729
vn -0.601154 0.0550301 0.797236
v -0.0853995 -0.00376806 0.102553
vn -0.601154 0.0550301 0.797236
v -0.0856924 0.00843234 0.10149
vn -0.601154 0.0550301 0.797236
v -0.0868567 -0.0291983 0.0886455
vn -0.170145 -0.84721 0.503275
v -0.0871145 -0.0356361 0.077721
vn -0.170145 -0.84721 0.503275
v -0.0657339 -0.034967 0.0860756
vn -0.170145 -0.84721 0.503275
v 0.0435271 -0.0431679 0.0706182
vn 0.999995 -0.00323169 0.000327869
v 0.0435483 -0.03922 0.0448697
vn 0.999995 -0.00323169 0.000327869
v 0.0435841 -0.0294199 0.0322763
vn 0.999995 -0.00323169 0.000327869
v -0.0957646 -0.0134229 0.0274706
vn -0.684741 -0.123407 -0.718262
v -0.0945107 0.000205907 0.0239336
vn -0.684741 -0.123407 -0.718262
v -0.0861665 -0.00939684 0.0176287
vn -0.684741 -0.123407 -0.718262
v -0.0649667 -0.0391917 0.0784745
vn -0.0930244 -0.974123 0.20599
v -0.0663821 -0.041289 0.0679172
vn -0.0930244 -0.974123 0.20599
v -0.0430778 -0.042447 0.0729652
vn -0.0930244 -0.974123 0.20599
v -0.0431178 -0.0389571 0.0823139
vn -0.0754477 -0.872549 0.482666
v 0.00533815 -0.043642 0.01
vn -0.057022 -0.772452 -0.632508
v -0.00979914 -0.0421612 0.00955623
vn -0.057022 -0.772452 -0.632508
v -0.00452913 -0.0346581 -8.20472e-05
vn -0.057022 -0.772452 -0.632508
v -0.060153 0.0423086 0.0537587
vn -0.0301997 0.999279 -0.0230077
v -0.0287533 0.0435468 0.0663217
vn -0.0301997 0.999279 -0.0230077
v 0.000989543 0.0431495 0.010026
vn -0.0301997 0.999279 -0.0230077
v -0.0487055 -0.0259846 0.0986721
vn -0.00487166 -0.528391 0.848987
v 0.0435013 -0.0249489 0.0998458
vn -0.00487166 -0.528391 0.848987
v -0.0428937 -0.0204276 0.102164
vn -0.00487166 -0.528391 0.848987
v -0.0437617 0.00885935 0.106552
vn -0.0688826 0.0489175 0.996425
v -0.062687 -0.003063 0.105829
vn -0.0688826 0.0489175 0.996425
v -0.0437702 -0.00349653 0.107158
vn -0.0688826 0.0489175 0.996425
v -0.0878562 0.021835 0.0244061
vn -0.661669 0.22974 -0.713732
v -0.0850677 0.0124599 0.0188033
vn -0.661669 0.22974 -0.713732
v -0.0873604 0.00242352 0.0176982
vn -0.661669 0.22974 -0.713732
v -0.0635536 0.0296433 0.0936966
vn -0.07569 0.585376 0.807221
v -0.0654574 0.0223631 0.0987975
vn -0.07569 0.585376 0.807221
v -0.0428625 0.0208795 0.101992
vn -0.07569 0.585376 0.807221
v -0.0672445 -0.0147487 0.102857
vn -0.134098 -0.194814 0.97163
v -0.062687 -0.003063 0.105829
vn -0.134098 -0.194814 0.97163
v -0.0853995 -0.00376806 0.102553
vn -0.134098 -0.194814 0.97163
v -0.0951745 -0.00508226 0.0952729
vn -0.964931 -0.146773 0.217636
v -0.0948494 -0.0259574 0.0826362
vn -0.964931 -0.146773 0.217636
v -0.094435 -0.0170846 0.0904573
vn -0.964931 -0.146773 0.217636
v -0.0868567 -0.0291983 0.0886455
vn -0.593592 -0.687128 0.418932
v -0.0948494 -0.0259574 0.0826362
vn -0.593592 -0.687128 0.418932
v -0.0871145 -0.0356361 0.077721
vn -0.593592 -0.687128 0.418932
v -0.0850906 -0.0272325 0.0266145
vn -0.27377 -0.834665 -0.477896
v -0.00979914 -0.0421612 0.00955623
vn -0.27377 -0.834665 -0.477896
v -0.0854073 -0.0357756 0.0417168
vn -0.27377 -0.834665 -0.477896
v 0.00533815 -0.043642 0.01
vn 0.0924534 -0.994437 -0.0504673
v 0.0435 -0.0425041 0.0574886
vn 0.0924534 -0.994437 -0.0504673
v 0.0435271 -0.0431679 0.0706182
vn 0.0924534 -0.994437 -0.0504673
v -0.0466285 -0.0434045 0.063661
vn -0.00544843 -0.994518 0.104426
v 0.0435271 -0.0431679 0.0706182
vn -0.00544843 -0.994518 0.104426
v -0.0430778 -0.042447 0.0729652
vn -0.00544843 -0.994518 0.104426
v -0.0237908 -0.0267984 -7.44732e-05
vn -0.313076 -0.172006 -0.934022
v -0.0861665 -0.00939684 0.0176287
vn -0.313076 -0.172006 -0.934022
v -0.0327337 -0.0097205 -0.000221891
vn -0.313076 -0.172006 -0.934022
v 0.00533815 -0.043642 0.01
vn 0.283745 -0.766132 -0.576655
v 0.0167586 -0.0318421 -5.76281e-05
vn 0.283745 -0.766132 -0.576655
v 0.0231019 -0.037063 0.01
vn 0.283745 -0.766132 -0.576655
v -0.0948494 -0.0259574 0.0826362
vn -0.642041 -0.489867 0.589758
v 0.0435271 -0.0431679 0.0706182
vn 0.999599 -0.0280863 -0.00348331
v 0.0435 -0.0425041 0.0574886
vn 0.999599 -0.0280863 -0.00348331
v 0.0435483 -0.03922 0.0448697
vn 0.999599 -0.0280863 -0.00348331
v -0.0853173 0.0207862 0.0968848
vn -0.169618 0.34875 0.921739
v -0.0856924 0.00843234 0.10149
vn -0.169618 0.34875 0.921739
v -0.0628704 0.0153138 0.103086
vn -0.169618 0.34875 0.921739
v -0.0655957 0.0412642 0.0713997
vn -0.0955962 0.994986 0.0294122
v -0.0531281 0.0425449 0.0685973
vn -0.0955962 0.994986 0.0294122
v -0.060153 0.0423086 0.0537587
vn -0.0955962 0.994986 0.0294122
f 1//1 2//2 3//3
f 4//4 5//5 6//6
f 7//7 8//8 9//9
f 10//10 11//11 12//12
f 13//13 14//14 15//15
f 16//16 17//17 18//18
f 19//19 20//20 21//21
f 22//22 23//23 24//24
f 25//25 26//26 27//27
f 28//28 29//29 30//30
f 31//31 32//32 33//33
f 34//34 35//35 36//36
f 37//37 38//38 39//39
f 40//40 41//41 42//42
f 43//43 44//44 45//45
f 46//46 47//47 48//48
f 49//49 50//50 51//51
f 52//52 53//53 54//54
f 55//55 56//56 57//57
f 58//58 59//59 60//60
f 61//61 62//62 63//63
f 64//64 65//65 66//66
f 67//67 68//68 69//69
f 70//70 71//71 72//72
f 73//73 74//74 75//75
f 76//76 77//77 78//78
f 79//79 80//80 81//81
f 82//82 83//83 84//84
f 85//85 86//86 87//87
f 88//88 89//89 90//90
f 91//91 92//92 93//93
f 94//94 95//95 96//96
f 97//97 98//98 99//99
f 100//100 101//101 102//102
f 103//103 104//104 105//105
f 106//106 107//107 108//108
f 109//109 110//110 111//111
f 112//112 113//113 114//114
f 115//115 116//116 117//117
f 118//118 119//119 120//120
f 121//121 122//122 123//123
f 124//124 125//125 126//126
f 127//127 128//128 129//129
f 130//130 131//131 132//132
f 133//133 134//134 135//135
f 136//136 137//137 138//138
f 139//139 140//140 141//141
f 142//142 143//143 144//144
f 145//145 146//146 147//147
f 148//148 149//149 150//150
f 151//151 152//152 153//153
f 154//154 155//155 156//156
f 157//157 158//158 159//159
f 160//160 161//161 162//162
f 163//163 164//164 165//165
f 166//166 167//167 168//168
f 169//169 170//170 171//171
f 172//172 173//173 174//174
f 175//175 176//176 177//177
f 178//178 179//179 180//180
f 181//181 182//182 183//183
f 184//184 185//185 186//186
f 187//187 188//188 189//189
f 190//190 191//191 192//192
f 193//193 194//194 195//195
f 196//196 197//197 198//198
f 199//199 200//200 201//201
f 202//202 203//203 204//204
f 205//205 206//206 207//207
f 208//208 209//209 210//210
f 211//211 212//212 213//213
f 214//214 215//215 216//216
f 217//217 218//218 219//219
f 220//220 221//221 222//222
f 223//223 224//224 225//225
f 226//226 227//227 228//228
f 229//229 230//230 231//231
f 232//232 233//233 234//234
f 235//235 236//236 237//237
f 238//238 239//239 240//240
f 241//241 242//242 243//243
f 244//244 245//245 246//246
f 247//247 248//248 249//249
f 250//250 251//251 252//252
f 253//253 254//254 255//255
f 256//256 257//257 258//258
f 259//259 260//260 261//261
f 262//262 263//263 264//264
f 265//265 266//266 267//267
f 268//268 269//269 270//270
f 271//271 272//272 273//273
f 274//274 275//275 276//276
f 277//277 278//278 279//279
f 280//280 281//281 282//282
f 283//283 284//284 285//285
f 286//286 287//287 288//288
f 289//289 290//290 291//291
f 292//292 293//293 294//294
f 295//295 296//296 297//297
f 298//298 299//299 300//300
f 301//301 302//302 303//303
f 304//304 305//305 306//306
f 307//307 308//308 309//309
f 310//310 311//311 312//312
f 313//313 314//314 315//315
f 316//316 317//317 318//318
f 319//319 320//320 321//321
f 322//322 323//323 324//324
f 325//325 326//326 327//327
f 328//328 329//329 330//330
f 331//331 332//332 333//333
f 334//334 335//335 336//336
f 337//337 338//338 339//339
f 340//340 341//341 342//342
f 343//343 344//344 345//345
f 346//346 347//347 348//348
f 349//349 350//350 351//351
f 352//352 353//353 354//354
f 355//355 356//356 357//357
f 358//358 359//359 360//360
f 361//361 362//362 363//363
f 364//364 365//365 366//366
f 367//367 368//368 369//369
f 370//370 371//371 372//372
f 373//373 374//374 375//375
f 376//376 377//377 378//378
f 379//379 380//380 381//381
f 382//382 383//383 384//384
f 385//385 386//386 387//387
f 388//388 389//389 390//390
f 391//391 392//392 393//393
f 394//394 395//395 396//396
f 397//397 398//398 399//399
f 400//400 401//401 402//402
f 403//403 404//404 405//405
f 406//406 407//407 408//408
f 409//409 410//410 411//411
f 412//412 413//413 414//414
f 415//415 416//416 417//417
f 418//418 419//419 420//420
f 421//421 422//422 423//423
f 424//424 425//425 426//426
f 427//427 428//428 429//429
f 430//430 431//431 432//432
f 433//433 434//434 435//435
f 436//436 437//437 438//438
f 439//439 440//440 441//441
f 442//442 443//443 444//444
f 445//445 446//446 447//447
f 448//448 449//449 450//450
f 451//451 452//452 453//453
f 454//454 455//455 456//456
f 457//457 458//458 459//459
f 460//460 461//461 462//462
f 463//463 464//464 465//465
f 466//466 467//467 468//468
f 469//469 470//470 471//471
f 472//472 473//473 474//474
f 475//475 476//476 477//477
f 478//478 479//479 480//480
f 481//481 482//482 483//483
f 484//484 485//485 486//486
f 487//487 488//488 489//489
f 490//490 491//491 492//492
f 493//493 494//494 495//495
f 496//496 497//497 498//498
f 499//499 500//500 501//501
f 502//502 503//503 504//504
f 505//505 506//506 507//507
f 508//508 509//509 510//510
f 511//511 512//512 513//513
f 514//514 515//515 516//516
f 517//517 518//518 519//519
f 406//406 520//520 407//407
f 521//521 522//522 523//523
f 524//524 525//525 526//526
f 527//527 528//528 529//529
f 530//530 531//531 532//532
f 533//533 534//534 535//535
f 536//536 537//537 538//538
f 539//539 540//540 541//541
f 542//542 543//543 544//544
f 545//545 546//546 547//547
f 548//548 549//549 550//550
f 551//551 552//552 553//553
f 554//554 555//555 556//556
f 557//557 558//558 559//559
f 560//560 561//561 562//562
f 397//397 399//399 563//563
f 564//564 565//565 566//566
f 567//567 568//568 569//569
f 570//570 571//571 572//572
