# Created by Open3D 
# object name: D86-876.0001-H-distal_convdec
# number of vertices: 505
# number of triangles: 176
v 0.0289854 -0.032471 -0.0106038
vn 0.436296 -0.615934 0.655951
v 0.0244945 -0.0243594 -6.3777e-10
vn 0.436296 -0.615934 0.655951
v 0.0233595 -0.0366282 -0.0107654
vn 0.436296 -0.615934 0.655951
v -0.0339916 -0.00805677 -6.3777e-10
vn -0.664422 -0.344382 0.663283
v -0.038214 -0.0205684 -0.0107258
vn -0.664422 -0.344382 0.663283
v -0.0275522 -0.0204804 -6.3777e-10
vn -0.664422 -0.344382 0.663283
v -0.0295812 -0.0317498 -0.0107194
vn -0.473781 -0.609852 0.635304
v -0.0237189 -0.0363915 -0.0108033
vn -0.473781 -0.609852 0.635304
v -0.0192952 -0.028574 -6.3777e-10
vn -0.473781 -0.609852 0.635304
v 0.0135528 0.0315581 -6.3777e-10
vn 0.191795 0.299698 0.934557
v 0.0182424 0.0160536 0.00400963
vn 0.191795 0.299698 0.934557
v 0.0226854 0.0257136 -6.3777e-10
vn 0.191795 0.299698 0.934557
v -0.00436472 -0.00773867 -0.0204788
vn 0.0274443 -0.0653448 -0.997485
v 0.00802769 -0.00422988 -0.0203677
vn 0.0274443 -0.0653448 -0.997485
v 0.0180746 -0.0361531 -0.018
vn 0.0274443 -0.0653448 -0.997485
v 0.00353405 -0.0432935 -0.0107717
vn 0.106355 -0.892397 -0.438539
v -0.00182602 -0.0403802 -0.018
vn 0.106355 -0.892397 -0.438539
v 0.00813632 -0.0391929 -0.018
vn 0.106355 -0.892397 -0.438539
v 0.0103626 -0.0421821 -0.0107822
vn 0.263043 -0.85999 -0.437293
v 0.00813632 -0.0391929 -0.018
vn 0.263043 -0.85999 -0.437293
v 0.0180746 -0.0361531 -0.018
vn 0.263043 -0.85999 -0.437293
v 0.0230404 0.0369753 -0.010499
vn 0.396353 0.61934 0.677734
v 0.0135528 0.0315581 -6.3777e-10
vn 0.396353 0.61934 0.677734
v 0.0226854 0.0257136 -6.3777e-10
vn 0.396353 0.61934 0.677734
v 0.0436367 -0.00045862 -0.0105105
vn 0.75246 0.0828983 0.6534
v 0.0425677 0.0091697 -0.010501
vn 0.75246 0.0828983 0.6534
v 0.0337696 0.0062609 -6.3777e-10
vn 0.75246 0.0828983 0.6534
v 0.0122871 -0.0326694 -6.3777e-10
vn 0.421868 -0.619725 0.661792
v 0.0233595 -0.0366282 -0.0107654
vn 0.421868 -0.619725 0.661792
v 0.0244945 -0.0243594 -6.3777e-10
vn 0.421868 -0.619725 0.661792
v -0.00425612 -0.0432071 -0.0107023
vn -0.00266765 -0.761337 0.648351
v 0.00353405 -0.0432935 -0.0107717
vn -0.00266765 -0.761337 0.648351
v 0.000118005 -0.0341084 -6.3777e-10
vn -0.00266765 -0.761337 0.648351
v 0.0233595 -0.0366282 -0.0107654
vn 0.528699 -0.729397 -0.434117
v 0.0180746 -0.0361531 -0.018
vn 0.528699 -0.729397 -0.434117
v 0.0261802 -0.0302778 -0.018
vn 0.528699 -0.729397 -0.434117
v -0.000121289 0.0349332 -6.3777e-10
vn 0.173149 0.701509 0.691306
v 0.0135528 0.0315581 -6.3777e-10
vn 0.173149 0.701509 0.691306
v 0.0127606 0.0416082 -0.01
vn 0.173149 0.701509 0.691306
v -0.0178836 -0.0395524 -0.0107108
vn -0.304056 -0.685009 0.662051
v -0.00914903 -0.0330776 -6.3777e-10
vn -0.304056 -0.685009 0.662051
v -0.0192952 -0.028574 -6.3777e-10
vn -0.304056 -0.685009 0.662051
v -0.0341841 -0.026808 -0.0108004
vn -0.674051 -0.634038 -0.379014
v -0.0269526 -0.0301921 -0.018
vn -0.626757 -0.684306 -0.372694
v -0.0295812 -0.0317498 -0.0107194
vn -0.626757 -0.684306 -0.372694
v -0.00436472 -0.00773867 -0.0204788
vn -0.0611211 -0.0485734 -0.996948
v -0.0269526 -0.0301921 -0.018
vn -0.0611211 -0.0485734 -0.996948
v -0.0353424 -0.019635 -0.018
vn -0.0611211 -0.0485734 -0.996948
v -0.0339916 -0.00805677 -6.3777e-10
vn -0.77469 -0.0654425 0.628945
v -0.0434454 1.15116e-07 -0.0108062
vn -0.77469 -0.0654425 0.628945
v -0.0427837 -0.00722361 -0.0107428
vn -0.77469 -0.0654425 0.628945
v -0.00111226 0.00522897 -0.0208301
vn -0.0613832 0.0497794 -0.996872
v -0.0352671 0.0197875 -0.018
vn -0.0613832 0.0497794 -0.996872
v -0.0266693 0.0303895 -0.018
vn -0.0613832 0.0497794 -0.996872
v -0.0320449 0.0289353 -0.0123754
vn -0.782612 0.502005 -0.368116
v -0.0352671 0.0197875 -0.018
vn -0.782612 0.502005 -0.368116
v -0.0396321 0.017251 -0.0121791
vn -0.782612 0.502005 -0.368116
v 0.0340552 0.0271548 -0.0104215
vn 0.629543 0.422006 0.65237
v 0.0296796 0.0175719 -6.3777e-10
vn 0.629543 0.422006 0.65237
v 0.0377027 0.0218344 -0.0104997
vn 0.629543 0.422006 0.65237
v -0.00436472 -0.00773867 -0.0204788
vn -0.0702912 -0.0247514 -0.997219
v -0.0353424 -0.019635 -0.018
vn -0.0702912 -0.0247514 -0.997219
v -0.0398631 -0.00679671 -0.018
vn -0.0702912 -0.0247514 -0.997219
v -0.0107043 -0.0420988 -0.0107913
vn -0.137843 -0.750036 0.646874
v -0.00425612 -0.0432071 -0.0107023
vn -0.137843 -0.750036 0.646874
v -0.00914903 -0.0330776 -6.3777e-10
vn -0.137843 -0.750036 0.646874
v 0.0122871 -0.0326694 -6.3777e-10
vn 0.0879812 -0.744024 0.662335
v 0.000118005 -0.0341084 -6.3777e-10
vn 0.0879812 -0.744024 0.662335
v 0.00353405 -0.0432935 -0.0107717
vn 0.0879812 -0.744024 0.662335
v 0.0436367 -0.00045862 -0.0105105
vn 0.895173 -0.0762795 -0.439143
v 0.0391319 -0.0102072 -0.018
vn 0.895173 -0.0762795 -0.439143
v 0.0402889 0.0033707 -0.018
vn 0.895173 -0.0762795 -0.439143
v 0.0103626 -0.0421821 -0.0107822
vn 0.216597 -0.883457 -0.415439
v 0.0180746 -0.0361531 -0.018
vn 0.289784 -0.863887 -0.411976
v 0.0165605 -0.0401446 -0.0106951
vn 0.289784 -0.863887 -0.411976
v -0.00436472 -0.00773867 -0.0204788
vn 0.021434 -0.0700761 -0.997311
v 0.0180746 -0.0361531 -0.018
vn 0.021434 -0.0700761 -0.997311
v 0.00813632 -0.0391929 -0.018
vn 0.021434 -0.0700761 -0.997311
v 0.0282381 0.0331243 -0.0104978
vn 0.535424 0.530158 0.65746
v 0.0226854 0.0257136 -6.3777e-10
vn 0.535424 0.530158 0.65746
v 0.0340552 0.0271548 -0.0104215
vn 0.535424 0.530158 0.65746
v -0.00436472 -0.00773867 -0.0204788
vn -0.0419251 -0.0678694 -0.996813
v -0.0151224 -0.0375 -0.018
vn -0.0419251 -0.0678694 -0.996813
v -0.0269526 -0.0301921 -0.018
vn -0.0419251 -0.0678694 -0.996813
v 0.0409784 0.0147195 -0.0104202
vn 0.689797 0.249427 0.679681
v 0.0296796 0.0175719 -6.3777e-10
vn 0.689797 0.249427 0.679681
v 0.0337696 0.0062609 -6.3777e-10
vn 0.689797 0.249427 0.679681
v -0.00111226 0.00522897 -0.0208301
vn -0.0728595 6.5494e-05 -0.997342
v -0.0398631 -0.00679671 -0.018
vn -0.0728595 6.5494e-05 -0.997342
v -0.0398508 0.00688343 -0.018
vn -0.0728595 6.5494e-05 -0.997342
v -0.0237189 -0.0363915 -0.0108033
vn -0.470677 -0.761943 -0.444865
v -0.0269526 -0.0301921 -0.018
vn -0.470677 -0.761943 -0.444865
v -0.0151224 -0.0375 -0.018
vn -0.470677 -0.761943 -0.444865
v -0.0339916 -0.00805677 -6.3777e-10
vn -0.361296 0.00460241 0.93244
v -0.0235696 -0.000307356 0.004
vn -0.361296 0.00460241 0.93244
v -0.0338122 0.0060266 -6.3777e-10
vn -0.361296 0.00460241 0.93244
v -0.0109968 -0.0215109 0.00401923
vn -0.0370722 -0.333285 0.942097
v -0.00914903 -0.0330776 -6.3777e-10
vn -0.0370722 -0.333285 0.942097
v 0.000118005 -0.0341084 -6.3777e-10
vn -0.0370722 -0.333285 0.942097
v -0.00777013 0.0424803 -0.0123584
vn -0.180381 0.843223 -0.506397
v -0.00163714 0.0404042 -0.018
vn -0.180381 0.843223 -0.506397
v -0.0150212 0.0375411 -0.018
vn -0.180381 0.843223 -0.506397
v -0.0209965 0.0377347 -0.0123657
vn -0.451784 0.73584 -0.504411
v -0.0150212 0.0375411 -0.018
vn -0.451784 0.73584 -0.504411
v -0.0266693 0.0303895 -0.018
vn -0.451784 0.73584 -0.504411
v -0.00111226 0.00522897 -0.0208301
vn 0.0467025 0.061933 -0.996987
v 0.0212617 0.0339157 -0.018
vn 0.0467025 0.061933 -0.996987
v 0.0292916 0.0278605 -0.018
vn 0.0467025 0.061933 -0.996987
v 0.0122871 -0.0326694 -6.3777e-10
vn 0.123866 -0.754962 0.643964
v 0.00353405 -0.0432935 -0.0107717
vn 0.123866 -0.754962 0.643964
v 0.0103626 -0.0421821 -0.0107822
vn 0.123866 -0.754962 0.643964
v -0.00111226 0.00522897 -0.0208301
vn 0.0178954 -0.0315611 -0.999342
v 0.00802769 -0.00422988 -0.0203677
vn 0.0178954 -0.0315611 -0.999342
v -0.00436472 -0.00773867 -0.0204788
vn 0.0178954 -0.0315611 -0.999342
v -0.00111226 0.00522897 -0.0208301
vn 0.0618534 0.0416077 -0.997218
v 0.0292916 0.0278605 -0.018
vn 0.0618534 0.0416077 -0.997218
v 0.0368802 0.0165794 -0.018
vn 0.0618534 0.0416077 -0.997218
v -0.0339916 -0.00805677 -6.3777e-10
vn -0.749062 0.00954201 0.662431
v -0.0338122 0.0060266 -6.3777e-10
vn -0.749062 0.00954201 0.662431
v -0.0434454 1.15116e-07 -0.0108062
vn -0.749062 0.00954201 0.662431
v -0.0410142 -0.0143293 -0.0108051
vn -0.844113 -0.297235 -0.446233
v -0.0398631 -0.00679671 -0.018
vn -0.844113 -0.297235 -0.446233
v -0.0353424 -0.019635 -0.018
vn -0.844113 -0.297235 -0.446233
v -0.0339916 -0.00805677 -6.3777e-10
vn -0.766233 -0.196177 0.611884
v -0.0427837 -0.00722361 -0.0107428
vn -0.766233 -0.196177 0.611884
v -0.0410142 -0.0143293 -0.0108051
vn -0.766233 -0.196177 0.611884
v -0.038214 -0.0205684 -0.0107258
vn -0.641293 -0.421848 0.640927
v -0.0341841 -0.026808 -0.0108004
vn -0.641293 -0.421848 0.640927
v -0.0275522 -0.0204804 -6.3777e-10
vn -0.641293 -0.421848 0.640927
v -0.00111226 0.00522897 -0.0208301
vn -0.0699064 -0.00948958 -0.997508
v -0.00436472 -0.00773867 -0.0204788
vn -0.0699064 -0.00948958 -0.997508
v -0.0398631 -0.00679671 -0.018
vn -0.0699064 -0.00948958 -0.997508
v -0.0209965 0.0377347 -0.0123657
vn -0.579643 0.728195 -0.365713
v -0.0266693 0.0303895 -0.018
vn -0.579643 0.728195 -0.365713
v -0.0320449 0.0289353 -0.0123754
vn -0.579643 0.728195 -0.365713
v -0.00111226 0.00522897 -0.0208301
vn 0.0104726 0.0803489 -0.996712
v -0.00163714 0.0404042 -0.018
vn 0.0104726 0.0803489 -0.996712
v 0.0118983 0.03864 -0.018
vn 0.0104726 0.0803489 -0.996712
v -0.0396321 0.017251 -0.0121791
vn -0.937207 0.344502 0.0544196
v -0.041066 0.0130059 -0.01
vn -0.937207 0.344502 0.0544196
v -0.0369953 0.0229063 -0.01
vn -0.916893 0.376994 0.131085
v 0.0425677 0.0091697 -0.010501
vn 0.875151 0.25659 -0.41021
v 0.0368802 0.0165794 -0.018
vn 0.875151 0.25659 -0.41021
v 0.0409784 0.0147195 -0.0104202
vn 0.875151 0.25659 -0.41021
v 0.0130625 0.0413606 -0.0119222
vn 0.414239 0.804187 -0.42625
v 0.0230404 0.0369753 -0.010499
vn 0.414239 0.804187 -0.42625
v 0.0212617 0.0339157 -0.018
vn 0.414239 0.804187 -0.42625
v 0.0189555 -0.0158951 0.00402887
vn -0.000538175 0.000383868 1
v 0.00535903 0.0232657 0.00400652
vn -0.000538175 0.000383868 1
v -0.0235696 -0.000307356 0.004
vn -0.000538175 0.000383868 1
v -0.000121289 0.0349332 -6.3777e-10
vn -0.179417 0.705802 0.685312
v -0.015312 0.040731 -0.00994813
vn -0.179417 0.705802 0.685312
v -0.013771 0.0314634 -6.3777e-10
vn -0.179417 0.705802 0.685312
v 0.0289854 -0.032471 -0.0106038
vn 0.604177 -0.674305 -0.424597
v 0.0233595 -0.0366282 -0.0107654
vn 0.546637 -0.723361 -0.421825
v 0.0261802 -0.0302778 -0.018
vn 0.546637 -0.723361 -0.421825
v 0.0418851 -0.011512 -0.0117
vn 0.821102 -0.375162 -0.430168
v 0.0334794 -0.0226855 -0.018
vn 0.821102 -0.375162 -0.430168
v 0.0391319 -0.0102072 -0.018
vn 0.820063 -0.371477 -0.435318
v 0.0122871 -0.0326694 -6.3777e-10
vn 0.208247 -0.305915 0.929004
v 0.0244945 -0.0243594 -6.3777e-10
vn 0.208247 -0.305915 0.929004
v 0.0189555 -0.0158951 0.00402887
vn 0.208247 -0.305915 0.929004
v 0.0436367 -0.00045862 -0.0105105
vn 0.982954 -0.143382 -0.115076
v 0.0422226 -0.0105785 -0.00998026
vn 0.964207 -0.260836 -0.0476406
v 0.0418851 -0.011512 -0.0117
vn 0.964207 -0.260836 -0.0476406
v 0.00528947 -0.023064 0.00400773
vn 0.000933285 0.0023822 0.999997
v -0.0208734 -0.0116721 0.00400501
vn 0.000933285 0.0023822 0.999997
v -0.0109968 -0.0215109 0.00401923
vn 0.000933285 0.0023822 0.999997
v -0.0107043 -0.0420988 -0.0107913
vn -0.189828 -0.876337 -0.442718
v -0.0151224 -0.0375 -0.018
vn -0.189828 -0.876337 -0.442718
v -0.00182602 -0.0403802 -0.018
vn -0.189828 -0.876337 -0.442718
v 0.0409784 0.0147195 -0.0104202
vn 0.847727 0.386231 -0.363572
v 0.0368802 0.0165794 -0.018
vn 0.847727 0.386231 -0.363572
v 0.0377027 0.0218344 -0.0104997
vn 0.847727 0.386231 -0.363572
v -0.0295812 -0.0317498 -0.0107194
vn -0.52465 -0.535242 0.662012
v -0.0192952 -0.028574 -6.3777e-10
vn -0.52465 -0.535242 0.662012
v -0.0275522 -0.0204804 -6.3777e-10
vn -0.52465 -0.535242 0.662012
v -0.0341841 -0.026808 -0.0108004
vn -0.563227 -0.513997 0.646979
v -0.0295812 -0.0317498 -0.0107194
vn -0.563227 -0.513997 0.646979
v -0.0275522 -0.0204804 -6.3777e-10
vn -0.563227 -0.513997 0.646979
v -0.0434454 1.15116e-07 -0.0108062
vn -0.762033 0.0623793 0.644527
v -0.0338122 0.0060266 -6.3777e-10
vn -0.762033 0.0623793 0.644527
v -0.0428626 0.00707109 -0.0108015
vn -0.762033 0.0623793 0.644527
v 0.0127606 0.0416082 -0.01
vn 0.33699 0.677296 0.653993
v 0.0135528 0.0315581 -6.3777e-10
vn 0.33699 0.677296 0.653993
v 0.0230404 0.0369753 -0.010499
vn 0.33699 0.677296 0.653993
v -0.000121289 0.0349332 -6.3777e-10
vn 0.0890128 0.360632 0.928451
v 0.00535903 0.0232657 0.00400652
vn 0.0890128 0.360632 0.928451
v 0.0135528 0.0315581 -6.3777e-10
vn 0.0890128 0.360632 0.928451
v 0.0391319 -0.0102072 -0.018
vn 0.0746845 -0.00636402 -0.997187
v 0.00802769 -0.00422988 -0.0203677
vn 0.0746845 -0.00636402 -0.997187
v 0.0402889 0.0033707 -0.018
vn 0.0746845 -0.00636402 -0.997187
v 0.0180746 -0.0361531 -0.018
vn 0.0436534 -0.0602245 -0.99723
v 0.00802769 -0.00422988 -0.0203677
vn 0.0436534 -0.0602245 -0.99723
v 0.0261802 -0.0302778 -0.018
vn 0.0436534 -0.0602245 -0.99723
v 0.0289854 -0.032471 -0.0106038
vn 0.538993 -0.543169 0.643782
v 0.0338113 -0.0274915 -0.0104429
vn 0.538993 -0.543169 0.643782
v 0.0244945 -0.0243594 -6.3777e-10
vn 0.538993 -0.543169 0.643782
v -0.0427837 -0.00722361 -0.0107428
vn -0.913293 -0.154983 -0.376664
v -0.0398631 -0.00679671 -0.018
vn -0.913293 -0.154983 -0.376664
v -0.0410142 -0.0143293 -0.0108051
vn -0.90021 -0.220885 -0.375276
v -0.0434454 1.15116e-07 -0.0108062
vn -0.92386 -0.00695668 -0.382667
v -0.0428626 0.00707109 -0.0108015
vn -0.919134 0.0760133 -0.386541
v -0.0398508 0.00688343 -0.018
vn -0.919134 0.0760133 -0.386541
v -0.0237189 -0.0363915 -0.0108033
vn -0.374055 -0.67183 0.639318
v -0.0178836 -0.0395524 -0.0107108
vn -0.374055 -0.67183 0.639318
v -0.0192952 -0.028574 -6.3777e-10
vn -0.374055 -0.67183 0.639318
v -0.00111226 0.00522897 -0.0208301
vn -0.0170991 0.0799328 -0.996654
v -0.0150212 0.0375411 -0.018
vn -0.0170991 0.0799328 -0.996654
v -0.00163714 0.0404042 -0.018
vn -0.0170991 0.0799328 -0.996654
v -0.00777013 0.0424803 -0.0123584
vn -0.314427 0.876892 -0.363588
v -0.0150212 0.0375411 -0.018
vn -0.314427 0.876892 -0.363588
v -0.0209965 0.0377347 -0.0123657
vn -0.314427 0.876892 -0.363588
v -0.0396321 0.017251 -0.0121791
vn -0.895049 0.232538 -0.380544
v -0.0398508 0.00688343 -0.018
vn -0.895049 0.232538 -0.380544
v -0.0428626 0.00707109 -0.0108015
vn -0.895049 0.232538 -0.380544
v -0.0338122 0.0060266 -6.3777e-10
vn -0.694968 0.245853 0.675704
v -0.0300802 0.0165761 -6.3777e-10
vn -0.694968 0.245853 0.675704
v -0.041066 0.0130059 -0.01
vn -0.694968 0.245853 0.675704
v -0.0107043 -0.0420988 -0.0107913
vn -0.149875 -0.904118 -0.400135
v -0.00182602 -0.0403802 -0.018
vn -0.149875 -0.904118 -0.400135
v -0.00425612 -0.0432071 -0.0107023
vn -0.149875 -0.904118 -0.400135
v 0.0391319 -0.0102072 -0.018
vn 0.0698198 -0.0316274 -0.997058
v 0.0334794 -0.0226855 -0.018
vn 0.0698198 -0.0316274 -0.997058
v 0.00802769 -0.00422988 -0.0203677
vn 0.0698198 -0.0316274 -0.997058
v 0.0409784 0.0147195 -0.0104202
vn 0.684444 0.322425 0.653895
v 0.0377027 0.0218344 -0.0104997
vn 0.684444 0.322425 0.653895
v 0.0296796 0.0175719 -6.3777e-10
vn 0.684444 0.322425 0.653895
v 0.0436367 -0.00045862 -0.0105105
vn 0.749607 -0.0702621 0.658143
v 0.0339898 -0.00492718 -6.3777e-10
vn 0.749607 -0.0702621 0.658143
v 0.0422226 -0.0105785 -0.00998026
vn 0.749607 -0.0702621 0.658143
v 0.0425677 0.0091697 -0.010501
vn 0.723763 0.197639 0.66114
v 0.0409784 0.0147195 -0.0104202
vn 0.723763 0.197639 0.66114
v 0.0337696 0.0062609 -6.3777e-10
vn 0.723763 0.197639 0.66114
v 0.0338113 -0.0274915 -0.0104429
vn 0.610998 -0.418565 0.671926
v 0.0379707 -0.0214163 -0.0104407
vn 0.610998 -0.418565 0.671926
v 0.0307081 -0.0152573 -6.3777e-10
vn 0.610998 -0.418565 0.671926
v 0.0379707 -0.0214163 -0.0104407
vn 0.822138 -0.378944 -0.424842
v 0.0436367 -0.00045862 -0.0105105
vn 0.926665 0.103241 -0.361432
v 0.0402889 0.0033707 -0.018
vn 0.926665 0.103241 -0.361432
v 0.0425677 0.0091697 -0.010501
vn 0.926665 0.103241 -0.361432
v 0.0402889 0.0033707 -0.018
vn 0.0690093 0.0178089 -0.997457
v 0.00802769 -0.00422988 -0.0203677
vn 0.0690093 0.0178089 -0.997457
v 0.0368802 0.0165794 -0.018
vn 0.0690093 0.0178089 -0.997457
v 0.0379707 -0.0214163 -0.0104407
vn 0.930573 -0.36576 0.0159142
v 0.0379707 -0.0214163 -0.0104407
vn 0.691484 -0.299218 0.657509
v 0.0422226 -0.0105785 -0.00998026
vn 0.691484 -0.299218 0.657509
v 0.0307081 -0.0152573 -6.3777e-10
vn 0.691484 -0.299218 0.657509
v 0.0122871 -0.0326694 -6.3777e-10
vn 0.148818 -0.286482 0.946457
v 0.0189555 -0.0158951 0.00402887
vn 0.148818 -0.286482 0.946457
v 0.00528947 -0.023064 0.00400773
vn 0.148818 -0.286482 0.946457
v 0.00353405 -0.0432935 -0.0107717
vn 0.145422 -0.897423 -0.416515
v 0.00813632 -0.0391929 -0.018
vn 0.145422 -0.897423 -0.416515
v -0.0109968 -0.0215109 0.00401923
vn -0.243108 -0.242684 0.93915
v -0.0208734 -0.0116721 0.00400501
vn -0.243108 -0.242684 0.93915
v -0.0275522 -0.0204804 -6.3777e-10
vn -0.243108 -0.242684 0.93915
v -0.0237189 -0.0363915 -0.0108033
vn -0.433246 -0.811296 -0.392551
v -0.0151224 -0.0375 -0.018
vn -0.433246 -0.811296 -0.392551
v -0.0178836 -0.0395524 -0.0107108
vn -0.433246 -0.811296 -0.392551
v -0.00425612 -0.0432071 -0.0107023
vn -0.0135764 -0.930866 -0.365109
v -0.00182602 -0.0403802 -0.018
vn -0.0135764 -0.930866 -0.365109
v 0.00353405 -0.0432935 -0.0107717
vn -0.0135764 -0.930866 -0.365109
v -0.0341841 -0.026808 -0.0108004
vn -0.701936 -0.557833 -0.442842
v -0.0353424 -0.019635 -0.018
vn -0.701936 -0.557833 -0.442842
v -0.0269526 -0.0301921 -0.018
vn -0.701936 -0.557833 -0.442842
v 0.0122871 -0.0326694 -6.3777e-10
vn 0.363022 -0.689374 0.62688
v 0.0165605 -0.0401446 -0.0106951
vn 0.363022 -0.689374 0.62688
v 0.0233595 -0.0366282 -0.0107654
vn 0.363022 -0.689374 0.62688
v -0.0410142 -0.0143293 -0.0108051
vn -0.841576 -0.382558 -0.381314
v -0.0353424 -0.019635 -0.018
vn -0.812172 -0.444677 -0.377677
v -0.038214 -0.0205684 -0.0107258
vn -0.812172 -0.444677 -0.377677
v -0.00111226 0.00522897 -0.0208301
vn 0.0356083 0.0705743 -0.996871
v 0.0118983 0.03864 -0.018
vn 0.0356083 0.0705743 -0.996871
v 0.0212617 0.0339157 -0.018
vn 0.0356083 0.0705743 -0.996871
v -0.015312 0.040731 -0.00994813
vn -0.376919 0.647884 0.66195
v -0.0276258 0.0336202 -0.01
vn -0.376919 0.647884 0.66195
v -0.013771 0.0314634 -6.3777e-10
vn -0.376919 0.647884 0.66195
v -0.0209965 0.0377347 -0.0123657
vn -0.581308 0.730278 -0.358853
v -0.0320449 0.0289353 -0.0123754
vn -0.581308 0.730278 -0.358853
v -0.0276258 0.0336202 -0.01
vn -0.581308 0.730278 -0.358853
v -0.0203199 0.0146909 0.00403528
vn -0.187246 0.298286 0.93593
v -0.0068477 0.0232291 0.00400942
vn -0.187246 0.298286 0.93593
v -0.013771 0.0314634 -6.3777e-10
vn -0.187246 0.298286 0.93593
v -0.0209965 0.0377347 -0.0123657
vn -0.49774 0.861188 0.103007
v -0.0276258 0.0336202 -0.01
vn -0.49774 0.861188 0.103007
v -0.015312 0.040731 -0.00994813
vn -0.49774 0.861188 0.103007
v -0.0428626 0.00707109 -0.0108015
vn -0.95388 0.295726 -0.0515715
v -0.0339916 -0.00805677 -6.3777e-10
vn -0.330571 -0.171341 0.928098
v -0.0275522 -0.0204804 -6.3777e-10
vn -0.330571 -0.171341 0.928098
v -0.0208734 -0.0116721 0.00400501
vn -0.330571 -0.171341 0.928098
v -0.0203199 0.0146909 0.00403528
vn -0.325933 0.0684026 0.942915
v -0.0338122 0.0060266 -6.3777e-10
vn -0.325933 0.0684026 0.942915
v -0.0235696 -0.000307356 0.004
vn -0.325933 0.0684026 0.942915
v -0.0369953 0.0229063 -0.01
vn -0.694218 0.285438 0.660747
v -0.041066 0.0130059 -0.01
vn -0.694218 0.285438 0.660747
v -0.0300802 0.0165761 -6.3777e-10
vn -0.694218 0.285438 0.660747
v -0.0369953 0.0229063 -0.01
vn -0.573785 0.452063 0.682943
v -0.0300802 0.0165761 -6.3777e-10
vn -0.573785 0.452063 0.682943
v -0.0231549 0.0253661 -6.3777e-10
vn -0.573785 0.452063 0.682943
v 0.0130625 0.0413606 -0.0119222
vn 0.405159 0.80301 -0.437059
v 0.0212617 0.0339157 -0.018
vn 0.405159 0.80301 -0.437059
v 0.0118983 0.03864 -0.018
vn 0.405159 0.80301 -0.437059
v -0.00111226 0.00522897 -0.0208301
vn -0.0423944 0.0690495 -0.996712
v -0.0266693 0.0303895 -0.018
vn -0.0423944 0.0690495 -0.996712
v -0.0150212 0.0375411 -0.018
vn -0.0423944 0.0690495 -0.996712
v -0.00436472 -0.00773867 -0.0204788
vn -0.0166796 -0.0770013 -0.996891
v -0.00182602 -0.0403802 -0.018
vn -0.0166796 -0.0770013 -0.996891
v -0.0151224 -0.0375 -0.018
vn -0.0166796 -0.0770013 -0.996891
v 0.0189555 -0.0158951 0.00402887
vn 0.326919 -0.223173 0.918323
v 0.0244945 -0.0243594 -6.3777e-10
vn 0.326919 -0.223173 0.918323
v 0.0307081 -0.0152573 -6.3777e-10
vn 0.326919 -0.223173 0.918323
v -0.0237189 -0.0363915 -0.0108033
vn -0.58105 -0.727241 -0.365378
v -0.0203199 0.0146909 0.00403528
vn -0.326389 0.257149 0.909585
v -0.0231549 0.0253661 -6.3777e-10
vn -0.326389 0.257149 0.909585
v -0.0300802 0.0165761 -6.3777e-10
vn -0.326389 0.257149 0.909585
v 0.024342 0.00126411 0.00402523
vn 0.312627 0.129929 0.940948
v 0.0296796 0.0175719 -6.3777e-10
vn 0.312627 0.129929 0.940948
v 0.0182424 0.0160536 0.00400963
vn 0.312627 0.129929 0.940948
v 0.0422226 -0.0105785 -0.00998026
vn 0.688341 -0.218674 0.691642
v 0.0339898 -0.00492718 -6.3777e-10
vn 0.688341 -0.218674 0.691642
v 0.0307081 -0.0152573 -6.3777e-10
vn 0.688341 -0.218674 0.691642
v 0.024342 0.00126411 0.00402523
vn 0.334817 0.121068 0.934473
v 0.0337696 0.0062609 -6.3777e-10
vn 0.334817 0.121068 0.934473
v 0.0296796 0.0175719 -6.3777e-10
vn 0.334817 0.121068 0.934473
v 0.0338113 -0.0274915 -0.0104429
vn 0.714998 -0.575291 -0.397263
v 0.0334794 -0.0226855 -0.018
vn 0.714998 -0.575291 -0.397263
v 0.0379707 -0.0214163 -0.0104407
vn 0.76738 -0.525255 -0.367743
v 0.0436367 -0.00045862 -0.0105105
vn 0.733583 0.014438 0.679446
v 0.0337696 0.0062609 -6.3777e-10
vn 0.733583 0.014438 0.679446
v 0.0339898 -0.00492718 -6.3777e-10
vn 0.733583 0.014438 0.679446
v 0.0338113 -0.0274915 -0.0104429
vn 0.612078 -0.417838 0.671396
v 0.0307081 -0.0152573 -6.3777e-10
vn 0.612078 -0.417838 0.671396
v 0.0244945 -0.0243594 -6.3777e-10
vn 0.612078 -0.417838 0.671396
v -0.00111226 0.00522897 -0.0208301
vn 0.0689615 0.0178753 -0.997459
v 0.0368802 0.0165794 -0.018
vn 0.0689615 0.0178753 -0.997459
v 0.00802769 -0.00422988 -0.0203677
vn 0.0689615 0.0178753 -0.997459
v 0.0130625 0.0413606 -0.0119222
vn 0.284945 0.95534 -0.0783035
v 0.00282204 0.0429073 -0.0117
vn 0.0885021 0.982912 -0.161407
v 0.0127606 0.0416082 -0.01
vn 0.229244 0.971732 -0.0564209
v 0.0122871 -0.0326694 -6.3777e-10
vn 0.237552 -0.749052 0.618458
v 0.0103626 -0.0421821 -0.0107822
vn 0.237552 -0.749052 0.618458
v 0.0165605 -0.0401446 -0.0106951
vn 0.237552 -0.749052 0.618458
v -0.0203199 0.0146909 0.00403528
vn -0.358006 0.126648 0.92509
v -0.0300802 0.0165761 -6.3777e-10
vn -0.358006 0.126648 0.92509
v -0.0338122 0.0060266 -6.3777e-10
vn -0.358006 0.126648 0.92509
v 0.0230404 0.0369753 -0.010499
vn 0.408145 0.911361 -0.0532888
v 0.0289854 -0.032471 -0.0106038
vn 0.650166 -0.625067 -0.431944
v 0.0261802 -0.0302778 -0.018
vn 0.650166 -0.625067 -0.431944
v 0.0334794 -0.0226855 -0.018
vn 0.650166 -0.625067 -0.431944
v 0.0189555 -0.0158951 0.00402887
vn -0.000758424 -0.00150301 0.999999
v -0.0208734 -0.0116721 0.00400501
vn -0.000758424 -0.00150301 0.999999
v 0.00528947 -0.023064 0.00400773
vn -0.000758424 -0.00150301 0.999999
v 0.00528947 -0.023064 0.00400773
vn -0.0306355 -0.328244 0.944096
v -0.0109968 -0.0215109 0.00401923
vn -0.0306355 -0.328244 0.944096
v 0.000118005 -0.0341084 -6.3777e-10
vn -0.0306355 -0.328244 0.944096
v -0.0339916 -0.00805677 -6.3777e-10
vn -0.705675 -0.30861 0.637795
v -0.0410142 -0.0143293 -0.0108051
vn -0.705675 -0.30861 0.637795
v -0.038214 -0.0205684 -0.0107258
vn -0.705675 -0.30861 0.637795
v -0.0178836 -0.0395524 -0.0107108
vn -0.249899 -0.724858 0.641975
v -0.0107043 -0.0420988 -0.0107913
vn -0.249899 -0.724858 0.641975
v -0.00914903 -0.0330776 -6.3777e-10
vn -0.249899 -0.724858 0.641975
v -0.00425612 -0.0432071 -0.0107023
vn -0.0825758 -0.742368 0.664884
v 0.000118005 -0.0341084 -6.3777e-10
vn -0.0825758 -0.742368 0.664884
v -0.00914903 -0.0330776 -6.3777e-10
vn -0.0825758 -0.742368 0.664884
v -0.00111226 0.00522897 -0.0208301
vn -0.0717558 0.0254886 -0.997097
v -0.0398508 0.00688343 -0.018
vn -0.0717558 0.0254886 -0.997097
v -0.0352671 0.0197875 -0.018
vn -0.0717558 0.0254886 -0.997097
v -0.00777013 0.0424803 -0.0123584
vn -0.316253 0.881959 -0.349474
v -0.0209965 0.0377347 -0.0123657
vn -0.316253 0.881959 -0.349474
v -0.015312 0.040731 -0.00994813
vn -0.316253 0.881959 -0.349474
v -0.000121289 0.0349332 -6.3777e-10
vn -0.0942262 0.370673 0.923971
v -0.013771 0.0314634 -6.3777e-10
vn -0.0942262 0.370673 0.923971
v -0.0068477 0.0232291 0.00400942
vn -0.0942262 0.370673 0.923971
v -0.0320449 0.0289353 -0.0123754
vn -0.748866 0.654897 0.101535
v -0.0369953 0.0229063 -0.01
vn -0.748866 0.654897 0.101535
v -0.0276258 0.0336202 -0.01
vn -0.748866 0.654897 0.101535
v -0.0276258 0.0336202 -0.01
vn -0.397838 0.612282 0.683253
v -0.0231549 0.0253661 -6.3777e-10
vn -0.397838 0.612282 0.683253
v -0.013771 0.0314634 -6.3777e-10
vn -0.397838 0.612282 0.683253
v -0.00436472 -0.00773867 -0.0204788
vn 0.00894169 -0.0750276 -0.997141
v 0.00813632 -0.0391929 -0.018
vn 0.00894169 -0.0750276 -0.997141
v -0.00182602 -0.0403802 -0.018
vn 0.00894169 -0.0750276 -0.997141
v -0.0339916 -0.00805677 -6.3777e-10
vn -0.309572 -0.0730258 0.948068
v -0.0208734 -0.0116721 0.00400501
vn -0.309572 -0.0730258 0.948068
v -0.0235696 -0.000307356 0.004
vn -0.309572 -0.0730258 0.948068
v -0.0434454 1.15116e-07 -0.0108062
vn -0.894849 0.000804386 -0.446369
v -0.0398508 0.00688343 -0.018
vn -0.894849 0.000804386 -0.446369
v -0.0398631 -0.00679671 -0.018
vn -0.894849 0.000804386 -0.446369
v -0.00777013 0.0424803 -0.0123584
vn -0.193027 0.975655 0.104109
v -0.015312 0.040731 -0.00994813
vn -0.193027 0.975655 0.104109
v -0.00135111 0.0434986 -0.01
vn -0.193027 0.975655 0.104109
v 0.0377027 0.0218344 -0.0104997
vn 0.747429 0.502783 -0.434234
v 0.0368802 0.0165794 -0.018
vn 0.747429 0.502783 -0.434234
v 0.0292916 0.0278605 -0.018
vn 0.747429 0.502783 -0.434234
v 0.0282381 0.0331243 -0.0104978
vn 0.670225 0.648501 -0.360894
v 0.0340552 0.0271548 -0.0104215
vn 0.670225 0.648501 -0.360894
v 0.0292916 0.0278605 -0.018
vn 0.670225 0.648501 -0.360894
v -0.00777013 0.0424803 -0.0123584
vn -0.0152382 0.93288 -0.359864
v 0.00282204 0.0429073 -0.0117
vn -0.0152382 0.93288 -0.359864
v -0.00163714 0.0404042 -0.018
vn -0.0152382 0.93288 -0.359864
v 0.00535903 0.0232657 0.00400652
vn 0.163882 0.293158 0.941914
v 0.0182424 0.0160536 0.00400963
vn 0.163882 0.293158 0.941914
v 0.0135528 0.0315581 -6.3777e-10
vn 0.163882 0.293158 0.941914
v 0.0189555 -0.0158951 0.00402887
vn 0.32757 -0.104063 0.939079
v 0.0307081 -0.0152573 -6.3777e-10
vn 0.32757 -0.104063 0.939079
v 0.0339898 -0.00492718 -6.3777e-10
vn 0.32757 -0.104063 0.939079
v 0.0282381 0.0331243 -0.0104978
vn 0.543709 0.721022 -0.429543
v 0.0292916 0.0278605 -0.018
vn 0.543709 0.721022 -0.429543
v 0.0212617 0.0339157 -0.018
vn 0.543709 0.721022 -0.429543
v -0.000121289 0.0349332 -6.3777e-10
vn -0.144786 0.742612 0.653884
v -0.00135111 0.0434986 -0.01
vn -0.144786 0.742612 0.653884
v -0.015312 0.040731 -0.00994813
vn -0.144786 0.742612 0.653884
v 0.0122871 -0.0326694 -6.3777e-10
vn 0.0423661 -0.358274 0.932655
v 0.00528947 -0.023064 0.00400773
vn 0.0423661 -0.358274 0.932655
v 0.000118005 -0.0341084 -6.3777e-10
vn 0.0423661 -0.358274 0.932655
v -0.0320449 0.0289353 -0.0123754
vn -0.785892 0.504307 -0.357839
v -0.0396321 0.017251 -0.0121791
vn -0.785892 0.504307 -0.357839
v -0.0369953 0.0229063 -0.01
vn -0.785892 0.504307 -0.357839
v 0.0230404 0.0369753 -0.010499
vn 0.539063 0.727442 -0.424546
v 0.0282381 0.0331243 -0.0104978
vn 0.539063 0.727442 -0.424546
v 0.0212617 0.0339157 -0.018
vn 0.539063 0.727442 -0.424546
v 0.0334794 -0.0226855 -0.018
vn 0.0546567 -0.0525466 -0.997122
v 0.0261802 -0.0302778 -0.018
vn 0.0546567 -0.0525466 -0.997122
v 0.00802769 -0.00422988 -0.0203677
vn 0.0546567 -0.0525466 -0.997122
v 0.0189555 -0.0158951 0.00402887
vn -0.0011602 0.00057631 0.999999
v 0.024342 0.00126411 0.00402523
vn -0.0011602 0.00057631 0.999999
v 0.0182424 0.0160536 0.00400963
vn -0.0011602 0.00057631 0.999999
v 0.0436367 -0.00045862 -0.0105105
vn 0.904206 -0.0985661 -0.415567
v 0.0418851 -0.011512 -0.0117
vn 0.904206 -0.0985661 -0.415567
v 0.0391319 -0.0102072 -0.018
vn 0.904206 -0.0985661 -0.415567
v 0.0118983 0.03864 -0.018
vn 0.116269 0.89205 -0.436724
v -0.00163714 0.0404042 -0.018
vn 0.116269 0.89205 -0.436724
v 0.00282204 0.0429073 -0.0117
vn 0.116269 0.89205 -0.436724
v -0.00135111 0.0434986 -0.01
vn 0.0630454 0.980474 -0.186269
v -0.0428626 0.00707109 -0.0108015
vn -0.752132 0.140741 0.643809
v -0.0338122 0.0060266 -6.3777e-10
vn -0.752132 0.140741 0.643809
v -0.041066 0.0130059 -0.01
vn -0.752132 0.140741 0.643809
v -0.0192952 -0.028574 -6.3777e-10
vn -0.153644 -0.346145 0.925515
v -0.00914903 -0.0330776 -6.3777e-10
vn -0.153644 -0.346145 0.925515
v -0.0109968 -0.0215109 0.00401923
vn -0.153644 -0.346145 0.925515
v -0.0396321 0.017251 -0.0121791
vn -0.821907 0.291952 -0.489115
v -0.0352671 0.0197875 -0.018
vn -0.821907 0.291952 -0.489115
v -0.0398508 0.00688343 -0.018
vn -0.821907 0.291952 -0.489115
v -0.0276258 0.0336202 -0.01
vn -0.565128 0.494214 0.660593
v -0.0369953 0.0229063 -0.01
vn -0.565128 0.494214 0.660593
v -0.0231549 0.0253661 -6.3777e-10
vn -0.565128 0.494214 0.660593
v 0.0340552 0.0271548 -0.0104215
vn 0.745463 0.517245 -0.420408
v 0.0377027 0.0218344 -0.0104997
vn 0.745463 0.517245 -0.420408
v 0.0292916 0.0278605 -0.018
vn 0.745463 0.517245 -0.420408
v 0.00535903 0.0232657 0.00400652
vn 0.000239295 -0.000570236 1
v -0.0068477 0.0232291 0.00400942
vn 0.000239295 -0.000570236 1
v -0.0235696 -0.000307356 0.004
vn 0.000239295 -0.000570236 1
v 0.0189555 -0.0158951 0.00402887
vn 9.69177e-05 0.00060437 1
v 0.0182424 0.0160536 0.00400963
vn 9.69177e-05 0.00060437 1
v 0.00535903 0.0232657 0.00400652
vn 9.69177e-05 0.00060437 1
v -0.00777013 0.0424803 -0.0123584
vn -0.0151197 0.932292 -0.361389
v -0.0203199 0.0146909 0.00403528
vn -0.195517 0.300906 0.933396
v -0.013771 0.0314634 -6.3777e-10
vn -0.195517 0.300906 0.933396
v -0.0231549 0.0253661 -6.3777e-10
vn -0.195517 0.300906 0.933396
v -0.0203199 0.0146909 0.00403528
vn 0.00395308 -0.00320876 0.999987
v -0.0235696 -0.000307356 0.004
vn 0.00395308 -0.00320876 0.999987
v -0.0068477 0.0232291 0.00400942
vn 0.00395308 -0.00320876 0.999987
v 0.0189555 -0.0158951 0.00402887
vn -0.000566577 0.000306384 1
v -0.0235696 -0.000307356 0.004
vn -0.000566577 0.000306384 1
v -0.0208734 -0.0116721 0.00400501
vn -0.000566577 0.000306384 1
v 0.0165605 -0.0401446 -0.0106951
vn 0.424769 -0.828588 -0.364709
v 0.0180746 -0.0361531 -0.018
vn 0.424769 -0.828588 -0.364709
v 0.0233595 -0.0366282 -0.0107654
vn 0.424769 -0.828588 -0.364709
v -0.0192952 -0.028574 -6.3777e-10
vn -0.243102 -0.24801 0.937759
v -0.0109968 -0.0215109 0.00401923
vn -0.243102 -0.24801 0.937759
v -0.0275522 -0.0204804 -6.3777e-10
vn -0.243102 -0.24801 0.937759
v -0.0341841 -0.026808 -0.0108004
vn -0.781526 -0.5003 -0.372716
v -0.0178836 -0.0395524 -0.0107108
vn -0.31475 -0.87584 -0.365838
v -0.0151224 -0.0375 -0.018
vn -0.31475 -0.87584 -0.365838
v -0.0107043 -0.0420988 -0.0107913
vn -0.31475 -0.87584 -0.365838
v 0.024342 0.00126411 0.00402523
vn 0.38922 0.00766044 0.921113
v 0.0339898 -0.00492718 -6.3777e-10
vn 0.38922 0.00766044 0.921113
v 0.0337696 0.0062609 -6.3777e-10
vn 0.38922 0.00766044 0.921113
v 0.0296796 0.0175719 -6.3777e-10
vn 0.290669 0.249702 0.923667
v 0.0226854 0.0257136 -6.3777e-10
vn 0.290669 0.249702 0.923667
v 0.0182424 0.0160536 0.00400963
vn 0.290669 0.249702 0.923667
v -0.0320449 0.0289353 -0.0123754
vn -0.672025 0.544985 -0.501372
v -0.0266693 0.0303895 -0.018
vn -0.672025 0.544985 -0.501372
v -0.0352671 0.0197875 -0.018
vn -0.672025 0.544985 -0.501372
v -0.000121289 0.0349332 -6.3777e-10
vn -0.000748144 0.324462 0.945898
v -0.0068477 0.0232291 0.00400942
vn -0.000748144 0.324462 0.945898
v 0.00535903 0.0232657 0.00400652
vn -0.000748144 0.324462 0.945898
v -0.000121289 0.0349332 -6.3777e-10
vn 0.102035 0.761684 0.639865
v 0.0127606 0.0416082 -0.01
vn 0.102035 0.761684 0.639865
v -0.00135111 0.0434986 -0.01
vn 0.102035 0.761684 0.639865
v 0.0425677 0.0091697 -0.010501
vn 0.870371 0.224612 -0.438182
v 0.0402889 0.0033707 -0.018
vn 0.870371 0.224612 -0.438182
v 0.0368802 0.0165794 -0.018
vn 0.870371 0.224612 -0.438182
v 0.0130625 0.0413606 -0.0119222
vn 0.126132 0.896206 -0.425329
v 0.0118983 0.03864 -0.018
vn 0.126132 0.896206 -0.425329
v 0.00282204 0.0429073 -0.0117
vn 0.126132 0.896206 -0.425329
v 0.0189555 -0.0158951 0.00402887
vn 0.326421 -0.102268 0.939676
v 0.0339898 -0.00492718 -6.3777e-10
vn 0.326421 -0.102268 0.939676
v 0.024342 0.00126411 0.00402523
vn 0.326421 -0.102268 0.939676
v 0.0230404 0.0369753 -0.010499
vn 0.446347 0.602641 0.661512
v 0.0226854 0.0257136 -6.3777e-10
vn 0.446347 0.602641 0.661512
v 0.0282381 0.0331243 -0.0104978
vn 0.446347 0.602641 0.661512
v 0.0340552 0.0271548 -0.0104215
vn 0.558879 0.48011 0.676128
v 0.0226854 0.0257136 -6.3777e-10
vn 0.558879 0.48011 0.676128
v 0.0296796 0.0175719 -6.3777e-10
vn 0.558879 0.48011 0.676128
f 1//1 2//2 3//3
f 4//4 5//5 6//6
f 7//7 8//8 9//9
f 10//10 11//11 12//12
f 13//13 14//14 15//15
f 16//16 17//17 18//18
f 19//19 20//20 21//21
f 22//22 23//23 24//24
f 25//25 26//26 27//27
f 28//28 29//29 30//30
f 31//31 32//32 33//33
f 34//34 35//35 36//36
f 37//37 38//38 39//39
f 40//40 41//41 42//42
f 43//43 44//44 45//45
f 46//46 47//47 48//48
f 49//49 50//50 51//51
f 52//52 53//53 54//54
f 55//55 56//56 57//57
f 58//58 59//59 60//60
f 61//61 62//62 63//63
f 64//64 65//65 66//66
f 67//67 68//68 69//69
f 70//70 71//71 72//72
f 73//73 74//74 75//75
f 76//76 77//77 78//78
f 79//79 80//80 81//81
f 82//82 83//83 84//84
f 85//85 86//86 87//87
f 88//88 89//89 90//90
f 91//91 92//92 93//93
f 94//94 95//95 96//96
f 97//97 98//98 99//99
f 100//100 101//101 102//102
f 103//103 104//104 105//105
f 106//106 107//107 108//108
f 109//109 110//110 111//111
f 112//112 113//113 114//114
f 115//115 116//116 117//117
f 118//118 119//119 120//120
f 121//121 122//122 123//123
f 124//124 125//125 126//126
f 127//127 128//128 129//129
f 130//130 131//131 132//132
f 133//133 134//134 135//135
f 136//136 137//137 138//138
f 139//139 140//140 141//141
f 142//142 143//143 144//144
f 145//145 146//146 147//147
f 148//148 149//149 150//150
f 151//151 152//152 153//153
f 154//154 155//155 156//156
f 157//157 158//158 159//159
f 160//160 161//161 162//162
f 163//163 164//164 165//165
f 166//166 167//167 168//168
f 169//169 170//170 171//171
f 172//172 173//173 174//174
f 175//175 176//176 177//177
f 178//178 179//179 180//180
f 181//181 182//182 183//183
f 184//184 185//185 186//186
f 187//187 188//188 189//189
f 190//190 191//191 192//192
f 193//193 194//194 195//195
f 196//196 197//197 198//198
f 199//199 200//200 201//201
f 202//202 203//203 204//204
f 205//205 206//206 207//207
f 208//208 209//209 210//210
f 211//211 212//212 213//213
f 214//214 215//215 216//216
f 217//217 218//218 219//219
f 220//220 221//221 222//222
f 223//223 224//224 225//225
f 226//226 227//227 228//228
f 229//229 230//230 231//231
f 232//232 233//233 234//234
f 235//235 236//236 237//237
f 157//157 238//238 158//158
f 239//239 240//240 241//241
f 242//242 243//243 244//244
f 165//165 164//164 245//245
f 246//246 247//247 248//248
f 249//249 250//250 251//251
f 252//252 253//253 73//73
f 254//254 255//255 256//256
f 257//257 258//258 259//259
f 260//260 261//261 262//262
f 263//263 264//264 265//265
f 266//266 267//267 268//268
f 269//269 270//270 271//271
f 272//272 273//273 274//274
f 275//275 276//276 277//277
f 278//278 279//279 280//280
f 281//281 282//282 283//283
f 284//284 285//285 286//286
f 139//139 287//287 140//140
f 288//288 289//289 290//290
f 291//291 292//292 293//293
f 294//294 295//295 296//296
f 297//297 298//298 299//299
f 300//300 301//301 302//302
f 303//303 304//304 305//305
f 306//306 307//307 308//308
f 309//309 310//310 311//311
f 45//45 44//44 312//312
f 313//313 314//314 315//315
f 316//316 317//317 318//318
f 319//319 320//320 321//321
f 322//322 323//323 324//324
f 325//325 326//326 327//327
f 328//328 329//329 330//330
f 331//331 332//332 333//333
f 334//334 335//335 336//336
f 337//337 338//338 339//339
f 340//340 341//341 342//342
f 343//343 344//344 345//345
f 337//337 339//339 346//346
f 347//347 348//348 349//349
f 350//350 351//351 352//352
f 353//353 354//354 355//355
f 356//356 357//357 358//358
f 359//359 360//360 361//361
f 362//362 363//363 364//364
f 365//365 366//366 367//367
f 368//368 369//369 370//370
f 371//371 372//372 373//373
f 374//374 375//375 376//376
f 377//377 378//378 379//379
f 380//380 381//381 382//382
f 383//383 384//384 385//385
f 386//386 387//387 388//388
f 389//389 390//390 391//391
f 392//392 393//393 394//394
f 395//395 396//396 397//397
f 398//398 399//399 400//400
f 401//401 402//402 403//403
f 404//404 405//405 406//406
f 407//407 408//408 409//409
f 410//410 411//411 412//412
f 413//413 414//414 415//415
f 416//416 417//417 418//418
f 419//419 420//420 421//421
f 422//422 423//423 424//424
f 425//425 426//426 427//427
f 428//428 429//429 430//430
f 431//431 432//432 433//433
f 434//434 339//339 338//338
f 435//435 436//436 437//437
f 202//202 200//200 199//199
f 438//438 439//439 440//440
f 441//441 442//442 443//443
f 444//444 445//445 446//446
f 447//447 448//448 449//449
f 450//450 451//451 452//452
f 453//453 454//454 455//455
f 456//456 434//434 338//338
f 457//457 458//458 459//459
f 460//460 461//461 462//462
f 463//463 464//464 465//465
f 154//154 326//326 325//325
f 466//466 467//467 468//468
f 469//469 470//470 471//471
f 271//271 270//270 472//472
f 473//473 474//474 475//475
f 476//476 477//477 478//478
f 479//479 480//480 481//481
f 482//482 483//483 484//484
f 485//485 486//486 487//487
f 488//488 489//489 490//490
f 491//491 492//492 493//493
f 494//494 495//495 496//496
f 497//497 498//498 499//499
f 500//500 501//501 502//502
f 503//503 504//504 505//505
