# Created by Open3D 
# object name: I86-400_convdec
# number of vertices: 334
# number of triangles: 112
v 0.00155658 0.0367882 0.4
vn -0.242839 0.65104 0.719149
v -0.0187548 0.0402582 0.39
vn -0.242839 0.65104 0.719149
v -0.0225106 0.0278111 0.4
vn -0.242839 0.65104 0.719149
v 0.00155658 0.0367882 0.4
vn 0.312527 0.657264 0.685807
v 0.0247553 0.0257573 0.4
vn 0.312527 0.657264 0.685807
v 0.0140559 0.0412791 0.39
vn 0.312527 0.657264 0.685807
v -0.0272198 -8.04344e-05 0.404478
vn -0.320504 0.202673 0.925311
v -0.0225106 0.0278111 0.4
vn -0.320504 0.202673 0.925311
v -0.0346903 0.00855032 0.4
vn -0.320504 0.202673 0.925311
v 0.0380059 -0.0213792 0.01
vn 0.810741 -0.585405 0.000918879
v 0.0391592 -0.0191855 0.39
vn 0.810741 -0.585405 0.000918879
v 0.030531 -0.0311349 0.39
vn 0.810741 -0.585405 0.000918879
v 0.00144741 -0.036794 0.4
vn 0.163049 -0.345726 0.924061
v 0.0194599 -0.0282991 0.4
vn 0.163049 -0.345726 0.924061
v 0.0202457 -0.0166012 0.404238
vn 0.163049 -0.345726 0.924061
v -0.0351584 0.00571203 -0.000108107
vn -0.775609 0.204415 -0.597198
v -0.0434382 0.00382689 0.01
vn -0.775609 0.204415 -0.597198
v -0.0396819 0.0180794 0.01
vn -0.775609 0.204415 -0.597198
v 0.0102246 -0.0352736 -0.000107759
vn 0.00792211 -0.00351384 -0.999962
v 0.035592 -0.0028747 -2.06371e-05
vn 0.00792211 -0.00351384 -0.999962
v 0.02789 -0.020958 -1.81112e-05
vn 0.00792211 -0.00351384 -0.999962
v -0.024477 0.0261728 -5.52877e-05
vn -0.637205 0.334441 -0.694348
v -0.0351584 0.00571203 -0.000108107
vn -0.637205 0.334441 -0.694348
v -0.0396819 0.0180794 0.01
vn -0.637205 0.334441 -0.694348
v -0.036007 0.025999 0.39
vn -0.637077 0.770799 0.00111527
v -0.0187548 0.0402582 0.39
vn -0.637077 0.770799 0.00111527
v -0.0312418 0.0304874 0.00994992
vn -0.637077 0.770799 0.00111527
v -0.0351584 0.00571203 -0.000108107
vn -0.76628 -0.062936 -0.639417
v -0.0422317 -0.0108629 0.01
vn -0.76628 -0.062936 -0.639417
v -0.0434382 0.00382689 0.01
vn -0.76628 -0.062936 -0.639417
v -0.0153021 -0.032249 -3.4534e-05
vn -0.50543 -0.52618 -0.683867
v -0.0260334 -0.0349826 0.01
vn -0.50543 -0.52618 -0.683867
v -0.0315979 -0.0165854 -4.25457e-05
vn -0.50543 -0.52618 -0.683867
v 0.035592 -0.0028747 -2.06371e-05
vn 0.668505 -0.284824 -0.687005
v 0.0380059 -0.0213792 0.01
vn 0.668505 -0.284824 -0.687005
v 0.02789 -0.020958 -1.81112e-05
vn 0.668505 -0.284824 -0.687005
v -0.024477 0.0261728 -5.52877e-05
vn -0.646308 0.437103 -0.625481
v -0.0396819 0.0180794 0.01
vn -0.646308 0.437103 -0.625481
v -0.0312418 0.0304874 0.00994992
vn -0.646308 0.437103 -0.625481
v -0.0077093 -0.0253496 0.404156
vn -0.00327503 0.00203293 0.999993
v 0.00961186 0.02321 0.404114
vn -0.00327503 0.00203293 0.999993
v -0.0114008 0.0213316 0.404049
vn -0.00327503 0.00203293 0.999993
v -0.0272198 -8.04344e-05 0.404478
vn -0.249858 -0.204977 0.946338
v -0.0328816 -0.013853 0.4
vn -0.249858 -0.204977 0.946338
v -0.0077093 -0.0253496 0.404156
vn -0.249858 -0.204977 0.946338
v -0.036007 0.025999 0.39
vn -0.826845 0.562417 -0.00372511
v -0.0312418 0.0304874 0.00994992
vn -0.826845 0.562417 -0.00372511
v -0.0396819 0.0180794 0.01
vn -0.826845 0.562417 -0.00372511
v -0.0328816 -0.013853 0.4
vn -0.717509 -0.0579271 0.694136
v -0.0346903 0.00855032 0.4
vn -0.717509 -0.0579271 0.694136
v -0.0431872 -0.00603296 0.39
vn -0.717509 -0.0579271 0.694136
v 0.0057857 0.0440296 0.00988722
vn 0.375595 0.926783 -0.00146568
v 0.0140559 0.0412791 0.39
vn 0.375595 0.926783 -0.00146568
v 0.0265147 0.035629 0.01
vn 0.375595 0.926783 -0.00146568
v -0.0434382 0.00382689 0.01
vn -0.996643 -0.0818561 -0.00146561
v -0.0422317 -0.0108629 0.01
vn -0.996643 -0.0818561 -0.00146561
v -0.0431872 -0.00603296 0.39
vn -0.996643 -0.0818561 -0.00146561
v 0.0247553 0.0257573 0.4
vn 0.22816 0.186832 0.95553
v 0.00961186 0.02321 0.404114
vn 0.22816 0.186832 0.95553
v 0.0231797 0.00702952 0.404038
vn 0.22816 0.186832 0.95553
v 0.00155658 0.0367882 0.4
vn 0.132801 0.831505 0.539411
v 0.0140559 0.0412791 0.39
vn 0.132801 0.831505 0.539411
v -0.0004985 0.0436036 0.39
vn 0.132801 0.831505 0.539411
v -0.0275039 -0.0348711 0.39
vn -0.309556 -0.686597 0.657845
v -0.00724526 -0.0437509 0.390265
vn -0.309556 -0.686597 0.657845
v -0.0201808 -0.0285915 0.4
vn -0.309556 -0.686597 0.657845
v -0.0351584 0.00571203 -0.000108107
vn -0.714271 -0.116086 -0.690175
v -0.0315979 -0.0165854 -4.25457e-05
vn -0.714271 -0.116086 -0.690175
v -0.0422317 -0.0108629 0.01
vn -0.714271 -0.116086 -0.690175
v -0.024477 0.0261728 -5.52877e-05
vn 0.00040049 -0.000364698 -1
v 0.035592 -0.0028747 -2.06371e-05
vn 0.00040049 -0.000364698 -1
v -0.0315979 -0.0165854 -4.25457e-05
vn 0.00040049 -0.000364698 -1
v -0.036007 0.025999 0.39
vn -0.584683 0.369729 0.722112
v -0.0346903 0.00855032 0.4
vn -0.584683 0.369729 0.722112
v -0.0225106 0.0278111 0.4
vn -0.584683 0.369729 0.722112
v 0.0381321 0.0211534 0.01
vn 0.943862 0.330338 -0.000919204
v 0.04252 0.0096734 0.39
vn 0.943862 0.330338 -0.000919204
v 0.0430008 0.00724224 0.01
vn 0.943862 0.330338 -0.000919204
v -0.0275039 -0.0348711 0.39
vn -0.610273 -0.46224 0.643352
v -0.0328816 -0.013853 0.4
vn -0.610273 -0.46224 0.643352
v -0.0387104 -0.0200757 0.39
vn -0.610273 -0.46224 0.643352
v 0.0151024 -0.041822 0.39
vn 0.0860057 -0.996294 0.00103767
v -0.00724526 -0.0437509 0.390265
vn 0.0860057 -0.996294 0.00103767
v 0.00878921 -0.0427628 0.00997423
vn 0.0860057 -0.996294 0.00103767
v -0.00033391 0.0368919 -0.000131501
vn -0.0013696 -0.00402517 -0.999991
v 0.035592 -0.0028747 -2.06371e-05
vn -0.0013696 -0.00402517 -0.999991
v -0.024477 0.0261728 -5.52877e-05
vn -0.0013696 -0.00402517 -0.999991
v -0.0275039 -0.0348711 0.39
vn -0.723995 -0.689801 -0.00259927
v -0.0362006 -0.0243114 0.01
vn -0.723995 -0.689801 -0.00259927
v -0.0260334 -0.0349826 0.01
vn -0.723995 -0.689801 -0.00259927
v 0.035592 -0.0028747 -2.06371e-05
vn 0.805236 -0.00238186 -0.59295
v 0.0430008 0.00724224 0.01
vn 0.805236 -0.00238186 -0.59295
v 0.0429572 -0.00749665 0.01
vn 0.805236 -0.00238186 -0.59295
v 0.00155658 0.0367882 0.4
vn -0.147148 0.803006 0.57752
v -0.0004985 0.0436036 0.39
vn -0.147148 0.803006 0.57752
v -0.0187548 0.0402582 0.39
vn -0.147148 0.803006 0.57752
v -0.0396819 0.0180794 0.01
vn -0.966979 0.254851 -0.00146532
v -0.0434382 0.00382689 0.01
vn -0.966979 0.254851 -0.00146532
v -0.04273 0.0086989 0.39
vn -0.966979 0.254851 -0.00146532
v -0.0315979 -0.0165854 -4.25457e-05
vn -0.73592 -0.33003 -0.591187
v -0.0362006 -0.0243114 0.01
vn -0.73592 -0.33003 -0.591187
v -0.0422317 -0.0108629 0.01
vn -0.73592 -0.33003 -0.591187
v -0.0362006 -0.0243114 0.01
vn -0.912446 -0.409195 -0.00146534
v -0.0387104 -0.0200757 0.39
vn -0.912446 -0.409195 -0.00146534
v -0.0422317 -0.0108629 0.01
vn -0.912446 -0.409195 -0.00146534
v -0.0077093 -0.0253496 0.404156
vn -0.00580636 0.00918286 0.999941
v 0.0202457 -0.0166012 0.404238
vn -0.00580636 0.00918286 0.999941
v 0.0231797 0.00702952 0.404038
vn -0.00580636 0.00918286 0.999941
v -0.0275039 -0.0348711 0.39
vn -0.401466 -0.915873 0.00148158
v -0.00953284 -0.0433633 0.01
vn -0.401466 -0.915873 0.00148158
v -0.00724526 -0.0437509 0.390265
vn -0.401466 -0.915873 0.00148158
v 0.0151024 -0.041822 0.39
vn 0.296059 -0.627761 0.719906
v 0.0194599 -0.0282991 0.4
vn 0.296059 -0.627761 0.719906
v 0.00144741 -0.036794 0.4
vn 0.296059 -0.627761 0.719906
v -0.0346903 0.00855032 0.4
vn -0.778955 0.0241747 0.626614
v -0.04273 0.0086989 0.39
vn -0.778955 0.0241747 0.626614
v -0.0431872 -0.00603296 0.39
vn -0.778955 0.0241747 0.626614
v 0.0263033 -0.0357853 0.01
vn 0.603061 -0.489889 -0.629545
v 0.02789 -0.020958 -1.81112e-05
vn 0.603061 -0.489889 -0.629545
v 0.0380059 -0.0213792 0.01
vn 0.603061 -0.489889 -0.629545
v -0.0434382 0.00382689 0.01
vn -0.999518 0.0310199 0.00146508
v -0.0431872 -0.00603296 0.39
vn -0.999518 0.0310199 0.00146508
v -0.04273 0.0086989 0.39
vn -0.999518 0.0310199 0.00146508
v -0.0328816 -0.013853 0.4
vn -0.764273 -0.243649 0.597094
v -0.0431872 -0.00603296 0.39
vn -0.764273 -0.243649 0.597094
v -0.0387104 -0.0200757 0.39
vn -0.764273 -0.243649 0.597094
v -0.0163676 0.0412768 0.0099874
vn -0.180245 0.983621 0.00150426
v -0.0187548 0.0402582 0.39
vn -0.180245 0.983621 0.00150426
v -0.0004985 0.0436036 0.39
vn -0.180245 0.983621 0.00150426
v -0.0077093 -0.0253496 0.404156
vn 0.00465303 -0.000795 0.999989
v 0.0231797 0.00702952 0.404038
vn 0.00465303 -0.000795 0.999989
v 0.00961186 0.02321 0.404114
vn 0.00465303 -0.000795 0.999989
v 0.0151024 -0.041822 0.39
vn 0.430973 -0.62218 0.653571
v 0.030531 -0.0311349 0.39
vn 0.430973 -0.62218 0.653571
v 0.0194599 -0.0282991 0.4
vn 0.430973 -0.62218 0.653571
v -0.0387104 -0.0200757 0.39
vn -0.952755 -0.303737 0.00146493
v -0.0431872 -0.00603296 0.39
vn -0.952755 -0.303737 0.00146493
v -0.0422317 -0.0108629 0.01
vn -0.952755 -0.303737 0.00146493
v 0.0430008 0.00724224 0.01
vn 0.998548 0.0538571 0.000918852
v 0.04252 0.0096734 0.39
vn 0.998548 0.0538571 0.000918852
v 0.0433138 -0.00504419 0.39
vn 0.998548 0.0538571 0.000918852
v -0.0163676 0.0412768 0.0099874
vn -0.469734 0.649649 -0.597752
v -0.024477 0.0261728 -5.52877e-05
vn -0.469734 0.649649 -0.597752
v -0.0312418 0.0304874 0.00994992
vn -0.469734 0.649649 -0.597752
v -0.036007 0.025999 0.39
vn -0.932091 0.362221 0.00146501
v -0.0396819 0.0180794 0.01
vn -0.932091 0.362221 0.00146501
v -0.04273 0.0086989 0.39
vn -0.932091 0.362221 0.00146501
v -0.024477 0.0261728 -5.52877e-05
vn 0.00809947 -0.00164687 -0.999966
v -0.0315979 -0.0165854 -4.25457e-05
vn 0.00809947 -0.00164687 -0.999966
v -0.0351584 0.00571203 -0.000108107
vn 0.00809947 -0.00164687 -0.999966
v 0.0265147 0.035629 0.01
vn 0.586702 0.470858 -0.658842
v 0.0381321 0.0211534 0.01
vn 0.586702 0.470858 -0.658842
v 0.0309165 0.0161368 -1.07683e-05
vn 0.586702 0.470858 -0.658842
v -0.0077093 -0.0253496 0.404156
vn -0.256209 -0.220786 0.941069
v -0.0328816 -0.013853 0.4
vn -0.256209 -0.220786 0.941069
v -0.0201808 -0.0285915 0.4
vn -0.256209 -0.220786 0.941069
v 0.0247553 0.0257573 0.4
vn 0.639484 0.335627 0.691675
v 0.0352657 0.00573141 0.4
vn 0.639484 0.335627 0.691675
v 0.0368685 0.023286 0.39
vn 0.639484 0.335627 0.691675
v -0.00033391 0.0368919 -0.000131501
vn 0.007658 0.00413062 -0.999962
v 0.0204169 0.0282765 -8.17363e-06
vn 0.007658 0.00413062 -0.999962
v 0.035592 -0.0028747 -2.06371e-05
vn 0.007658 0.00413062 -0.999962
v 0.00155658 0.0367882 0.4
vn -0.0275434 0.274857 0.961091
v -0.0114008 0.0213316 0.404049
vn -0.0275434 0.274857 0.961091
v 0.00961186 0.02321 0.404114
vn -0.0275434 0.274857 0.961091
v 0.0057857 0.0440296 0.00988722
vn -0.10672 0.839444 -0.532864
v -0.00033391 0.0368919 -0.000131501
vn -0.10672 0.839444 -0.532864
v -0.0163676 0.0412768 0.0099874
vn -0.10672 0.839444 -0.532864
v 0.0381321 0.0211534 0.01
vn 0.720636 0.252212 -0.645812
v 0.0430008 0.00724224 0.01
vn 0.720636 0.252212 -0.645812
v 0.0309165 0.0161368 -1.07683e-05
vn 0.720636 0.252212 -0.645812
v 0.0151024 -0.041822 0.39
vn 0.370106 -0.928982 -0.00384859
v 0.00878921 -0.0427628 0.00997423
vn 0.370106 -0.928982 -0.00384859
v 0.0263033 -0.0357853 0.01
vn 0.370106 -0.928982 -0.00384859
v -0.0163676 0.0412768 0.0099874
vn -0.587164 0.809466 -0.00151878
v -0.0312418 0.0304874 0.00994992
vn -0.587164 0.809466 -0.00151878
v -0.0187548 0.0402582 0.39
vn -0.587164 0.809466 -0.00151878
v -0.0272198 -8.04344e-05 0.404478
vn 0.0216898 0.00400659 0.999757
v -0.0077093 -0.0253496 0.404156
vn 0.0216898 0.00400659 0.999757
v -0.0114008 0.0213316 0.404049
vn 0.0216898 0.00400659 0.999757
v 0.00155658 0.0367882 0.4
vn 0.181805 0.382348 0.905956
v 0.00961186 0.02321 0.404114
vn 0.181805 0.382348 0.905956
v 0.0247553 0.0257573 0.4
vn 0.181805 0.382348 0.905956
v 0.0352657 0.00573141 0.4
vn 0.713769 0.296333 0.634603
v 0.04252 0.0096734 0.39
vn 0.713769 0.296333 0.634603
v 0.0368685 0.023286 0.39
vn 0.713769 0.296333 0.634603
v 0.0151024 -0.041822 0.39
vn 0.0790788 -0.843109 0.531896
v 0.00144741 -0.036794 0.4
vn 0.0790788 -0.843109 0.531896
v -0.00724526 -0.0437509 0.390265
vn 0.0790788 -0.843109 0.531896
v 0.0057857 0.0440296 0.00988722
vn -0.123317 0.992367 -0.000926564
v -0.0163676 0.0412768 0.0099874
vn -0.123317 0.992367 -0.000926564
v -0.0004985 0.0436036 0.39
vn -0.123317 0.992367 -0.000926564
v 0.035592 -0.0028747 -2.06371e-05
vn 0.71864 -0.256308 -0.646423
v 0.0429572 -0.00749665 0.01
vn 0.71864 -0.256308 -0.646423
v 0.0380059 -0.0213792 0.01
vn 0.71864 -0.256308 -0.646423
v -0.036007 0.025999 0.39
vn -0.516974 0.625487 0.584383
v -0.0225106 0.0278111 0.4
vn -0.516974 0.625487 0.584383
v -0.0187548 0.0402582 0.39
vn -0.516974 0.625487 0.584383
v -0.0275039 -0.0348711 0.39
vn -0.452842 -0.89159 -0.00149077
v -0.0260334 -0.0349826 0.01
vn -0.452842 -0.89159 -0.00149077
v -0.00953284 -0.0433633 0.01
vn -0.452842 -0.89159 -0.00149077
v -0.00033391 0.0368919 -0.000131501
vn -0.282754 0.631727 -0.721783
v -0.024477 0.0261728 -5.52877e-05
vn -0.282754 0.631727 -0.721783
v -0.0163676 0.0412768 0.0099874
vn -0.282754 0.631727 -0.721783
v 0.0057857 0.0440296 0.00988722
vn 0.157711 0.987478 0.00371405
v -0.0004985 0.0436036 0.39
vn 0.157711 0.987478 0.00371405
v 0.0140559 0.0412791 0.39
vn 0.157711 0.987478 0.00371405
v 0.0265147 0.035629 0.01
vn 0.477677 0.878532 0.00259866
v 0.0140559 0.0412791 0.39
vn 0.477677 0.878532 0.00259866
v 0.0270048 0.0342385 0.39
vn 0.477677 0.878532 0.00259866
v 0.0263033 -0.0357853 0.01
vn 0.31283 -0.783243 -0.537278
v 0.00878921 -0.0427628 0.00997423
vn 0.31283 -0.783243 -0.537278
v 0.0102246 -0.0352736 -0.000107759
vn 0.31283 -0.783243 -0.537278
v -0.0272198 -8.04344e-05 0.404478
vn -0.550928 -0.0444783 0.833367
v -0.0346903 0.00855032 0.4
vn -0.550928 -0.0444783 0.833367
v -0.0328816 -0.013853 0.4
vn -0.550928 -0.0444783 0.833367
v 0.0263033 -0.0357853 0.01
vn 0.437326 -0.535133 -0.722758
v 0.0102246 -0.0352736 -0.000107759
vn 0.437326 -0.535133 -0.722758
v 0.02789 -0.020958 -1.81112e-05
vn 0.437326 -0.535133 -0.722758
v 0.031636 -0.016604 0.4
vn 0.496871 -0.517307 0.696787
v 0.0194599 -0.0282991 0.4
vn 0.496871 -0.517307 0.696787
v 0.030531 -0.0311349 0.39
vn 0.496871 -0.517307 0.696787
v -0.036007 0.025999 0.39
vn -0.743972 0.289116 0.602426
v -0.04273 0.0086989 0.39
vn -0.743972 0.289116 0.602426
v -0.0346903 0.00855032 0.4
vn -0.743972 0.289116 0.602426
v 0.0202457 -0.0166012 0.404238
vn 0.327715 -0.341193 0.881016
v 0.0194599 -0.0282991 0.4
vn 0.327715 -0.341193 0.881016
v 0.031636 -0.016604 0.4
vn 0.327715 -0.341193 0.881016
v -0.00953284 -0.0433633 0.01
vn 0.0327553 -0.999463 -0.00121579
v 0.00878921 -0.0427628 0.00997423
vn 0.0327553 -0.999463 -0.00121579
v -0.00724526 -0.0437509 0.390265
vn 0.0327553 -0.999463 -0.00121579
v 0.035592 -0.0028747 -2.06371e-05
vn 0.70062 0.172663 -0.692329
v 0.0309165 0.0161368 -1.07683e-05
vn 0.70062 0.172663 -0.692329
v 0.0430008 0.00724224 0.01
vn 0.70062 0.172663 -0.692329
v 0.035592 -0.0028747 -2.06371e-05
vn 0.000355064 -0.00014209 -1
v -0.0153021 -0.032249 -3.4534e-05
vn 0.000355064 -0.00014209 -1
v -0.0315979 -0.0165854 -4.25457e-05
vn 0.000355064 -0.00014209 -1
v -0.0275039 -0.0348711 0.39
vn -0.797147 -0.603784 0.00146518
v -0.0387104 -0.0200757 0.39
vn -0.797147 -0.603784 0.00146518
v -0.0362006 -0.0243114 0.01
vn -0.797147 -0.603784 0.00146518
v 0.0057857 0.0440296 0.00988722
vn 0.285041 0.685547 -0.669908
v 0.0204169 0.0282765 -8.17363e-06
vn 0.285041 0.685547 -0.669908
v -0.00033391 0.0368919 -0.000131501
vn 0.289296 0.687251 -0.666329
v 0.0247553 0.0257573 0.4
vn 0.598824 0.539294 0.592091
v 0.0368685 0.023286 0.39
vn 0.598824 0.539294 0.592091
v 0.0270048 0.0342385 0.39
vn 0.598824 0.539294 0.592091
v 0.0265147 0.035629 0.01
vn 0.55063 0.476386 -0.685466
v 0.0309165 0.0161368 -1.07683e-05
vn 0.55063 0.476386 -0.685466
v 0.0204169 0.0282765 -8.17363e-06
vn 0.55063 0.476386 -0.685466
v 0.0429572 -0.00749665 0.01
vn 0.95945 -0.281878 0.000918831
v 0.0433138 -0.00504419 0.39
vn 0.95945 -0.281878 0.000918831
v 0.0391592 -0.0191855 0.39
vn 0.95945 -0.281878 0.000918831
v 0.00155658 0.0367882 0.4
vn -0.131686 0.353045 0.926293
v -0.0225106 0.0278111 0.4
vn -0.131686 0.353045 0.926293
v -0.0114008 0.0213316 0.404049
vn -0.131686 0.353045 0.926293
v 0.031636 -0.016604 0.4
vn 0.751187 -0.220693 0.622104
v 0.0391592 -0.0191855 0.39
vn 0.751187 -0.220693 0.622104
v 0.0433138 -0.00504419 0.39
vn 0.751187 -0.220693 0.622104
v 0.031636 -0.016604 0.4
vn 0.709478 -0.115296 0.695232
v 0.0433138 -0.00504419 0.39
vn 0.709478 -0.115296 0.695232
v 0.0352657 0.00573141 0.4
vn 0.709478 -0.115296 0.695232
v 0.0352657 0.00573141 0.4
vn 0.800524 0.0431766 0.597743
v 0.0433138 -0.00504419 0.39
vn 0.800524 0.0431766 0.597743
v 0.04252 0.0096734 0.39
vn 0.800524 0.0431766 0.597743
v -0.00953284 -0.0433633 0.01
vn 0.0255232 -0.804229 -0.593771
v 0.0102246 -0.0352736 -0.000107759
vn 0.0255232 -0.804229 -0.593771
v 0.00878921 -0.0427628 0.00997423
vn 0.0255232 -0.804229 -0.593771
v 0.00144741 -0.036794 0.4
vn -0.172689 -0.455344 0.873407
v -0.0077093 -0.0253496 0.404156
vn -0.172689 -0.455344 0.873407
v -0.0201808 -0.0285915 0.4
vn -0.172689 -0.455344 0.873407
v 0.0102246 -0.0352736 -0.000107759
vn -0.00233344 0.00451602 -0.999987
v -0.0153021 -0.032249 -3.4534e-05
vn -0.00233344 0.00451602 -0.999987
v 0.035592 -0.0028747 -2.06371e-05
vn -0.00233344 0.00451602 -0.999987
v 0.0429572 -0.00749665 0.01
vn 0.999995 -0.00295795 -0.000919326
v 0.0430008 0.00724224 0.01
vn 0.999995 -0.00295795 -0.000919326
v 0.0433138 -0.00504419 0.39
vn 0.999995 -0.00295795 -0.000919326
v 0.0247553 0.0257573 0.4
vn 0.363503 0.668547 0.648776
v 0.0270048 0.0342385 0.39
vn 0.363503 0.668547 0.648776
v 0.0140559 0.0412791 0.39
vn 0.363503 0.668547 0.648776
v 0.0265147 0.035629 0.01
vn 0.743076 0.669206 0.00149039
v 0.0270048 0.0342385 0.39
vn 0.743076 0.669206 0.00149039
v 0.0368685 0.023286 0.39
vn 0.743076 0.669206 0.00149039
v 0.0202457 -0.0166012 0.404238
vn 0.313746 -0.030924 0.949003
v 0.0352657 0.00573141 0.4
vn 0.313746 -0.030924 0.949003
v 0.0231797 0.00702952 0.404038
vn 0.313746 -0.030924 0.949003
v 0.0151024 -0.041822 0.39
vn 0.569414 -0.822043 0.00372505
v 0.0263033 -0.0357853 0.01
vn 0.569414 -0.822043 0.00372505
v 0.030531 -0.0311349 0.39
vn 0.569414 -0.822043 0.00372505
v 0.0202457 -0.0166012 0.404238
vn 0.348143 -0.0565763 0.935733
v 0.031636 -0.016604 0.4
vn 0.348143 -0.0565763 0.935733
v 0.0352657 0.00573141 0.4
vn 0.348143 -0.0565763 0.935733
v -0.00953284 -0.0433633 0.01
vn -0.366247 -0.721096 -0.588119
v -0.0260334 -0.0349826 0.01
vn -0.366247 -0.721096 -0.588119
v -0.0153021 -0.032249 -3.4534e-05
vn -0.366247 -0.721096 -0.588119
v -0.0315979 -0.0165854 -4.25457e-05
vn -0.548244 -0.522351 -0.65313
v -0.0260334 -0.0349826 0.01
vn -0.548244 -0.522351 -0.65313
v -0.0362006 -0.0243114 0.01
vn -0.548244 -0.522351 -0.65313
v 0.0265147 0.035629 0.01
vn 0.779897 0.625907 -0.000919293
v 0.0368685 0.023286 0.39
vn 0.779897 0.625907 -0.000919293
v 0.0381321 0.0211534 0.01
vn 0.779897 0.625907 -0.000919293
v 0.0380059 -0.0213792 0.01
vn 0.941887 -0.33593 -0.000919341
v 0.0429572 -0.00749665 0.01
vn 0.941887 -0.33593 -0.000919341
v 0.0391592 -0.0191855 0.39
vn 0.941887 -0.33593 -0.000919341
v -0.0275039 -0.0348711 0.39
vn -0.545198 -0.469821 0.694282
v -0.0201808 -0.0285915 0.4
vn -0.545198 -0.469821 0.694282
v -0.0328816 -0.013853 0.4
vn -0.545198 -0.469821 0.694282
v 0.031636 -0.016604 0.4
vn 0.645153 -0.46584 0.605617
v 0.030531 -0.0311349 0.39
vn 0.645153 -0.46584 0.605617
v 0.0391592 -0.0191855 0.39
vn 0.645153 -0.46584 0.605617
v -0.00724526 -0.0437509 0.390265
vn -0.252653 -0.666192 0.70168
v 0.00144741 -0.036794 0.4
vn -0.252653 -0.666192 0.70168
v -0.0201808 -0.0285915 0.4
vn -0.252653 -0.666192 0.70168
v 0.0265147 0.035629 0.01
vn 0.28079 0.683826 -0.673453
v 0.0247553 0.0257573 0.4
vn 0.328756 0.172545 0.928519
v 0.0231797 0.00702952 0.404038
vn 0.328756 0.172545 0.928519
v 0.0352657 0.00573141 0.4
vn 0.328756 0.172545 0.928519
v 0.0381321 0.0211534 0.01
vn 0.923568 0.383435 0.000919229
v 0.0368685 0.023286 0.39
vn 0.923568 0.383435 0.000919229
v 0.04252 0.0096734 0.39
vn 0.923568 0.383435 0.000919229
v 0.035592 -0.0028747 -2.06371e-05
vn 0.000493341 0.000640423 -1
v 0.0204169 0.0282765 -8.17363e-06
vn 0.000493341 0.000640423 -1
v 0.0309165 0.0161368 -1.07683e-05
vn 0.000493341 0.000640423 -1
v -0.0272198 -8.04344e-05 0.404478
vn -0.234889 0.192623 0.952745
v -0.0114008 0.0213316 0.404049
vn -0.234889 0.192623 0.952745
v -0.0225106 0.0278111 0.4
vn -0.234889 0.192623 0.952745
v -0.00953284 -0.0433633 0.01
vn -0.0839843 -0.69143 -0.717545
v -0.0153021 -0.032249 -3.4534e-05
vn -0.0839843 -0.69143 -0.717545
v 0.0102246 -0.0352736 -0.000107759
vn -0.0839843 -0.69143 -0.717545
v 0.00144741 -0.036794 0.4
vn 0.0846808 -0.279555 0.956388
v 0.0202457 -0.0166012 0.404238
vn 0.0846808 -0.279555 0.956388
v -0.0077093 -0.0253496 0.404156
vn 0.0846808 -0.279555 0.956388
v 0.0263033 -0.0357853 0.01
vn 0.776176 -0.630516 -0.000919178
v 0.0380059 -0.0213792 0.01
vn 0.776176 -0.630516 -0.000919178
v 0.030531 -0.0311349 0.39
vn 0.776176 -0.630516 -0.000919178
f 1//1 2//2 3//3
f 4//4 5//5 6//6
f 7//7 8//8 9//9
f 10//10 11//11 12//12
f 13//13 14//14 15//15
f 16//16 17//17 18//18
f 19//19 20//20 21//21
f 22//22 23//23 24//24
f 25//25 26//26 27//27
f 28//28 29//29 30//30
f 31//31 32//32 33//33
f 34//34 35//35 36//36
f 37//37 38//38 39//39
f 40//40 41//41 42//42
f 43//43 44//44 45//45
f 46//46 47//47 48//48
f 49//49 50//50 51//51
f 52//52 53//53 54//54
f 55//55 56//56 57//57
f 58//58 59//59 60//60
f 61//61 62//62 63//63
f 64//64 65//65 66//66
f 67//67 68//68 69//69
f 70//70 71//71 72//72
f 73//73 74//74 75//75
f 76//76 77//77 78//78
f 79//79 80//80 81//81
f 82//82 83//83 84//84
f 85//85 86//86 87//87
f 88//88 89//89 90//90
f 91//91 92//92 93//93
f 94//94 95//95 96//96
f 97//97 98//98 99//99
f 100//100 101//101 102//102
f 103//103 104//104 105//105
f 106//106 107//107 108//108
f 109//109 110//110 111//111
f 112//112 113//113 114//114
f 115//115 116//116 117//117
f 118//118 119//119 120//120
f 121//121 122//122 123//123
f 124//124 125//125 126//126
f 127//127 128//128 129//129
f 130//130 131//131 132//132
f 133//133 134//134 135//135
f 136//136 137//137 138//138
f 139//139 140//140 141//141
f 142//142 143//143 144//144
f 145//145 146//146 147//147
f 148//148 149//149 150//150
f 151//151 152//152 153//153
f 154//154 155//155 156//156
f 157//157 158//158 159//159
f 160//160 161//161 162//162
f 163//163 164//164 165//165
f 166//166 167//167 168//168
f 169//169 170//170 171//171
f 172//172 173//173 174//174
f 175//175 176//176 177//177
f 178//178 179//179 180//180
f 181//181 182//182 183//183
f 184//184 185//185 186//186
f 187//187 188//188 189//189
f 190//190 191//191 192//192
f 193//193 194//194 195//195
f 196//196 197//197 198//198
f 199//199 200//200 201//201
f 202//202 203//203 204//204
f 205//205 206//206 207//207
f 208//208 209//209 210//210
f 211//211 212//212 213//213
f 214//214 215//215 216//216
f 217//217 218//218 219//219
f 220//220 221//221 222//222
f 223//223 224//224 225//225
f 226//226 227//227 228//228
f 229//229 230//230 231//231
f 232//232 233//233 234//234
f 235//235 236//236 237//237
f 238//238 239//239 240//240
f 241//241 242//242 243//243
f 244//244 245//245 246//246
f 247//247 248//248 249//249
f 250//250 251//251 252//252
f 253//253 254//254 255//255
f 256//256 257//257 258//258
f 259//259 260//260 261//261
f 262//262 263//263 264//264
f 265//265 266//266 267//267
f 268//268 269//269 270//270
f 271//271 272//272 273//273
f 274//274 275//275 276//276
f 277//277 278//278 279//279
f 280//280 281//281 282//282
f 283//283 284//284 285//285
f 286//286 287//287 288//288
f 289//289 290//290 291//291
f 292//292 293//293 294//294
f 295//295 296//296 297//297
f 298//298 299//299 300//300
f 301//301 302//302 303//303
f 304//304 305//305 306//306
f 307//307 308//308 309//309
f 310//310 311//311 312//312
f 241//241 313//313 242//242
f 314//314 315//315 316//316
f 317//317 318//318 319//319
f 320//320 321//321 322//322
f 323//323 324//324 325//325
f 326//326 327//327 328//328
f 329//329 330//330 331//331
f 332//332 333//333 334//334
