# Created by Open3D 
# object name: L116-500_convdec
# number of vertices: 654
# number of triangles: 218
v 0.49 0.0496119 0.101529
vn 0.708248 0.665637 0.235183
v 0.5 0.0419083 0.0932177
vn 0.708248 0.665637 0.235183
v 0.49 0.0579477 0.0779362
vn 0.708248 0.665637 0.235183
v 0.49 0.0076094 0.127394
vn -0.00330778 0.224639 0.974436
v 0.0417532 0.0170198 0.123703
vn -0.00330778 0.224639 0.974436
v 0.0402908 0.00663097 0.126093
vn -0.00330778 0.224639 0.974436
v 0.49 0.0496119 0.101529
vn -0.00289437 0.742768 0.669542
v 0.0321627 0.046848 0.102616
vn -0.00289437 0.742768 0.669542
v 0.0440045 0.0371192 0.11346
vn -0.00289437 0.742768 0.669542
v 0.49 0.00502656 0.00893522
vn 0.70893 0.206518 -0.674366
v 0.49 0.0290341 0.0162873
vn 0.70893 0.206518 -0.674366
v 0.5 0.0122204 0.0216508
vn 0.70893 0.206518 -0.674366
v 0.49 0.0496119 0.101529
vn 0.00157371 0.660708 0.750641
v 0.0440045 0.0371192 0.11346
vn 0.00157371 0.660708 0.750641
v 0.49 0.0308285 0.118062
vn 0.00157371 0.660708 0.750641
v -0.0176026 0.0470313 -0.00094656
vn -0.00154804 -0.0300342 -0.999548
v 0.0535059 0.01398 -6.35698e-05
vn -0.00154804 -0.0300342 -0.999548
v -0.0464505 0.0187311 -5.15233e-05
vn -0.00154804 -0.0300342 -0.999548
v -0.0245054 -0.042502 0.0719623
vn -0.485978 -0.779991 0.394257
v -0.0111195 -0.0540651 0.0655861
vn -0.485978 -0.779991 0.394257
v -0.0131917 -0.0460804 0.0788286
vn -0.485978 -0.779991 0.394257
v -0.0089917 0.0578812 0.0592378
vn -0.376644 0.840432 0.389633
v -0.00817595 0.0475249 0.0823647
vn -0.376644 0.840432 0.389633
v 0.00751593 0.0580992 0.0747249
vn -0.376644 0.840432 0.389633
v 0.5 -0.05012 0.0665513
vn 0.777357 -0.57545 -0.254115
v 0.49 -0.0535743 0.0437829
vn 0.777357 -0.57545 -0.254115
v 0.5 -0.0376518 0.0383167
vn 0.777357 -0.57545 -0.254115
v 0.49 -0.0395611 0.0230501
vn 0.69235 -0.324861 -0.644295
v 0.49 -0.0172169 0.0117839
vn 0.69235 -0.324861 -0.644295
v 0.5 -0.0154737 0.0216508
vn 0.69235 -0.324861 -0.644295
v 0.5 -0.05012 0.0665513
vn 0.983333 -0.17 0.0644734
v 0.504693 -0.0253263 0.0603499
vn 0.983333 -0.17 0.0644734
v 0.5 -0.0392857 0.0951186
vn 0.983333 -0.17 0.0644734
v 0.0308913 0.0331734 0.115337
vn -0.325154 0.460605 0.825904
v 0.00351659 0.030555 0.10602
vn -0.325154 0.460605 0.825904
v 0.022022 0.0229747 0.117533
vn -0.325154 0.460605 0.825904
v 0.49 -0.0331943 0.117112
vn 0.000590359 -0.372921 0.927863
v 0.49 -0.0147202 0.124537
vn 0.000590359 -0.372921 0.927863
v 0.0476623 -0.0209067 0.122332
vn 0.000590359 -0.372921 0.927863
v 0.50552 -0.000229363 0.0934035
vn 0.967285 0.0204117 0.252869
v 0.5 0.019044 0.112963
vn 0.967285 0.0204117 0.252869
v 0.5 -0.0159533 0.115788
vn 0.967285 0.0204117 0.252869
v 0.5 0.0361061 0.0348163
vn 0.977706 0.192085 -0.0848234
v 0.5 0.048643 0.0632065
vn 0.977706 0.192085 -0.0848234
v 0.504215 0.0271965 0.0632239
vn 0.977706 0.192085 -0.0848234
v 0.50552 -0.000229363 0.0934035
vn 0.999477 0.0179692 -0.0268884
v 0.504074 0.00306009 0.0418517
vn 0.999477 0.0179692 -0.0268884
v 0.504215 0.0271965 0.0632239
vn 0.999477 0.0179692 -0.0268884
v 0.49 -0.0395611 0.0230501
vn 0.0489985 -0.449679 -0.891845
v -0.00400273 -0.0461275 -0.00077986
vn 0.0489985 -0.449679 -0.891845
v 0.49 -0.0172169 0.0117839
vn 0.0489985 -0.449679 -0.891845
v 0.5 -0.05012 0.0665513
vn 0.672224 -0.71646 -0.186547
v 0.49 -0.0592247 0.0654841
vn 0.672224 -0.71646 -0.186547
v 0.49 -0.0535743 0.0437829
vn 0.672224 -0.71646 -0.186547
v -0.0509886 0.00280822 0.0553764
vn -0.864016 0.137077 0.484444
v -0.035803 0.00475682 0.0819089
vn -0.864016 0.137077 0.484444
v -0.0421841 0.0200438 0.0662025
vn -0.864016 0.137077 0.484444
v -0.0509886 0.00280822 0.0553764
vn -0.868069 0.066883 0.491918
v -0.0425208 -0.00579851 0.0714894
vn -0.868069 0.066883 0.491918
v -0.035803 0.00475682 0.0819089
vn -0.868069 0.066883 0.491918
v -0.0356013 0.0361129 0.0623621
vn -0.82595 0.426469 0.368688
v -0.0470995 0.0298926 0.0437985
vn -0.82595 0.426469 0.368688
v -0.0421841 0.0200438 0.0662025
vn -0.82595 0.426469 0.368688
v 0.49 0.0496119 0.101529
vn 0.0001588 0.942878 0.333137
v 0.49 0.0579477 0.0779362
vn 0.0001588 0.942878 0.333137
v 0.0128062 0.0560593 0.0835084
vn 0.0001588 0.942878 0.333137
v -0.0197139 0.0529255 0.0593031
vn -0.415011 0.899704 0.135273
v -0.0089917 0.0578812 0.0592378
vn -0.415011 0.899704 0.135273
v -0.0267916 0.0529597 0.0373617
vn -0.415011 0.899704 0.135273
v 0.49 0.0579477 0.0502534
vn 0.000314 1 0
v 0.00751593 0.0580992 0.0747249
vn 0.000314 1 0
v 0.49 0.0579477 0.0779362
vn 0.000314 1 0
v 0.49 0.0579477 0.0502534
vn 0.808619 0.538193 -0.237662
v 0.5 0.048643 0.0632065
vn 0.808619 0.538193 -0.237662
v 0.5 0.0361061 0.0348163
vn 0.808619 0.538193 -0.237662
v 0.504693 -0.0253263 0.0603499
vn 0.982858 -0.110755 -0.147387
v 0.5 -0.0376518 0.0383167
vn 0.982858 -0.110755 -0.147387
v 0.5 -0.0154737 0.0216508
vn 0.982858 -0.110755 -0.147387
v 0.5 -0.05012 0.0665513
vn 0.766831 -0.600138 0.227606
v 0.5 -0.0392857 0.0951186
vn 0.766831 -0.600138 0.227606
v 0.49 -0.0558601 0.0851073
vn 0.766831 -0.600138 0.227606
v -0.0176026 0.0470313 -0.00094656
vn 0.042806 0.292549 -0.955292
v 0.49 0.0290341 0.0162873
vn 0.042806 0.292549 -0.955292
v 0.49 0.00502656 0.00893522
vn 0.042806 0.292549 -0.955292
v 0.5 0.0361061 0.0348163
vn 0.788339 0.296987 -0.538814
v 0.5 0.0122204 0.0216508
vn 0.788339 0.296987 -0.538814
v 0.49 0.0290341 0.0162873
vn 0.788339 0.296987 -0.538814
v 0.50552 -0.000229363 0.0934035
vn 0.979997 -0.131965 0.148967
v 0.5 -0.0159533 0.115788
vn 0.979997 -0.131965 0.148967
v 0.5 -0.0392857 0.0951186
vn 0.979997 -0.131965 0.148967
v 0.0397823 -0.0305495 0.11775
vn -0.00123592 -0.42836 0.903607
v 0.49 -0.0331943 0.117112
vn -0.00123592 -0.42836 0.903607
v 0.0476623 -0.0209067 0.122332
vn -0.00123592 -0.42836 0.903607
v 0.49 0.0579477 0.0502534
vn 0.686888 0.602126 -0.406975
v 0.5 0.0361061 0.0348163
vn 0.686888 0.602126 -0.406975
v 0.49 0.0438545 0.0294023
vn 0.686888 0.602126 -0.406975
v -0.0197139 0.0529255 0.0593031
vn -0.564239 0.695337 0.44513
v -0.0214259 0.0377282 0.0808727
vn -0.564239 0.695337 0.44513
v -0.00817595 0.0475249 0.0823647
vn -0.564239 0.695337 0.44513
v -0.0179011 -0.00556183 0.101304
vn -0.625713 -0.288408 0.724778
v -0.0284805 -0.0190476 0.0868043
vn -0.625713 -0.288408 0.724778
v -0.00731597 -0.0226739 0.103633
vn -0.625713 -0.288408 0.724778
v 0.0208284 -0.0540644 0.0909004
vn -0.324122 -0.800195 0.504612
v 0.00756446 -0.0466049 0.0942097
vn -0.324122 -0.800195 0.504612
v 0.00811877 -0.0580654 0.0763921
vn -0.324122 -0.800195 0.504612
v -0.0307582 -0.0270536 0.0800381
vn -0.808065 -0.228865 0.542819
v -0.0284805 -0.0190476 0.0868043
vn -0.808065 -0.228865 0.542819
v -0.0425208 -0.00579851 0.0714894
vn -0.808065 -0.228865 0.542819
v -0.0220442 0.0152448 0.0951146
vn -0.581442 0.118314 0.804939
v -0.0104141 -0.00388292 0.106327
vn -0.581442 0.118314 0.804939
v -0.00156624 0.0147733 0.109976
vn -0.581442 0.118314 0.804939
v 0.0308913 0.0331734 0.115337
vn -0.101828 0.682635 0.72363
v 0.0440045 0.0371192 0.11346
vn -0.101828 0.682635 0.72363
v 0.0321627 0.046848 0.102616
vn -0.101828 0.682635 0.72363
v -0.025947 -0.0497937 0.0529996
vn -0.487777 -0.821286 0.29591
v -0.0105965 -0.0579788 0.0555859
vn -0.487777 -0.821286 0.29591
v -0.0111195 -0.0540651 0.0655861
vn -0.487777 -0.821286 0.29591
v -0.0316533 -0.0506038 0.00999077
vn -0.691525 -0.722342 0.00382009
v -0.04257 -0.0400414 0.0310615
vn -0.691525 -0.722342 0.00382009
v -0.0441968 -0.0385953 0.0100158
vn -0.691525 -0.722342 0.00382009
v 0.49 0.00502656 0.00893522
vn 0.0326434 -0.126963 -0.99137
v 0.49 -0.0172169 0.0117839
vn 0.0326434 -0.126963 -0.99137
v -0.00400273 -0.0461275 -0.00077986
vn 0.0326434 -0.126963 -0.99137
v -0.0179011 -0.00556183 0.101304
vn -0.757121 -0.10014 0.645554
v -0.035803 0.00475682 0.0819089
vn -0.757121 -0.10014 0.645554
v -0.0284805 -0.0190476 0.0868043
vn -0.757121 -0.10014 0.645554
v -0.04257 -0.0400414 0.0310615
vn -0.807115 -0.589989 0.0218493
v -0.0503186 -0.0296715 0.0248424
vn -0.807115 -0.589989 0.0218493
v -0.0441968 -0.0385953 0.0100158
vn -0.807115 -0.589989 0.0218493
v 0.5 0.0361061 0.0348163
vn 0.983449 0.08746 -0.158676
v 0.504074 0.00306009 0.0418517
vn 0.983449 0.08746 -0.158676
v 0.5 0.0122204 0.0216508
vn 0.983449 0.08746 -0.158676
v -0.0176026 0.0470313 -0.00094656
vn -0.458142 0.582885 -0.671082
v -0.047669 0.0360023 0.01
vn -0.458142 0.582885 -0.671082
v -0.0273872 0.0519436 0.01
vn -0.458142 0.582885 -0.671082
v -0.0574054 -0.00723553 0.0344421
vn -0.99877 -0.0170368 0.0465708
v -0.0579752 0.00759049 0.0276458
vn -0.99877 -0.0170368 0.0465708
v -0.0586965 0.0015571 0.00996941
vn -0.99877 -0.0170368 0.0465708
v 0.49 -0.0395611 0.0230501
vn 0.800397 -0.360129 -0.47924
v 0.5 -0.0154737 0.0216508
vn 0.800397 -0.360129 -0.47924
v 0.5 -0.0376518 0.0383167
vn 0.800397 -0.360129 -0.47924
v 0.0274317 -0.00700566 0.123409
vn -0.305772 -0.219139 0.926543
v 0.00814085 -0.0163699 0.114828
vn -0.305772 -0.219139 0.926543
v 0.0268551 -0.0233461 0.119354
vn -0.305772 -0.219139 0.926543
v 0.0128062 0.0560593 0.0835084
vn -0.362438 0.835801 0.412403
v 0.00751593 0.0580992 0.0747249
vn -0.362438 0.835801 0.412403
v -0.00817595 0.0475249 0.0823647
vn -0.362438 0.835801 0.412403
v 0.5 -0.0159533 0.115788
vn 0.64861 -0.0965958 0.754967
v 0.49 0.0076094 0.127394
vn 0.64861 -0.0965958 0.754967
v 0.49 -0.0147202 0.124537
vn 0.64861 -0.0965958 0.754967
v 0.49 0.0290341 0.0162873
vn 0.0487747 0.661917 -0.747989
v -0.00781703 0.0580815 0.00953064
vn 0.0487747 0.661917 -0.747989
v 0.49 0.0438545 0.0294023
vn 0.0487747 0.661917 -0.747989
v 0.5 -0.0154737 0.0216508
vn 0.980264 0 -0.197693
v 0.5 0.0122204 0.0216508
vn 0.980264 0 -0.197693
v 0.504074 0.00306009 0.0418517
vn 0.980264 0 -0.197693
v 0.0440045 0.0371192 0.11346
vn -0.00174636 0.506824 0.862048
v 0.0494172 0.0245343 0.12087
vn -0.00174636 0.506824 0.862048
v 0.49 0.0308285 0.118062
vn -0.00174636 0.506824 0.862048
v 0.49 0.00502656 0.00893522
vn 0.707404 -0.0897865 -0.701083
v 0.5 -0.0154737 0.0216508
vn 0.707404 -0.0897865 -0.701083
v 0.49 -0.0172169 0.0117839
vn 0.707404 -0.0897865 -0.701083
v -0.0393333 -0.0378606 0.0527908
vn -0.730246 -0.524449 0.437829
v -0.0245054 -0.042502 0.0719623
vn -0.730246 -0.524449 0.437829
v -0.0307582 -0.0270536 0.0800381
vn -0.730246 -0.524449 0.437829
v 0.49 -0.0592247 0.0654841
vn 0.0261209 -0.967404 -0.251886
v -0.00774505 -0.0581069 0.00957413
vn 0.0261209 -0.967404 -0.251886
v 0.49 -0.0535743 0.0437829
vn 0.0261209 -0.967404 -0.251886
v -0.035803 0.00475682 0.0819089
vn -0.803815 0.228699 0.549161
v -0.0291398 0.0216381 0.0846317
vn -0.803815 0.228699 0.549161
v -0.0421841 0.0200438 0.0662025
vn -0.803815 0.228699 0.549161
v 0.49 -0.0487105 0.100924
vn 0.739312 -0.613587 0.277359
v 0.49 -0.0558601 0.0851073
vn 0.739312 -0.613587 0.277359
v 0.5 -0.0392857 0.0951186
vn 0.739312 -0.613587 0.277359
v -0.0509886 0.00280822 0.0553764
vn -0.893847 0.206677 0.397897
v -0.0421841 0.0200438 0.0662025
vn -0.893847 0.206677 0.397897
v -0.0517942 0.0156528 0.0468949
vn -0.893847 0.206677 0.397897
v -0.035803 0.00475682 0.0819089
vn -0.779113 -0.112851 0.616642
v -0.0425208 -0.00579851 0.0714894
vn -0.779113 -0.112851 0.616642
v -0.0284805 -0.0190476 0.0868043
vn -0.779113 -0.112851 0.616642
v -0.0214259 0.0377282 0.0808727
vn -0.616461 0.44698 0.648217
v -0.0291398 0.0216381 0.0846317
vn -0.616461 0.44698 0.648217
v -0.0104004 0.032319 0.095088
vn -0.616461 0.44698 0.648217
v -0.0307582 -0.0270536 0.0800381
vn -0.824732 -0.252985 0.505782
v -0.0425208 -0.00579851 0.0714894
vn -0.824732 -0.252985 0.505782
v -0.0464502 -0.0189608 0.0584985
vn -0.824732 -0.252985 0.505782
v 0.0128062 0.0560593 0.0835084
vn -0.340201 0.762682 0.550072
v -0.00817595 0.0475249 0.0823647
vn -0.340201 0.762682 0.550072
v 0.0111628 0.0440186 0.0991866
vn -0.340201 0.762682 0.550072
v 0.033137 -0.0441514 0.106983
vn -0.00252964 -0.619899 0.784677
v 0.49 -0.0331943 0.117112
vn -0.00252964 -0.619899 0.784677
v 0.0397823 -0.0305495 0.11775
vn -0.00252964 -0.619899 0.784677
v -0.0297926 -0.0507025 0.0386521
vn -0.653999 -0.755445 0.0398562
v -0.04257 -0.0400414 0.0310615
vn -0.653999 -0.755445 0.0398562
v -0.0316533 -0.0506038 0.00999077
vn -0.653999 -0.755445 0.0398562
v -0.047669 0.0360023 0.01
vn -0.620922 0.783781 -0.0119748
v -0.0382719 0.0438711 0.0377708
vn -0.620922 0.783781 -0.0119748
v -0.0267916 0.0529597 0.0373617
vn -0.620922 0.783781 -0.0119748
v 0.0308913 0.0331734 0.115337
vn -0.313717 0.565353 0.762862
v 0.0111628 0.0440186 0.0991866
vn -0.313717 0.565353 0.762862
v 0.00351659 0.030555 0.10602
vn -0.313717 0.565353 0.762862
v -0.047669 0.0360023 0.01
vn -0.717103 0.312091 -0.623187
v -0.0464505 0.0187311 -5.15233e-05
vn -0.717103 0.312091 -0.623187
v -0.0555657 0.0182707 0.0102068
vn -0.717103 0.312091 -0.623187
v 0.49 0.0076094 0.127394
vn -0.00286963 -0.0106572 0.999939
v 0.0402908 0.00663097 0.126093
vn -0.00286963 -0.0106572 0.999939
v 0.0442226 -0.00840775 0.125944
vn -0.00286963 -0.0106572 0.999939
v 0.0128062 0.0560593 0.0835084
vn -0.00120445 0.973915 0.226909
v 0.49 0.0579477 0.0779362
vn -0.00120445 0.973915 0.226909
v 0.00751593 0.0580992 0.0747249
vn -0.00120445 0.973915 0.226909
v 0.0111628 0.0440186 0.0991866
vn -0.204452 0.738015 0.643066
v 0.0321627 0.046848 0.102616
vn -0.204452 0.738015 0.643066
v 0.0245552 0.052307 0.0939323
vn -0.204452 0.738015 0.643066
v -0.047669 0.0360023 0.01
vn -0.897947 0.438123 0.0417125
v -0.0552189 0.019198 0.0239753
vn -0.897947 0.438123 0.0417125
v -0.0479802 0.033487 0.02972
vn -0.897947 0.438123 0.0417125
v -0.0568473 -0.0155618 0.0100625
vn -0.68773 -0.078214 -0.721741
v -0.0586965 0.0015571 0.00996941
vn -0.68773 -0.078214 -0.721741
v -0.0462331 -0.0155194 -5.61083e-05
vn -0.68773 -0.078214 -0.721741
v -0.0245054 -0.042502 0.0719623
vn -0.51605 -0.785615 0.341323
v -0.025947 -0.0497937 0.0529996
vn -0.51605 -0.785615 0.341323
v -0.0111195 -0.0540651 0.0655861
vn -0.51605 -0.785615 0.341323
v -0.0568473 -0.0155618 0.0100625
vn -0.659576 -0.290816 -0.693099
v -0.0462331 -0.0155194 -5.61083e-05
vn -0.659576 -0.290816 -0.693099
v -0.0532783 -0.0235074 0.01
vn -0.659576 -0.290816 -0.693099
v -0.0464505 0.0187311 -5.15233e-05
vn -0.0285088 -0.00743335 -0.999566
v -0.00400273 -0.0461275 -0.00077986
vn -0.0285088 -0.00743335 -0.999566
v -0.0276508 -0.0400649 -0.000150473
vn -0.0285088 -0.00743335 -0.999566
v 0.5 -0.0159533 0.115788
vn 0.608 -0.296076 0.736665
v 0.49 -0.0147202 0.124537
vn 0.608 -0.296076 0.736665
v 0.49 -0.0331943 0.117112
vn 0.608 -0.296076 0.736665
v -0.0176026 0.0470313 -0.00094656
vn -0.256909 0.774979 -0.577413
v -0.0273872 0.0519436 0.01
vn -0.256909 0.774979 -0.577413
v -0.00781703 0.0580815 0.00953064
vn -0.256909 0.774979 -0.577413
v 0.49 0.0579477 0.0502534
vn 0.681197 0.7321 0
v 0.49 0.0579477 0.0779362
vn 0.681197 0.7321 0
v 0.5 0.048643 0.0632065
vn 0.681197 0.7321 0
v 0.5 0.0419083 0.0932177
vn 0.756334 0.427574 0.495115
v 0.49 0.0308285 0.118062
vn 0.756334 0.427574 0.495115
v 0.5 0.019044 0.112963
vn 0.756334 0.427574 0.495115
v 0.5 0.0361061 0.0348163
vn 0.676632 0.487964 -0.551416
v 0.49 0.0290341 0.0162873
vn 0.676632 0.487964 -0.551416
v 0.49 0.0438545 0.0294023
vn 0.676632 0.487964 -0.551416
v 0.49 0.0076094 0.127394
vn 0.674084 0.275458 0.685371
v 0.5 0.019044 0.112963
vn 0.674084 0.275458 0.685371
v 0.49 0.0308285 0.118062
vn 0.674084 0.275458 0.685371
v 0.00172873 -0.0362816 0.101822
vn -0.447194 -0.680674 0.580259
v -0.0131917 -0.0460804 0.0788286
vn -0.447194 -0.680674 0.580259
v 0.00756446 -0.0466049 0.0942097
vn -0.447194 -0.680674 0.580259
v 0.50552 -0.000229363 0.0934035
vn 0.980305 0.129078 0.149467
v 0.5 0.0419083 0.0932177
vn 0.980305 0.129078 0.149467
v 0.5 0.019044 0.112963
vn 0.980305 0.129078 0.149467
v 0.5 -0.05012 0.0665513
vn 0.660349 -0.740158 0.126908
v 0.49 -0.0558601 0.0851073
vn 0.660349 -0.740158 0.126908
v 0.49 -0.0592247 0.0654841
vn 0.660349 -0.740158 0.126908
v 0.00811877 -0.0580654 0.0763921
vn -0.406555 -0.809144 0.424263
v -0.0131917 -0.0460804 0.0788286
vn -0.406555 -0.809144 0.424263
v -0.0111195 -0.0540651 0.0655861
vn -0.406555 -0.809144 0.424263
v 0.49 -0.0395611 0.0230501
vn 0.0449115 -0.661249 -0.748821
v -0.00774505 -0.0581069 0.00957413
vn 0.0449115 -0.661249 -0.748821
v -0.00400273 -0.0461275 -0.00077986
vn 0.0449115 -0.661249 -0.748821
v 0.49 -0.0331943 0.117112
vn 0.734424 -0.489966 0.469632
v 0.49 -0.0487105 0.100924
vn 0.734424 -0.489966 0.469632
v 0.5 -0.0392857 0.0951186
vn 0.734424 -0.489966 0.469632
v 0.00811877 -0.0580654 0.0763921
vn -0.383681 -0.782059 0.491093
v 0.00756446 -0.0466049 0.0942097
vn -0.383681 -0.782059 0.491093
v -0.0131917 -0.0460804 0.0788286
vn -0.383681 -0.782059 0.491093
v 0.504693 -0.0253263 0.0603499
vn 0.988234 -0.0677937 -0.137101
v 0.5 -0.0154737 0.0216508
vn 0.988234 -0.0677937 -0.137101
v 0.504074 0.00306009 0.0418517
vn 0.988234 -0.0677937 -0.137101
v -0.0579752 0.00759049 0.0276458
vn -0.972283 0.233645 0.00875384
v -0.0552189 0.019198 0.0239753
vn -0.972283 0.233645 0.00875384
v -0.0555657 0.0182707 0.0102068
vn -0.972283 0.233645 0.00875384
v -0.0307582 -0.0270536 0.0800381
vn -0.619235 -0.396578 0.677698
v -0.0140939 -0.0331206 0.0917145
vn -0.619235 -0.396578 0.677698
v -0.0284805 -0.0190476 0.0868043
vn -0.619235 -0.396578 0.677698
v 0.00172873 -0.0362816 0.101822
vn -0.542238 -0.454466 0.70671
v -0.00731597 -0.0226739 0.103633
vn -0.542238 -0.454466 0.70671
v -0.0140939 -0.0331206 0.0917145
vn -0.542238 -0.454466 0.70671
v -0.0284805 -0.0190476 0.0868043
vn -0.613572 -0.387112 0.68824
v -0.0140939 -0.0331206 0.0917145
vn -0.613572 -0.387112 0.68824
v -0.00731597 -0.0226739 0.103633
vn -0.613572 -0.387112 0.68824
v -0.0470995 0.0298926 0.0437985
vn -0.86503 0.360963 0.348466
v -0.0517942 0.0156528 0.0468949
vn -0.86503 0.360963 0.348466
v -0.0421841 0.0200438 0.0662025
vn -0.86503 0.360963 0.348466
v 0.49 0.0579477 0.0502534
vn 0.000296692 1 -0.000341257
v -0.00781703 0.0580815 0.00953064
vn 0.000296692 1 -0.000341257
v 0.00751593 0.0580992 0.0747249
vn 0.000296692 1 -0.000341257
v -0.0316533 -0.0506038 0.00999077
vn -0.212102 -0.634585 -0.743179
v -0.0276508 -0.0400649 -0.000150473
vn -0.212102 -0.634585 -0.743179
v -0.00774505 -0.0581069 0.00957413
vn -0.212102 -0.634585 -0.743179
v -0.0506812 -0.0265791 0.0368299
vn -0.827852 -0.548714 0.11651
v -0.0503186 -0.0296715 0.0248424
vn -0.827852 -0.548714 0.11651
v -0.04257 -0.0400414 0.0310615
vn -0.827852 -0.548714 0.11651
v -0.0214259 0.0377282 0.0808727
vn -0.721756 0.465658 0.512085
v -0.0356013 0.0361129 0.0623621
vn -0.721756 0.465658 0.512085
v -0.0291398 0.0216381 0.0846317
vn -0.721756 0.465658 0.512085
v -0.0176026 0.0470313 -0.00094656
vn -0.443561 0.427228 -0.787864
v -0.0464505 0.0187311 -5.15233e-05
vn -0.443561 0.427228 -0.787864
v -0.047669 0.0360023 0.01
vn -0.443561 0.427228 -0.787864
v 0.0402908 0.00663097 0.126093
vn -0.153164 -0.0498221 0.986944
v 0.0274317 -0.00700566 0.123409
vn -0.153164 -0.0498221 0.986944
v 0.0442226 -0.00840775 0.125944
vn -0.153164 -0.0498221 0.986944
v 0.49 0.0579477 0.0502534
vn 0.0459821 0.827627 -0.559391
v 0.49 0.0438545 0.0294023
vn 0.0459821 0.827627 -0.559391
v -0.00781703 0.0580815 0.00953064
vn 0.0459821 0.827627 -0.559391
v 0.0274317 -0.00700566 0.123409
vn -0.34555 -0.0232382 0.938113
v 0.0182044 0.00893359 0.120405
vn -0.34555 -0.0232382 0.938113
v 0.00762133 0.00135316 0.116319
vn -0.34555 -0.0232382 0.938113
v 0.50552 -0.000229363 0.0934035
vn 0.988675 0.129847 0.0752483
v 0.504215 0.0271965 0.0632239
vn 0.988675 0.129847 0.0752483
v 0.5 0.0419083 0.0932177
vn 0.988675 0.129847 0.0752483
v 0.0308913 0.0331734 0.115337
vn -0.0261047 0.498849 0.866296
v 0.0494172 0.0245343 0.12087
vn -0.0261047 0.498849 0.866296
v 0.0440045 0.0371192 0.11346
vn -0.0261047 0.498849 0.866296
v -0.0176026 0.0470313 -0.00094656
vn 0.0488751 0.664088 -0.746056
v -0.00781703 0.0580815 0.00953064
vn 0.0488751 0.664088 -0.746056
v 0.49 0.0290341 0.0162873
vn 0.0488751 0.664088 -0.746056
v -0.047669 0.0360023 0.01
vn -0.755547 0.65122 0.0711404
v -0.0479802 0.033487 0.02972
vn -0.755547 0.65122 0.0711404
v -0.0382719 0.0438711 0.0377708
vn -0.755547 0.65122 0.0711404
v -0.0574054 -0.00723553 0.0344421
vn -0.994128 -0.107311 0.0138919
v -0.0586965 0.0015571 0.00996941
vn -0.994128 -0.107311 0.0138919
v -0.0568473 -0.0155618 0.0100625
vn -0.994128 -0.107311 0.0138919
v -0.0316533 -0.0506038 0.00999077
vn -0.299644 -0.953918 -0.0159139
v -0.00774505 -0.0581069 0.00957413
vn -0.299644 -0.953918 -0.0159139
v -0.0105965 -0.0579788 0.0555859
vn -0.299644 -0.953918 -0.0159139
v -0.0297926 -0.0507025 0.0386521
vn -0.370393 -0.928641 0.020848
v -0.0316533 -0.0506038 0.00999077
vn -0.370393 -0.928641 0.020848
v -0.0105965 -0.0579788 0.0555859
vn -0.370393 -0.928641 0.020848
v 0.0208284 -0.0540644 0.0909004
vn -0.000402679 -0.963924 0.266177
v 0.00811877 -0.0580654 0.0763921
vn -0.000402679 -0.963924 0.266177
v 0.49 -0.0558601 0.0851073
vn -0.000402679 -0.963924 0.266177
v 0.00172873 -0.0362816 0.101822
vn -0.322512 -0.479596 0.816072
v 0.0223192 -0.0377473 0.109098
vn -0.322512 -0.479596 0.816072
v 0.0268551 -0.0233461 0.119354
vn -0.322512 -0.479596 0.816072
v -0.0089917 0.0578812 0.0592378
vn -0.26381 0.964572 -0.00234743
v -0.00781703 0.0580815 0.00953064
vn -0.26381 0.964572 -0.00234743
v -0.0267916 0.0529597 0.0373617
vn -0.26381 0.964572 -0.00234743
v -0.0179011 -0.00556183 0.101304
vn -0.513416 -0.204145 0.833504
v -0.00731597 -0.0226739 0.103633
vn -0.513416 -0.204145 0.833504
v -0.0104141 -0.00388292 0.106327
vn -0.513416 -0.204145 0.833504
v 0.022022 0.0229747 0.117533
vn -0.380572 0.283515 0.880218
v -0.00156624 0.0147733 0.109976
vn -0.380572 0.283515 0.880218
v 0.0182044 0.00893359 0.120405
vn -0.380572 0.283515 0.880218
v -0.0574054 -0.00723553 0.0344421
vn -0.97187 -0.228792 0.0558902
v -0.0568473 -0.0155618 0.0100625
vn -0.97187 -0.228792 0.0558902
v -0.0553915 -0.0183298 0.0240462
vn -0.97187 -0.228792 0.0558902
v -0.0506812 -0.0265791 0.0368299
vn -0.912174 -0.402641 0.0762772
v -0.0553915 -0.0183298 0.0240462
vn -0.912174 -0.402641 0.0762772
v -0.0503186 -0.0296715 0.0248424
vn -0.912174 -0.402641 0.0762772
v -0.0297926 -0.0507025 0.0386521
vn -0.486451 -0.85401 0.18448
v -0.0105965 -0.0579788 0.0555859
vn -0.486451 -0.85401 0.18448
v -0.025947 -0.0497937 0.0529996
vn -0.486451 -0.85401 0.18448
v -0.0276508 -0.0400649 -0.000150473
vn -0.508229 -0.381789 -0.771972
v -0.0441968 -0.0385953 0.0100158
vn -0.508229 -0.381789 -0.771972
v -0.0462331 -0.0155194 -5.61083e-05
vn -0.508229 -0.381789 -0.771972
v 0.0397823 -0.0305495 0.11775
vn -0.0895198 -0.36684 0.925967
v 0.0476623 -0.0209067 0.122332
vn -0.0895198 -0.36684 0.925967
v 0.0268551 -0.0233461 0.119354
vn -0.0895198 -0.36684 0.925967
v -0.00817595 0.0475249 0.0823647
vn -0.454309 0.60983 0.649393
v -0.0104004 0.032319 0.095088
vn -0.454309 0.60983 0.649393
v 0.0111628 0.0440186 0.0991866
vn -0.454309 0.60983 0.649393
v -0.0574054 -0.00723553 0.0344421
vn -0.925143 -0.142404 0.351898
v -0.0464502 -0.0189608 0.0584985
vn -0.925143 -0.142404 0.351898
v -0.0509886 0.00280822 0.0553764
vn -0.925143 -0.142404 0.351898
v -0.0220442 0.0152448 0.0951146
vn -0.541477 0.364321 0.757676
v -0.00156624 0.0147733 0.109976
vn -0.541477 0.364321 0.757676
v 0.00351659 0.030555 0.10602
vn -0.541477 0.364321 0.757676
v -0.0382719 0.0438711 0.0377708
vn -0.787923 0.583024 0.198142
v -0.0479802 0.033487 0.02972
vn -0.787923 0.583024 0.198142
v -0.0470995 0.0298926 0.0437985
vn -0.787923 0.583024 0.198142
v -0.0089917 0.0578812 0.0592378
vn -0.0166157 0.999855 0.00363639
v 0.00751593 0.0580992 0.0747249
vn -0.0166157 0.999855 0.00363639
v -0.00781703 0.0580815 0.00953064
vn -0.0166157 0.999855 0.00363639
v 0.49 -0.0395611 0.0230501
vn 0.0459821 -0.827628 -0.55939
v 0.49 -0.0535743 0.0437829
vn 0.0459821 -0.827628 -0.55939
v -0.00774505 -0.0581069 0.00957413
vn 0.0459821 -0.827628 -0.55939
v -0.0176026 0.0470313 -0.00094656
vn 0.0209864 0.018446 -0.99961
v 0.49 0.00502656 0.00893522
vn 0.0209864 0.018446 -0.99961
v 0.0535059 0.01398 -6.35698e-05
vn 0.0209864 0.018446 -0.99961
v -0.0382719 0.0438711 0.0377708
vn -0.757354 0.59464 0.269849
v -0.0470995 0.0298926 0.0437985
vn -0.757354 0.59464 0.269849
v -0.0356013 0.0361129 0.0623621
vn -0.757354 0.59464 0.269849
v -0.0464505 0.0187311 -5.15233e-05
vn -0.742552 0.148372 -0.653148
v -0.0586965 0.0015571 0.00996941
vn -0.742552 0.148372 -0.653148
v -0.0555657 0.0182707 0.0102068
vn -0.742552 0.148372 -0.653148
v 0.5 0.0419083 0.0932177
vn 0.980304 0.1927 0.043243
v 0.504215 0.0271965 0.0632239
vn 0.980304 0.1927 0.043243
v 0.5 0.048643 0.0632065
vn 0.980304 0.1927 0.043243
v 0.49 0.0496119 0.101529
vn -8.13318e-05 0.940867 0.338777
v 0.0128062 0.0560593 0.0835084
vn -8.13318e-05 0.940867 0.338777
v 0.0245552 0.052307 0.0939323
vn -8.13318e-05 0.940867 0.338777
v -0.0579752 0.00759049 0.0276458
vn -0.982589 0.184384 -0.0228392
v -0.0555657 0.0182707 0.0102068
vn -0.982589 0.184384 -0.0228392
v -0.0586965 0.0015571 0.00996941
vn -0.982589 0.184384 -0.0228392
v -0.00400273 -0.0461275 -0.00077986
vn -0.177242 -0.611285 -0.771308
v -0.00774505 -0.0581069 0.00957413
vn -0.177242 -0.611285 -0.771308
v -0.0276508 -0.0400649 -0.000150473
vn -0.177242 -0.611285 -0.771308
v 0.49 0.00502656 0.00893522
vn 0.786043 0 -0.618172
v 0.5 0.0122204 0.0216508
vn 0.786043 0 -0.618172
v 0.5 -0.0154737 0.0216508
vn 0.786043 0 -0.618172
v -0.0574054 -0.00723553 0.0344421
vn -0.939764 -0.308512 0.147185
v -0.0553915 -0.0183298 0.0240462
vn -0.939764 -0.308512 0.147185
v -0.0506812 -0.0265791 0.0368299
vn -0.939764 -0.308512 0.147185
v -0.0553915 -0.0183298 0.0240462
vn -0.913109 -0.407513 0.0128402
v -0.0532783 -0.0235074 0.01
vn -0.913109 -0.407513 0.0128402
v -0.0503186 -0.0296715 0.0248424
vn -0.913109 -0.407513 0.0128402
v -0.0579752 0.00759049 0.0276458
vn -0.941588 0.281865 0.184293
v -0.0517942 0.0156528 0.0468949
vn -0.941588 0.281865 0.184293
v -0.0552189 0.019198 0.0239753
vn -0.941588 0.281865 0.184293
v -0.0179011 -0.00556183 0.101304
vn -0.572109 0.127112 0.810268
v -0.0104141 -0.00388292 0.106327
vn -0.572109 0.127112 0.810268
v -0.0220442 0.0152448 0.0951146
vn -0.572109 0.127112 0.810268
v 0.00814085 -0.0163699 0.114828
vn -0.518115 -0.20449 0.830506
v -0.0104141 -0.00388292 0.106327
vn -0.518115 -0.20449 0.830506
v -0.00731597 -0.0226739 0.103633
vn -0.518115 -0.20449 0.830506
v 0.0128062 0.0560593 0.0835084
vn -0.258043 0.779117 0.571306
v 0.0111628 0.0440186 0.0991866
vn -0.258043 0.779117 0.571306
v 0.0245552 0.052307 0.0939323
vn -0.258043 0.779117 0.571306
v 0.0111628 0.0440186 0.0991866
vn -0.449101 0.593867 0.667555
v -0.0104004 0.032319 0.095088
vn -0.449101 0.593867 0.667555
v 0.00351659 0.030555 0.10602
vn -0.449101 0.593867 0.667555
v 0.5 0.0361061 0.0348163
vn 0.988466 0.0971205 -0.116204
v 0.504215 0.0271965 0.0632239
vn 0.988466 0.0971205 -0.116204
v 0.504074 0.00306009 0.0418517
vn 0.988466 0.0971205 -0.116204
v -0.0393333 -0.0378606 0.0527908
vn -0.799356 -0.428278 0.421435
v -0.0307582 -0.0270536 0.0800381
vn -0.799356 -0.428278 0.421435
v -0.0464502 -0.0189608 0.0584985
vn -0.799356 -0.428278 0.421435
v 0.0402908 0.00663097 0.126093
vn -0.220152 0.248025 0.943407
v 0.0417532 0.0170198 0.123703
vn -0.220152 0.248025 0.943407
v 0.022022 0.0229747 0.117533
vn -0.220152 0.248025 0.943407
v 0.49 0.0496119 0.101529
vn 0.749702 0.437241 0.496756
v 0.49 0.0308285 0.118062
vn 0.749702 0.437241 0.496756
v 0.5 0.0419083 0.0932177
vn 0.749702 0.437241 0.496756
v -0.0104141 -0.00388292 0.106327
vn -0.4984 0.0673141 0.86433
v 0.00762133 0.00135316 0.116319
vn -0.4984 0.0673141 0.86433
v -0.00156624 0.0147733 0.109976
vn -0.4984 0.0673141 0.86433
v 0.00172873 -0.0362816 0.101822
vn -0.289595 -0.668691 0.684826
v 0.00756446 -0.0466049 0.0942097
vn -0.289595 -0.668691 0.684826
v 0.0223192 -0.0377473 0.109098
vn -0.289595 -0.668691 0.684826
v 0.00811877 -0.0580654 0.0763921
vn -0.00237893 -0.999996 0.00118589
v -0.00774505 -0.0581069 0.00957413
vn -0.00237893 -0.999996 0.00118589
v 0.49 -0.0592247 0.0654841
vn -0.00237893 -0.999996 0.00118589
v -0.0307582 -0.0270536 0.0800381
vn -0.597119 -0.586104 0.547659
v -0.0131917 -0.0460804 0.0788286
vn -0.597119 -0.586104 0.547659
v -0.0140939 -0.0331206 0.0917145
vn -0.597119 -0.586104 0.547659
v -0.0470995 0.0298926 0.0437985
vn -0.919221 0.344511 0.190641
v -0.0552189 0.019198 0.0239753
vn -0.919221 0.344511 0.190641
v -0.0517942 0.0156528 0.0468949
vn -0.919221 0.344511 0.190641
v 0.00172873 -0.0362816 0.101822
vn -0.504745 -0.626091 0.594342
v -0.0140939 -0.0331206 0.0917145
vn -0.504745 -0.626091 0.594342
v -0.0131917 -0.0460804 0.0788286
vn -0.504745 -0.626091 0.594342
v 0.033137 -0.0441514 0.106983
vn 0.00197278 -0.721927 0.691967
v 0.49 -0.0487105 0.100924
vn 0.00197278 -0.721927 0.691967
v 0.49 -0.0331943 0.117112
vn 0.00197278 -0.721927 0.691967
v 0.0274317 -0.00700566 0.123409
vn -0.164128 -0.232126 0.958738
v 0.0268551 -0.0233461 0.119354
vn -0.164128 -0.232126 0.958738
v 0.0442226 -0.00840775 0.125944
vn -0.164128 -0.232126 0.958738
v 0.033137 -0.0441514 0.106983
vn -0.272482 -0.683817 0.676866
v 0.0223192 -0.0377473 0.109098
vn -0.272482 -0.683817 0.676866
v 0.00756446 -0.0466049 0.0942097
vn -0.272482 -0.683817 0.676866
v 0.49 0.00502656 0.00893522
vn 0.0204541 -0.00765576 -0.999761
v -0.00400273 -0.0461275 -0.00077986
vn 0.0204541 -0.00765576 -0.999761
v 0.0535059 0.01398 -6.35698e-05
vn 0.0204541 -0.00765576 -0.999761
v -0.0220442 0.0152448 0.0951146
vn -0.543775 0.372001 0.752279
v 0.00351659 0.030555 0.10602
vn -0.543775 0.372001 0.752279
v -0.0104004 0.032319 0.095088
vn -0.543775 0.372001 0.752279
v -0.0393333 -0.0378606 0.0527908
vn -0.650965 -0.72638 0.22049
v -0.0297926 -0.0507025 0.0386521
vn -0.650965 -0.72638 0.22049
v -0.025947 -0.0497937 0.0529996
vn -0.650965 -0.72638 0.22049
v -0.0307582 -0.0270536 0.0800381
vn -0.553419 -0.550668 0.624894
v -0.0245054 -0.042502 0.0719623
vn -0.553419 -0.550668 0.624894
v -0.0131917 -0.0460804 0.0788286
vn -0.553419 -0.550668 0.624894
v 0.5 -0.0159533 0.115788
vn 0.778995 -0.415783 0.469352
v 0.49 -0.0331943 0.117112
vn 0.778995 -0.415783 0.469352
v 0.5 -0.0392857 0.0951186
vn 0.778995 -0.415783 0.469352
v -0.0464505 0.0187311 -5.15233e-05
vn 0.000426485 0.011508 -0.999934
v 0.0535059 0.01398 -6.35698e-05
vn 0.000426485 0.011508 -0.999934
v -0.00400273 -0.0461275 -0.00077986
vn 0.000426485 0.011508 -0.999934
v -0.0197139 0.0529255 0.0593031
vn -0.384635 0.837321 0.388522
v -0.00817595 0.0475249 0.0823647
vn -0.384635 0.837321 0.388522
v -0.0089917 0.0578812 0.0592378
vn -0.384635 0.837321 0.388522
v -0.0568473 -0.0155618 0.0100625
vn -0.912073 -0.409793 0.0138367
v -0.0532783 -0.0235074 0.01
vn -0.912073 -0.409793 0.0138367
v -0.0553915 -0.0183298 0.0240462
vn -0.912073 -0.409793 0.0138367
v -0.0197139 0.0529255 0.0593031
vn -0.669096 0.684805 0.288709
v -0.0382719 0.0438711 0.0377708
vn -0.669096 0.684805 0.288709
v -0.0356013 0.0361129 0.0623621
vn -0.669096 0.684805 0.288709
v -0.0464505 0.0187311 -5.15233e-05
vn -0.630012 -0.00389496 -0.776576
v -0.0462331 -0.0155194 -5.61083e-05
vn -0.630012 -0.00389496 -0.776576
v -0.0586965 0.0015571 0.00996941
vn -0.630012 -0.00389496 -0.776576
v -0.0197139 0.0529255 0.0593031
vn -0.60434 0.772204 0.196147
v -0.0267916 0.0529597 0.0373617
vn -0.60434 0.772204 0.196147
v -0.0382719 0.0438711 0.0377708
vn -0.60434 0.772204 0.196147
v 0.0308913 0.0331734 0.115337
vn -0.180065 0.354189 0.917675
v 0.022022 0.0229747 0.117533
vn -0.180065 0.354189 0.917675
v 0.0417532 0.0170198 0.123703
vn -0.180065 0.354189 0.917675
v 0.49 0.0076094 0.127394
vn -0.000292708 0.353029 0.935612
v 0.0494172 0.0245343 0.12087
vn -0.000292708 0.353029 0.935612
v 0.0417532 0.0170198 0.123703
vn -0.000292708 0.353029 0.935612
v -0.0179011 -0.00556183 0.101304
vn -0.716062 0.0641818 0.69508
v -0.0220442 0.0152448 0.0951146
vn -0.716062 0.0641818 0.69508
v -0.035803 0.00475682 0.0819089
vn -0.716062 0.0641818 0.69508
v -0.0574054 -0.00723553 0.0344421
vn -0.963162 0.0805928 0.256563
v -0.0509886 0.00280822 0.0553764
vn -0.963162 0.0805928 0.256563
v -0.0579752 0.00759049 0.0276458
vn -0.963162 0.0805928 0.256563
v 0.49 -0.0395611 0.0230501
vn 0.71169 -0.58202 -0.393384
v 0.5 -0.0376518 0.0383167
vn 0.71169 -0.58202 -0.393384
v 0.49 -0.0535743 0.0437829
vn 0.71169 -0.58202 -0.393384
v -0.0462331 -0.0155194 -5.61083e-05
vn -0.602426 -0.363348 -0.710676
v -0.0441968 -0.0385953 0.0100158
vn -0.602426 -0.363348 -0.710676
v -0.0532783 -0.0235074 0.01
vn -0.602426 -0.363348 -0.710676
v -0.047669 0.0360023 0.01
vn -0.617879 0.786115 -0.0157433
v -0.0267916 0.0529597 0.0373617
vn -0.617879 0.786115 -0.0157433
v -0.0273872 0.0519436 0.01
vn -0.617879 0.786115 -0.0157433
v -0.0574054 -0.00723553 0.0344421
vn -0.917193 -0.284385 0.279075
v -0.0506812 -0.0265791 0.0368299
vn -0.917193 -0.284385 0.279075
v -0.0464502 -0.0189608 0.0584985
vn -0.917193 -0.284385 0.279075
v -0.0197139 0.0529255 0.0593031
vn -0.621163 0.663004 0.41783
v -0.0356013 0.0361129 0.0623621
vn -0.621163 0.663004 0.41783
v -0.0214259 0.0377282 0.0808727
vn -0.621163 0.663004 0.41783
v 0.0402908 0.00663097 0.126093
vn -0.216653 0.251832 0.943208
v 0.022022 0.0229747 0.117533
vn -0.216653 0.251832 0.943208
v 0.0182044 0.00893359 0.120405
vn -0.216653 0.251832 0.943208
v 0.033137 -0.0441514 0.106983
vn -0.249544 -0.727338 0.639302
v 0.00756446 -0.0466049 0.0942097
vn -0.249544 -0.727338 0.639302
v 0.0208284 -0.0540644 0.0909004
vn -0.249544 -0.727338 0.639302
v -0.0220442 0.0152448 0.0951146
vn -0.612698 0.418876 0.670182
v -0.0104004 0.032319 0.095088
vn -0.612698 0.418876 0.670182
v -0.0291398 0.0216381 0.0846317
vn -0.612698 0.418876 0.670182
v 0.49 0.0076094 0.127394
vn 0.000586092 0.372919 0.927864
v 0.49 0.0308285 0.118062
vn 0.000586092 0.372919 0.927864
v 0.0494172 0.0245343 0.12087
vn 0.000586092 0.372919 0.927864
v -0.0393333 -0.0378606 0.0527908
vn -0.633383 -0.70493 0.319217
v -0.025947 -0.0497937 0.0529996
vn -0.633383 -0.70493 0.319217
v -0.0245054 -0.042502 0.0719623
vn -0.633383 -0.70493 0.319217
v 0.033137 -0.0441514 0.106983
vn -0.171914 -0.558418 0.811551
v 0.0397823 -0.0305495 0.11775
vn -0.171914 -0.558418 0.811551
v 0.0223192 -0.0377473 0.109098
vn -0.171914 -0.558418 0.811551
v 0.00811877 -0.0580654 0.0763921
vn 0.00145422 -0.985616 0.168994
v 0.49 -0.0592247 0.0654841
vn 0.00145422 -0.985616 0.168994
v 0.49 -0.0558601 0.0851073
vn 0.00145422 -0.985616 0.168994
v -0.0393333 -0.0378606 0.0527908
vn -0.853796 -0.416024 0.312979
v -0.0464502 -0.0189608 0.0584985
vn -0.853796 -0.416024 0.312979
v -0.0506812 -0.0265791 0.0368299
vn -0.853796 -0.416024 0.312979
v 0.0442226 -0.00840775 0.125944
vn -0.000902549 -0.277854 0.960623
v 0.0476623 -0.0209067 0.122332
vn -0.000902549 -0.277854 0.960623
v 0.49 -0.0147202 0.124537
vn -0.000902549 -0.277854 0.960623
v 0.0274317 -0.00700566 0.123409
vn -0.368585 -0.0886527 0.925357
v 0.00762133 0.00135316 0.116319
vn -0.368585 -0.0886527 0.925357
v 0.00814085 -0.0163699 0.114828
vn -0.368585 -0.0886527 0.925357
v -0.0267916 0.0529597 0.0373617
vn -0.299768 0.953575 -0.0288865
v -0.00781703 0.0580815 0.00953064
vn -0.299768 0.953575 -0.0288865
v -0.0273872 0.0519436 0.01
vn -0.299768 0.953575 -0.0288865
v -0.0464505 0.0187311 -5.15233e-05
vn -0.00494276 0.000102491 -0.999988
v -0.0276508 -0.0400649 -0.000150473
vn -0.00494276 0.000102491 -0.999988
v -0.0462331 -0.0155194 -5.61083e-05
vn -0.00494276 0.000102491 -0.999988
v -0.0579752 0.00759049 0.0276458
vn -0.958826 0.112148 0.260912
v -0.0509886 0.00280822 0.0553764
vn -0.958826 0.112148 0.260912
v -0.0517942 0.0156528 0.0468949
vn -0.958826 0.112148 0.260912
v 0.49 0.0076094 0.127394
vn 0.00133362 -0.126912 0.991913
v 0.0442226 -0.00840775 0.125944
vn 0.00133362 -0.126912 0.991913
v 0.49 -0.0147202 0.124537
vn 0.00133362 -0.126912 0.991913
v 0.50552 -0.000229363 0.0934035
vn 0.987565 -0.136123 0.0786461
v 0.5 -0.0392857 0.0951186
vn 0.987565 -0.136123 0.0786461
v 0.504693 -0.0253263 0.0603499
vn 0.987565 -0.136123 0.0786461
v -0.047669 0.0360023 0.01
vn -0.913516 0.40678 -0.00438691
v -0.0555657 0.0182707 0.0102068
vn -0.913516 0.40678 -0.00438691
v -0.0552189 0.019198 0.0239753
vn -0.913516 0.40678 -0.00438691
v -0.0393333 -0.0378606 0.0527908
vn -0.807741 -0.562414 0.176763
v -0.0506812 -0.0265791 0.0368299
vn -0.807741 -0.562414 0.176763
v -0.04257 -0.0400414 0.0310615
vn -0.807741 -0.562414 0.176763
v -0.00817595 0.0475249 0.0823647
vn -0.509734 0.594734 0.621662
v -0.0214259 0.0377282 0.0808727
vn -0.509734 0.594734 0.621662
v -0.0104004 0.032319 0.095088
vn -0.509734 0.594734 0.621662
v 0.5 0.0419083 0.0932177
vn 0.776025 0.615397 0.138099
v 0.5 0.048643 0.0632065
vn 0.776025 0.615397 0.138099
v 0.49 0.0579477 0.0779362
vn 0.776025 0.615397 0.138099
v 0.022022 0.0229747 0.117533
vn -0.392167 0.340515 0.854549
v 0.00351659 0.030555 0.10602
vn -0.392167 0.340515 0.854549
v -0.00156624 0.0147733 0.109976
vn -0.392167 0.340515 0.854549
v 0.00172873 -0.0362816 0.101822
vn -0.428732 -0.393216 0.81337
v 0.00814085 -0.0163699 0.114828
vn -0.428732 -0.393216 0.81337
v -0.00731597 -0.0226739 0.103633
vn -0.428732 -0.393216 0.81337
v 0.033137 -0.0441514 0.106983
vn -0.00151985 -0.850759 0.525554
v 0.0208284 -0.0540644 0.0909004
vn -0.00151985 -0.850759 0.525554
v 0.49 -0.0487105 0.100924
vn -0.00151985 -0.850759 0.525554
v 0.0208284 -0.0540644 0.0909004
vn 0.00159834 -0.911227 0.411901
v 0.49 -0.0558601 0.0851073
vn 0.00159834 -0.911227 0.411901
v 0.49 -0.0487105 0.100924
vn 0.00159834 -0.911227 0.411901
v 0.00814085 -0.0163699 0.114828
vn -0.463128 -0.087771 0.881935
v 0.00762133 0.00135316 0.116319
vn -0.463128 -0.087771 0.881935
v -0.0104141 -0.00388292 0.106327
vn -0.463128 -0.087771 0.881935
v 0.00172873 -0.0362816 0.101822
vn -0.359656 -0.426322 0.829998
v 0.0268551 -0.0233461 0.119354
vn -0.359656 -0.426322 0.829998
v 0.00814085 -0.0163699 0.114828
vn -0.359656 -0.426322 0.829998
v -0.0509886 0.00280822 0.0553764
vn -0.904632 -0.130405 0.405752
v -0.0464502 -0.0189608 0.0584985
vn -0.904632 -0.130405 0.405752
v -0.0425208 -0.00579851 0.0714894
vn -0.904632 -0.130405 0.405752
v 0.50552 -0.000229363 0.0934035
vn 0.999607 0.00367886 -0.0278038
v 0.504693 -0.0253263 0.0603499
vn 0.999607 0.00367886 -0.0278038
v 0.504074 0.00306009 0.0418517
vn 0.999607 0.00367886 -0.0278038
v -0.0356013 0.0361129 0.0623621
vn -0.754735 0.428004 0.49718
v -0.0421841 0.0200438 0.0662025
vn -0.754735 0.428004 0.49718
v -0.0291398 0.0216381 0.0846317
vn -0.754735 0.428004 0.49718
v 0.0308913 0.0331734 0.115337
vn -0.206581 0.676652 0.706729
v 0.0321627 0.046848 0.102616
vn -0.206581 0.676652 0.706729
v 0.0111628 0.0440186 0.0991866
vn -0.206581 0.676652 0.706729
v -0.0503186 -0.0296715 0.0248424
vn -0.855948 -0.515246 -0.0433
v -0.0532783 -0.0235074 0.01
vn -0.855948 -0.515246 -0.0433
v -0.0441968 -0.0385953 0.0100158
vn -0.855948 -0.515246 -0.0433
v -0.0393333 -0.0378606 0.0527908
vn -0.68962 -0.703132 0.173291
v -0.04257 -0.0400414 0.0310615
vn -0.68962 -0.703132 0.173291
v -0.0297926 -0.0507025 0.0386521
vn -0.68962 -0.703132 0.173291
v 0.00811877 -0.0580654 0.0763921
vn -0.363166 -0.873934 0.323032
v -0.0111195 -0.0540651 0.0655861
vn -0.363166 -0.873934 0.323032
v -0.0105965 -0.0579788 0.0555859
vn -0.363166 -0.873934 0.323032
v 0.00811877 -0.0580654 0.0763921
vn -0.00722426 -0.999971 0.00233624
v -0.0105965 -0.0579788 0.0555859
vn -0.00722426 -0.999971 0.00233624
v -0.00774505 -0.0581069 0.00957413
vn -0.00722426 -0.999971 0.00233624
v -0.0220442 0.0152448 0.0951146
vn -0.752602 0.195649 0.628738
v -0.0291398 0.0216381 0.0846317
vn -0.752602 0.195649 0.628738
v -0.035803 0.00475682 0.0819089
vn -0.752602 0.195649 0.628738
v -0.0479802 0.033487 0.02972
vn -0.905013 0.395152 0.157501
v -0.0552189 0.019198 0.0239753
vn -0.905013 0.395152 0.157501
v -0.0470995 0.0298926 0.0437985
vn -0.905013 0.395152 0.157501
v 0.49 0.0496119 0.101529
vn -0.00383237 0.845084 0.534619
v 0.0245552 0.052307 0.0939323
vn -0.00383237 0.845084 0.534619
v 0.0321627 0.046848 0.102616
vn -0.00383237 0.845084 0.534619
v -0.0316533 -0.0506038 0.00999077
vn -0.484152 -0.504231 -0.715086
v -0.0441968 -0.0385953 0.0100158
vn -0.484152 -0.504231 -0.715086
v -0.0276508 -0.0400649 -0.000150473
vn -0.484152 -0.504231 -0.715086
v 0.0397823 -0.0305495 0.11775
vn -0.191884 -0.528497 0.826965
v 0.0268551 -0.0233461 0.119354
vn -0.191884 -0.528497 0.826965
v 0.0223192 -0.0377473 0.109098
vn -0.191884 -0.528497 0.826965
v 0.0402908 0.00663097 0.126093
vn -0.24522 0.0405922 0.968617
v 0.0182044 0.00893359 0.120405
vn -0.24522 0.0405922 0.968617
v 0.0274317 -0.00700566 0.123409
vn -0.24522 0.0405922 0.968617
v 0.5 -0.05012 0.0665513
vn 0.973998 -0.20725 -0.0915202
v 0.5 -0.0376518 0.0383167
vn 0.973998 -0.20725 -0.0915202
v 0.504693 -0.0253263 0.0603499
vn 0.973998 -0.20725 -0.0915202
v 0.0308913 0.0331734 0.115337
vn -0.0753692 0.41815 0.905246
v 0.0417532 0.0170198 0.123703
vn -0.0753692 0.41815 0.905246
v 0.0494172 0.0245343 0.12087
vn -0.0753692 0.41815 0.905246
v 0.0268551 -0.0233461 0.119354
vn -0.10034 -0.30161 0.948137
v 0.0476623 -0.0209067 0.122332
vn -0.10034 -0.30161 0.948137
v 0.0442226 -0.00840775 0.125944
vn -0.10034 -0.30161 0.948137
v 0.0182044 0.00893359 0.120405
vn -0.433851 0.124729 0.892309
v -0.00156624 0.0147733 0.109976
vn -0.433851 0.124729 0.892309
v 0.00762133 0.00135316 0.116319
vn -0.433851 0.124729 0.892309
v 0.5 -0.0159533 0.115788
vn 0.802801 0.0479734 0.594314
v 0.5 0.019044 0.112963
vn 0.802801 0.0479734 0.594314
v 0.49 0.0076094 0.127394
vn 0.802801 0.0479734 0.594314
f 1//1 2//2 3//3
f 4//4 5//5 6//6
f 7//7 8//8 9//9
f 10//10 11//11 12//12
f 13//13 14//14 15//15
f 16//16 17//17 18//18
f 19//19 20//20 21//21
f 22//22 23//23 24//24
f 25//25 26//26 27//27
f 28//28 29//29 30//30
f 31//31 32//32 33//33
f 34//34 35//35 36//36
f 37//37 38//38 39//39
f 40//40 41//41 42//42
f 43//43 44//44 45//45
f 46//46 47//47 48//48
f 49//49 50//50 51//51
f 52//52 53//53 54//54
f 55//55 56//56 57//57
f 58//58 59//59 60//60
f 61//61 62//62 63//63
f 64//64 65//65 66//66
f 67//67 68//68 69//69
f 70//70 71//71 72//72
f 73//73 74//74 75//75
f 76//76 77//77 78//78
f 79//79 80//80 81//81
f 82//82 83//83 84//84
f 85//85 86//86 87//87
f 88//88 89//89 90//90
f 91//91 92//92 93//93
f 94//94 95//95 96//96
f 97//97 98//98 99//99
f 100//100 101//101 102//102
f 103//103 104//104 105//105
f 106//106 107//107 108//108
f 109//109 110//110 111//111
f 112//112 113//113 114//114
f 115//115 116//116 117//117
f 118//118 119//119 120//120
f 121//121 122//122 123//123
f 124//124 125//125 126//126
f 127//127 128//128 129//129
f 130//130 131//131 132//132
f 133//133 134//134 135//135
f 136//136 137//137 138//138
f 139//139 140//140 141//141
f 142//142 143//143 144//144
f 145//145 146//146 147//147
f 148//148 149//149 150//150
f 151//151 152//152 153//153
f 154//154 155//155 156//156
f 157//157 158//158 159//159
f 160//160 161//161 162//162
f 163//163 164//164 165//165
f 166//166 167//167 168//168
f 169//169 170//170 171//171
f 172//172 173//173 174//174
f 175//175 176//176 177//177
f 178//178 179//179 180//180
f 181//181 182//182 183//183
f 184//184 185//185 186//186
f 187//187 188//188 189//189
f 190//190 191//191 192//192
f 193//193 194//194 195//195
f 196//196 197//197 198//198
f 199//199 200//200 201//201
f 202//202 203//203 204//204
f 205//205 206//206 207//207
f 208//208 209//209 210//210
f 211//211 212//212 213//213
f 214//214 215//215 216//216
f 217//217 218//218 219//219
f 220//220 221//221 222//222
f 223//223 224//224 225//225
f 226//226 227//227 228//228
f 229//229 230//230 231//231
f 232//232 233//233 234//234
f 235//235 236//236 237//237
f 238//238 239//239 240//240
f 241//241 242//242 243//243
f 244//244 245//245 246//246
f 247//247 248//248 249//249
f 250//250 251//251 252//252
f 253//253 254//254 255//255
f 256//256 257//257 258//258
f 259//259 260//260 261//261
f 262//262 263//263 264//264
f 265//265 266//266 267//267
f 268//268 269//269 270//270
f 271//271 272//272 273//273
f 274//274 275//275 276//276
f 277//277 278//278 279//279
f 280//280 281//281 282//282
f 283//283 284//284 285//285
f 286//286 287//287 288//288
f 289//289 290//290 291//291
f 292//292 293//293 294//294
f 295//295 296//296 297//297
f 298//298 299//299 300//300
f 301//301 302//302 303//303
f 304//304 305//305 306//306
f 307//307 308//308 309//309
f 310//310 311//311 312//312
f 313//313 314//314 315//315
f 316//316 317//317 318//318
f 319//319 320//320 321//321
f 322//322 323//323 324//324
f 325//325 326//326 327//327
f 328//328 329//329 330//330
f 331//331 332//332 333//333
f 334//334 335//335 336//336
f 337//337 338//338 339//339
f 340//340 341//341 342//342
f 343//343 344//344 345//345
f 346//346 347//347 348//348
f 349//349 350//350 351//351
f 352//352 353//353 354//354
f 355//355 356//356 357//357
f 358//358 359//359 360//360
f 361//361 362//362 363//363
f 364//364 365//365 366//366
f 367//367 368//368 369//369
f 370//370 371//371 372//372
f 373//373 374//374 375//375
f 376//376 377//377 378//378
f 379//379 380//380 381//381
f 382//382 383//383 384//384
f 385//385 386//386 387//387
f 388//388 389//389 390//390
f 391//391 392//392 393//393
f 394//394 395//395 396//396
f 397//397 398//398 399//399
f 400//400 401//401 402//402
f 403//403 404//404 405//405
f 406//406 407//407 408//408
f 409//409 410//410 411//411
f 412//412 413//413 414//414
f 415//415 416//416 417//417
f 418//418 419//419 420//420
f 421//421 422//422 423//423
f 424//424 425//425 426//426
f 427//427 428//428 429//429
f 430//430 431//431 432//432
f 433//433 434//434 435//435
f 436//436 437//437 438//438
f 439//439 440//440 441//441
f 442//442 443//443 444//444
f 445//445 446//446 447//447
f 448//448 449//449 450//450
f 451//451 452//452 453//453
f 454//454 455//455 456//456
f 457//457 458//458 459//459
f 460//460 461//461 462//462
f 463//463 464//464 465//465
f 466//466 467//467 468//468
f 469//469 470//470 471//471
f 472//472 473//473 474//474
f 475//475 476//476 477//477
f 478//478 479//479 480//480
f 481//481 482//482 483//483
f 484//484 485//485 486//486
f 487//487 488//488 489//489
f 490//490 491//491 492//492
f 493//493 494//494 495//495
f 496//496 497//497 498//498
f 499//499 500//500 501//501
f 502//502 503//503 504//504
f 505//505 506//506 507//507
f 508//508 509//509 510//510
f 511//511 512//512 513//513
f 514//514 515//515 516//516
f 517//517 518//518 519//519
f 520//520 521//521 522//522
f 523//523 524//524 525//525
f 526//526 527//527 528//528
f 529//529 530//530 531//531
f 532//532 533//533 534//534
f 535//535 536//536 537//537
f 538//538 539//539 540//540
f 541//541 542//542 543//543
f 544//544 545//545 546//546
f 547//547 548//548 549//549
f 550//550 551//551 552//552
f 553//553 554//554 555//555
f 556//556 557//557 558//558
f 559//559 560//560 561//561
f 562//562 563//563 564//564
f 565//565 566//566 567//567
f 568//568 569//569 570//570
f 571//571 572//572 573//573
f 574//574 575//575 576//576
f 577//577 578//578 579//579
f 580//580 581//581 582//582
f 583//583 584//584 585//585
f 586//586 587//587 588//588
f 589//589 590//590 591//591
f 592//592 593//593 594//594
f 595//595 596//596 597//597
f 598//598 599//599 600//600
f 601//601 602//602 603//603
f 604//604 605//605 606//606
f 607//607 608//608 609//609
f 610//610 611//611 612//612
f 613//613 614//614 615//615
f 616//616 617//617 618//618
f 619//619 620//620 621//621
f 622//622 623//623 624//624
f 625//625 626//626 627//627
f 628//628 629//629 630//630
f 631//631 632//632 633//633
f 634//634 635//635 636//636
f 637//637 638//638 639//639
f 640//640 641//641 642//642
f 643//643 644//644 645//645
f 646//646 647//647 648//648
f 649//649 650//650 651//651
f 652//652 653//653 654//654
